/* XPM */
static char *_d5a30045e984750bedb8e2d11022159lwhHyuK0EZ0GJq86[] = {
/* columns rows colors chars-per-pixel */
"64 64 155 2 ",
"   c #19191C",
".  c #2B1D0C",
"X  c #261916",
"o  c #2C1C14",
"O  c #251B1D",
"+  c #2C1A1B",
"@  c #321C13",
"#  c #352E16",
"$  c #171420",
"%  c #1D1D25",
"&  c #1F1D2A",
"*  c #1B1D31",
"=  c #221C26",
"-  c #211D2B",
";  c #2A1D2B",
":  c #241E30",
">  c #1E202B",
",  c #1F2123",
"<  c #24222D",
"1  c #2A222C",
"2  c #272626",
"3  c #38232B",
"4  c #2E2832",
"5  c #242230",
"6  c #362A36",
"7  c #442E38",
"8  c #43383F",
"9  c #4C3C3D",
"0  c #73493B",
"q  c #7B5928",
"w  c #463F47",
"e  c #584B48",
"r  c #534949",
"t  c #4E4D52",
"y  c #4F4F5D",
"u  c #56555E",
"i  c #5D5759",
"p  c #595563",
"a  c #595764",
"s  c #865E27",
"d  c #855F4F",
"f  c #875358",
"g  c #BA5A5A",
"h  c #BE6464",
"j  c #BD8127",
"k  c #DF970D",
"l  c #D69B0C",
"z  c #DE9511",
"x  c #D6921D",
"c  c #DB921F",
"v  c #E3940D",
"b  c #E1980B",
"n  c #E59B14",
"m  c #EAA41F",
"M  c #F3A51E",
"N  c #C08B23",
"B  c #D38F23",
"V  c #D59326",
"C  c #DA9426",
"Z  c #DD9B26",
"A  c #D0902B",
"S  c #DA952B",
"D  c #D9992A",
"F  c #DB9933",
"G  c #E29D26",
"H  c #E79927",
"J  c #D7A12E",
"K  c #DBA434",
"L  c #E4A226",
"P  c #EBA625",
"I  c #ECA826",
"U  c #ECA62A",
"Y  c #EBAA29",
"T  c #F1A622",
"R  c #F0A728",
"E  c #E7A936",
"W  c #E5B13F",
"Q  c #E8B23F",
"!  c #AB8344",
"~  c #BCA479",
"^  c #EAAE42",
"/  c #E5B140",
"(  c #EDB052",
")  c #F5BC5E",
"_  c #DD9B6D",
"`  c #DF9673",
"'  c #DD9C73",
"]  c #E09C6E",
"[  c #E29B73",
"{  c #C1A776",
"}  c #C1A974",
"|  c #E0AD6C",
" . c #EFBE60",
".. c #F1A37C",
"X. c #F6CD69",
"o. c #F5C575",
"O. c #F4CB75",
"+. c #F3CA7A",
"@. c #F2C77C",
"#. c #852D8E",
"$. c #B726A6",
"%. c #BF22AC",
"&. c #BF25BA",
"*. c #BE38B6",
"=. c #BF38B8",
"-. c #C41FAD",
";. c #C421A5",
":. c #C521AC",
">. c #C524B1",
",. c #C72CB3",
"<. c #C82FB3",
"1. c #CB3BB9",
"2. c #C835B6",
"3. c #C842BC",
"4. c #CE4CC3",
"5. c #D157C7",
"6. c #D25CCA",
"7. c #D45DC2",
"8. c #CF6AC7",
"9. c #D565CE",
"0. c #D76CCF",
"q. c #D864C1",
"w. c #E06FCE",
"e. c #D19F83",
"r. c #D0A286",
"t. c #D4A68B",
"y. c #EEBD96",
"u. c #EEBE99",
"i. c #F2BD96",
"p. c #F1BD9A",
"a. c #F9BA93",
"s. c #E9BEA7",
"d. c #E7BEA9",
"f. c #F7C681",
"g. c #F1C880",
"h. c #F6C099",
"j. c #E5C0A8",
"k. c #E6C5B9",
"l. c #EADEEE",
"z. c #E9D7F0",
"x. c #EDDDF2",
"c. c #EFDBF4",
"v. c #EFDBF6",
"b. c #EFDDF5",
"n. c #EFDBF6",
"m. c #EDDCF8",
"M. c #F0DBF4",
"N. c #F2DBF5",
"B. c #F1DCF8",
"V. c #F1DDF8",
"C. c #F1DCF8",
"Z. c #F4E4FA",
"A. c #F6E9FB",
"S. c #FCFBFE",
"D. c #FDFDFD",
/* pixels */
"h h h h h h h h h h h h h h h h h h h h h h h h h h h h h h h h h h h h h h h h h h h h h h h h h h h h h h h h h h h h h h h h ",
"h h h h h h h h h h h h h h h h h h h h h h h h h h h h h h h h h h h h h h h h h h h h h h h h h h h h h h h h h h h h h h h h ",
"h h h h h h h h h h h h h h h h h h h h h h h h h h h h h h h h h h h h h h h h h h h h h h h h h h h h h h h h h h h h h h h h ",
"h h h h h h h h h h h h h h h h h h h h h h h h h h h h h h h h h h h h h h h h h h h h h h h h h h h h h h h h h h h h h h h h ",
"h h h h h h h h h h h h h h h h h h h h h h h h h h h h h h h h h h h h h h h h h h h h h h h h h h h h h h h h h h h h h h h h ",
"h h h h h h h h h h h h h h h h h h h h h h h h h h h % % - & % & & & % % h h h h h h h h h h h h h h h h h h h h h h h h h h h ",
"h h h h h h h h h h h h h h h h h h h h h h h h h h h -   & - - - & - % & h h h h h h h h h h h h h h h h h h h h h h h h h h h ",
"h h h h h h h h h h h h h h h h h h h h h h h h - = = +.+.+.+.+.O.+.+.+.O.= - - h h h h h h h h h h h h h h h h h h h h h h h h ",
"h h h h h h h h h h h h h h h h h h h h h h y r } } } W W / / ^ D K / / Q ! ! ~ e t h h h h h h h h h h h h h h h h h h h h h h ",
"h h h h h h h h h h h h h h h h h h h h h h : + @.+.O.m I I I Y n v I R I I I +.o < h h h h h h h h h h h h h h h h h h h h h h ",
"h h h h h h h h h h h h h h h h h h h h % * f. .M T M T I I n P L I n I I T M I @.o.- - h h h h h h h h h h h h h h h h h h h h ",
"h h h h h h h h h h h h h h h h h h h h - & @.X.I I I I I I P I I I I I T I I I o.+.- & h h h h h h h h h h h h h h h h h h h h ",
"h h h h h h h h h h h h h h h h h h h h & - R I I I I I I P B P I I I I I P k I I I * % h h h h h h h h h h h h h h h h h h h h ",
"h h h h h h h h h h h h h h h h h h h h & - P I I I I I I P I P I I I I I I I I I T * & h h h h h h h h h h h h h h h h h h h h ",
"h h h h h h h h h h h h h h h h h h h h & & U I I I P I I I I I I I I I P I I L I I & % h h h h h h h h h h h h h h h h h h h h ",
"h h h h h h h h h h h h h h h h h h h h & & P P H I I I S I I E I P G P I I S I I I * > h h h h h h h h h h h h h h h h h h h h ",
"h h h h h h h h h h h h h h h h h h h h & & I I G I I S I I I I I I L C I U I I L I & & h h h h h h h h h h h h h h h h h h h h ",
"h h h h h h h h h h h h h h h h h h h h % 4 P I I I I I I I I I I I I D P I I I L P * & h h h h h h h h h h h h h h h h h h h h ",
"h h h h h h h h h h h h h h h h h h h h - y I I I I I P I I ( I I I P I I I I I I I % - h h h h h h h h h h h h h h h h h h h h ",
"h h h h h h h h h h h h h h h h h h h & - * ^ U I I I P L I I I I I I P P U V I I K ; - - h h h h h h h h h h h h h h h h h h h ",
"h h h h h h h h h h h h h h h h h h h u ) ) k V I I I P G I I I I I U Y I I P I G v E L 5 h h h h h h h h h h h h h h h h h h h ",
"h h h h h h h h h h h h h h h h h h h    .E b B I I P I P I I P I I I G G C I I C b P L & h h h h h h h h h h h h h h h h h h h ",
"h h h h h h h h h h h h h h h h h h h p l b C k G C C C S S C G C C S C C G P P b b v z a h h h h h h h h h h h h h h h h h h h ",
"h h h h h h h h h h h h h h h h h h h 2 A j x x x # j C C Z C C C C C C S q = C C C S S & h h h h h h h h h h h h h h h h h h h ",
"h h h h h h h h h h h h h h h h h h h h - ; ; : & M.b.> & V C C S C C B s v.m.& - & - - h h h h h h h h h h h h h h h h h h h h ",
"h h h h h h h h h h h h h h h h h h h h h h - % D.m.V.x.x.S S S F | x.x.x.m.A.S.% * h h h h h h h h h h h h h h h h h h h h h h ",
"h h h h h h h h h h h h h h h h h h h h h h &   D.V.Z.m.v.v.v.v.N.v.c.v.b.M.D.D.% - h h h h h h h h h h h h h h h h h h h h h h ",
"h h h h h h h h h h h h h h h h h h h h h h &   D.< & V.C.V.N.C.C.V.N.V.A.& % S.% & h h h h h h h h h h h h h h h h h h h h h h ",
"h h h h h h h h h h h h h h h h h h h h h h &   D.< & C.C.Z.C.C.C.C.V.m.V.& & S.= & h h h h h h h h h h h h h h h h h h h h h h ",
"h h h h h h h h h h h h h h h h h h h h h h &   D.- - A.C.N.C.v.N.l.V.Z.V.& % D.% & h h h h h h h h h h h h h h h h h h h h h h ",
"h h h h h h h h h h h h h h h h h h h h h h & O h.- & l.C.l.v.v.v.b.l.l.N.& = [ + - h h h h h h h h h h h h h h h h h h h h h h ",
"h h h h h h h h h h h h h h h h h h h h h h % o u.* & m.v.v.v.v.V.v.v.v.v.& & ' + & h h h h h h h h h h h h h h h h h h h h h h ",
"h h h h h h h h h h h h h h h h h h h h & - p.h._ & & v.v.v.N.V.v.v.v.v.v.& & _ i.y.& % h h h h h h h h h h h h h h h h h h h h ",
"h h h h h h h h h h h h h h h h h h h h & - y.h.' 2 * N.v.m.V.m.v.v.C.z.c.% = [ a.h.& & h h h h h h h h h h h h h h h h h h h h ",
"h h h h h h h h h h h h h h h h h h h h & & ] r.& S.D.> - C.m.b.v.v.N.: - D.S.- j.y.& - h h h h h h h h h h h h h h h h h h h h ",
"h h h h h h h h h h h h h h h h h h h 7 & & ] r.& & & 8.9.3.6.9.*.=.$.2.0.= - - d.y.& & 7 h h h h h h h h h h h h h h h h h h h ",
"h h h h h h h h h h h h h h h h h h h * * * ] r.& - > 9.9.,.9.3.6.5.1.5.5.- & & d.p.- - 6 h h h h h h h h h h h h h h h h h h h ",
"h h h h h h h h h h h h h h h h h 6 @ u.' ] [ r.& q.7.-.-.4.1.>.1.,.-.>.9.-.9.& d.u.i.u.i.@ 6 h h h h h h h h h h h h h h h h h ",
"h h h h h h h h h h h h h h h h h f i X + . [ r.- 1.<.-.-.-.-.>.-.-.-.:.-.-.w.% t.' X X X ; - h h h h h h h h h h h h h h h h h ",
"h h h h h h h h h h h h h h h h h t a p & d [ r.& >.-.-.-.-.-.-.-.-.-.-.-.-.-.- t.[ 1 4 u - - h h h h h h h h h h h h h h h h h ",
"h h h h h h h h h h h h h h h h h h h h h h & & & &.-.-.-.-.:.-.-.-.-.-.:.-.:.* w 1 h h h h h h h h h h h h h h h h h h h h h h ",
"h h h h h h h h h h h h h h h h h h h h h h & 6 & -.;.;.;.-.%.%.%.%.;.-.;.;.;.& 9 9 h h h h h h h h h h h h h h h h h h h h h h ",
"h h h h h h h h h h h h h h h h h h h h h h h h & [ ] ] _ ] = & = = _ _ ] _ ] 3 h h h h h h h h h h h h h h h h h h h h h h h h ",
"h h h h h h h h h h h h h h h h h h h h h h h h & [ [ _ _ ] % - - = [ _ _ ] _ 3 h h h h h h h h h h h h h h h h h h h h h h h h ",
"h h h h h h h h h h h h h h h h h h h h h h h h & y.[ ] [ 0 % h h - _ _ ] ] _ > g h h h h h h h h h h h h h h h h h h h h h h h ",
"h h h h h h h h h h h h h h h h h h h h h h h h & y.y.' [ & - h h % 0 _ ] k.% % h h h h h h h h h h h h h h h h h h h h h h h h ",
"h h h h h h h h h h h h h h h h h h h h h h h h - & y.' ] & & h h - 0 _ [ k.% h h h h h h h h h h h h h h h h h h h h h h h h h ",
"h h h h h h h h h h h h h h h h h h h h h h h h h & k.k.] & & h h - - ] y., % h h h h h h h h h h h h h h h h h h h h h h h h h ",
"h h h h h h h h h h h h h h h h h h h h h h h h h - & k...0 & h h - > ] e.% % h h h h h h h h h h h h h h h h h h h h h h h h h ",
"h h h h h h h h h h h h h h h h h h h h h h h h h % & k.....& h h - 0 _ e.% h h h h h h h h h h h h h h h h h h h h h h h h h h ",
"h h h h h h h h h h h h h h h h h h h h h h h h h & & p.p...0 h h - _ _ , % h h h h h h h h h h h h h h h h h h h h h h h h h h ",
"h h h h h h h h h h h h h h h h h h h h h h h h h h & p.p...0 0 h - e.r.% % h h h h h h h h h h h h h h h h h h h h h h h h h h ",
"h h h h h h h h h h h h h h h h h h h h h h h h h h - % y.' - & h - #.r.% h h h h h h h h h h h h h h h h h h h h h h h h h h h ",
"h h h h h h h h h h h h h h h h h h h h h h h h h h h & y.' & & h % #.#.% h h h h h h h h h h h h h h h h h h h h h h h h h h h ",
"h h h h h h h h h h h h h h h h h h h h h h h h h h h & y.' e.& h h h h h h h h h h h h h h h h h h h h h h h h h h h h h h h h ",
"h h h h h h h h h h h h h h h h h h h h h h h h h h h & - ' e.& h h h h h h h h h h h h h h h h h h h h h h h h h h h h h h h h ",
"h h h h h h h h h h h h h h h h h h h h h h h h h h h h - ' e.& h h h h h h h h h h h h h h h h h h h h h h h h h h h h h h h h ",
"h h h h h h h h h h h h h h h h h h h h h h h h h h h h & #.#.& h h h h h h h h h h h h h h h h h h h h h h h h h h h h h h h h ",
"h h h h h h h h h h h h h h h h h h h h h h h h h h h h & #.#.% h h h h h h h h h h h h h h h h h h h h h h h h h h h h h h h h ",
"h h h h h h h h h h h h h h h h h h h h h h h h h h h h h h h h h h h h h h h h h h h h h h h h h h h h h h h h h h h h h h h h ",
"h h h h h h h h h h h h h h h h h h h h h h h h h h h h h h h h h h h h h h h h h h h h h h h h h h h h h h h h h h h h h h h h ",
"h h h h h h h h h h h h h h h h h h h h h h h h h h h h h h h h h h h h h h h h h h h h h h h h h h h h h h h h h h h h h h h h ",
"h h h h h h h h h h h h h h h h h h h h h h h h h h h h h h h h h h h h h h h h h h h h h h h h h h h h h h h h h h h h h h h h ",
"h h h h h h h h h h h h h h h h h h h h h h h h h h h h h h h h h h h h h h h h h h h h h h h h h h h h h h h h h h h h h h h h "
};
