/* XPM */
static char *_a4897aa1ed4445edfea90ed8377d211RTEAkWjONDQDgZAD[] = {
/* columns rows colors chars-per-pixel */
"64 64 154 2 ",
"   c #19191C",
".  c #2B1D0C",
"X  c #261916",
"o  c #2C1C14",
"O  c #251B1D",
"+  c #2C1A1B",
"@  c #321C13",
"#  c #352E16",
"$  c #171420",
"%  c #1D1D25",
"&  c #1F1D2B",
"*  c #1B1D31",
"=  c #221C26",
"-  c #211D2B",
";  c #2A1D2B",
":  c #241E30",
">  c #1E202B",
",  c #1F2123",
"<  c #23212C",
"1  c #2A212C",
"2  c #272626",
"3  c #38232B",
"4  c #242230",
"5  c #302D3C",
"6  c #442E38",
"7  c #452D34",
"8  c #493B3D",
"9  c #73493B",
"0  c #7B5928",
"q  c #584B48",
"w  c #534949",
"e  c #4E4D52",
"r  c #4F4F5D",
"t  c #5D5759",
"y  c #56555E",
"u  c #79545B",
"i  c #595563",
"p  c #595764",
"a  c #865E27",
"s  c #BE6464",
"d  c #A17C6A",
"f  c #BD8127",
"g  c #DF970D",
"h  c #D69B0C",
"j  c #DE9511",
"k  c #D6921D",
"l  c #DB921F",
"z  c #E3940D",
"x  c #E1980B",
"c  c #E59B14",
"v  c #EAA41F",
"b  c #F3A51E",
"n  c #C08B23",
"m  c #D38F23",
"M  c #D59326",
"N  c #DA9426",
"B  c #DD9B26",
"V  c #D0902B",
"C  c #DA952B",
"Z  c #D9992A",
"A  c #DB9933",
"S  c #E29D26",
"D  c #E79927",
"F  c #D7A12E",
"G  c #DBA434",
"H  c #E4A226",
"J  c #EBA625",
"K  c #ECA826",
"L  c #ECA62A",
"P  c #EBAA29",
"I  c #F1A622",
"U  c #F0A728",
"Y  c #E7A936",
"T  c #E5B13F",
"R  c #E8B23F",
"E  c #AB8344",
"W  c #BCA479",
"Q  c #EAAE42",
"!  c #E5B140",
"~  c #EDB052",
"^  c #F5BC5E",
"/  c #DD9B6D",
"(  c #DF9673",
")  c #DD9C73",
"_  c #E09C6E",
"`  c #E29B73",
"'  c #C1A776",
"]  c #C1A974",
"[  c #E0AD6C",
"{  c #EFBE60",
"}  c #F1A37C",
"|  c #F6CD69",
" . c #F5C575",
".. c #F4CB75",
"X. c #F3CA7A",
"o. c #F2C77C",
"O. c #852D8E",
"+. c #B726A6",
"@. c #BF22AC",
"#. c #BF25BA",
"$. c #BE38B6",
"%. c #BF38B8",
"&. c #C41FAD",
"*. c #C421A5",
"=. c #C521AC",
"-. c #C524B1",
";. c #C72CB3",
":. c #C82FB3",
">. c #C937B9",
",. c #CB3BB9",
"<. c #C633B3",
"1. c #C842BC",
"2. c #CE4CC3",
"3. c #D157C7",
"4. c #D25CCA",
"5. c #D45DC2",
"6. c #CF6AC7",
"7. c #D565CE",
"8. c #D76CCF",
"9. c #D864C1",
"0. c #E06FCE",
"q. c #D19F83",
"w. c #CEA185",
"e. c #D0A286",
"r. c #EEBD96",
"t. c #EEBE99",
"y. c #F1BD96",
"u. c #F1BD9A",
"i. c #F9BA93",
"p. c #E6BCA7",
"a. c #E9BEA7",
"s. c #EABDA9",
"d. c #F7C681",
"f. c #F1C880",
"g. c #F6C099",
"h. c #E5C0A8",
"j. c #E6C5B9",
"k. c #EADEEE",
"l. c #E9D7F0",
"z. c #EDDDF2",
"x. c #EFDBF4",
"c. c #EFDBF6",
"v. c #EFDDF5",
"b. c #EFDBF6",
"n. c #EDDCF8",
"m. c #F0DBF4",
"M. c #F2DBF5",
"N. c #F1DCF8",
"B. c #F1DDF8",
"V. c #F1DCF8",
"C. c #F4E4FA",
"Z. c #F6E9FB",
"A. c #FCFBFE",
"S. c #FDFDFD",
/* pixels */
"s s s s s s s s s s s s s s s s s s s s s s s s s s s s s s s s s s s s s s s s s s s s s s s s s s s s s s s s s s s s s s s s ",
"s s s s s s s s s s s s s s s s s s s s s s s s s s s s s s s s s s s s s s s s s s s s s s s s s s s s s s s s s s s s s s s s ",
"s s s s s s s s s s s s s s s s s s s s s s s s s s s s s s s s s s s s s s s s s s s s s s s s s s s s s s s s s s s s s s s s ",
"s s s s s s s s s s s s s s s s s s s s s s s s s s s s s s s s s s s s s s s s s s s s s s s s s s s s s s s s s s s s s s s s ",
"s s s s s s s s s s s s s s s s s s s s s s s s s s s s s s s s s s s s s s s s s s s s s s s s s s s s s s s s s s s s s s s s ",
"s s s s s s s s s s s s s s s s s s s s s s s s s s s % % & % & & % & & % s s s s s s s s s s s s s s s s s s s s s s s s s s s ",
"s s s s s s s s s s s s s s s s s s s s s s s s s s s - $ & - - - & - % & s s s s s s s s s s s s s s s s s s s s s s s s s s s ",
"s s s s s s s s s s s s s s s s s s s s s s s s - = % X.X.X.X.....X.X.X...= - - s s s s s s s s s s s s s s s s s s s s s s s s ",
"s s s s s s s s s s s s s s s s s s s s s s e w ] ] ] T T T T T F G Q T R E E W q e s s s s s s s s s s s s s s s s s s s s s s ",
"s s s s s s s s s s s s s s s s s s s s s s : o X.X...v K J J P c z K K K K K ..o 4 s s s s s s s s s s s s s s s s s s s s s s ",
"s s s s s s s s s s s s s s s s s s s s % & d. .b I b I K K v J H K c I K I b K o. .& - s s s s s s s s s s s s s s s s s s s s ",
"s s s s s s s s s s s s s s s s s s s s - & f.| K K K K K K J J K K K K I K I K ..X.- & s s s s s s s s s s s s s s s s s s s s ",
"s s s s s s s s s s s s s s s s s s s s - & J K K I K K J J m J K K K K K J g K J K * & s s s s s s s s s s s s s s s s s s s s ",
"s s s s s s s s s s s s s s s s s s s s & - U K K K K K K J K J K K J P K K K K K I * & s s s s s s s s s s s s s s s s s s s s ",
"s s s s s s s s s s s s s s s s s s s s & & P K K K D K K K K K J J P J J K K H K I & % s s s s s s s s s s s s s s s s s s s s ",
"s s s s s s s s s s s s s s s s s s s s & & J J D K K K C K K Y K J H J K K C K K K * > s s s s s s s s s s s s s s s s s s s s ",
"s s s s s s s s s s s s s s s s s s s s & < P J H J K C J K K K K K H N K P K K J J & & s s s s s s s s s s s s s s s s s s s s ",
"s s s s s s s s s s s s s s s s s s s s % 2 J K K K K K K K K J P K J B K J K K H J * & s s s s s s s s s s s s s s s s s s s s ",
"s s s s s s s s s s s s s s s s s s s s - r P K K K K K K K ~ K J K K K J K K K J K % - s s s s s s s s s s s s s s s s s s s s ",
"s s s s s s s s s s s s s s s s s s s & - : Q L J K K J J K K K K K J P K J N K K G ; - - s s s s s s s s s s s s s s s s s s s ",
"s s s s s s s s s s s s s s s s s s s y ^ ^ z M K J K J S K K K K J P P K K P J S j Y H 4 s s s s s s s s s s s s s s s s s s s ",
"s s s s s s s s s s s s s s s s s s s   { G g N J J K K J K K J K K J S B N J K N x J H - s s s s s s s s s s s s s s s s s s s ",
"s s s s s s s s s s s s s s s s s s s i h z N g S N N C N C N S N N S N N S J J z z z g p s s s s s s s s s s s s s s s s s s s ",
"s s s s s s s s s s s s s s s s s s s , V n m k k # f N N S N N N N N N C 0 = N N N C C & s s s s s s s s s s s s s s s s s s s ",
"s s s s s s s s s s s s s s s s s s s s - ; 1 : & v.v.& & M N N N N N m a n.n.& & & & > s s s s s s s s s s s s s s s s s s s s ",
"s s s s s s s s s s s s s s s s s s s s s s & % S.B.n.z.z.C C C A [ z.x.z.c.Z.A.& & s s s s s s s s s s s s s s s s s s s s s s ",
"s s s s s s s s s s s s s s s s s s s s s s &   S.B.C.n.c.c.x.c.c.c.c.c.z.B.S.S.% - s s s s s s s s s s s s s s s s s s s s s s ",
"s s s s s s s s s s s s s s s s s s s s s s &   S.< - B.B.V.M.V.V.V.V.V.C.& % A.% & s s s s s s s s s s s s s s s s s s s s s s ",
"s s s s s s s s s s s s s s s s s s s s s s &   S.< & V.B.C.V.V.V.V.B.B.B.& & S.= & s s s s s s s s s s s s s s s s s s s s s s ",
"s s s s s s s s s s s s s s s s s s s s s s &   S.< - Z.V.V.V.c.c.k.V.C.B.- % S.% & s s s s s s s s s s s s s s s s s s s s s s ",
"s s s s s s s s s s s s s s s s s s s s s s & + h.= - k.V.k.c.c.c.v.k.k.M.& = ` + & s s s s s s s s s s s s s s s s s s s s s s ",
"s s s s s s s s s s s s s s s s s s s s s s % o y.- & c.c.c.c.c.B.c.c.c.c.& & ) + & s s s s s s s s s s s s s s s s s s s s s s ",
"s s s s s s s s s s s s s s s s s s s s & & u.g./ % & c.c.c.c.c.c.c.c.c.c.& & ) y.r.% % s s s s s s s s s s s s s s s s s s s s ",
"s s s s s s s s s s s s s s s s s s s s & - r.g.) 2 * M.c.c.n.c.c.c.B.l.x.% O ` i.g.& & s s s s s s s s s s s s s s s s s s s s ",
"s s s s s s s s s s s s s s s s s s s s & - _ e.* S.A.> : V.c.c.c.c.M.: - S.S.- p.r.& & s s s s s s s s s s s s s s s s s s s s ",
"s s s s s s s s s s s s s s s s s s s s & & ` w.& - % 6.7.1.4.7.$.%.+.<.8.- = & p.r.* & s s s s s s s s s s s s s s s s s s s s ",
"s s s s s s s s s s s s s s s s s s s s & - ` e.& - > 7.7.;.7.2.4.4.>.3.4.: & % a.t.& & s s s s s s s s s s s s s s s s s s s s ",
"s s s s s s s s s s s s s s s s s s s s - * _ w.& 9.5.&.&.2.>.-.>.;.&.-.4.&.7.& a.y.& & s s s s s s s s s s s s s s s s s s s s ",
"s s s s s s s s s s s s s s s s s s s & - & ` e.- ,.;.&.&.&.=.=.&.&.&.=.&.&.0.& a.r.& & & s s s s s s s s s s s s s s s s s s s ",
"s s s s s s s s s s s s s s s s s s s & * * / w.: -.=.&.&.&.&.&.&.&.&.&.&.&.=.- a.u.- - 8 s s s s s s s s s s s s s s s s s s s ",
"s s s s s s s s s s s s s s s s s 5 @ u.) ` ) e.- #.=.=.&.&.=.&.&.&.&.&.=.=.=.* p.t.t.u.r.@ & s s s s s s s s s s s s s s s s s ",
"s s s s s s s s s s s s s s s s s t & + o . _ e.& @.*.*.*.&.@.@.@.=.*.*.*.*.=.& q.) O X X 1 & s s s s s s s s s s s s s s s s s ",
"s s s s s s s s s s s s s s s s s u p & & 5 _ e.3 ` / _ / / = - & = / / / / ` & d ( < 1 i < - s s s s s s s s s s s s s s s s s ",
"s s s s s s s s s s s s s s s s s s s s s s & - 3 / _ / / ` = - & % _ / / ` ` & - & s s s s s s s s s s s s s s s s s s s s s s ",
"s s s s s s s s s s s s s s s s s s s s s s & 6 % / / / / / - s s & 9 ` _ ` r.& 7 7 s s s s s s s s s s s s s s s s s s s s s s ",
"s s s s s s s s s s s s s s s s s s s s s s s s % % j._ / 9 % s s - & ` ) g.r.& s s s s s s s s s s s s s s s s s s s s s s s s ",
"s s s s s s s s s s s s s s s s s s s s s s s s s , j.` / 9 - s s & & _ ) r.% & s s s s s s s s s s s s s s s s s s s s s s s s ",
"s s s s s s s s s s s s s s s s s s s s s s s s s % % r._ - - s s & & _ j.j.& s s s s s s s s s s s s s s s s s s s s s s s s s ",
"s s s s s s s s s s s s s s s s s s s s s s s s s % % q._ % - s s & 9 } j.& & s s s s s s s s s s s s s s s s s s s s s s s s s ",
"s s s s s s s s s s s s s s s s s s s s s s s s s s % q._ 9 - s s & } } j.& & s s s s s s s s s s s s s s s s s s s s s s s s s ",
"s s s s s s s s s s s s s s s s s s s s s s s s s s % % / _ - s s 9 } u.u.& & s s s s s s s s s s s s s s s s s s s s s s s s s ",
"s s s s s s s s s s s s s s s s s s s s s s s s s s % , q.e.- s 9 9 } u.u.& s s s s s s s s s s s s s s s s s s s s s s s s s s ",
"s s s s s s s s s s s s s s s s s s s s s s s s s s s & w.O.- s & & ) r.& & s s s s s s s s s s s s s s s s s s s s s s s s s s ",
"s s s s s s s s s s s s s s s s s s s s s s s s s s s % O.O.% s & & ) r.& s s s s s s s s s s s s s s s s s s s s s s s s s s s ",
"s s s s s s s s s s s s s s s s s s s s s s s s s s s s s s s s % q.) r.& s s s s s s s s s s s s s s s s s s s s s s s s s s s ",
"s s s s s s s s s s s s s s s s s s s s s s s s s s s s s s s s = q.) - & s s s s s s s s s s s s s s s s s s s s s s s s s s s ",
"s s s s s s s s s s s s s s s s s s s s s s s s s s s s s s s s & q.) & s s s s s s s s s s s s s s s s s s s s s s s s s s s s ",
"s s s s s s s s s s s s s s s s s s s s s s s s s s s s s s s s & O.O.& s s s s s s s s s s s s s s s s s s s s s s s s s s s s ",
"s s s s s s s s s s s s s s s s s s s s s s s s s s s s s s s s & O.O.& s s s s s s s s s s s s s s s s s s s s s s s s s s s s ",
"s s s s s s s s s s s s s s s s s s s s s s s s s s s s s s s s s s s s s s s s s s s s s s s s s s s s s s s s s s s s s s s s ",
"s s s s s s s s s s s s s s s s s s s s s s s s s s s s s s s s s s s s s s s s s s s s s s s s s s s s s s s s s s s s s s s s ",
"s s s s s s s s s s s s s s s s s s s s s s s s s s s s s s s s s s s s s s s s s s s s s s s s s s s s s s s s s s s s s s s s ",
"s s s s s s s s s s s s s s s s s s s s s s s s s s s s s s s s s s s s s s s s s s s s s s s s s s s s s s s s s s s s s s s s ",
"s s s s s s s s s s s s s s s s s s s s s s s s s s s s s s s s s s s s s s s s s s s s s s s s s s s s s s s s s s s s s s s s "
};
