/* XPM */
static char *_07e477805b74b64ac60e201af6d3b28WGgEE3U28WEfbPlr[] = {
/* columns rows colors chars-per-pixel */
"64 64 188 2 ",
"   c #BE6464",
".  c #597A6B",
"X  c #0F1210",
"o  c #090909",
"O  c #0C0C0C",
"+  c gray3",
"@  c gray5",
"#  c #0F1211",
"$  c #131615",
"%  c #1D1C1F",
"&  c #29282C",
"*  c #1D1C1E",
"=  c #212022",
"-  c #242325",
";  c #101011",
":  c #181819",
">  c #212324",
",  c #37373F",
"<  c #2A2A2E",
"1  c #151516",
"2  c #121213",
"3  c #232224",
"4  c #2B2A2E",
"5  c #2C2B2F",
"6  c #414149",
"7  c #1D1F1E",
"8  c #2E3032",
"9  c #222424",
"0  c #393841",
"q  c #1C1B1D",
"w  c #171618",
"e  c #141415",
"r  c gray8",
"t  c #171718",
"y  c #222123",
"u  c #3E3E47",
"i  c #5A5D68",
"p  c #333538",
"a  c #151A18",
"s  c #2F3133",
"d  c #1F1E20",
"f  c #1B1A1C",
"g  c #252426",
"h  c #3B3B44",
"j  c #585B65",
"k  c #333839",
"l  c #0B0B0B",
"z  c #1A191B",
"x  c #1B1B1C",
"c  c #2E2D32",
"v  c #393941",
"b  c #0B0A0B",
"n  c #43434C",
"m  c #5B5D69",
"M  c #41414B",
"N  c #595B67",
"B  c #313136",
"V  c #131313",
"C  c gray6",
"Z  c #181818",
"A  c #2A292D",
"S  c #3A3A43",
"D  c #1F2321",
"F  c #161617",
"G  c #29282B",
"H  c #2B2A2D",
"J  c #45454E",
"K  c #41414A",
"L  c #1D1D1E",
"P  c #28272B",
"I  c #151515",
"U  c #302F34",
"Y  c #1E2020",
"T  c #131314",
"R  c #2D2C31",
"E  c #2B2B2F",
"W  c #272629",
"Q  c #42424B",
"!  c #3D3D46",
"~  c #595B66",
"^  c #3A3A42",
"/  c #2C2B2E",
"(  c #474751",
")  c #2E2D31",
"_  c #2B2A2F",
"`  c #0C0C0D",
"'  c #0F1110",
"]  c #28282B",
"[  c #201F22",
"{  c #2F2E33",
"}  c #3F3F48",
"|  c #101111",
" . c gray4",
".. c #38373F",
"X. c #27272A",
"o. c #201F21",
"O. c #45454F",
"+. c #161618",
"@. c #1E1D20",
"#. c #131514",
"$. c #09090A",
"%. c #0E0E0E",
"&. c #0E0F0E",
"*. c #1A0F0A",
"=. c #190D09",
"-. c #D03B15",
";. c #D13E16",
":. c #DE5820",
">. c #E05A21",
",. c #E15D22",
"<. c #585A65",
"1. c #323137",
"2. c #161616",
"3. c #CE531F",
"4. c #C13915",
"5. c #D34017",
"6. c #CF5620",
"7. c gray9",
"8. c #141313",
"9. c #1A0F0B",
"0. c #261C18",
"q. c #2A282B",
"w. c #0E0F0F",
"e. c #BF501E",
"r. c #C15220",
"t. c #111111",
"y. c #0E1110",
"u. c #29130B",
"i. c #C13714",
"p. c #D05520",
"a. c #352017",
"s. c #262629",
"d. c #0D0E0E",
"f. c #CF541F",
"g. c #D03D16",
"h. c #D14017",
"j. c #080909",
"k. c #090808",
"l. c #170C09",
"z. c #180D0A",
"x. c #B03313",
"c. c #190C09",
"v. c #BF3714",
"b. c #CE3A15",
"n. c #BF3416",
"m. c #BE3316",
"M. c #AD2F15",
"N. c #CD3A15",
"B. c #BC3216",
"V. c #C0511F",
"C. c #1A100C",
"Z. c #251B17",
"A. c #1B1A1B",
"S. c #CF3B15",
"D. c #191919",
"F. c #28100A",
"G. c #C23815",
"H. c #341E16",
"J. c #100F10",
"K. c #1B110C",
"L. c #BE501E",
"P. c #190F0A",
"I. c #1A1A1B",
"U. c #0B0B0C",
"Y. c #201E20",
"T. c #0A0908",
"R. c #C13815",
"E. c #251815",
"W. c #131515",
"Q. c #464650",
"!. c #43424C",
"~. c #44444D",
"^. c #3C3C45",
"/. c #33343B",
"(. c #111213",
"). c #484852",
"_. c #5B5E69",
"`. c #3E3E48",
"'. c #5D606C",
"]. c #0D0C0D",
"[. c #3B3B43",
"{. c #121314",
"}. c #3E3E46",
"|. c #595C67",
" X c #0F1011",
".X c #575964",
"XX c #0F0F10",
"oX c #0D0D0E",
/* pixels */
"                                                                                                                              . ",
"                                                                                                                                ",
"                                                                                                                                ",
"                                                    X X X X X X X X X X                                                         ",
"                                            o o o o O + + + + + + O @ @ o o o o                                                 ",
"                                        X X @ @ @ @ + + + + + + + + o o @ @ @ @ # $                                             ",
"                                    % @ & * o + + + + + + + + + + + + + + + O = - - ; :                                         ",
"                                > > , < * 1 2 o + + + + + + + + + O O + + + = 3 4 4 5 6 7 8                                     ",
"                              9 5 0 5 5 q w 1 e @ @ O + + + + + + + + O r r t y 4 5 5 5 u i p                                   ",
"                          a s 4 d 5 5 5 * & f 1 o o + + + + + + + + + + o o y 3 g 4 5 5 h u j p k                               ",
"                        l z x x q * c v , d 1 e o o + + + + + + + O O o b d 3 4 c n m M u h h h N B                             ",
"                      a z 1 1 1 * & v c 5 % f 1 V @ O + + + + + + + o O @ C Z A 5 c M m i u h h u S D                           ",
"                    l z e e e F G * % 4 c v H A o o + + + + + + + + O o l = - - J J u h u i u h 5 5 K L                         ",
"                  a z 1 e e F P F 1 % 4 v c * t V @ O + + + + + + + o O I y 4 4 c c i u h u i u 5 5 U K Y                       ",
"                o T e e e 1 f 1 e F A A R R 0 E T o + + + + + + + + + + O = W Q U ! u i u h ! ~ c 5 5 5 6 :                     ",
"                o T e e 1 f 1 e F P F F ^ ^ E : T o + + + + + + + O O + = 3 / c ( m h u i u ) U n c 5 5 _ `                     ",
"              ' @ V T e f 1 e 1 P F : ] * & 4 [ F T O + + + + + + + o I - H c 5 { ^ i } c n c 5 c n c 5 5 5 |                   ",
"            ' @ o o  .T 1 e 1 f F e ] : q * R ..X.O + + + + + + + +  .o.3 - n c ^ h } O.5 c n c 5 c n c 5 5 W |                 ",
"            o O + + @ o T e f 1 +.] e e : & ..R x 1 o o + + + + + O l o.- 4 c n m M 0 R n U c n 5 5 5 4 5 5 = O                 ",
"          a O o + + @ o  .T 1 e f +.e e & @.[ 4 x 1 @ @ + + + + + + @ 1 - 4 5 c M m R 5 U n 5 c 5 5 4 g 5 5 3 = #.              ",
"          ' O + o @ + + $.2 $.2 T e +.] 1 f d 5 ..[ o + + + + + + + 3 3 c n U ! ^ R n U 5 5 n c 5 4 4 4 3 y d %.&.              ",
"        ' @ + + o @ + + O $.O $. .T f +.e 1 5 0 R 4 2 o + + + + + + 3 3 5 c ( m ^ R U n 5 5 c 5 4 g - - y t  .o @ &.            ",
"        o O + + o O o @ + + O + o V o 2 1 f e e & A *.=.-.-.;.:.>.,.*.*.O X.h ^ <.1.5 5 - 4 4 - 4 4 = = o @ + + O o             ",
"      a O o + + O o o @ + O + + o @ + o e 1 e e O 2.3.4.-.-.-.;.5.>.6.6.r 7.^ { 1.n 5 5 - 4 4 - - - C l o @ + + o O #.          ",
"      X @ o + + O + + + + + + + O + + + O + 8.9.:.;.-.-.-.-.-.-.-.-.-.-.>.,.0.q.5 5 - 4 4 3 = 3 V  .O o + + @ o o @ w.          ",
"      X @ o + + + + + + + + + + + + + O + + 9.e.;.-.-.-.-.-.-.-.-.-.-.-.5.>.r.0.5 5 - 4 A Z t.=  .O o O + + @ o o @ w.          ",
"      y.+ + + + + + + + + + + + + + + + + + u.i.-.-.-.-.-.-.-.-.-.-.-.-.-.-.p.a.& A 4 - s.l @ o + O o @ + + O + + O d.          ",
"    y.o + + + + + + + + + + + + + + + + + + f.g.-.-.-.-.-.-.-.-.-.-.-.-.-.-.h.p.O 2.4 - l + @ o + + o @ + + + + + + j.d.        ",
"    + + + + + + + + + + + + + + + + + + k.l.-.-.-.-.-.-.-.-.-.-.-.-.-.-.-.-.-.-.z.8.W C + + + + + + + + + + + + + + + +         ",
"    + + + + + + + + + + + + + + + + + + l.x.-.-.-.-.-.-.-.-.-.-.-.-.-.-.-.-.-.-.x.z.l o O + + + + + + + + + + + + + + +         ",
"    + + + + + + + + + + + + + + + + + + c.v.-.-.-.-.-.-.-.b.v.v.-.-.-.-.-.-.-.-.v.c.+ + + + + + + + + + + + + + + + + +         ",
"    + + + + + + + + + + + + + + + + + + c.v.-.-.-.-.-.-.b.n.c.c.-.-.-.-.-.-.-.-.v.c.+ + + + + + + + + + + + + + + + + +         ",
"    + + + + + + + + + + + + + + + + + + c.v.-.-.-.-.-.-.b.n.l.l.m.b.-.-.-.b.-.-.4.=.+ + + + + + + + + + + + + + + + + +         ",
"    + + + + + + + + + + + + + + + + + + c.v.-.-.-.-.-.-.-.b.M.M.m.b.-.-.b.n.-.-.3.*.+ + O + + + + + + + + + + + + + + +         ",
"    + + + + + + + + + + + + + + + + + + l.x.-.-.-.-.-.-.-.-.m.m.-.b.N.m.B.B.-.-.V.C.T $.O + + + + + + + + + + + + + + +         ",
"    + + + + + + + + + + + + + + + + + + k.l.-.-.-.-.-.-.-.-.b.b.b.n.m.B.B.B.-.-.Z.A.T @ + + + + + + + + + + + + + + O +         ",
"    y.o + + + + + + + + + + + + + + @ o + + i.S.-.-.b.b.b.b.N.m.B.B.B.B.n.b.g.p.D.A q %.T  .@ o + + o @ + + @ o + + @ &.        ",
"      y.+ + + + + + + + + + + + + + @ o + + F.i.-.-.m.m.m.m.m.B.B.B.B.B.b.-.G.H.A 5 P J.e T @ o + O o @ + + @ o + O &.          ",
"      X + + + + + + + + + + + + @ o + O o  .K.e.;.-.b.n.m.B.B.B.B.m.n.b.-.-.L.P.* G 0 R d 5 I.U.U.%.o O + + @ o o @ w.          ",
"      X + + + + + + + + + + + + @ o + + %.d Y.K.:.;.-.b.N.m.B.B.m.N.b.-.-.-.P.T.1 F R 5 5 0 q I.X.1 O o + + @ o o @ w.          ",
"      a O o + + + + o @ + O + + o @ O = t y 5 5 7.: R.R.-.-.-.-.-.-.v.v.+ + + + e f * & 0 R 5 R 4 % * 1 $.@ + + o O #.          ",
"        o O + + O + o @ + + O + o V = 3 y 3 5 5 _ , E.E.-.-.-.-.-.-.c.c.+ + + + %.e q * R 5 R 0 4 % G F V %.+ + O o             ",
"        &.@ + + o @ + + O o O  .O = - H 5 5 c n u h ^ R 2.l  .o + + + + + + @ @ o 2 +.] * & c v R ^ * q A F o o @ &.            ",
"          &.+ + o @ + + o O  .V = 3 3 - 5 5 5 c i u ^ R & y o.I + + + + + + o o + o f +.q * v c R ^ & * A F V @ &.              ",
"          W.O o + + @ o l I 3 3 - H 5 5 g ) { S u i Q.J R 3 I r + + + + + + + + $.2 e e : & 4 R 0 R R ^ 4 d q I.#.              ",
"            o O + + @ o = y 3 3 3 - 5 5 ) !.~.^.h u h U K I.r %.O + + + + + + O O $.e e & @.[ ..R 5 R ^ 5 4 I.U.                ",
"            &.@ o  .l I 3 - - - 4 5 5 c 5 R u i m M c 5 4 - I r + + + + + + + + + + l z e 1 & * 4 R 0 R 5 R /.(.                ",
"              &.%.d = y - H 4 4 g 4 c n R 0 h u M m n c 4 - r  .+ + + + + + + + + + T 1 1 f w q [ ..R 5 R 0 (.                  ",
"              #.= 3 3 - - - 4 5 5 5 c c )._.`.`.h h 5 5 y t %.@ + + + + + + + + @ @ o o e e e F A H 5 5 , `                     ",
"                O = - H 4 4 g 4 5 5 J J ^.u '.'.h h 5 5 3 y V  .+ + + + + + + + o o @ @ e e F P t * 5 5 , `                     ",
"                  #.y H 5 5 c n c 5 5 R O.} u h _.).!.) = 1 V  .+ + + + + + + + + O + + T e f 1 1 f @.P #.                      ",
"                    ].y 5 5 5 c n c R 0 } i i u u ^.) g 1 %.%.@ + + + + + + + + + + + +  .T 1 e e 1 P %.                        ",
"                      #.& 5 5 5 c ~.m M u h u i m ( !.) y y o o + + + + + + + + + + o O @ V e e 1 z #.                          ",
"                        %.& 5 5 R [.M m i u h u ! U ) g 2.2.@ @ O + + + + + + + + O O o o o e e z l                             ",
"                          #.{.}.^.u h h u i m M h U 5 5 y 2.r o + + + + + + + + + + + + o O T w.#.                              ",
"                              {.)._.h h h u M m Q.J 5 5 y 2.r o + + + + + + + + + + + + O o w.                                  ",
"                                w.w.|.|.`.`.h h 0 R 4 - 1 %.%.@ @ @ + + + + + + + + + O w.w.                                    ",
"                                     X X'.'.h h R 5 4 - = 1 V  .o o + + + + + + + + + +                                         ",
"                                        w.w..X~.} - H - r r V  .o o + + + + + + w.w.                                            ",
"                                            XX%.oXb - 3 %.%.%.@ @ @ O + + + + +                                                 ",
"                                                    w.w.w.w.w.w.w.w.w.w.                                                        ",
"                                                                                                                                ",
"                                                                                                                                ",
"                                                                                                                                "
};
