/* XPM */
static char *_1c3832f8fe846e68ed79c3af63f55d1TV6m9bhXwxwCLix1[] = {
/* columns rows colors chars-per-pixel */
"64 64 152 2 ",
"   c #3D2E2D",
".  c #2E3922",
"X  c #313A26",
"o  c #3D302E",
"O  c #36392A",
"+  c #3F3130",
"@  c #422F2E",
"#  c #482F2F",
"$  c #40302F",
"%  c #48302F",
"&  c #423433",
"*  c #483737",
"=  c #453837",
"-  c #473838",
";  c #4A3C3C",
":  c #5D3231",
">  c #643433",
",  c #6A3434",
"<  c #743635",
"1  c #1A4614",
"2  c #1B4B14",
"3  c #1C5215",
"4  c #1F5917",
"5  c #1F5D18",
"6  c #214616",
"7  c #224C16",
"8  c #2C4619",
"9  c #2A4E18",
"0  c #3F431E",
"q  c #334E1B",
"w  c #3A4D1C",
"e  c #235517",
"r  c #225817",
"t  c #265518",
"y  c #2B5419",
"u  c #225C18",
"i  c #2C5A1B",
"p  c #35531C",
"a  c #3B541E",
"s  c #335B1E",
"d  c #23661B",
"f  c #2A651D",
"g  c #33621F",
"h  c #3D5C21",
"j  c #396020",
"k  c #434B1F",
"l  c #4E4922",
"z  c #5F4627",
"x  c #504821",
"c  c #5B4926",
"v  c #455121",
"b  c #4A5223",
"n  c #435C22",
"m  c #535726",
"M  c #515826",
"N  c #614127",
"B  c #68472A",
"V  c #614828",
"C  c #6F4D2D",
"Z  c #79462F",
"A  c #734D2E",
"S  c #6D512D",
"D  c #7D4A30",
"F  c #794C30",
"G  c #534242",
"H  c #584545",
"J  c #8D3938",
"K  c #9D3F38",
"L  c #9E3F38",
"P  c #A13B36",
"I  c #A03F38",
"U  c #A43C38",
"Y  c #A73F3C",
"T  c #A73F3C",
"R  c #AA3A3A",
"E  c #AB3A3A",
"W  c #AB3B3A",
"Q  c #AA3B3B",
"!  c #AB3B3B",
"~  c #AC3B3B",
"^  c #AB3D3A",
"/  c #AB3C3B",
"(  c #AB3D3B",
")  c #AC3D3B",
"_  c #AE3D3B",
"`  c #AB3D3D",
"'  c #AC3C3C",
"]  c #AD3C3C",
"[  c #AC3D3C",
"{  c #AD3D3C",
"}  c #AC3D3D",
"|  c #AD3D3D",
" . c #AE3C3C",
".. c #AE3D3C",
"X. c #AE3D3D",
"o. c #AF3D3D",
"O. c #AC3E3C",
"+. c #AD3E3C",
"@. c #AC3F3C",
"#. c #AD3F3C",
"$. c #AD3E3D",
"%. c #AD3F3D",
"&. c #AE3E3C",
"*. c #AE3F3C",
"=. c #AE3E3D",
"-. c #AF3E3D",
";. c #AE3F3D",
":. c #AF3F3D",
">. c #AD3E3E",
",. c #AD3F3E",
"<. c #AE3E3E",
"1. c #AF3E3E",
"2. c #AE3F3E",
"3. c #AF3F3E",
"4. c #AE3F3F",
"5. c #AF3F3F",
"6. c #AC3D3C",
"7. c #B03F3E",
"8. c #B03F3F",
"9. c #B03F3F",
"0. c #8F4635",
"q. c #814A31",
"w. c #864933",
"e. c #974036",
"r. c #914535",
"t. c #994336",
"y. c #A4403B",
"u. c #AD403D",
"i. c #AE403D",
"p. c #AF403D",
"a. c #AE403E",
"s. c #AF403E",
"d. c #AE413E",
"f. c #AF413E",
"g. c #AF403F",
"h. c #AF413F",
"j. c #AE403F",
"k. c #AF403E",
"l. c #B0403F",
"z. c #B04040",
"x. c #B14040",
"c. c #B04140",
"v. c #B14141",
"b. c #B24141",
"n. c #B14341",
"m. c #B14240",
"M. c #B24341",
"N. c #B14242",
"B. c #B24242",
"V. c #B14441",
"C. c #B24441",
"Z. c #B04140",
/* pixels */
"C.C.C.M.M.M.x.N.4.4.x.3. .3.3.( u.d.d.` 4.d.4.3.3.` 4.4.3. .! ` 3.! 4.4.4.4.4.4.4.4.4.4.4.! 4.! ! ! ! !  .! ! ! 4.3.! 3.3.3.3.4.",
"C.C.C.M.x.M.x.x.x.4.4.4. .3.O.O.` 3.d.3.` 3.4. .3.! 4.! `  .4. .3.4.3.4.4.4.4.4.4.4.x. .4.4.4. .! ! ! ! ! !  .! 3.` 3.W ` 3.4.4.",
"C.c.M.c.M.M.C.l.4.4.4.x.O.u.u.O.3.3.` 3.4.3.! 3.4.4.4.` 3. .! 3.` 4.4.4.x.4.4.4.4.4.4.4.` ` 4.! ! ! ! ! !  .!  .` O.O.3.4. .4.x.",
"c.c.c.M.M.l.l.l.4.3. . .3.O.O.O.` ! 3.3.3.4.4.4.4.! 4.4.4.` 4.4.3.` 3.4. .4.4.x.4.4.4.4. .4. .! ` !  .! !  . . .d.3.3.3.3.x.4. .",
"d.d.3.3.7.d.f.f.W 3. .` W ( ( ( ! ! ! ! ! 4.4.4.! 4.4. .` 4.4.` 4.` ` 3.4. .4.4. .4.4.! !  .~ 3.4. . .` 4.4.x.4.4.4.x.4.x.x.x.x.",
"l.d.3.3.d.l.f.l. .` ! ! ( ( ( ( ! ! ! ! !  .4.! 4.4.4.4.` 4.` 3.` 3.4.4.4.4.4. .3.3. .! !  .~  .! 4.4.` 4.4.4.4.x.4.x.x.1.4.4.X.",
"d.3.3.3.l.d.l.d. .! ~  .( ( ( ( ! ! ! ! ! 4.3.3. .4.4.4.4.4.4.d.4.4.4.4.4.3.4.4.` 4.3.! 3.! O.O.4.4. . .4.4.x.x.4.x.x.4.x.4.4.x.",
"7.3.3.3.d.l.d.l.W 3.O.~ ( ( ( ( !  .! ! !  .3.3.4.4.4.4.4.4.d.3.4.4.4.` c.c.c.4.3.3.3.!  . .~ O. . .4.4.4.4.4.4.4.4.x.4.X.4.4.x.",
"O.7.~ 7.l.u.d.3.3.` `  . .4. .!  .! ! D d f f h F ` !  .! 3.! 3.3. .!  .3.r.d f d f m d ^ ^ ^ ( ! ! !  . . . . .7.3. .4.7.3.3.3.",
"7.~ 7.O.l.l.O.d.3.3.4.4.! !  .! W  .! u d f f h F ` ` 4.4.! 3. .3. .!  .r.r h 5 4 3 a d t.^ ^ ( ! ! ! !  . . . .3.3.3.7.3.3.3.3.",
"~ 7.O.7.u.u.d.3.3.4.` ` `  .! ! W W L d d f d h C T  .` ` 4. . .3. . . .q.d u 3 3 3 y d r.^ ( W ! ! ! !  . . .4.3.3. . .x.4.3. .",
"7.~ 7.O.u.l.3.4.! 4.4. .! ! ! 4. .W A d u 3 3 e b d 4.`  .4.3.3.! 3. . .r d r 3 3 3 y d e ^ ^ ( ! ! !  . . . .4.3.3.3.3. . .3.x.",
"7.7.7.x.4.M.4.4.3.3. .4.4.4. .! ` ! d u 3 3 2 e v d  .X.4.4.7.3.4.4.3.K e d 4 2 2 3 r r r O.~ ~ ! ! !  . .9. . .9.4. .9.4.x.1.7.",
"7.7.x.x.x.4.4.x.3.4.4.4.4.! ! 4.3.` d 5 3 1 3 e h d X.X. .4.4.x.x.4.3.Z e d 3 1 1 3 3 d t U ~ ~ !  .!  .9. . . . . .x.4.x.1.1.x.",
"x.x.x.x.x.x.4.4.3.3.4. .4.! ` 4.` e u r 3 2 3 3 s d X.X.4.4.4.x.x.9. .e r 4 3 2 1 2 3 t d r ~ ~ E  .!  .9. . . .x. .x. .x.1.x.1.",
"x.x.x.x.4.x.x.4.3.3.4.4. .4.` ! ` d 5 4 3 2 1 2 e r w.X. . .x.4.9.9. .t i 3 3 1 1 1 2 e a d ~ ~ ! ! !  . .4. . .9.4. .9.1.x.1.x.",
"x.x.x.4.N.x.x.4. .3. .4. . . .! 4.d 5 3 2 1 1 2 3 r S 3. .4.4.4.7.7.7.d s 3 3 2 1 1 2 7 p d E _  .!  . .3.O. . .3.3.l.7.7.7.7.7.",
"M.x.x.x.x.4.4.x.x.3.4.4.4.4.4.x.4.d u 3 3 1 1 1 3 3 d  .9. . . .~ 7._ d a 7 3 2 1 1 2 3 p d O._  .3.3.3.3.3.7.7.d.3.u.l.l.7.7.3.",
"x.4.x.4.x.4.x.x.7.x.4.x.4.4.4.4.4.d 4 3 3 1 1 1 2 y d 3. . . .! 7.W _ d w e 2 2 1 1 2 3 i d p.p.l.l.3.3.d.7.~ 7.l.d.l.d.x.3.4.x.",
"x.M.x.x.x.x.x.4.x.x.4.4.4.x.x.4.e u 4 2 2 2 1 1 1 e d 4.x. . . .E 7.W d w 7 2 1 1 1 2 3 i d p.l.l.O.d.O.7.7.7.7.d.l.d.l.3.x.3.3.",
"N.x.x.4.4.x.x.4.4.4.x.4.4.4.3.3.r u q 3 2 1 1 1 2 u d e 4. . . .7.7.W d w 7 2 1 1 1 1 2 i e l.u.u.l.l.p.u.l.7.7.d.3.d.3.x.3.4.3.",
"x.4. . .4.4. . . . . .!  .! ! 3.r 2 q 2 2 1 1 1 3 r d r  .! ! W E W W e p 2 2 1 1 1 2 3 i e u.7.l._ _ l.O._ ~ 7.3.3.3.3.3. .3. .",
" . . . . .! !  .! ! ! ! ! ! ! ! r e p 2 2 1 1 1 2 e 5 e  .! R R W W P e p 3 1 1 1 1 2 2 7 c T 7.p.p._ 7.7.O.~ ~ ! ! ! 3. . . .! ",
" . . . . . .! ! ! ! ! ! ! ! ! ! e 3 t 2 1 1 1 1 1 e 3 e ! ! R R W W x e 3 3 1 1 1 1 2 2 e q B l._ l.l._ _ W 7.~  . . . .! !  . .",
"4.4. . . .! ! W ! ! ! ! ! ! ! ! v e 2 2 1 1 1 1 2 3 e 2 !  .R R E E b r 3 2 1 1 1 1 1 2 3 9 V l.O.3.3.3. .!  .` ! 3.!  . .3.!  .",
" . .!  . . .3.W ! ! ! ! ! ! ! ! n r 3 2 1 1 1 1 2 3 9 3 ! ! R R E E d r 3 3 2 1 1 1 2 3 e y d 7.O.3.3. . .3.! ! ! ! 3.! ! ! !  .",
"` ! !  .! `  .` ! ! ! ! ! ! !  .d r 3 3 1 1 1 1 2 3 7 3 W W R R E E d r 3 2 1 1 1 1 1 2 2 y d O.~ ~  .! ! ! ! ! ! ! ! ! ! ! ! ! ",
" . .` !  .` ! ! ! ! ! ! ! ! ! r d r 3 2 1 1 1 1 1 2 r n W W R W E E d r 3 3 2 1 1 1 1 2 2 d d r ~ ~ ! ! ! ! ! ! ! ! ! ! ! ! ! ! ",
" .! `  .! ` `  .! ! ! ! ! ! ` r d e 3 2 2 1 1 1 1 2 3 h O.O.W W ^ r.d 5 3 2 2 1 1 1 1 1 3 d d r L ~ ~ ~ ! ! ! ! ! ! ! ! ! ! ! ! ",
" .` !  .!  .!  .! ! ! ! ! ! d d i 3 3 2 1 1 1 1 1 2 4 g d ~ W ~ E M i 3 3 1 1 1 1 1 1 1 2 u d d d ~ ~ ~ ! ! ! ! ! ! ! ! ! ! ! ! ",
"! ! ` ` ` ` 3.` ! ! ! ! ! ! f d 3 3 2 1 1 1 1 1 2 3 3 u g ~ ~ ~ E d 4 3 2 1 1 1 1 1 1 2 3 4 d g g ~ ~ ~ Q Q Q Q Q Q Q Q Q Q ! ! ",
"`  . .` d.` W ! ! ! ! !  .! u 5 3 3 2 1 1 1 1 1 2 2 3 4 f ~ O.~ O.5 3 3 2 1 1 1 1 1 1 2 2 3 e d d ~ ~ W Q Q Q Q Q Q Q Q Q Q Q ! ",
"! ! ~ ` u.u.d.` ! W ! ! 3.` 3 3 3 3 1 1 1 1 1 1 1 1 2 3 5  .3.! O.3 3 3 1 1 1 1 1 1 1 1 1 2 4 5 d Q Q Q ! ! Q Q Q Q ! ! Q Q Q Q ",
"3.W 3.W ( ( 3.` !  .! ! W ` 3 3 3 1 1 1 1 1 1 1 1 1 2 3 3 W !  .O.3 3 2 1 1 1 1 1 1 1 1 1 2 3 3 4 T Q Q ! ! Q Q Q Q ! ! Q Q Q Q ",
"! ! ~ 3.O.O.3.` !  . .W W ! 3 3 3 1 1 1 1 1 1 1 1 1 2 3 3 !  . .O.3 3 2 1 1 1 1 1 1 1 1 2 2 3 3 2 ! ! ! ! ! ! ! ! ! ! ! ! ! ! ! ",
"3.! O.~ O.O. .` ! W ! ! ! ! 9 9 3 2 1 1 1 1 1 1 1 1 2 3 3 ! ` ! ~ 9 3 1 1 1 1 1 1 1 1 1 1 2 3 3 3 ` ! ` !  .` ! ` ! ` !  .4.! ` ",
"! 3.! ! ! 4.! ! ! ! ! ! ! ! w w e 1 1 1 1 1 1 1 1 2 3 3 3 Q ! ` O.q 7 2 1 1 1 1 1 1 1 1 2 3 3 3 3 ` ! ! ! 4.`  .!  . .! ! !  . .",
"! ! 3.! ! ! !  .! ! ! ! ! ! l 2 9 1 1 1 1 1 1 1 1 2 2 3 3 ! ` ! O.k 9 2 1 1 1 1 1 1 1 1 2 3 2 3 3 ! 3.! ! ! !  .` ` ! !  . .4.! ",
"` ` ! ! ! 3.!  .! W ! ! ` W z 1 q 7 1 1 1 1 1 6 6 7 e 2 7 ! ! ! ~ z 2 2 2 1 1 1 1 1 1 1 2 3 3 3 3  .! !  .`  .`  .! !  . . . .! ",
"O.` 3.` !  .! ! !  .! ! ` ` : 1 1 1 1 1 6 1 1 1 2 1 1 1 0 !  .3.~ 2 7 1 1 1 1 1 1 1 1 8 8 9 1 2 1  .!  . .!  .! 4.4.4.4.! !  . .",
"O.O.u.O.O.~  .! ~ ~   +   * & -               +               & & O X . . . . . . . . . X X . . .           ~ ~  . . . . . .! 4.",
"( u.O.O.~ O. .` ~ ~ $ + + & & &                               & & $ o o           O     + + O + o           ~ 7. .4.4. .!  .!  .",
"u.u.O.O.!  .! ` Q >.+ +   & - -             +                 & + = o o               + + + + +     @       ~ ~  . .4. .4.!  . .",
"u.O.u.O.` ` !  .>.Q & + & ; - ; * & * * ; * ; ; ; + + + & + + ; ; l & & &       + + + ; ; ; ; ; ; ; ; ;     7.O.4. .! 4. . . .! ",
"7.x.x. . . .! ` Q Q & - = + ; ; & - - ; * * ; ; - + + + + & & ; ; ; - & &       + + + ; ; ; ; ; ; ; * ;     l.u.! 4. .! !  .! ! ",
"x.4.x.3.! ` !  .` ` & & + = ; ; * & & ; ; ; ; ; ; & + + &   & ; ; ; & & &       + + + ; ; ; ; ; ; ; : ;     l.l.! ! ! ! ! ! !  .",
" .x.3.3.` ! `  .` `     + - - - G G G H H H - ; ;     +   & @ G G G - - - + + + +     = + - G G c H H H @ & 3.d. .! !  . .R !  .",
"4.x.3.3. . .` ! ` `     + - - & G G G H H H ; ; ;   &   @ & & G G G - - - + + + +     + - + G G G H H H & & d.4. .` !  .R  .! ! ",
"7.l.d.l.d.l.d.l.d.7.      * * * G G G H H H ; ; ; $ + + & & & G G G + ; + + + +       = & = G G G H H H + & 3.3.` ! `  .` ! ` ` ",
"3.d.l.d.l.d.l.d.3.3.      & & & ; ; * - * *   +   * * - ; ; ; H H H G ; G - ; ; + + + & = & ; ; ; + + -     ` d. .` !  .` 3.! 3.",
"u.l.d.l.d.l.d.d.3. .      +   + - * * * * * +   + - - ; ; ; ; H H H ; G G ; ; ; + + + & & & ; ; & + + +     4.4.! ! ` ` 3.` ` ` ",
"l.d.l.d.l.d.d.4.3.3.            $ * * * * * +     - - - ; ; ; H H H G ; G - ; ; + + + & = & ; &       +     4.X.`  . .! ! ` ! 3.",
"u.u.3.3. .3. .3.O.3., $                           - = = & = =   + + + + + = = +       +   & & &           : X.X.` ` ` ` ` ! ` ` ",
"O.O.! 3.3. .3.! l.d.>                             - = = = & =   + + + + + + & =       + &   & +           : } } ` ` ` ` ` 3.! 3.",
"7.3.~  .!  .3.3.l.u., %                           = = = & = &   + + + &   = = &       +   & & &         $ : >.} ` ` ` ` ! 4.` ` ",
"O.O.3. .3. . . .l.l.` < #     @ @ # #                                                             +   $ < Q } } ` ` ` ` ` ` ! 4.",
"` 3.3.`  .4.4. .u.l.O.( J : > , # # #                                                             > > , ` ` 4.` ` ` ` ` 4.4.! ` ",
"3.( 3.3. . . . ._ _ ~ 7.( ( ! ( Q ` ` ` Q ~ ` ` ` >.>.>.` X.` ` ` ` X.` ` ` ` ` ` ! ` ` ` ` ` 4.d.d.d.` ` ` ! ` ` ` ` ` ! ` ! 4.",
"u.u.3.3.4. . .4.W ~ 7.~ ` ! ` ! ` Q ` Q Q ` X.X.` ` >.X.X.` X.` ` X.` ` X.` ` ` ` 4.! 4.` ` ` ` u.u.3.` ` ` ` ` ` ` ` ` ` ! ` 4.",
"u.u.3.3.4. . .4.O.~ ~ ~  .` ! ` Q ` Q ` Q X.` ` ` >.X.` X.X.` ` ` ` ` X.` ` X.` ! 4.` ` 3.! 4.! ` ` 4.` ` ` ` ` ` ` ` ` 4.4.` ! ",
"u.d.u.O.4. . . . .!  . .! ! ! ` ` Q ` Q ` ` ` ` ` X.X.` X.` ` X.X.` X.X.` ` X.` ! ` ` ! ` ` ! 3.3.` ` ` ` ` ` ` ` ! ` ` ! ! ` ` ",
"l.d.l.l.4.4.x.4.4. . . .3.` ` ` Q ` Q ` ` ` X.X.` X.X.X.X.` >.>.>.>.>.>.X.>.X.X.4.4.4.4.3.! 3.` ` 3.! 3.` ! 4.! ` 4.` ! 4.4.4.4.",
"C.d.l.l.4.x.x.x.4.4.3.3.3.! 3.! ` Q ` Q ` X.` ` ` X.` X.X.X.>.>.>.>.>.>.>.>.>.>.4.! 4.`  . . .` ! 3.3.! ! 4.4. .` 4.` 4.4.4.3.! ",
"c.C.l.C.x.x.4.x.4. .3.4.! 3.` ` ` ` Q ` Q ` X.` ` X.` X.X.X.>.>.>.>.>.>.>.>.>.` 4.` 4. . .4.3.` ` ` ! 3. .4.! 4.` ! ` !  .4.` 4."
};
