/* XPM */
static const char *Y2FudG9pbmZkaXI_[] = {
/* columns rows colors chars-per-pixel */
"64 64 132 2 ",
"   c #AD3D3D",
".  c #AD3E3D",
"X  c #AD3E3E",
"o  c #AE403E",
"O  c #AE3D3D",
"+  c #AE3E3D",
"@  c #AE3F3D",
"#  c #AF3F3E",
"$  c #AF3F3F",
"%  c #B03F3F",
"&  c #AD3C3C",
"*  c #AE3C3C",
"=  c #AB3B3B",
"-  c #AA3A3A",
";  c #AC3B3B",
":  c #9C2A26",
">  c #A22D29",
",  c #454341",
"<  c #524848",
"1  c #554A4A",
"2  c #444242",
"3  c #494646",
"4  c #564A4A",
"5  c #AE413E",
"6  c #AE3F3E",
"7  c #AE403F",
"8  c #AE3E3E",
"9  c #AF3E3E",
"0  c #AF3D3D",
"q  c #AC3C3C",
"w  c #AE3F3F",
"e  c #AC3D3D",
"r  c #545148",
"t  c #4E4A4A",
"y  c #494643",
"u  c #4F4D49",
"i  c #4D4545",
"p  c #514848",
"a  c #B04040",
"s  c #AD3D3C",
"d  c #AF403E",
"f  c #AD3F3C",
"g  c #AB3C3B",
"h  c #AC3C3B",
"j  c #AD3F3E",
"k  c #4A4343",
"l  c #423E3E",
"z  c #464343",
"x  c #4D4B4A",
"c  c #3F3D3D",
"v  c #3E3C3C",
"b  c #AC3D3B",
"n  c #AD403D",
"m  c #AD3F3D",
"M  c #AC3E3C",
"N  c #AE3F3C",
"B  c #AC3F3C",
"V  c #AB3D3B",
"C  c #403E3E",
"Z  c #4E4A46",
"A  c #615451",
"S  c #594F4C",
"D  c #4A4743",
"F  c #AC3D3C",
"G  c #B14141",
"H  c #B04140",
"J  c #AF413E",
"K  c #AE403D",
"L  c #4A4444",
"P  c #494747",
"I  c #424040",
"U  c #444040",
"Y  c #474545",
"T  c #4A4848",
"R  c #AF403D",
"E  c #AF403F",
"W  c #B14242",
"Q  c #B14040",
"!  c #B24242",
"~  c #B24141",
"^  c #B0403F",
"/  c #B24341",
"(  c #B14341",
")  c #B14240",
"_  c #B24441",
"`  c #B14441",
"'  c #444241",
"]  c #4C4944",
"[  c #494343",
"{  c #484542",
"}  c #B04240",
"|  c #464341",
" . c #4C4947",
".. c #474543",
"X. c #4A4846",
"o. c #4E4B49",
"O. c #4F4646",
"+. c #574B4B",
"@. c #434040",
"#. c #514E48",
"$. c #413F3F",
"%. c #4E4848",
"&. c #5A4F4F",
"*. c #564E4C",
"=. c #484444",
"-. c #43403F",
";. c #554B4B",
":. c #564B4B",
">. c #494743",
",. c #4D4B47",
"<. c #464444",
"1. c #484646",
"2. c #504D47",
"3. c #454141",
"4. c #4E4646",
"5. c #4E4949",
"6. c #534F4B",
"7. c #534949",
"8. c #514A4A",
"9. c #434141",
"0. c #4E4B47",
"q. c #4F4C48",
"w. c #4A4747",
"e. c #4C4848",
"r. c #484442",
"t. c #464141",
"y. c #4F4747",
"u. c #4B4949",
"i. c #645353",
"p. c #504747",
"a. c #56514A",
"s. c #584C4C",
/* pixels */
"    . X X X o o   O + @ # $ $ $ % & & & * = - - - - - - - - ; & : > , , < < < < < < 1 1 1 1 1 1 2 2 2 2 2 2 3 3 3 3 3 3 4 4 4 4 ",
"      X X X o 5     O @ # $ $ % % & & & * = - - - - - - - - ; & : > , , < < < < < < 1 1 1 1 1 1 2 2 2 2 2 2 3 3 3 3 3 3 4 4 4 4 ",
"O O O X X X 6 7     8 X 8 8 8 9 9 O O O 0 q = = ; ; = = = = = ; : > , , < < < < < < 1 1 1 1 1 1 2 2 2 2 2 2 3 3 3 3 3 3 4 4 4 4 ",
"O     X X X w w     X X 8 8 8 0 0 0 0 9 9 & ; ; ; ; = = = = = = : > , , < < < < < < 1 1 1 1 1 1 2 2 2 2 2 2 3 3 3 3 3 3 4 4 4 4 ",
"    X X X w w w     X X O O O O 0 0 0 9 9 & ; ; ; ; = = = = = = : > , , < < < < < < 1 1 1 1 1 1 2 2 2 2 2 2 3 3 3 3 3 3 4 4 4 4 ",
"X X X X X w w w e e     O O O O 0 0 0 9 9 & ; ; ; ; = = = = = = : > r r r r r r r r r r r r r r r r r r r r r r r r r r r r r r ",
"X X X X X 8 w $ e e     O 8 8 8 8 9 9 $ $ & ; ; ; ; q q q q = = : > t t 2 2 2 2 2 2 y y y y y y u u u u u u i i i i i i p p p p ",
"8 8 8 X X 8 8 8 e e   & O w w w $ a a a a O & & & &         q = : > t t 2 2 2 2 2 2 y y y y y y u u u u u u i i i i i i p p p p ",
"9 8 8 X 8 8 8 8 e & & s + w w w 9 $ $ $ $ O & & & & &       q = : > t t 2 2 2 2 2 2 y y y y y y u u u u u u i i i i i i p p p p ",
"d 6 8 8 8 8 8 8 q & & s + 8 8 8 9 $ $ $ $   q & & & & &     q = : > t t 2 2 2 2 2 2 y y y y y y u u u u u u i i i i i i p p p p ",
"o 8 8 w 8 8 8 8 & & s f + 8 8 8 8 $ $ $ $   q q q & & & &   q = : > t t 2 2 2 2 2 2 y y y y y y u u u u u u i i i i i i p p p p ",
"X X 8   ; = = = = = g h q         a a a a   ; ; ; ; & & & & q q : > r r r r r r r r r r r r r r r r r r r r r r r r r r r r r r ",
"j 6 8   = = = = = h h ; q         a a a a   = = ; ; q & & & q q : > k k l l l l l l z z z z z z x x x x x x c c c c c c v v v v ",
"5 o 8   = = = = g h ; ; &         a a a a   = = = ; q & & & q q : > k k l l l l l l z z z z z z x x x x x x c c c c c c v v v v ",
"5 6 8   = = ; ; b ; ; ; q     e e $ $ $ $ q = = = ; q q & & q q : > k k l l l l l l z z z z z z x x x x x x c c c c c c v v v v ",
"n m m M g g g g & ; ; q     e e e $ $ $ $ q = = = = = = ; ; q q : > k k l l l l l l z z z z z z x x x x x x c c c c c c v v v v ",
"N f B M V V V V & ; q q     e e e $ $ $ $ q = = = = = = = = q q : > k k l l l l l l z z z z z z x x x x x x c c c c c c v v v v ",
"N f f M V V V V & q q q   e e e e $ $ $ $ q = = = = = = = = q q : > r r r r r r r r r r r r r r r r r r r r r r r r r r r r r r ",
"N f f M V V V V & q q q   e e e e $ $ $ $ q = = = = = = = = q q : > C C Z Z Z Z Z Z A A A A A A S S S S S S D D D D D D v v v v ",
"O 8 O   V V V V & q e q           $ $ $ $ q = = = = = = = = = q : > C C Z Z Z Z Z Z A A A A A A S S S S S S D D D D D D v v v v ",
"$ $ 9 O q q q q   X X   8 8 8 8 8 $ $ $ $ q = = = = = = = = = = : > C C Z Z Z Z Z Z A A A A A A S S S S S S D D D D D D v v v v ",
"$ $ $ O q q q q X X X X 8 8 8 8 8 $ $ $ % & = = = = = = = = = = : > C C Z Z Z Z Z Z A A A A A A S S S S S S D D D D D D v v v v ",
"$ $ $ + F q q & X X X 8 6 6 9 9 8 % % % % & = = = = = = = = = = : > C C Z Z Z Z Z Z A A A A A A S S S S S S D D D D D D v v v v ",
"$ $ $ 6 s & & & 8 8 8 8 o d # 9 9 % % % % & = = = = = = = = = = : > r r r r r r r r r r r r r r r r r r r r r r r r r r r r r r ",
"G G G H J J J J K K K @ $ a a % $ % % % % & ; ; ; ; q q q q q q : > L L P P P P P P I I I I I I U U U U U U Y Y Y Y Y Y T T T T ",
"G G G H J J J J R K K K E a a a a a a a a   ; ; ; & q q q q q q : > L L P P P P P P I I I I I I U U U U U U Y Y Y Y Y Y T T T T ",
"W G G Q d J J J R R K K E a a a a a a a a O ; ; & & q q q q F B : > L L P P P P P P I I I I I I U U U U U U Y Y Y Y Y Y T T T T ",
"! ~ ~ Q ^ J J J R R R K E a a a a a a a a O & & & & q q q q M B : > L L P P P P P P I I I I I I U U U U U U Y Y Y Y Y Y T T T T ",
"/ ( G ) # # # # + + + + ^ a a a a a a a a O * * * & q q q q F F : > L L P P P P P P I I I I I I U U U U U U Y Y Y Y Y Y T T T T ",
"_ ` ( H d # 9 9 O O O O % Q Q a a Q Q Q Q 0 * * O & q q q q q q : > r r r r r r r r r r r r r r r r r r r r r r r r r r r r r r ",
"_ _ ( H J d # 9 O O O O % Q Q Q Q G G G G 9 * O O   q q q q q q : > y y ' ' ' ' ' ' ] ] ] ] ] ] [ [ [ [ [ [ [ [ [ [ [ [ { { { { ",
"_ _ _ } J J J 9 @ O O O % Q Q Q Q G G G G 9 O O O O q q & & q q : > y y ' ' ' ' ' ' ] ] ] ] ] ] [ [ [ [ [ [ [ [ [ [ [ [ { { { { ",
": : : : : : : : : : : : : : : : : : : : : : : : : : : : : : : : : > y y ' ' ' ' ' ' ] ] ] ] ] ] [ [ [ [ [ [ [ [ [ [ [ [ { { { { ",
"> > > > > > > > > > > > > > > > > > > > > > > > > > > > > > > > > > y y ' ' ' ' ' ' ] ] ] ] ] ] [ [ [ [ [ [ [ [ [ [ [ [ { { { { ",
"| | | | | |  . . . . . .............X.X.X.X.X.X.o.o.o.o.o.o.y y y y y y ' ' ' ' ' ' ] ] ] ] ] ] [ [ [ [ [ [ [ [ [ [ [ [ { { { { ",
"r r r r r r r r r r r r r r r r r r r r r r r r r r r r r r r r r r r r r r r r r r r r r r r r r r r r r r r r r r r r r r r r ",
"O.O.O.O.O.O.+.+.+.+.+.+.@.@.@.@.@.@.#.#.#.#.#.#.P P P P P P $.$.$.$.$.$.P P P P P P C C C C C C %.%.%.%.%.%.&.&.&.&.&.&.*.*.*.*.",
"O.O.O.O.O.O.+.+.+.+.+.+.@.@.@.@.@.@.#.#.#.#.#.#.P P P P P P $.$.$.$.$.$.P P P P P P C C C C C C %.%.%.%.%.%.&.&.&.&.&.&.*.*.*.*.",
"O.O.O.O.O.O.+.+.+.+.+.+.@.@.@.@.@.@.#.#.#.#.#.#.P P P P P P $.$.$.$.$.$.P P P P P P C C C C C C %.%.%.%.%.%.&.&.&.&.&.&.*.*.*.*.",
"O.O.O.O.O.O.+.+.+.+.+.+.@.@.@.@.@.@.#.#.#.#.#.#.P P P P P P $.$.$.$.$.$.P P P P P P C C C C C C %.%.%.%.%.%.&.&.&.&.&.&.*.*.*.*.",
"O.O.O.O.O.O.+.+.+.+.+.+.@.@.@.@.@.@.#.#.#.#.#.#.P P P P P P $.$.$.$.$.$.P P P P P P C C C C C C %.%.%.%.%.%.&.&.&.&.&.&.*.*.*.*.",
"r r r r r r r r r r r r r r r r r r r r r r r r r r r r r r r r r r r r r r r r r r r r r r r r r r r r r r r r r r r r r r r r ",
"c c c c c c =.=.=.=.=.=.Y Y Y Y Y Y -.-.-.-.-.-.;.;.;.;.;.;.:.:.:.:.:.:.2 2 2 2 2 2 >.>.>.>.>.>.,.,.,.,.,.,.2 2 2 2 2 2 <.<.<.<.",
"c c c c c c =.=.=.=.=.=.Y Y Y Y Y Y -.-.-.-.-.-.;.;.;.;.;.;.:.:.:.:.:.:.2 2 2 2 2 2 >.>.>.>.>.>.,.,.,.,.,.,.2 2 2 2 2 2 <.<.<.<.",
"c c c c c c =.=.=.=.=.=.Y Y Y Y Y Y -.-.-.-.-.-.;.;.;.;.;.;.:.:.:.:.:.:.2 2 2 2 2 2 >.>.>.>.>.>.,.,.,.,.,.,.2 2 2 2 2 2 <.<.<.<.",
"c c c c c c =.=.=.=.=.=.Y Y Y Y Y Y -.-.-.-.-.-.;.;.;.;.;.;.:.:.:.:.:.:.2 2 2 2 2 2 >.>.>.>.>.>.,.,.,.,.,.,.2 2 2 2 2 2 <.<.<.<.",
"c c c c c c =.=.=.=.=.=.Y Y Y Y Y Y -.-.-.-.-.-.;.;.;.;.;.;.:.:.:.:.:.:.2 2 2 2 2 2 >.>.>.>.>.>.,.,.,.,.,.,.2 2 2 2 2 2 <.<.<.<.",
"r r r r r r r r r r r r r r r r r r r r r r r r r r r r r r r r r r r r r r r r r r r r r r r r r r r r r r r r r r r r r r r r ",
"Y Y Y Y Y Y 1.1.1.1.1.1.2.2.2.2.2.2.<.<.<.<.<.<.3.3.3.3.3.3.t t t t t t <.<.<.<.<.<.4.4.4.4.4.4.+.+.+.+.+.+.5.5.5.5.5.5.v v v v ",
"Y Y Y Y Y Y 1.1.1.1.1.1.2.2.2.2.2.2.<.<.<.<.<.<.3.3.3.3.3.3.t t t t t t <.<.<.<.<.<.4.4.4.4.4.4.+.+.+.+.+.+.5.5.5.5.5.5.v v v v ",
"Y Y Y Y Y Y 1.1.1.1.1.1.2.2.2.2.2.2.<.<.<.<.<.<.3.3.3.3.3.3.t t t t t t <.<.<.<.<.<.4.4.4.4.4.4.+.+.+.+.+.+.5.5.5.5.5.5.v v v v ",
"Y Y Y Y Y Y 1.1.1.1.1.1.2.2.2.2.2.2.<.<.<.<.<.<.3.3.3.3.3.3.t t t t t t <.<.<.<.<.<.4.4.4.4.4.4.+.+.+.+.+.+.5.5.5.5.5.5.v v v v ",
"Y Y Y Y Y Y 1.1.1.1.1.1.2.2.2.2.2.2.<.<.<.<.<.<.3.3.3.3.3.3.t t t t t t <.<.<.<.<.<.4.4.4.4.4.4.+.+.+.+.+.+.5.5.5.5.5.5.v v v v ",
"r r r r r r r r r r r r r r r r r r r r r r r r r r r r r r r r r r r r r r r r r r r r r r r r r r r r r r r r r r r r r r r r ",
"D D D D D D 6.6.6.6.6.6.7.7.7.7.7.7.8.8.8.8.8.8.9.9.9.9.9.9.0.0.0.0.0.0.q.q.q.q.q.q.w.w.w.w.w.w.e.e.e.e.e.e.r.r.r.r.r.r.{ { { { ",
"D D D D D D 6.6.6.6.6.6.7.7.7.7.7.7.8.8.8.8.8.8.9.9.9.9.9.9.0.0.0.0.0.0.q.q.q.q.q.q.w.w.w.w.w.w.e.e.e.e.e.e.r.r.r.r.r.r.{ { { { ",
"D D D D D D 6.6.6.6.6.6.7.7.7.7.7.7.8.8.8.8.8.8.9.9.9.9.9.9.0.0.0.0.0.0.q.q.q.q.q.q.w.w.w.w.w.w.e.e.e.e.e.e.r.r.r.r.r.r.{ { { { ",
"D D D D D D 6.6.6.6.6.6.7.7.7.7.7.7.8.8.8.8.8.8.9.9.9.9.9.9.0.0.0.0.0.0.q.q.q.q.q.q.w.w.w.w.w.w.e.e.e.e.e.e.r.r.r.r.r.r.{ { { { ",
"D D D D D D 6.6.6.6.6.6.7.7.7.7.7.7.8.8.8.8.8.8.9.9.9.9.9.9.0.0.0.0.0.0.q.q.q.q.q.q.w.w.w.w.w.w.e.e.e.e.e.e.r.r.r.r.r.r.{ { { { ",
"r r r r r r r r r r r r r r r r r r r r r r r r r r r r r r r r r r r r r r r r r r r r r r r r r r r r r r r r r r r r r r r r ",
"v v v v v v t.t.t.t.t.t.y.y.y.y.y.y.U U U U U U u.u.u.u.u.u.@.@.@.@.@.@.i.i.i.i.i.i.p.p.p.p.p.p.$.$.$.$.$.$.a.a.a.a.a.a.s.s.s.s.",
"v v v v v v t.t.t.t.t.t.y.y.y.y.y.y.U U U U U U u.u.u.u.u.u.@.@.@.@.@.@.i.i.i.i.i.i.p.p.p.p.p.p.$.$.$.$.$.$.a.a.a.a.a.a.s.s.s.s.",
"v v v v v v t.t.t.t.t.t.y.y.y.y.y.y.U U U U U U u.u.u.u.u.u.@.@.@.@.@.@.i.i.i.i.i.i.p.p.p.p.p.p.$.$.$.$.$.$.a.a.a.a.a.a.s.s.s.s.",
"v v v v v v t.t.t.t.t.t.y.y.y.y.y.y.U U U U U U u.u.u.u.u.u.@.@.@.@.@.@.i.i.i.i.i.i.p.p.p.p.p.p.$.$.$.$.$.$.a.a.a.a.a.a.s.s.s.s."
};
