/* XPM */
static const char *Y2FudG9zdXBlc3E_[] = {
/* columns rows colors chars-per-pixel */
"64 64 126 2 ",
"   c #5C524E",
".  c #4D4846",
"X  c #413F3F",
"o  c #413E3E",
"O  c #4B4844",
"+  c #454341",
"@  c #524848",
"#  c #554A4A",
"$  c #444242",
"%  c #494646",
"&  c #564A4A",
"*  c #545148",
"=  c #454343",
"-  c #464444",
";  c #594E4E",
":  c #3F3D3D",
">  c #484343",
",  c #4E4A4A",
"<  c #494643",
"1  c #4F4D49",
"2  c #4D4545",
"3  c #514848",
"4  c #504D4A",
"5  c #434141",
"6  c #464141",
"7  c #4A4848",
"8  c #4D4646",
"9  c #4A4343",
"0  c #423E3E",
"q  c #464343",
"w  c #4D4B4A",
"e  c #3E3C3C",
"r  c #444140",
"t  c #474441",
"y  c #403E3E",
"u  c #4E4A46",
"i  c #615451",
"p  c #594F4C",
"a  c #4A4743",
"s  c #504947",
"d  c #5D4F4F",
"f  c #444141",
"g  c #605150",
"h  c #4A4444",
"j  c #494747",
"k  c #424040",
"l  c #444040",
"z  c #474545",
"x  c #464341",
"c  c #4C4947",
"v  c #474543",
"b  c #4A4846",
"n  c #4E4B49",
"m  c #A22D29",
"M  c #9C2A26",
"N  c #B24441",
"B  c #B24341",
"V  c #B24242",
"C  c #B14242",
"Z  c #B14141",
"A  c #AF3F3F",
"S  c #AE3D3D",
"D  c #AE3F3C",
"F  c #AD403D",
"G  c #AE413E",
"H  c #AD3F3E",
"J  c #AD3E3E",
"K  c #AE403E",
"L  c #AF403E",
"P  c #AF3E3E",
"I  c #AE3E3E",
"U  c #AD3D3D",
"Y  c #B14441",
"T  c #B14341",
"R  c #B24141",
"E  c #AD3F3C",
"W  c #AD3F3D",
"Q  c #AE3F3E",
"!  c #AC3F3C",
"~  c #AD3E3D",
"^  c #B04240",
"/  c #B04140",
"(  c #B14240",
")  c #B14040",
"_  c #AE3E3D",
"`  c #AC3E3C",
"'  c #AE3F3F",
"]  c #4F4646",
"[  c #574B4B",
"{  c #434040",
"}  c #514E48",
"|  c #AF413E",
" . c #AF3F3E",
".. c #B0403F",
"X. c #AD3D3C",
"o. c #AC3D3C",
"O. c #AC3C3C",
"+. c #AB3D3B",
"@. c #AB3C3B",
"#. c #AB3B3B",
"$. c #AC3B3B",
"%. c #AD3C3C",
"&. c #AE403F",
"*. c #AE3F3D",
"=. c #AF403D",
"-. c #AE403D",
";. c #AC3D3B",
":. c #AC3D3D",
">. c #AC3C3B",
",. c #484444",
"<. c #43403F",
"1. c #554B4B",
"2. c #B03F3F",
"3. c #AF403F",
"4. c #B04040",
"5. c #AF3D3D",
"6. c #484646",
"7. c #504D47",
"8. c #454141",
"9. c #AE3C3C",
"0. c #534F4B",
"q. c #534949",
"w. c #514A4A",
"e. c #AA3A3A",
"r. c #4F4747",
"t. c #4B4949",
/* pixels */
"            . . . . . . X X X X X X o o o o o o O O O O O O + + + + + + @ @ @ @ @ @ # # # # # # $ $ $ $ $ $ % % % % % % & & & & ",
"            . . . . . . X X X X X X o o o o o o O O O O O O + + + + + + @ @ @ @ @ @ # # # # # # $ $ $ $ $ $ % % % % % % & & & & ",
"            . . . . . . X X X X X X o o o o o o O O O O O O + + + + + + @ @ @ @ @ @ # # # # # # $ $ $ $ $ $ % % % % % % & & & & ",
"            . . . . . . X X X X X X o o o o o o O O O O O O + + + + + + @ @ @ @ @ @ # # # # # # $ $ $ $ $ $ % % % % % % & & & & ",
"            . . . . . . X X X X X X o o o o o o O O O O O O + + + + + + @ @ @ @ @ @ # # # # # # $ $ $ $ $ $ % % % % % % & & & & ",
"* * * * * * * * * * * * * * * * * * * * * * * * * * * * * * * * * * * * * * * * * * * * * * * * * * * * * * * * * * * * * * * * ",
"= = = = = = - - - - - - ; ; ; ; ; ; : : : : : : > > > > > > , , , , , , $ $ $ $ $ $ < < < < < < 1 1 1 1 1 1 2 2 2 2 2 2 3 3 3 3 ",
"= = = = = = - - - - - - ; ; ; ; ; ; : : : : : : > > > > > > , , , , , , $ $ $ $ $ $ < < < < < < 1 1 1 1 1 1 2 2 2 2 2 2 3 3 3 3 ",
"= = = = = = - - - - - - ; ; ; ; ; ; : : : : : : > > > > > > , , , , , , $ $ $ $ $ $ < < < < < < 1 1 1 1 1 1 2 2 2 2 2 2 3 3 3 3 ",
"= = = = = = - - - - - - ; ; ; ; ; ; : : : : : : > > > > > > , , , , , , $ $ $ $ $ $ < < < < < < 1 1 1 1 1 1 2 2 2 2 2 2 3 3 3 3 ",
"= = = = = = - - - - - - ; ; ; ; ; ; : : : : : : > > > > > > , , , , , , $ $ $ $ $ $ < < < < < < 1 1 1 1 1 1 2 2 2 2 2 2 3 3 3 3 ",
"* * * * * * * * * * * * * * * * * * * * * * * * * * * * * * * * * * * * * * * * * * * * * * * * * * * * * * * * * * * * * * * * ",
"4 4 4 4 4 4 5 5 5 5 5 5 6 6 6 6 6 6 7 7 7 7 7 7 8 8 8 8 8 8 9 9 9 9 9 9 0 0 0 0 0 0 q q q q q q w w w w w w : : : : : : e e e e ",
"4 4 4 4 4 4 5 5 5 5 5 5 6 6 6 6 6 6 7 7 7 7 7 7 8 8 8 8 8 8 9 9 9 9 9 9 0 0 0 0 0 0 q q q q q q w w w w w w : : : : : : e e e e ",
"4 4 4 4 4 4 5 5 5 5 5 5 6 6 6 6 6 6 7 7 7 7 7 7 8 8 8 8 8 8 9 9 9 9 9 9 0 0 0 0 0 0 q q q q q q w w w w w w : : : : : : e e e e ",
"4 4 4 4 4 4 5 5 5 5 5 5 6 6 6 6 6 6 7 7 7 7 7 7 8 8 8 8 8 8 9 9 9 9 9 9 0 0 0 0 0 0 q q q q q q w w w w w w : : : : : : e e e e ",
"4 4 4 4 4 4 5 5 5 5 5 5 6 6 6 6 6 6 7 7 7 7 7 7 8 8 8 8 8 8 9 9 9 9 9 9 0 0 0 0 0 0 q q q q q q w w w w w w : : : : : : e e e e ",
"* * * * * * * * * * * * * * * * * * * * * * * * * * * * * * * * * * * * * * * * * * * * * * * * * * * * * * * * * * * * * * * * ",
"r r r r r r q q q q q q = = = = = = t t t t t t O O O O O O y y y y y y u u u u u u i i i i i i p p p p p p a a a a a a e e e e ",
"r r r r r r q q q q q q = = = = = = t t t t t t O O O O O O y y y y y y u u u u u u i i i i i i p p p p p p a a a a a a e e e e ",
"r r r r r r q q q q q q = = = = = = t t t t t t O O O O O O y y y y y y u u u u u u i i i i i i p p p p p p a a a a a a e e e e ",
"r r r r r r q q q q q q = = = = = = t t t t t t O O O O O O y y y y y y u u u u u u i i i i i i p p p p p p a a a a a a e e e e ",
"r r r r r r q q q q q q = = = = = = t t t t t t O O O O O O y y y y y y u u u u u u i i i i i i p p p p p p a a a a a a e e e e ",
"* * * * * * * * * * * * * * * * * * * * * * * * * * * * * * * * * * * * * * * * * * * * * * * * * * * * * * * * * * * * * * * * ",
"s s s s s s d d d d d d 5 5 5 5 5 5 f f f f f f g g g g g g h h h h h h j j j j j j k k k k k k l l l l l l z z z z z z 7 7 7 7 ",
"s s s s s s d d d d d d 5 5 5 5 5 5 f f f f f f g g g g g g h h h h h h j j j j j j k k k k k k l l l l l l z z z z z z 7 7 7 7 ",
"s s s s s s d d d d d d 5 5 5 5 5 5 f f f f f f g g g g g g h h h h h h j j j j j j k k k k k k l l l l l l z z z z z z 7 7 7 7 ",
"s s s s s s d d d d d d 5 5 5 5 5 5 f f f f f f g g g g g g h h h h h h j j j j j j k k k k k k l l l l l l z z z z z z 7 7 7 7 ",
"s s s s s s d d d d d d 5 5 5 5 5 5 f f f f f f g g g g g g h h h h h h j j j j j j k k k k k k l l l l l l z z z z z z 7 7 7 7 ",
"* * * * * * * * * * * * * * * * * * * * * * * * * * * * * * * * * * * * * * * * * * * * * * * * * * * * * * * * * * * * * * * * ",
"x x x x x x c c c c c c v v v v v v b b b b b b n n n n n n m m m m m m m m m m m m m m m m m m m m m m m m m m m m m m m m m m ",
"x x x x x x c c c c c c v v v v v v b b b b b b n n n n n n m M M M M M M M M M M M M M M M M M M M M M M M M M M M M M M M M M ",
"x x x x x x c c c c c c v v v v v v b b b b b b n n n n n n m M N N N B V C Z Z A A A A S D D D F G G H J K L P I J J U S S U U ",
"x x x x x x c c c c c c v v v v v v b b b b b b n n n n n n m M N N Y T R Z Z Z A A A A I E E E W Q K Q J I Q I I J J U U S U U ",
"x x x x x x c c c c c c v v v v v v b b b b b b n n n n n n m M N T T Z R Z Z Z A A A P S E E ! W I I I I I I I I J J J U S U ~ ",
"* * * * * * * * * * * * * * * * * * * * * * * * * * * * * * m M ^ / / ( ) ) / / Q _ S S U ` ` ` ` U U U U ' I J J J J J J J J J ",
"] ] ] ] ] ] [ [ [ [ [ [ { { { { { { } } } } } } j j j j j j m M | | L  ...L | | X.o.O.O.+.+.+.+.@.#.#.#.$.I I I J J J J J J J J ",
"] ] ] ] ] ] [ [ [ [ [ [ { { { { { { } } } } } } j j j j j j m M | L  . .| | | | %.O.O.O.+.+.+.+.@.#.#.#.#.I I I I I ' ' J J J J ",
"] ] ] ] ] ] [ [ [ [ [ [ { { { { { { } } } } } } j j j j j j m M |  .P  .| | | | %.O.O.O.+.+.+.+.@.$.#.#.#.I I I I ' ' ' ' Q K K ",
"] ] ] ] ] ] [ [ [ [ [ [ { { { { { { } } } } } } j j j j j j m M P P P  .| | | | %.%.O.O.+.+.+.+.@.$.#.#.#.I I I I A ' ' ' &.G K ",
"] ] ] ] ] ] [ [ [ [ [ [ { { { { { { } } } } } } j j j j j j m M *.S S _ =.=.=.-.I J J U %.%.%.%.%.;.@.#.#.%.O.:.:.:.:.U U U U U ",
"* * * * * * * * * * * * * * * * * * * * * * * * * * * * * * m M S S S _ =.=.-.-.I J J J O.O.O.$.$.$.>.>.#.%.%.%.:.:.:.U U U U S ",
": : : : : : ,.,.,.,.,.,.z z z z z z <.<.<.<.<.<.1.1.1.1.1.1.m M S S S _ =.-.-.-.I J J J :.O.O.O.$.$.$.>.@.X.%.%.U U U J J I S _ ",
": : : : : : ,.,.,.,.,.,.z z z z z z <.<.<.<.<.<.1.1.1.1.1.1.m M S S S _ -.-.-.*.I I J U O.O.O.O.O.$.$.$.>.E X.X.%.U U J J J *.*.",
": : : : : : ,.,.,.,.,.,.z z z z z z <.<.<.<.<.<.1.1.1.1.1.1.m M 2.2.2...3.3.3.A K Q I I U U U U U O.%.O.O._ _ _ S S S S I I  . .",
": : : : : : ,.,.,.,.,.,.z z z z z z <.<.<.<.<.<.1.1.1.1.1.1.m M ) ) ) 4.4.4.4.4.L Q I I U :.:.U U U U U U I I ' ' I S S I I A A ",
": : : : : : ,.,.,.,.,.,.z z z z z z <.<.<.<.<.<.1.1.1.1.1.1.m M ) ) ) 4.4.4.4.4. .P I I U :.:.:.:.U U U U I I ' ' I S S I I A A ",
"* * * * * * * * * * * * * * * * * * * * * * * * * * * * * * m M ) ) 4.4.4.4.4.2.P P I I U :.:.:.:.:.U U U I I ' ' I S S 5.P 2.A ",
"z z z z z z 6.6.6.6.6.6.7.7.7.7.7.7.- - - - - - 8.8.8.8.8.8.m M ) ) 4.4.4.4.4.A P I I I U :.:.:.:.:.U U U I P P A I 5.5.5.P 2.2.",
"z z z z z z 6.6.6.6.6.6.7.7.7.7.7.7.- - - - - - 8.8.8.8.8.8.m M Z Z ) 4.4.4.4.2.2.2.A A A A A A A A 4.4.4.A A A 4.P 5.5.5.S %.%.",
"z z z z z z 6.6.6.6.6.6.7.7.7.7.7.7.- - - - - - 8.8.8.8.8.8.m M Z Z ) 4.4.4.4.2.2.2.A A A A A A A A 4.4.4.A A A 4.P 5.5.5.S %.%.",
"z z z z z z 6.6.6.6.6.6.7.7.7.7.7.7.- - - - - - 8.8.8.8.8.8.m M Z Z ) 4.4.4.4.2.2.2.A A A A A A A A 4.4.4.A A A 4.A P P P S %.%.",
"z z z z z z 6.6.6.6.6.6.7.7.7.7.7.7.- - - - - - 8.8.8.8.8.8.m M Z Z ) 4.4.4.4.2.2.2.2.A A A A A A A 4.4.4.A A A 4.A P P P 5.9.9.",
"* * * * * * * * * * * * * * * * * * * * * * * * * * * * * * m M P P 5.S S S U %.%.%.%.O.O.O.O.O.O.O.U U U U U S S %.%.%.%.O.#.#.",
"a a a a a a 0.0.0.0.0.0.q.q.q.q.q.q.w.w.w.w.w.w.5 5 5 5 5 5 m M S 9.9.9.%.$.$.$.#.#.#.#.#.#.#.#.#.#.#.#.$.O.O.%.%.$.$.$.$.#.e.e.",
"a a a a a a 0.0.0.0.0.0.q.q.q.q.q.q.w.w.w.w.w.w.5 5 5 5 5 5 m M S S 9.9.%.$.$.$.#.#.#.#.#.#.#.#.#.#.#.#.$.O.%.%.%.$.$.$.$.#.e.e.",
"a a a a a a 0.0.0.0.0.0.q.q.q.q.q.q.w.w.w.w.w.w.5 5 5 5 5 5 m M S S S 9.%.%.$.$.#.#.#.#.#.#.#.#.#.#.#.$.$.O.%.%.%.$.$.$.$.$.e.e.",
"a a a a a a 0.0.0.0.0.0.q.q.q.q.q.q.w.w.w.w.w.w.5 5 5 5 5 5 m M S U %.%.%.%.%.$.#.#.#.#.#.#.#.#.#.$.$.$.$.%.%.%.%.$.$.$.$.$.e.e.",
"a a a a a a 0.0.0.0.0.0.q.q.q.q.q.q.w.w.w.w.w.w.5 5 5 5 5 5 m M O.O.O.O.O.O.O.O.#.#.#.#.#.#.#.#.#.O.O.O.%.%.%.%.U O.#.#.#.#.e.e.",
"* * * * * * * * * * * * * * * * * * * * * * * * * * * * * * m M O.O.O.O.O.O.O.O.#.#.#.#.#.#.#.#.#.O.%.%.%.%.%.U U O.#.#.#.#.e.e.",
"e e e e e e 6 6 6 6 6 6 r.r.r.r.r.r.l l l l l l t.t.t.t.t.t.m M %.O.O.O.O.O.O.O.#.#.#.#.#.#.#.#.$.%.%.%.%.%.U U U O.#.#.#.#.e.e.",
"e e e e e e 6 6 6 6 6 6 r.r.r.r.r.r.l l l l l l t.t.t.t.t.t.m M %.O.O.O.O.O.O.O.#.#.#.#.#.#.#.#.$.%.%.%.%.U U U U O.#.#.#.#.e.e.",
"e e e e e e 6 6 6 6 6 6 r.r.r.r.r.r.l l l l l l t.t.t.t.t.t.m M O.O.O.o.` o.O.O.#.#.#.#.#.O.O.O.O.O.O.O.O.O.O.O.O.#.#.#.#.#.$.$.",
"e e e e e e 6 6 6 6 6 6 r.r.r.r.r.r.l l l l l l t.t.t.t.t.t.m M O.O.O.o.! ! O.O.#.#.#.#.O.O.O.O.O.O.O.O.O.#.#.#.#.#.#.#.#.$.%.%."
};
