/* XPM */
static const char *Y2FudG9pbmZlc3E_[] = {
/* columns rows colors chars-per-pixel */
"64 64 131 2 ",
"   c #5C524E",
".  c #4D4846",
"X  c #413F3F",
"o  c #413E3E",
"O  c #4B4844",
"+  c #A22D29",
"@  c #9C2A26",
"#  c #AD3D3D",
"$  c #AD3E3D",
"%  c #AD3E3E",
"&  c #AE403E",
"*  c #AE3D3D",
"=  c #AE3E3D",
"-  c #AE3F3D",
";  c #AF3F3E",
":  c #AF3F3F",
">  c #B03F3F",
",  c #AD3C3C",
"<  c #AE3C3C",
"1  c #AB3B3B",
"2  c #AA3A3A",
"3  c #AC3B3B",
"4  c #AE413E",
"5  c #AE3F3E",
"6  c #AE403F",
"7  c #AE3E3E",
"8  c #AF3E3E",
"9  c #AF3D3D",
"0  c #AC3C3C",
"q  c #AE3F3F",
"w  c #545148",
"e  c #AC3D3D",
"r  c #454343",
"t  c #464444",
"y  c #594E4E",
"u  c #3F3D3D",
"i  c #484343",
"p  c #B04040",
"a  c #AD3D3C",
"s  c #AF403E",
"d  c #AD3F3C",
"f  c #AB3C3B",
"g  c #AC3C3B",
"h  c #504D4A",
"j  c #434141",
"k  c #464141",
"l  c #4A4848",
"z  c #4D4646",
"x  c #AD3F3E",
"c  c #AC3D3B",
"v  c #AD403D",
"b  c #AD3F3D",
"n  c #AC3E3C",
"m  c #AE3F3C",
"M  c #AC3F3C",
"N  c #AB3D3B",
"B  c #444140",
"V  c #464343",
"C  c #474441",
"Z  c #AC3D3C",
"A  c #504947",
"S  c #5D4F4F",
"D  c #444141",
"F  c #605150",
"G  c #B14141",
"H  c #B04140",
"J  c #AF413E",
"K  c #AE403D",
"L  c #AF403D",
"P  c #AF403F",
"I  c #B14242",
"U  c #B14040",
"Y  c #B24242",
"T  c #B24141",
"R  c #B0403F",
"E  c #B24341",
"W  c #B14341",
"Q  c #B14240",
"!  c #B24441",
"~  c #B14441",
"^  c #464341",
"/  c #4C4947",
"(  c #474543",
")  c #4A4846",
"_  c #4E4B49",
"`  c #B04240",
"'  c #494643",
"]  c #444241",
"[  c #4C4944",
"{  c #494343",
"}  c #484542",
"|  c #4F4646",
" . c #574B4B",
".. c #434040",
"X. c #514E48",
"o. c #494747",
"O. c #403E3E",
"+. c #4E4848",
"@. c #5A4F4F",
"#. c #564E4C",
"$. c #484444",
"%. c #474545",
"&. c #43403F",
"*. c #554B4B",
"=. c #564B4B",
"-. c #444242",
";. c #494743",
":. c #4D4B47",
">. c #484646",
",. c #504D47",
"<. c #454141",
"1. c #4E4A4A",
"2. c #4E4646",
"3. c #4E4949",
"4. c #3E3C3C",
"5. c #4A4743",
"6. c #534F4B",
"7. c #534949",
"8. c #514A4A",
"9. c #4E4B47",
"0. c #4F4C48",
"q. c #4A4747",
"w. c #4C4848",
"e. c #484442",
"r. c #4F4747",
"t. c #444040",
"y. c #4B4949",
"u. c #645353",
"i. c #504747",
"p. c #56514A",
"a. c #584C4C",
/* pixels */
"            . . . . . . X X X X X X o o o o o o O O O O O O + @ # # $ % % % & & # * = - ; : : : > , , , < 1 2 2 2 2 2 2 2 2 3 , ",
"            . . . . . . X X X X X X o o o o o o O O O O O O + @ # # # % % % & 4 # # * - ; : : > > , , , < 1 2 2 2 2 2 2 2 2 3 , ",
"            . . . . . . X X X X X X o o o o o o O O O O O O + @ * * * % % % 5 6 # # 7 % 7 7 7 8 8 * * * 9 0 1 1 3 3 1 1 1 1 1 3 ",
"            . . . . . . X X X X X X o o o o o o O O O O O O + @ * # # % % % q q # # % % 7 7 7 9 9 9 9 8 8 , 3 3 3 3 1 1 1 1 1 1 ",
"            . . . . . . X X X X X X o o o o o o O O O O O O + @ # # % % % q q q # # % % * * * * 9 9 9 8 8 , 3 3 3 3 1 1 1 1 1 1 ",
"w w w w w w w w w w w w w w w w w w w w w w w w w w w w w w + @ % % % % % q q q e e # # * * * * 9 9 9 8 8 , 3 3 3 3 1 1 1 1 1 1 ",
"r r r r r r t t t t t t y y y y y y u u u u u u i i i i i i + @ % % % % % 7 q : e e # # * 7 7 7 7 8 8 : : , 3 3 3 3 0 0 0 0 1 1 ",
"r r r r r r t t t t t t y y y y y y u u u u u u i i i i i i + @ 7 7 7 % % 7 7 7 e e # , * q q q : p p p p * , , , , # # # # 0 1 ",
"r r r r r r t t t t t t y y y y y y u u u u u u i i i i i i + @ 8 7 7 % 7 7 7 7 e , , a = q q q 8 : : : : * , , , , , # # # 0 1 ",
"r r r r r r t t t t t t y y y y y y u u u u u u i i i i i i + @ s 5 7 7 7 7 7 7 0 , , a = 7 7 7 8 : : : : # 0 , , , , , # # 0 1 ",
"r r r r r r t t t t t t y y y y y y u u u u u u i i i i i i + @ & 7 7 q 7 7 7 7 , , a d = 7 7 7 7 : : : : # 0 0 0 , , , , # 0 1 ",
"w w w w w w w w w w w w w w w w w w w w w w w w w w w w w w + @ % % 7 # 3 1 1 1 1 1 f g 0 # # # # p p p p # 3 3 3 3 , , , , 0 0 ",
"h h h h h h j j j j j j k k k k k k l l l l l l z z z z z z + @ x 5 7 # 1 1 1 1 1 g g 3 0 # # # # p p p p # 1 1 3 3 0 , , , 0 0 ",
"h h h h h h j j j j j j k k k k k k l l l l l l z z z z z z + @ 4 & 7 # 1 1 1 1 f g 3 3 , # # # # p p p p # 1 1 1 3 0 , , , 0 0 ",
"h h h h h h j j j j j j k k k k k k l l l l l l z z z z z z + @ 4 5 7 # 1 1 3 3 c 3 3 3 0 # # e e : : : : 0 1 1 1 3 0 0 , , 0 0 ",
"h h h h h h j j j j j j k k k k k k l l l l l l z z z z z z + @ v b b n f f f f , 3 3 0 # # e e e : : : : 0 1 1 1 1 1 1 3 3 0 0 ",
"h h h h h h j j j j j j k k k k k k l l l l l l z z z z z z + @ m d M n N N N N , 3 0 0 # # e e e : : : : 0 1 1 1 1 1 1 1 1 0 0 ",
"w w w w w w w w w w w w w w w w w w w w w w w w w w w w w w + @ m d d n N N N N , 0 0 0 # e e e e : : : : 0 1 1 1 1 1 1 1 1 0 0 ",
"B B B B B B V V V V V V r r r r r r C C C C C C O O O O O O + @ m d d n N N N N , 0 0 0 # e e e e : : : : 0 1 1 1 1 1 1 1 1 0 0 ",
"B B B B B B V V V V V V r r r r r r C C C C C C O O O O O O + @ * 7 * # N N N N , 0 e 0 # # # # # : : : : 0 1 1 1 1 1 1 1 1 1 0 ",
"B B B B B B V V V V V V r r r r r r C C C C C C O O O O O O + @ : : 8 * 0 0 0 0 # % % # 7 7 7 7 7 : : : : 0 1 1 1 1 1 1 1 1 1 1 ",
"B B B B B B V V V V V V r r r r r r C C C C C C O O O O O O + @ : : : * 0 0 0 0 % % % % 7 7 7 7 7 : : : > , 1 1 1 1 1 1 1 1 1 1 ",
"B B B B B B V V V V V V r r r r r r C C C C C C O O O O O O + @ : : : = Z 0 0 , % % % 7 5 5 8 8 7 > > > > , 1 1 1 1 1 1 1 1 1 1 ",
"w w w w w w w w w w w w w w w w w w w w w w w w w w w w w w + @ : : : 5 a , , , 7 7 7 7 & s ; 8 8 > > > > , 1 1 1 1 1 1 1 1 1 1 ",
"A A A A A A S S S S S S j j j j j j D D D D D D F F F F F F + @ G G G H J J J J K K K - : p p > : > > > > , 3 3 3 3 0 0 0 0 0 0 ",
"A A A A A A S S S S S S j j j j j j D D D D D D F F F F F F + @ G G G H J J J J L K K K P p p p p p p p p # 3 3 3 , 0 0 0 0 0 0 ",
"A A A A A A S S S S S S j j j j j j D D D D D D F F F F F F + @ I G G U s J J J L L K K P p p p p p p p p * 3 3 , , 0 0 0 0 Z M ",
"A A A A A A S S S S S S j j j j j j D D D D D D F F F F F F + @ Y T T U R J J J L L L K P p p p p p p p p * , , , , 0 0 0 0 n M ",
"A A A A A A S S S S S S j j j j j j D D D D D D F F F F F F + @ E W G Q ; ; ; ; = = = = R p p p p p p p p * < < < , 0 0 0 0 Z Z ",
"w w w w w w w w w w w w w w w w w w w w w w w w w w w w w w + @ ! ~ W H s ; 8 8 * * * * > U U p p U U U U 9 < < * , 0 0 0 0 0 0 ",
"^ ^ ^ ^ ^ ^ / / / / / / ( ( ( ( ( ( ) ) ) ) ) ) _ _ _ _ _ _ + @ ! ! W H J s ; 8 * * * * > U U U U G G G G 8 < * * # 0 0 0 0 0 0 ",
"^ ^ ^ ^ ^ ^ / / / / / / ( ( ( ( ( ( ) ) ) ) ) ) _ _ _ _ _ _ + @ ! ! ! ` J J J 8 - * * * > U U U U G G G G 8 * * * * 0 0 , , 0 0 ",
"^ ^ ^ ^ ^ ^ / / / / / / ( ( ( ( ( ( ) ) ) ) ) ) _ _ _ _ _ _ + @ @ @ @ @ @ @ @ @ @ @ @ @ @ @ @ @ @ @ @ @ @ @ @ @ @ @ @ @ @ @ @ @ ",
"^ ^ ^ ^ ^ ^ / / / / / / ( ( ( ( ( ( ) ) ) ) ) ) _ _ _ _ _ _ + + + + + + + + + + + + + + + + + + + + + + + + + + + + + + + + + + ",
"^ ^ ^ ^ ^ ^ / / / / / / ( ( ( ( ( ( ) ) ) ) ) ) _ _ _ _ _ _ ' ' ' ' ' ' ] ] ] ] ] ] [ [ [ [ [ [ { { { { { { { { { { { { } } } } ",
"w w w w w w w w w w w w w w w w w w w w w w w w w w w w w w w w w w w w w w w w w w w w w w w w w w w w w w w w w w w w w w w w ",
"| | | | | |  . . . . . .............X.X.X.X.X.X.o.o.o.o.o.o.X X X X X X o.o.o.o.o.o.O.O.O.O.O.O.+.+.+.+.+.+.@.@.@.@.@.@.#.#.#.#.",
"| | | | | |  . . . . . .............X.X.X.X.X.X.o.o.o.o.o.o.X X X X X X o.o.o.o.o.o.O.O.O.O.O.O.+.+.+.+.+.+.@.@.@.@.@.@.#.#.#.#.",
"| | | | | |  . . . . . .............X.X.X.X.X.X.o.o.o.o.o.o.X X X X X X o.o.o.o.o.o.O.O.O.O.O.O.+.+.+.+.+.+.@.@.@.@.@.@.#.#.#.#.",
"| | | | | |  . . . . . .............X.X.X.X.X.X.o.o.o.o.o.o.X X X X X X o.o.o.o.o.o.O.O.O.O.O.O.+.+.+.+.+.+.@.@.@.@.@.@.#.#.#.#.",
"| | | | | |  . . . . . .............X.X.X.X.X.X.o.o.o.o.o.o.X X X X X X o.o.o.o.o.o.O.O.O.O.O.O.+.+.+.+.+.+.@.@.@.@.@.@.#.#.#.#.",
"w w w w w w w w w w w w w w w w w w w w w w w w w w w w w w w w w w w w w w w w w w w w w w w w w w w w w w w w w w w w w w w w ",
"u u u u u u $.$.$.$.$.$.%.%.%.%.%.%.&.&.&.&.&.&.*.*.*.*.*.*.=.=.=.=.=.=.-.-.-.-.-.-.;.;.;.;.;.;.:.:.:.:.:.:.-.-.-.-.-.-.t t t t ",
"u u u u u u $.$.$.$.$.$.%.%.%.%.%.%.&.&.&.&.&.&.*.*.*.*.*.*.=.=.=.=.=.=.-.-.-.-.-.-.;.;.;.;.;.;.:.:.:.:.:.:.-.-.-.-.-.-.t t t t ",
"u u u u u u $.$.$.$.$.$.%.%.%.%.%.%.&.&.&.&.&.&.*.*.*.*.*.*.=.=.=.=.=.=.-.-.-.-.-.-.;.;.;.;.;.;.:.:.:.:.:.:.-.-.-.-.-.-.t t t t ",
"u u u u u u $.$.$.$.$.$.%.%.%.%.%.%.&.&.&.&.&.&.*.*.*.*.*.*.=.=.=.=.=.=.-.-.-.-.-.-.;.;.;.;.;.;.:.:.:.:.:.:.-.-.-.-.-.-.t t t t ",
"u u u u u u $.$.$.$.$.$.%.%.%.%.%.%.&.&.&.&.&.&.*.*.*.*.*.*.=.=.=.=.=.=.-.-.-.-.-.-.;.;.;.;.;.;.:.:.:.:.:.:.-.-.-.-.-.-.t t t t ",
"w w w w w w w w w w w w w w w w w w w w w w w w w w w w w w w w w w w w w w w w w w w w w w w w w w w w w w w w w w w w w w w w ",
"%.%.%.%.%.%.>.>.>.>.>.>.,.,.,.,.,.,.t t t t t t <.<.<.<.<.<.1.1.1.1.1.1.t t t t t t 2.2.2.2.2.2. . . . . . .3.3.3.3.3.3.4.4.4.4.",
"%.%.%.%.%.%.>.>.>.>.>.>.,.,.,.,.,.,.t t t t t t <.<.<.<.<.<.1.1.1.1.1.1.t t t t t t 2.2.2.2.2.2. . . . . . .3.3.3.3.3.3.4.4.4.4.",
"%.%.%.%.%.%.>.>.>.>.>.>.,.,.,.,.,.,.t t t t t t <.<.<.<.<.<.1.1.1.1.1.1.t t t t t t 2.2.2.2.2.2. . . . . . .3.3.3.3.3.3.4.4.4.4.",
"%.%.%.%.%.%.>.>.>.>.>.>.,.,.,.,.,.,.t t t t t t <.<.<.<.<.<.1.1.1.1.1.1.t t t t t t 2.2.2.2.2.2. . . . . . .3.3.3.3.3.3.4.4.4.4.",
"%.%.%.%.%.%.>.>.>.>.>.>.,.,.,.,.,.,.t t t t t t <.<.<.<.<.<.1.1.1.1.1.1.t t t t t t 2.2.2.2.2.2. . . . . . .3.3.3.3.3.3.4.4.4.4.",
"w w w w w w w w w w w w w w w w w w w w w w w w w w w w w w w w w w w w w w w w w w w w w w w w w w w w w w w w w w w w w w w w ",
"5.5.5.5.5.5.6.6.6.6.6.6.7.7.7.7.7.7.8.8.8.8.8.8.j j j j j j 9.9.9.9.9.9.0.0.0.0.0.0.q.q.q.q.q.q.w.w.w.w.w.w.e.e.e.e.e.e.} } } } ",
"5.5.5.5.5.5.6.6.6.6.6.6.7.7.7.7.7.7.8.8.8.8.8.8.j j j j j j 9.9.9.9.9.9.0.0.0.0.0.0.q.q.q.q.q.q.w.w.w.w.w.w.e.e.e.e.e.e.} } } } ",
"5.5.5.5.5.5.6.6.6.6.6.6.7.7.7.7.7.7.8.8.8.8.8.8.j j j j j j 9.9.9.9.9.9.0.0.0.0.0.0.q.q.q.q.q.q.w.w.w.w.w.w.e.e.e.e.e.e.} } } } ",
"5.5.5.5.5.5.6.6.6.6.6.6.7.7.7.7.7.7.8.8.8.8.8.8.j j j j j j 9.9.9.9.9.9.0.0.0.0.0.0.q.q.q.q.q.q.w.w.w.w.w.w.e.e.e.e.e.e.} } } } ",
"5.5.5.5.5.5.6.6.6.6.6.6.7.7.7.7.7.7.8.8.8.8.8.8.j j j j j j 9.9.9.9.9.9.0.0.0.0.0.0.q.q.q.q.q.q.w.w.w.w.w.w.e.e.e.e.e.e.} } } } ",
"w w w w w w w w w w w w w w w w w w w w w w w w w w w w w w w w w w w w w w w w w w w w w w w w w w w w w w w w w w w w w w w w ",
"4.4.4.4.4.4.k k k k k k r.r.r.r.r.r.t.t.t.t.t.t.y.y.y.y.y.y.............u.u.u.u.u.u.i.i.i.i.i.i.X X X X X X p.p.p.p.p.p.a.a.a.a.",
"4.4.4.4.4.4.k k k k k k r.r.r.r.r.r.t.t.t.t.t.t.y.y.y.y.y.y.............u.u.u.u.u.u.i.i.i.i.i.i.X X X X X X p.p.p.p.p.p.a.a.a.a.",
"4.4.4.4.4.4.k k k k k k r.r.r.r.r.r.t.t.t.t.t.t.y.y.y.y.y.y.............u.u.u.u.u.u.i.i.i.i.i.i.X X X X X X p.p.p.p.p.p.a.a.a.a.",
"4.4.4.4.4.4.k k k k k k r.r.r.r.r.r.t.t.t.t.t.t.y.y.y.y.y.y.............u.u.u.u.u.u.i.i.i.i.i.i.X X X X X X p.p.p.p.p.p.a.a.a.a."
};
