/* XPM */
static const char *cmVk[] = {
/* columns rows colors chars-per-pixel */
"64 64 177 2 ",
"   c #090909",
".  c #120E0E",
"X  c #19090C",
"o  c #0F0F10",
"O  c #120E11",
"+  c #0F1017",
"@  c #131214",
"#  c #1B1314",
"$  c #151519",
"%  c #1C161A",
"&  c #1A1A1B",
"*  c #25090E",
"=  c #201314",
"-  c #2B161C",
";  c #211D1F",
":  c #2C181A",
">  c #311117",
",  c #121521",
"<  c #171923",
"1  c #1F1E20",
"2  c #161A2A",
"3  c #1B1F2D",
"4  c #201720",
"5  c #231D22",
"6  c #2C1E24",
"7  c #331F25",
"8  c #1F2024",
"9  c #232224",
"0  c #2B2025",
"q  c #262629",
"w  c #29252B",
"e  c #2B292D",
"r  c #312226",
"t  c #33242D",
"y  c #3B222A",
"u  c #302A2E",
"i  c #2E2D32",
"p  c #372635",
"a  c #3B2732",
"s  c #332D33",
"d  c #3C2D36",
"f  c #323136",
"g  c #34343A",
"h  c #39363C",
"j  c #39383F",
"k  c #410711",
"l  c #4D0C12",
"z  c #49141C",
"x  c #531B1F",
"c  c #630C16",
"v  c #650C19",
"b  c #7D1117",
"n  c #7E151E",
"m  c #781D23",
"M  c #432126",
"N  c #44252A",
"B  c #49242A",
"V  c #42282F",
"C  c #4B282D",
"Z  c #55282C",
"A  c #5C2A2F",
"S  c #412E33",
"D  c #4A2C34",
"F  c #552C33",
"G  c #5E2C34",
"H  c #44353E",
"J  c #53333B",
"K  c #6A2329",
"L  c #642E32",
"P  c #6F3036",
"I  c #753135",
"U  c #793236",
"Y  c #7D3539",
"T  c #3C3C44",
"R  c #693B40",
"E  c #7D3B41",
"W  c #42434C",
"Q  c #464650",
"!  c #494B55",
"~  c #4E4F5A",
"^  c #840A1A",
"/  c #8E0D1E",
"(  c #930B1E",
")  c #9C0C1F",
"_  c #87151E",
"`  c #841C1F",
"'  c #A00B1F",
"]  c #800920",
"[  c #9A0721",
"{  c #980F27",
"}  c #8E1421",
"|  c #85192D",
" . c #A30621",
".. c #A30A20",
"X. c #A01020",
"o. c #813437",
"O. c #8C3131",
"+. c #83363A",
"@. c #8A3639",
"#. c #833A3F",
"$. c #8E383B",
"%. c #933434",
"&. c #993636",
"*. c #933A3D",
"=. c #9D3A3C",
"-. c #A43939",
";. c #AD3D3D",
":. c #B03F3F",
">. c #AF403E",
",. c #B0413F",
"<. c #833D42",
"1. c #933F40",
"2. c #954344",
"3. c #9C4345",
"4. c #AE4141",
"5. c #AF4141",
"6. c #AE4040",
"7. c #AF4241",
"8. c #AF4240",
"9. c #AF4242",
"0. c #AF4343",
"q. c #AD4040",
"w. c #AF4646",
"e. c #AE4141",
"r. c #AA4748",
"t. c #A94848",
"y. c #B04040",
"u. c #B14040",
"i. c #B04140",
"p. c #B04141",
"a. c #B14141",
"s. c #B04240",
"d. c #B14341",
"f. c #B04340",
"g. c #B04242",
"h. c #B04343",
"j. c #B24241",
"k. c #B14441",
"l. c #B24441",
"z. c #B14443",
"x. c #B24643",
"c. c #B04444",
"v. c #B14444",
"b. c #B14545",
"n. c #B04545",
"m. c #B24545",
"M. c #B24745",
"N. c #B14646",
"B. c #B14747",
"V. c #B04646",
"C. c #B24646",
"Z. c #B24747",
"A. c #B14443",
"S. c #B34846",
"D. c #B34946",
"F. c #B14848",
"G. c #B24848",
"H. c #B34949",
"J. c #B34948",
"K. c #B34A4A",
"L. c #B34B4B",
"P. c #B24B49",
"I. c #B44B48",
"U. c #B44B4A",
"Y. c #B44949",
"T. c #B04C4A",
"R. c #B44C4B",
"E. c #B34C4C",
"W. c #B04C4C",
"Q. c #B44C4C",
"!. c #B54C4C",
"~. c #B44D4D",
"^. c #B54D4D",
"/. c #B54E4E",
"(. c #B64E4E",
"). c #B64D4D",
"_. c #B44A49",
/* pixels */
"l.l.l.s.s.s.s.s.;.;.;.;.;.;.;.;.>.>.>.;.;.>.>.;.;.;.;.;.;.;.;.;.;.;.8.q.q.q.;.;.;.8.8.;.;.;.;.;.;.;.;.;.;.;.;.;.;.;.;.;.;.;.:.,.",
"l.l.l.s.s.s.s.s.;.;.;.;.;.>.>.>.;.;.>.;.;.;.;.;.;.;.;.;.;.;.;.;.;.;.;.8.;.q.:.;.q.8.s.;.;.;.;.;.;.;.;.;.;.;.;.;.;.;.;.;.;.;.:.:.",
"l.s.s.s.s.s.s.s.;.;.;.;.;.>.>.>.>.;.;.;.;.;.;.;.;.;.;.;.;.;.;.;.;.;.;.;.;.;.;.;.;.;.s.;.;.;.;.;.;.;.;.;.;.;.;.;.;.;.;.;.;.;.;.:.",
"s.s.s.s.s.s.s.s.;.;.;.;.;.;.;.;.;.;.;.;.;.;.;.;.;.;.;.;.;.;.;.;.;.;.;.;.;.;.;.;.;.;.y.;.;.;.;.;.;.;.;.;.;.;.;.;.;.;.;.;.;.;.;.;.",
">.>.>.;.,.>.>.>.;.;.;.;.;.;.;.;.;.;.;.;.;.;.;.;.;.;.;.;.;.;.;.;.;.;.;.;.;.;.;.;.;.;.;.;.;.;.;.;.;.;.;.;.;.;.;.;.y.y.s.s.:.:.s.s.",
">.>.;.;.>.>.>.>.;.;.;.;.;.;.;.;.;.;.;.;.;.;.;.;.;.;.;.8.;.;.;.;.;.q.;.;.;.;.;.;.;.;.;.;.;.;.;.;.;.;.;.;.;.;.;.;.:.y.s.s.:.;.:.:.",
",.:.;.;.>.>.>.>.;.;.;.;.;.;.;.;.;.;.;.;.;.;.;.;.;.8.8.8.8.8.>.8.8.8.8.8.8.8.;.;.;.;.;.;.;.;.;.;.;.;.;.;.;.;.;.;.;.s.s.;.;.;.:.:.",
":.:.;.;.>.>.>.>.;.;.;.;.;.;.;.;.;.;.;.;.;.;.;.;.;.s.8.8.8.8.8.8.8.s.s.8.s.8.8.>.>.;.;.;.;.;.;.;.;.;.;.;.;.;.;.;.;.;.;.;.;.;.:.s.",
";.;.;.;.>.>.>.>.;.;.;.;.;.;.;.;.;.;.;.;.;.;.;.;.;.;.q.8.8.8.8.8.8.;.;.;.;.;.;.;.;.;.;.;.;.;.;.;.;.;.;.;.;.;.;.;.,.,.:.;.>.>.>.:.",
";.;.;.;.>.>.>.>.;.;.;.;.;.;.;.;.;.;.;.;.;.;.;.;.8.8.8.8.8.8.8.s.s.s.8.8.s.q.;.;.;.;.;.;.;.;.;.;.;.;.;.;.;.;.;.;.,.;.:.:.;.;.;.:.",
";.;.;.;.>.>.>.>.;.;.;.;.;.;.;.;.;.;.;.;.;.;.;.8.8.8.0.n.n.n.n.n.n.n.s.8.s.s.8.q.;.;.;.;.;.;.;.;.;.;.;.;.;.;.;.;.;.;.:.:.;.;.;.;.",
";.;.;.;.>.>.>.;.;.;.;.;.;.;.;.;.;.;.;.;.;.>.8.8.8.n.n.n.n.n.S.S.n.n.n.n.s.s.s.8.>.;.;.;.;.;.;.;.;.;.;.;.;.;.;.;.;.;.:.;.;.;.;.;.",
":.:.:.,.>.>.>.;.>.;.;.;.;.;.;.;.;.;.;.;.8.s.l.n.n.n.n.n.H.H.Y.Y.Y.Y.H.n.n.n.h.8.8.;.;.;.;.;.;.;.;.;.;.;.;.;.;.;.;.;.:.:.:.:.:.:.",
"s.s.s.s.y.y.s.s.>.;.;.;.;.;.;.;.;.;.8.8.8.n.n.H.H.H.H.H.Q.Q.Q.Q.Q.Q.Y.H.H.H.n.s.8.>.;.;.;.;.;.;.;.;.;.;.;.;.;.;.;.;.:.:.:.:.:.:.",
"s.s.s.s.y.y.y.s.;.;.;.;.;.;.;.;.;.8.8.8.n.n.H.H.L.R.Y.Q.Q.Q.Q.Q.Q.Q.Q.R.Q.H.H.n.s.8.8.;.;.;.;.;.;.;.;.;.;.;.;.;.;.;.:.:.:.:.:.:.",
"s.s.s.s.y.y.y.:.;.;.;.;.;.;.;.q.8.8.8.n.n.H.H.E.Q.Q.Q.5 5 @ O O O @ 5 5 Q.Q.H.n.n.l.8.8.;.;.;.;.;.;.;.;.;.;.;.;.;.;.:.:.:.:.:.:.",
"y.y.y.y.s.s.s.;.;.;.;.;.;.;.;.;.8.8.n.n.H.H.Q.Q.E.2 #                   @ D t.r.n.n.n.8.8.;.;.;.;.;.;.;.:.;.;.;.;.;.;.;.:.:.:.:.",
"s.s.y.s.s.s.s.:.:.:.;.q.8.s.s.s.n.n.H.Y.Q.Q.<.a u e &                 & e s i J R.R.Y.S.n.l.s.s.,.;.>.>.,.,.:.:.>.>.>.>.,.:.:.;.",
"s.s.s.s.s.s.y.:.:.:.q.8.8.s.s.s.n.n.Y.Q.Q.E < 9 w i 9 @             @ 9 i j T T R T.R.Y.S.n.l.s.,.,.>.>.,.:.;.:.>.>.,.>.,.:.;.;.",
"s.s.s.s.s.s.y.:.:.:.q.8.s.s.s.n.n.H.Y.E.2.C % & 1 i e &             & q g ! W W h J 2.H.S.S.l.l.s.,.>.,.,.:.;.;.>.>.,.,.,.:.;.;.",
"s.s.s.s.y.y.:.:.:.:.s.8.s.s.h.n.n.H.Q.2.N % @ & & q g q o           1 e T W W W f s D 2.Y.S.l.l.s.,.>.>.>.;.;.;.>.>.,.,.:.;.;.;.",
";.;.;.;.;.;.;.;.;.;.;.;.;.q.8.8.n.n.3.C # @ @ $ & 9 i e @           9 f T W W T g f e F Y.H.n.l.s.s.,.>.;.;.;.;.;.;.;.;.;.;.;.;.",
";.;.;.;.;.;.;.;.;.;.;.;.;.;.8.8.w.w.L @     @ $ & & 9 i $         @ e g W T j g f i e 0 <.H.n.l.s.s.,.;.;.;.;.;.;.;.;.;.;.;.;.;.",
";.;.;.;.;.;.;.;.;.;.;.;.;.q.8.8.w.#.7       @ @ $ & & w 1         & f g W g f g i e w ; w Y.n.n.l.s.,.;.;.;.;.;.;.;.;.;.;.;.;.;.",
";.;.;.;.;.;.;.;.;.;.;.;.;.;.8.8.n.t =           @ $ & 9 0 v ( ( / z s W T f i i w 9 & @ : p n.n.l.s.,.;.;.;.;.;.;.;.;.;.;.;.;.;.",
";.;.;.;.;.;.;.;.;.;.;.;.;.;.8.8.n.%                 @ - _ '  . . .X.m g j e e q & @       , n.n.s.s.>.;.;.;.;.;.;.;.;.;.;.;.;.;.",
";.;.;.;.;.;.;.;.;.;.;.;.;.;.8.8.n.%                 * (  . . . . . . .` e q 5 @           $ n.n.8.;.;.;.;.;.;.;.;.;.;.;.;.;.;.;.",
";.;.;.;.;.;.;.;.;.;.;.;.;.;.8.8.n.                  k  . . . . . . . . .z 5                 n.n.8.;.;.;.;.;.;.;.;.;.;.;.;.;.;.;.",
";.;.;.;.;.;.;.;.;.;.;.;.;.;.8.8.n.                  )  . . .{ B [  . . . .                  n.s.;.;.;.;.;.;.;.;.;.;.;.;.;.;.;.;.",
";.;.;.;.;.;.;.;.;.;.;.;.;.;.8.8.n.                   . . . .S   z  . . . .                  n.s.;.;.;.;.;.;.;.;.;.;.;.;.;.;.;.;.",
";.;.;.;.;.;.;.;.;.;.;.;.;.8.8.8.n.                   . . . .| - ]  . . ...                  n.s.q.;.;.;.;.;.;.;.;.;.;.;.;.;.;.;.",
";.;.;.;.;.;.;.;.;.;.;.;.;.q.8.8.n.                  ^  . . . . . . . ...n @                 n.s.;.;.;.;.;.;.;.;.;.;.;.;.;.;.;.;.",
";.;.;.;.;.;.;.;.;.;.;.;.;.;.>.8.n.@                 * )  . . . . . . .) 9 9 & @           + n.8.;.;.;.;.;.;.;.;.;.;.;.;.;.;.;.;.",
";.;.;.;.;.;.;.;.;.;.;.;.;.;.8.8.w.$                 @ x .. . . . . . .c & e e 9 $         $ n.8.;.;.;.;.;.;.;.;.;.;.;.;.;.;.;.;.",
";.;.;.;.;.;.;.;.;.;.;.;.;.;.;.8.8.A             @ 1 9 i K } .. .) b l X @ 0 e i q & @   . 2 l.8.;.;.;.;.;.;.;.;.;.;.;.;.;.;.;.;.",
";.;.;.;.;.;.;.;.;.;.;.;.;.;.;.;.8.+.%         $ 9 q e i W H y > *         & 9 i f i 9 @ y 1.l.>.;.;.;.;.;.;.;.;.;.;.;.;.;.;.;.;.",
";.;.;.;.;.;.;.;.;.;.;.;.;.;.;.;.8.>.Z .     & 9 q e f W W T e @           $ 5 w i f e 6 D l.l.>.;.;.;.;.;.;.;.;.;.;.;.;.;.;.;.;.",
";.;.;.;.;.;.;.;.;.;.;.;.;.;.;.;.;.>.o.5 $ 5 q e e j T Q W g 9             @ @ & e i u V r.l.s.;.;.;.;.;.;.;.;.;.;.;.;.;.;.;.;.;.",
";.;.;.;.;.;.;.;.;.;.;.;.;.;.;.;.;.;.;.L 5 0 e i s j Q ~ T i &               @ & 9 e t Y l.l.,.;.;.;.;.;.;.;.;.;.;.;.;.;.;.;.;.;.",
";.;.;.;.;.;.;.;.;.;.;.;.;.;.;.;.;.;.8.*.F r e f g T Q Q W i &               @ @ % 5 L q.;.;.;.;.;.;.;.;.;.;.;.;.;.;.;.;.;.;.;.;.",
";.;.;.;.;.;.;.;.;.;.;.;.;.;.;.;.;.;.;.;.8.U r e T ! Q Q T i &                 # % t $.;.;.;.;.;.;.;.;.;.;.;.;.;.;.;.;.;.;.;.;.;.",
";.;.;.;.;.;.;.;.;.;.;.;.;.;.;.;.;.;.;.;.;.8.G t s W W W j w &               # M P =.;.;.;.;.;.;.;.;.;.;.;.;.;.;.;.;.;.;.;.;.;.;.",
";.;.;.;.;.;.;.;.;.;.;.;.;.;.;.;.;.;.;.;.;.;.=.Y a d i Q g q &             4 y @.;.;.;.;.;.;.;.;.;.;.;.;.;.;.;.;.;.;.;.;.;.;.;.;.",
";.;.;.;.;.;.;.;.;.;.;.;.;.;.;.;.;.;.;.;.;.;.;.8.*.I 3 s 0 & @       % % 6 G $.;.;.;.;.;.;.;.;.;.;.;.;.;.;.;.;.;.;.;.;.;.;.;.;.;.",
":.:.,.;.;.;.;.;.;.;.;.;.;.;.;.;.;.;.;.;.;.;.;.;.8.8.*.Y Y U I I I U o.o.*.-.;.;.;.;.;.:.;.;.;.;.;.;.;.;.>.>.>.>.;.;.;.;.;.;.;.;.",
",.:.,.;.;.;.;.;.;.;.;.;.;.;.;.;.;.;.;.;.;.;.;.;.;.;.8.8.8.8.;.;.;.;.;.;.;.;.;.;.;.;.;.:.;.;.;.;.;.;.;.;.>.>.>.>.;.;.;.;.;.;.;.;.",
":.:.,.;.;.;.;.;.;.;.;.;.;.;.;.;.;.;.;.;.;.;.;.;.;.;.;.;.;.;.;.;.;.;.;.;.;.;.;.;.;.;.;.:.:.;.;.;.;.;.;.;.>.>.>.>.;.;.;.;.;.;.;.;.",
":.:.,.;.;.;.;.;.;.;.;.;.;.;.;.;.;.;.;.;.;.;.;.;.;.;.;.;.;.-.-.-.-.-.-.-.-.;.;.;.;.;.;.:.:.;.;.;.;.;.;.;.>.>.>.>.;.;.;.;.;.;.;.;.",
">.>.>.>.>.>.>.>.:.:.:.:.;.;.;.;.;.;.;.;.;.;.;.-.-.&.&.%.%.%.%.%.%.%.%.&.&.&.=.-.-.;.;.;.;.;.;.;.;.;.;.;.>.>.>.>.;.;.;.;.;.;.;.;.",
">.>.>.>.>.>.>.>.:.:.:.:.;.;.;.;.;.;.;.;.;.;.-.-.&.O.O.O.O.O.O.O.O.O.O.O.O.O.%.%.-.-.;.;.;.;.;.;.;.;.;.;.>.>.>.>.;.;.;.;.;.;.;.;.",
">.>.>.>.>.>.>.>.;.;.;.;.;.;.;.;.;.;.;.;.;.;.;.;.-.&.%.%.%.%.O.O.%.%.%.%.%.%.&.-.-.;.;.;.;.;.;.;.;.;.;.;.>.>.>.>.;.;.;.;.;.;.;.;.",
">.>.>.>.>.>.>.>.;.;.;.;.;.;.;.;.;.;.;.;.;.;.;.;.;.-.-.-.-.-.-.-.-.-.-.-.-.-.-.;.;.;.;.;.;.;.;.;.;.;.;.;.>.>.>.>.;.;.;.;.;.;.;.;.",
";.;.;.;.;.;.;.;.;.;.;.;.;.;.;.;.;.;.;.;.;.;.;.;.;.;.;.;.;.;.;.;.;.;.;.;.;.;.;.;.;.;.;.;.;.;.;.;.;.;.;.;.;.;.;.;.;.;.;.;.;.;.;.;.",
";.;.;.;.;.;.;.;.>.>.>.>.;.;.;.;.;.;.;.;.;.;.;.;.;.;.;.;.;.;.;.;.;.;.;.;.;.;.;.;.;.;.;.;.;.;.;.;.;.;.;.;.;.;.;.;.;.;.;.;.;.;.;.;.",
";.;.;.;.;.;.;.;.>.>.>.>.;.;.;.;.;.;.;.;.;.;.;.;.;.;.;.;.;.;.;.;.;.;.;.;.;.;.;.;.;.;.;.;.;.;.;.;.;.;.;.;.;.;.;.;.;.;.;.;.;.;.;.;.",
";.;.;.;.;.;.;.;.>.>.>.>.;.;.;.;.;.;.;.;.;.;.;.;.;.;.;.;.;.;.;.;.;.;.;.;.;.;.;.;.;.;.;.;.;.;.;.;.;.;.;.;.;.;.;.;.;.;.;.;.;.;.;.;.",
";.;.;.;.;.;.;.;.,.,.,.,.;.;.;.;.;.;.;.;.;.;.;.;.;.;.;.;.;.;.;.;.;.;.;.;.;.;.;.;.;.;.;.;.;.;.;.;.;.;.;.;.;.;.;.;.;.;.;.;.;.;.;.;.",
">.>.>.;.;.;.;.;.;.;.;.;.;.;.;.;.;.;.;.;.;.;.;.;.;.;.;.;.;.;.;.;.;.;.;.;.;.;.;.;.;.;.;.;.;.;.;.;.>.>.>.;.;.;.;.;.;.;.;.;.;.;.;.;.",
">.>.>.;.;.;.;.;.;.;.;.;.;.;.;.;.;.;.;.;.;.;.;.;.;.;.;.;.;.;.;.;.;.;.;.;.;.;.;.;.;.;.;.;.;.;.;.;.>.>.>.;.;.;.;.;.;.;.;.;.;.;.;.;.",
">.>.>.;.;.;.;.;.;.;.;.;.;.;.;.;.;.;.;.;.;.;.;.;.;.;.;.;.;.;.;.;.;.;.;.;.;.;.;.;.;.;.;.;.;.;.;.;.;.;.;.;.;.;.;.;.;.;.;.;.;.;.;.;.",
">.>.>.;.;.;.;.;.;.;.;.;.;.;.;.;.;.;.;.;.;.;.;.;.;.;.;.;.;.;.;.;.;.;.;.;.;.;.;.;.;.;.;.;.;.;.;.;.;.;.;.;.;.;.;.;.;.;.;.;.;.;.;.;.",
">.>.>.>.;.;.;.;.;.;.;.;.;.;.;.;.;.;.;.;.;.;.;.;.;.;.;.;.;.;.;.;.;.;.;.;.;.;.;.;.;.;.;.;.;.;.;.;.;.;.;.;.;.;.;.;.;.;.;.;.;.;.;.;.",
"s.s.s.s.s.s.s.s.;.;.;.;.;.;.;.;.;.;.;.;.;.;.;.;.;.;.;.;.;.;.;.;.;.;.;.;.;.;.;.;.;.;.;.;.;.;.;.;.;.;.;.;.;.;.;.;.;.;.;.;.;.;.;.;.",
"s.s.s.s.s.s.s.s.;.;.;.;.;.;.;.;.;.;.;.;.;.;.;.;.;.;.;.;.;.;.;.;.;.;.;.;.;.;.;.;.;.;.;.;.;.;.;.;.;.;.;.;.;.;.;.;.;.;.;.;.;.;.;.;."
};
