/* XPM */
static const char *ZmVhcmxlc3M_[] = {
/* columns rows colors chars-per-pixel */
"64 64 166 2 ",
"   c #090909",
".  c #120E0E",
"X  c #0F0F10",
"o  c #120E11",
"O  c #0F1017",
"+  c #131214",
"@  c #1B1314",
"#  c #151519",
"$  c #1C161A",
"%  c #1A1A1B",
"&  c #201314",
"*  c #211E13",
"=  c #211D1F",
"-  c #2C181A",
";  c #322C1B",
":  c #121521",
">  c #171923",
",  c #1F1E20",
"<  c #161A2A",
"1  c #1B1F2D",
"2  c #201720",
"3  c #231D22",
"4  c #2C1E24",
"5  c #331F25",
"6  c #1F2024",
"7  c #232224",
"8  c #2B2026",
"9  c #262629",
"0  c #29252B",
"q  c #2B292D",
"w  c #312226",
"e  c #322E23",
"r  c #33242D",
"t  c #3A222B",
"y  c #302C2C",
"u  c #383327",
"i  c #2E2D32",
"p  c #372635",
"a  c #3B2732",
"s  c #332D33",
"d  c #3C2D36",
"f  c #323136",
"g  c #34343A",
"h  c #39363C",
"j  c #39383F",
"k  c #432126",
"l  c #48272C",
"z  c #42282F",
"x  c #4B282D",
"c  c #44252A",
"v  c #55282C",
"b  c #5C2A2F",
"n  c #403925",
"m  c #4A2C34",
"M  c #552C33",
"N  c #5E2C34",
"B  c #53333B",
"V  c #642E32",
"C  c #6F3036",
"Z  c #753135",
"A  c #793236",
"S  c #7D3539",
"D  c #5C4D2C",
"F  c #4A4336",
"G  c #4A463B",
"H  c #5B533A",
"J  c #654E29",
"K  c #645334",
"L  c #675A35",
"P  c #3C3C44",
"I  c #693B40",
"U  c #7D3B41",
"Y  c #4B4845",
"T  c #42434C",
"R  c #464650",
"E  c #494A53",
"W  c #4E4F5A",
"Q  c #813437",
"!  c #8C3131",
"~  c #83363A",
"^  c #8A3639",
"/  c #833A3F",
"(  c #8E383B",
")  c #933434",
"_  c #993636",
"`  c #933A3D",
"'  c #9D3A3C",
"]  c #A43939",
"[  c #AD3D3D",
"{  c #B03F3F",
"}  c #AF403E",
"|  c #B0413F",
" . c #886F39",
".. c #8C743E",
"X. c #A1743A",
"o. c #833D42",
"O. c #933F40",
"+. c #954344",
"@. c #9C4345",
"#. c #AF4141",
"$. c #AE4040",
"%. c #AF4241",
"&. c #AF4242",
"*. c #AF4343",
"=. c #AD4040",
"-. c #AF4646",
";. c #AE4141",
":. c #AA4748",
">. c #A94848",
",. c #B04040",
"<. c #B14040",
"1. c #B14141",
"2. c #B04141",
"3. c #B04340",
"4. c #B04242",
"5. c #B04343",
"6. c #B24241",
"7. c #B24441",
"8. c #B14443",
"9. c #B14542",
"0. c #B04444",
"q. c #B14444",
"w. c #B14545",
"e. c #B04545",
"r. c #B14646",
"t. c #B24646",
"y. c #B24747",
"u. c #B24645",
"i. c #B14443",
"p. c #B34846",
"a. c #B34946",
"s. c #B34948",
"d. c #B34A4A",
"f. c #B34B4B",
"g. c #B24A49",
"h. c #B44B48",
"j. c #B44B4A",
"k. c #B44949",
"l. c #B44C4B",
"z. c #B34C4C",
"x. c #B04C4C",
"c. c #B54C4C",
"v. c #B54E4E",
"b. c #B64E4E",
"n. c #B24B4A",
"m. c #836742",
"M. c #997843",
"N. c #A87F42",
"B. c #B38C49",
"V. c #B7954C",
"C. c #BC924E",
"Z. c #B79F55",
"A. c #A98847",
"S. c #B7A15E",
"D. c #C6A453",
"F. c #CAA755",
"G. c #CDA956",
"H. c #D2AB57",
"J. c #D7B15A",
"K. c #DBB25A",
"L. c #E1B95E",
"P. c #E8BC5E",
"I. c #D9BC65",
"U. c #DFC063",
"Y. c #E7C363",
"T. c #ECCB67",
/* pixels */
"7.7.7.3.3.3.3.3.[ [ [ [ [ [ [ [ } } } [ [ } } [ [ [ [ [ [ [ [ [ [ [ %.=.%.=.[ [ [ %.%.[ [ [ [ [ [ [ [ [ [ [ [ [ [ [ [ [ [ [ { | ",
"7.7.7.3.3.3.3.3.[ [ [ [ [ } } } [ [ } [ [ [ [ [ [ [ [ [ [ [ [ [ [ [ [ %.[ =.[ [ %.%.3.[ [ [ [ [ [ [ [ [ [ [ [ [ [ [ [ [ [ [ { { ",
"7.3.3.3.3.3.3.3.[ [ [ [ [ } } } } [ [ [ [ [ [ [ [ [ [ [ [ [ [ [ [ [ [ [ [ [ [ [ [ [ 3.[ [ [ [ [ [ [ [ [ [ [ [ [ [ [ [ [ [ [ [ [ ",
"3.3.3.3.3.3.3.3.[ [ [ [ [ [ [ [ [ [ [ [ [ [ [ [ [ [ [ [ [ [ [ [ [ [ [ [ [ [ [ [ [ ,.,.[ [ [ [ [ [ [ [ [ [ [ [ [ [ [ [ [ [ [ [ [ ",
"} } } [ | [ } } [ [ [ [ [ [ [ [ [ [ [ [ [ [ [ [ [ [ [ [ [ [ [ [ [ [ [ [ [ [ [ [ [ [ [ [ [ [ [ [ [ [ [ [ [ [ [ [ ,.,.3.3.{ { 3.3.",
"} } [ [ } } } } [ [ [ [ [ [ [ [ [ [ [ [ [ [ [ [ [ [ [ %.[ [ [ [ [ [ [ [ [ [ [ [ [ [ [ [ [ [ [ [ [ [ [ [ [ [ [ [ [ ,.3.3.{ [ { { ",
"| { [ [ } } } } [ [ [ [ [ [ [ [ [ [ [ [ [ [ [ [ [ %.%.%.%.%.} %.%.%.%.%.%.%.[ [ [ [ [ [ [ [ [ [ [ [ [ [ [ [ [ [ [ 3.3.[ [ [ { { ",
"{ { [ [ } } } } [ [ [ [ [ [ [ [ [ [ [ [ [ [ [ [ [ 3.%.%.%.%.%.%.%.%.%.%.3.%.%.%.} [ [ [ [ [ [ [ [ [ [ [ [ [ [ [ [ [ [ [ [ [ { 3.",
"} [ [ [ } } } } [ [ [ [ [ [ [ [ [ [ [ [ [ [ [ [ [ [ [ %.%.%.%.%.%.[ [ [ [ [ [ [ [ [ [ [ [ [ [ [ [ [ [ [ [ [ [ [ | | { [ } } } { ",
"[ [ [ [ } } } } [ [ [ [ [ [ [ [ [ [ [ [ [ [ [ [ %.%.%.%.%.%.%.3.3.3.%.%.3.[ [ [ [ [ [ [ [ [ [ [ [ [ [ [ [ [ [ [ | [ { { [ [ [ { ",
"[ [ [ [ } } } } [ [ [ [ [ [ [ [ [ [ [ [ [ [ [ %.%.%.%.e.e.e.e.e.e.e.3.%.3.3.%.=.[ [ [ [ [ [ [ [ [ [ [ [ [ [ [ [ [ [ { { [ [ [ [ ",
"[ [ [ [ } } } [ [ [ [ [ [ [ [ [ [ [ [ [ [ } %.%.%.e.e.e.e.e.p.p.e.e.e.e.3.3.3.%.} [ [ [ [ [ [ [ [ [ [ [ [ [ [ [ [ [ { [ [ [ [ [ ",
"{ { { | [ [ } [ } [ [ [ [ [ [ [ [ [ [ [ %.3.7.e.e.e.e.e.s.s.k.k.k.k.s.e.e.e.3.%.%.[ [ [ [ [ [ [ [ [ [ [ [ [ [ [ [ [ { { { { { { ",
"3.3.3.3.,.,.3.3.} [ [ [ [ [ [ [ [ [ %.%.%.e.e.s.s.s.s.s.c.c.c.c.c.c.k.s.s.s.e.3.%.} [ [ [ [ [ [ [ [ [ [ [ [ [ [ [ [ { { { { { { ",
"3.3.3.3.,.,.,.3.[ [ [ [ [ [ [ [ [ %.%.%.e.e.s.s.s.l.k.c.c.c.c.c.c.c.c.l.f.s.s.e.3.%.%.[ [ [ [ [ [ [ [ [ [ [ [ [ [ [ { { { { { { ",
"3.3.3.3.,.,.,.{ [ [ [ [ [ [ [ =.%.%.%.e.e.s.s.z.c.c.c.3 3 + o o o # 3 3 c.f.s.e.e.7.%.%.[ [ [ [ [ [ [ [ [ [ [ [ [ [ { { { { { { ",
",.,.,.,.3.3.3.[ [ [ [ [ [ [ =.[ %.%.e.e.s.s.c.c.z.< @                   + m >.:.e.e.e.%.%.[ [ [ [ [ [ [ { [ [ [ [ [ [ [ { { { { ",
"3.3.,.,.3.3.3.{ { { [ [ %.3.3.3.e.e.s.k.c.c.o.a r q %                 % q s i B l.l.k.p.e.7.3.3.| [ } } | | { { } } } } | { { [ ",
"3.3.3.,.3.3.,.{ { { [ %.%.3.3.5.e.e.k.c.c.U > 7 0 i 7 +             + 7 i j P P I x.l.k.p.e.7.3.| | } } | { [ { } } | } | { [ [ ",
"3.3.3.3.3.3.,.{ { { [ %.3.3.3.e.e.s.k.z.+.l $ % , i q %             % 9 g E T T h B +.s.p.p.7.7.3.| } | | { [ [ } } | | | { [ [ ",
"3.3.3.3.,.,.{ { ,.{ 3.%.3.3.5.e.e.s.c.+.c $ + % % 9 g 9 X           , q P T T T f s m +.k.p.7.7.3.| } } } [ [ [ } } | | { [ [ [ ",
"[ [ [ [ [ [ [ [ [ [ [ [ [ [ %.%.e.e.@.x @ + + # % 7 i q +           7 f P T T P g f q M k.s.e.7.3.3.| } [ [ [ [ [ [ [ [ [ [ [ [ ",
"[ [ [ [ [ [ [ [ [ [ [ [ [ [ %.%.-.-.V +     + # % % 7 i #         + q g T P j g f i q 8 o.s.e.7.3.3.| [ [ [ [ [ [ [ [ [ [ [ [ [ ",
"[ [ [ [ [ [ [ [ [ [ [ [ [ [ %.%.-./ 5       + + # % % 0 ,         % f g T g f g i q 0 = 0 k.e.e.7.3.| [ [ [ [ [ [ [ [ [ [ [ [ [ ",
"[ [ [ [ [ [ [ [ [ [ [ [ [ [ %.%.e.r &           + # % 7 y ..F.G.D.D f T P f i i 0 7 % + - p e.e.7.3.| [ [ [ [ [ [ [ [ [ [ [ [ [ ",
"[ [ [ [ [ [ [ [ [ [ [ [ [ [ %.%.e.$                 + e B.L.T.T.T.K.M.g j q q 9 % +       : e.e.3.3.} [ [ [ [ [ [ [ [ [ [ [ [ [ ",
"[ [ [ [ [ [ [ [ [ [ [ [ [ [ %.%.e.$                 ; H.T.T.T.T.T.T.T.N.q 9 3 +           # e.e.%.[ [ [ [ [ [ [ [ [ [ [ [ [ [ [ ",
"[ [ [ [ [ [ [ [ [ [ [ [ [ [ %.%.e.                  D T.T.T.T.T.T.T.T.T.L 3                 e.e.%.[ [ [ [ [ [ [ [ [ [ [ [ [ [ [ ",
"[ [ [ [ [ [ [ [ [ [ [ [ [ [ %.%.e.                  J.T.T.T.I.H U.T.T.T.T.                  e.3.[ [ [ [ [ [ [ [ [ [ [ [ [ [ [ [ ",
"[ [ [ [ [ [ [ [ [ [ [ [ [ [ %.%.e.                  T.T.T.T.G   K T.T.T.T.                  e.3.[ [ [ [ [ [ [ [ [ [ [ [ [ [ [ [ ",
"[ [ [ [ [ [ [ [ [ [ [ [ [ %.%.%.e.                  Y.T.T.T.S.u Z.T.T.T.Y.                  e.3.=.[ [ [ [ [ [ [ [ [ [ [ [ [ [ [ ",
"[ [ [ [ [ [ [ [ [ [ [ [ [ =.%.%.e.                  V.T.T.T.T.T.T.T.T.P.A.+                 e.3.[ [ [ [ [ [ [ [ [ [ [ [ [ [ [ [ ",
"[ [ [ [ [ [ [ [ [ [ [ [ [ [ } %.e.+                 ; H.T.T.T.T.T.T.T.K.7 7 % +           O e.%.[ [ [ [ [ [ [ [ [ [ [ [ [ [ [ [ ",
"[ [ [ [ [ [ [ [ [ [ [ [ [ [ %.%.-.#                 + K L.T.T.T.T.T.T. .% q q 7 #         # e.%.[ [ [ [ [ [ [ [ [ [ [ [ [ [ [ [ ",
"[ [ [ [ [ [ [ [ [ [ [ [ [ [ [ %.%.b             + , 7 s m.C.L.T.L.X.J * + 8 q i 9 % +   . < 7.%.[ [ [ [ [ [ [ [ [ [ [ [ [ [ [ [ ",
"[ [ [ [ [ [ [ [ [ [ [ [ [ [ [ [ %.~ $         # 7 9 q i E Y F n ;         % 7 i f i 7 + t O.7.} [ [ [ [ [ [ [ [ [ [ [ [ [ [ [ [ ",
"[ [ [ [ [ [ [ [ [ [ [ [ [ [ [ [ %.} v .     % 7 9 q f T T P q +           # 3 0 i f q 4 m 7.7.} [ [ [ [ [ [ [ [ [ [ [ [ [ [ [ [ ",
"[ [ [ [ [ [ [ [ [ [ [ [ [ [ [ [ [ } Q 3 # 3 9 q q j P R T g 7             + + % q i y z :.7.3.[ [ [ [ [ [ [ [ [ [ [ [ [ [ [ [ [ ",
"[ [ [ [ [ [ [ [ [ [ [ [ [ [ [ [ [ [ [ V 3 8 q i s j R W P i %               + % 7 q r S 7.7.| [ [ [ [ [ [ [ [ [ [ [ [ [ [ [ [ [ ",
"[ [ [ [ [ [ [ [ [ [ [ [ [ [ [ [ [ [ %.` M w q f g P R R T i %               + + $ 3 V =.[ [ [ [ [ [ [ [ [ [ [ [ [ [ [ [ [ [ [ [ ",
"[ [ [ [ [ [ [ [ [ [ [ [ [ [ [ [ [ [ [ [ %.A w q P E R R P i %                 @ $ r ( [ [ [ [ [ [ [ [ [ [ [ [ [ [ [ [ [ [ [ [ [ ",
"[ [ [ [ [ [ [ [ [ [ [ [ [ [ [ [ [ [ [ [ [ %.N r s T T T j 0 %               @ k C ' [ [ [ [ [ [ [ [ [ [ [ [ [ [ [ [ [ [ [ [ [ [ ",
"[ [ [ [ [ [ [ [ [ [ [ [ [ [ [ [ [ [ [ [ [ [ ' S a d i R g 9 %             2 t ^ [ [ [ [ [ [ [ [ [ [ [ [ [ [ [ [ [ [ [ [ [ [ [ [ ",
"[ [ [ [ [ [ [ [ [ [ [ [ [ [ [ [ [ [ [ [ [ [ [ %.` Z 1 p 8 % +       $ $ 4 N ( [ [ [ [ [ [ [ [ [ [ [ [ [ [ [ [ [ [ [ [ [ [ [ [ [ ",
"{ { | [ [ [ [ [ [ [ [ [ [ [ [ [ [ [ [ [ [ [ [ [ %.%.` S S A Z Z Z A Q Q ` ] [ [ [ [ [ { [ [ [ [ [ [ [ [ } } } } [ [ [ [ [ [ [ [ ",
"| { | [ [ [ [ [ [ [ [ [ [ [ [ [ [ [ [ [ [ [ [ [ [ [ %.%.%.%.[ [ [ [ [ [ [ [ [ [ [ [ [ { [ [ [ [ [ [ [ [ } } } } [ [ [ [ [ [ [ [ ",
"{ { | [ [ [ [ [ [ [ [ [ [ [ [ [ [ [ [ [ [ [ [ [ [ [ [ [ [ [ [ [ [ [ [ [ [ [ [ [ [ [ [ { { [ [ [ [ [ [ [ } } } } [ [ [ [ [ [ [ [ ",
"{ { | [ [ [ [ [ [ [ [ [ [ [ [ [ [ [ [ [ [ [ [ [ [ [ [ [ [ ] ] ] ] ] ] ] ] [ [ [ [ [ [ { { [ [ [ [ [ [ [ } } } } [ [ [ [ [ [ [ [ ",
"} } } } } } } } { { { { [ [ [ [ [ [ [ [ [ [ [ ] ] _ _ ) ) ) ) ) ) ) ) _ _ _ ' ] ] [ [ [ [ [ [ [ [ [ [ [ } } } } [ [ [ [ [ [ [ [ ",
"} } } } } } } } { { { { [ [ [ [ [ [ [ [ [ [ ] ] _ ! ! ! ! ! ! ! ! ! ! ! ! ! ) ) ] ] [ [ [ [ [ [ [ [ [ [ } } } } [ [ [ [ [ [ [ [ ",
"} } } } } } } } [ [ [ [ [ [ [ [ [ [ [ [ [ [ [ [ ] _ ) ) ) ) ! ! ) ) ) ) ) ) _ ] ] [ [ [ [ [ [ [ [ [ [ [ } } } } [ [ [ [ [ [ [ [ ",
"} } } } } } } } [ [ [ [ [ [ [ [ [ [ [ [ [ [ [ [ [ ] ] ] ] ] ] ] ] ] ] ] ] ] ] [ [ [ [ [ [ [ [ [ [ [ [ [ } } } } [ [ [ [ [ [ [ [ ",
"[ [ [ [ [ [ [ [ [ [ [ [ [ [ [ [ [ [ [ [ [ [ [ [ [ [ [ [ [ [ [ [ [ [ [ [ [ [ [ [ [ [ [ [ [ [ [ [ [ [ [ [ [ [ [ [ [ [ [ [ [ [ [ [ ",
"[ [ [ [ [ [ [ [ } } } } [ [ [ [ [ [ [ [ [ [ [ [ [ [ [ [ [ [ [ [ [ [ [ [ [ [ [ [ [ [ [ [ [ [ [ [ [ [ [ [ [ [ [ [ [ [ [ [ [ [ [ [ ",
"[ [ [ [ [ [ [ [ } } } } [ [ [ [ [ [ [ [ [ [ [ [ [ [ [ [ [ [ [ [ [ [ [ [ [ [ [ [ [ [ [ [ [ [ [ [ [ [ [ [ [ [ [ [ [ [ [ [ [ [ [ [ ",
"[ [ [ [ [ [ [ [ } } } } [ [ [ [ [ [ [ [ [ [ [ [ [ [ [ [ [ [ [ [ [ [ [ [ [ [ [ [ [ [ [ [ [ [ [ [ [ [ [ [ [ [ [ [ [ [ [ [ [ [ [ [ ",
"[ [ [ [ [ [ [ [ | | | | [ [ [ [ [ [ [ [ [ [ [ [ [ [ [ [ [ [ [ [ [ [ [ [ [ [ [ [ [ [ [ [ [ [ [ [ [ [ [ [ [ [ [ [ [ [ [ [ [ [ [ [ ",
"} } } [ [ [ [ [ [ [ [ [ [ [ [ [ [ [ [ [ [ [ [ [ [ [ [ [ [ [ [ [ [ [ [ [ [ [ [ [ [ [ [ [ [ [ [ [ } } } [ [ [ [ [ [ [ [ [ [ [ [ [ ",
"} } } [ [ [ [ [ [ [ [ [ [ [ [ [ [ [ [ [ [ [ [ [ [ [ [ [ [ [ [ [ [ [ [ [ [ [ [ [ [ [ [ [ [ [ [ [ } } } [ [ [ [ [ [ [ [ [ [ [ [ [ ",
"} } } [ [ [ [ [ [ [ [ [ [ [ [ [ [ [ [ [ [ [ [ [ [ [ [ [ [ [ [ [ [ [ [ [ [ [ [ [ [ [ [ [ [ [ [ [ [ [ [ [ [ [ [ [ [ [ [ [ [ [ [ [ ",
"} } } [ [ [ [ [ [ [ [ [ [ [ [ [ [ [ [ [ [ [ [ [ [ [ [ [ [ [ [ [ [ [ [ [ [ [ [ [ [ [ [ [ [ [ [ [ [ [ [ [ [ [ [ [ [ [ [ [ [ [ [ [ ",
"} } } } [ [ [ [ [ [ [ [ [ [ [ [ [ [ [ [ [ [ [ [ [ [ [ [ [ [ [ [ [ [ [ [ [ [ [ [ [ [ [ [ [ [ [ [ [ [ [ [ [ [ [ [ [ [ [ [ [ [ [ [ ",
"3.3.3.3.3.3.3.3.[ [ [ [ [ [ [ [ [ [ [ [ [ [ [ [ [ [ [ [ [ [ [ [ [ [ [ [ [ [ [ [ [ [ [ [ [ [ [ [ [ [ [ [ [ [ [ [ [ [ [ [ [ [ [ [ ",
"3.3.3.3.3.3.3.3.[ [ [ [ [ [ [ [ [ [ [ [ [ [ [ [ [ [ [ [ [ [ [ [ [ [ [ [ [ [ [ [ [ [ [ [ [ [ [ [ [ [ [ [ [ [ [ [ [ [ [ [ [ [ [ [ "
};
