/* XPM */
static const char *ZGVidXQ_[] = {
/* columns rows colors chars-per-pixel */
"64 64 168 2 ",
"   c #090909",
".  c #120E0E",
"X  c #0F0F10",
"o  c #120E11",
"O  c #0F1017",
"+  c #091A1E",
"@  c #131214",
"#  c #1B1314",
"$  c #151519",
"%  c #1C161A",
"&  c #1A1A1B",
"*  c #201314",
"=  c #211D1F",
"-  c #2C181A",
";  c #121521",
":  c #171923",
">  c #1F1E20",
",  c #161A2A",
"<  c #1B1F2D",
"1  c #201720",
"2  c #231D22",
"3  c #2C1E24",
"4  c #331F25",
"5  c #0B262D",
"6  c #1F2024",
"7  c #102734",
"8  c #162930",
"9  c #13313A",
"0  c #232224",
"q  c #2B2026",
"w  c #262629",
"e  c #29252B",
"r  c #2B292D",
"t  c #312226",
"y  c #33242D",
"u  c #3A222B",
"i  c #302A2E",
"p  c #212B31",
"a  c #2E2D32",
"s  c #372635",
"d  c #3B2732",
"f  c #332D33",
"g  c #3C2D36",
"h  c #2E3238",
"j  c #323136",
"k  c #34343A",
"l  c #39363C",
"z  c #39383F",
"x  c #432126",
"c  c #48272C",
"v  c #42282F",
"b  c #4B282D",
"n  c #44252A",
"m  c #55282C",
"M  c #5C2A2F",
"N  c #4A2C34",
"B  c #552C33",
"V  c #5E2C34",
"C  c #53333B",
"Z  c #642E32",
"A  c #6F3036",
"S  c #753135",
"D  c #793236",
"F  c #7D3539",
"G  c #243D47",
"H  c #3C3C44",
"J  c #693B40",
"K  c #7D3B41",
"L  c #1B424B",
"P  c #0A4250",
"I  c #134D5C",
"U  c #204249",
"Y  c #2A474D",
"T  c #36454F",
"R  c #0F5369",
"E  c #185D6C",
"W  c #355B65",
"Q  c #166174",
"!  c #31626D",
"~  c #336772",
"^  c #386D75",
"/  c #42434C",
"(  c #464650",
")  c #454851",
"_  c #494B55",
"`  c #4E4F5A",
"'  c #813437",
"]  c #8C3131",
"[  c #83363A",
"{  c #8A3639",
"}  c #833A3F",
"|  c #8E383B",
" . c #933434",
".. c #993636",
"X. c #933A3D",
"o. c #9D3A3C",
"O. c #A43939",
"+. c #AD3D3D",
"@. c #B03F3F",
"#. c #AF403E",
"$. c #B0413F",
"%. c #833D42",
"&. c #933F40",
"*. c #954344",
"=. c #9C4345",
"-. c #AF4141",
";. c #AE4040",
":. c #AF4241",
">. c #AF4242",
",. c #AF4343",
"<. c #AD4040",
"1. c #AF4646",
"2. c #AE4141",
"3. c #AA4748",
"4. c #A94848",
"5. c #B04040",
"6. c #B14040",
"7. c #B14141",
"8. c #B04141",
"9. c #B04340",
"0. c #B04242",
"q. c #B04343",
"w. c #B24241",
"e. c #B24441",
"r. c #B14443",
"t. c #B14542",
"y. c #B14444",
"u. c #B04545",
"i. c #B14646",
"p. c #B24646",
"a. c #B24747",
"s. c #B24645",
"d. c #B14443",
"f. c #B34846",
"g. c #B34946",
"h. c #B34948",
"j. c #B34A4A",
"k. c #B34B4B",
"l. c #B24A49",
"z. c #B44B48",
"x. c #B44B4A",
"c. c #B44949",
"v. c #B44C4B",
"b. c #B24C4C",
"n. c #B54C4C",
"m. c #B64E4E",
"M. c #B24B4A",
"N. c #0E6E89",
"B. c #0E7693",
"V. c #1B7B93",
"C. c #277383",
"Z. c #2D7686",
"A. c #2E7B8F",
"S. c #0E86A5",
"D. c #0E8EAF",
"F. c #1A8AA5",
"G. c #1B8FAA",
"H. c #0D9BBF",
"J. c #1B94B2",
"K. c #1D98B6",
"L. c #1B99B9",
"P. c #238DA6",
"I. c #2692AB",
"U. c #219CBA",
"Y. c #0D9EC3",
"T. c #0DA7CD",
"R. c #11A2C5",
"E. c #10A5CA",
/* pixels */
"e.e.e.9.9.9.9.9.+.+.+.+.+.+.+.+.#.#.#.+.+.#.#.+.+.+.+.+.+.+.+.+.+.+.:.<.:.<.+.+.+.:.:.+.+.+.+.+.+.+.+.+.+.+.+.+.+.+.+.+.+.+.@.$.",
"e.e.e.9.9.9.9.9.+.+.+.+.+.#.#.#.+.+.#.+.+.+.+.+.+.+.+.+.+.+.+.+.+.+.+.:.+.<.+.+.:.:.9.+.+.+.+.+.+.+.+.+.+.+.+.+.+.+.+.+.+.+.@.@.",
"e.9.9.9.9.9.9.9.+.+.+.+.+.#.#.#.#.+.+.+.+.+.+.+.+.+.+.+.+.+.+.+.+.+.+.+.+.+.+.+.+.+.9.+.+.+.+.+.+.+.+.+.+.+.+.+.+.+.+.+.+.+.+.+.",
"9.9.9.9.9.9.9.9.+.+.+.+.+.+.+.+.+.+.+.+.+.+.+.+.+.+.+.+.+.+.+.+.+.+.+.+.+.+.+.+.+.5.5.+.+.+.+.+.+.+.+.+.+.+.+.+.+.+.+.+.+.+.+.+.",
"#.#.#.+.$.+.#.#.+.+.+.+.+.+.+.+.+.+.+.+.+.+.+.+.+.+.+.+.+.+.+.+.+.+.+.+.+.+.+.+.+.+.+.+.+.+.+.+.+.+.+.+.+.+.+.+.5.5.9.9.@.@.9.9.",
"#.#.+.+.#.#.#.#.+.+.+.+.+.+.+.+.+.+.+.+.+.+.+.+.+.+.+.:.+.+.+.+.+.+.+.+.+.+.+.+.+.+.+.+.+.+.+.+.+.+.+.+.+.+.+.+.+.5.9.9.@.+.@.@.",
"$.@.+.+.#.#.#.#.+.+.+.+.+.+.+.+.+.+.+.+.+.+.+.+.+.:.:.:.:.:.#.:.:.:.:.:.:.:.+.+.+.+.+.+.+.+.+.+.+.+.+.+.+.+.+.+.+.9.9.+.+.+.@.@.",
"@.@.+.+.#.#.#.#.+.+.+.+.+.+.+.+.+.+.+.+.+.+.+.+.+.9.:.:.:.:.:.:.:.:.:.:.9.:.:.:.#.+.+.+.+.+.+.+.+.+.+.+.+.+.+.+.+.+.+.+.+.+.@.9.",
"#.+.+.+.#.#.#.#.+.+.+.+.+.+.+.+.+.+.+.+.+.+.+.+.+.+.+.:.:.:.:.:.:.+.+.+.+.+.+.+.+.+.+.+.+.+.+.+.+.+.+.+.+.+.+.+.$.$.@.+.#.#.#.@.",
"+.+.+.+.#.#.#.#.+.+.+.+.+.+.+.+.+.+.+.+.+.+.+.+.:.:.:.:.:.:.:.9.9.9.:.:.9.+.+.+.+.+.+.+.+.+.+.+.+.+.+.+.+.+.+.+.$.+.@.@.+.+.+.@.",
"+.+.+.+.#.#.#.#.+.+.+.+.+.+.+.+.+.+.+.+.+.+.+.:.:.:.:.u.u.u.u.u.u.u.9.:.9.9.:.<.+.+.+.+.+.+.+.+.+.+.+.+.+.+.+.+.+.+.@.@.+.+.+.+.",
"+.+.+.+.#.#.#.+.+.+.+.+.+.+.+.+.+.+.+.+.+.#.:.:.:.u.u.u.u.u.f.f.u.u.u.u.9.9.9.:.#.+.+.+.+.+.+.+.+.+.+.+.+.+.+.+.+.+.@.+.+.+.+.+.",
"@.@.@.$.+.+.#.+.#.+.+.+.+.+.+.+.+.+.+.+.:.9.e.u.u.u.u.u.h.h.c.c.c.c.h.u.u.u.9.:.:.+.+.+.+.+.+.+.+.+.+.+.+.+.+.+.+.+.@.@.@.@.@.@.",
"9.9.9.9.5.5.9.9.#.+.+.+.+.+.+.+.+.+.:.:.:.u.u.h.h.h.h.h.n.n.n.n.n.n.c.h.h.h.u.9.:.#.+.+.+.+.+.+.+.+.+.+.+.+.+.+.+.+.@.@.@.@.@.@.",
"9.9.9.9.5.5.5.9.+.+.+.+.+.+.+.+.+.:.:.:.u.u.h.h.h.v.c.n.n.n.n.n.n.n.n.v.k.h.h.u.9.:.:.+.+.+.+.+.+.+.+.+.+.+.+.+.+.+.@.@.@.@.@.@.",
"9.9.9.9.5.5.5.@.+.+.+.+.+.+.+.<.:.:.:.u.u.h.h.n.n.n.n.2 2 @ o o o $ 2 2 n.k.h.u.u.e.:.:.+.+.+.+.+.+.+.+.+.+.+.+.+.+.@.@.@.@.@.@.",
"5.5.5.5.9.9.9.+.+.+.+.+.+.+.<.+.:.:.u.u.h.h.n.n.n., #                   @ N 4.3.u.u.u.:.:.+.+.+.+.+.+.+.@.+.+.+.+.+.+.+.@.@.@.@.",
"9.9.5.5.9.9.9.@.@.@.+.+.:.9.9.9.u.u.h.c.n.n.%.d i r &                 & r f a C v.v.c.f.u.e.9.9.$.+.#.#.$.$.@.@.#.#.#.#.$.@.@.+.",
"9.9.9.5.9.9.5.@.@.@.+.:.:.9.9.q.u.u.c.n.n.K : 0 e a 0 @             @ 0 a z H H J M.v.c.f.u.e.9.$.$.#.#.$.@.+.@.#.#.$.#.$.@.+.+.",
"9.9.9.9.9.9.5.@.@.@.+.:.9.9.9.u.u.h.c.n.*.b % & > a r &             & w k _ / / l C *.h.f.f.e.e.9.$.#.$.$.@.+.+.#.#.$.$.$.@.+.+.",
"9.9.9.9.5.5.@.@.5.@.9.:.9.9.q.u.u.h.n.*.n % @ & & w k w X           > r H / / / j f N *.c.f.e.e.9.$.#.#.#.+.+.+.#.#.$.$.@.+.+.+.",
"+.+.+.+.+.+.+.+.+.+.+.+.+.+.:.:.u.u.=.b # @ @ $ & 0 a r @           0 j H / / H k j r B c.h.u.e.9.9.$.#.+.+.+.+.+.+.+.+.+.+.+.+.",
"+.+.+.+.+.+.+.+.+.+.+.+.+.+.:.:.1.1.Z @     @ $ & & 0 a $         @ r k / H z k j a r q %.h.u.e.9.9.$.+.+.+.+.+.+.+.+.+.+.+.+.+.",
"+.+.+.+.+.+.+.+.+.+.+.+.+.+.:.:.1.} 4       @ @ $ & & e >         & j k / k j k a r e = e c.u.u.e.9.$.+.+.+.+.+.+.+.+.+.+.+.+.+.",
"+.+.+.+.+.+.+.+.+.+.+.+.+.+.:.:.u.y *           @ $ & 0 p Q F.F.F.U h / H j a a e 0 & @ - s u.u.e.9.$.+.+.+.+.+.+.+.+.+.+.+.+.+.",
"+.+.+.+.+.+.+.+.+.+.+.+.+.+.:.:.u.%                 @ 8 Z.K.T.T.E.I.~ k z r r w & @       ; u.u.9.9.#.+.+.+.+.+.+.+.+.+.+.+.+.+.",
"+.+.+.+.+.+.+.+.+.+.+.+.+.+.:.:.u.%                 5 G.T.T.T.T.T.T.T.^ r w 2 @           $ u.u.:.+.+.+.+.+.+.+.+.+.+.+.+.+.+.+.",
"+.+.+.+.+.+.+.+.+.+.+.+.+.+.:.:.u.                  P T.T.T.T.T.T.T.T.T.I 2                 u.u.:.+.+.+.+.+.+.+.+.+.+.+.+.+.+.+.",
"+.+.+.+.+.+.+.+.+.+.+.+.+.+.:.:.u.                  J.T.T.T.H.D.Y.T.T.T.T.                  u.9.+.+.+.+.+.+.+.+.+.+.+.+.+.+.+.+.",
"+.+.+.+.+.+.+.+.+.+.+.+.+.+.:.:.u.                  T.T.T.T.N.7 B.T.T.T.T.                  u.9.+.+.+.+.+.+.+.+.+.+.+.+.+.+.+.+.",
"+.+.+.+.+.+.+.+.+.+.+.+.+.:.:.:.u.                  R.T.T.T.S.R S.T.T.E.R.                  u.9.<.+.+.+.+.+.+.+.+.+.+.+.+.+.+.+.",
"+.+.+.+.+.+.+.+.+.+.+.+.+.<.:.:.u.                  V.T.T.T.T.T.T.T.T.U.C.@                 u.9.+.+.+.+.+.+.+.+.+.+.+.+.+.+.+.+.",
"+.+.+.+.+.+.+.+.+.+.+.+.+.+.#.:.u.@                 5 P.T.T.T.T.T.T.T.J.0 0 & @           O u.:.+.+.+.+.+.+.+.+.+.+.+.+.+.+.+.+.",
"+.+.+.+.+.+.+.+.+.+.+.+.+.+.:.:.1.$                 @ Y L.T.T.T.T.T.T.E & r r 0 $         $ u.:.+.+.+.+.+.+.+.+.+.+.+.+.+.+.+.+.",
"+.+.+.+.+.+.+.+.+.+.+.+.+.+.+.:.:.M             @ > 0 a W A.L.T.L.! L + @ q r a w & @   . , e.:.+.+.+.+.+.+.+.+.+.+.+.+.+.+.+.+.",
"+.+.+.+.+.+.+.+.+.+.+.+.+.+.+.+.:.[ %         $ 0 w r a ) T G 9 5         & 0 a j a 0 @ u &.e.#.+.+.+.+.+.+.+.+.+.+.+.+.+.+.+.+.",
"+.+.+.+.+.+.+.+.+.+.+.+.+.+.+.+.:.#.m .     & 0 w r j / / H r @           $ 2 e a j r 3 N e.e.#.+.+.+.+.+.+.+.+.+.+.+.+.+.+.+.+.",
"+.+.+.+.+.+.+.+.+.+.+.+.+.+.+.+.+.#.' 2 $ 2 w r r z H ( / k 0             @ @ & r a i v 3.e.9.+.+.+.+.+.+.+.+.+.+.+.+.+.+.+.+.+.",
"+.+.+.+.+.+.+.+.+.+.+.+.+.+.+.+.+.+.+.Z 2 q r a f z ( ` H a &               @ & 0 r y F e.e.$.+.+.+.+.+.+.+.+.+.+.+.+.+.+.+.+.+.",
"+.+.+.+.+.+.+.+.+.+.+.+.+.+.+.+.+.+.:.X.B t r j k H ( ( / a &               @ @ % 2 Z <.+.+.+.+.+.+.+.+.+.+.+.+.+.+.+.+.+.+.+.+.",
"+.+.+.+.+.+.+.+.+.+.+.+.+.+.+.+.+.+.+.+.:.D t r H _ ( ( H a &                 # % y | +.+.+.+.+.+.+.+.+.+.+.+.+.+.+.+.+.+.+.+.+.",
"+.+.+.+.+.+.+.+.+.+.+.+.+.+.+.+.+.+.+.+.+.:.V y f / / / z e &               # x A o.+.+.+.+.+.+.+.+.+.+.+.+.+.+.+.+.+.+.+.+.+.+.",
"+.+.+.+.+.+.+.+.+.+.+.+.+.+.+.+.+.+.+.+.+.+.o.F d g a ( k w &             1 u { +.+.+.+.+.+.+.+.+.+.+.+.+.+.+.+.+.+.+.+.+.+.+.+.",
"+.+.+.+.+.+.+.+.+.+.+.+.+.+.+.+.+.+.+.+.+.+.+.:.X.S < f q & @       % % 3 V | +.+.+.+.+.+.+.+.+.+.+.+.+.+.+.+.+.+.+.+.+.+.+.+.+.",
"@.@.$.+.+.+.+.+.+.+.+.+.+.+.+.+.+.+.+.+.+.+.+.+.:.:.X.F F D S S S D ' ' X.O.+.+.+.+.+.@.+.+.+.+.+.+.+.+.#.#.#.#.+.+.+.+.+.+.+.+.",
"$.@.$.+.+.+.+.+.+.+.+.+.+.+.+.+.+.+.+.+.+.+.+.+.+.+.:.:.:.:.+.+.+.+.+.+.+.+.+.+.+.+.+.@.+.+.+.+.+.+.+.+.#.#.#.#.+.+.+.+.+.+.+.+.",
"@.@.$.+.+.+.+.+.+.+.+.+.+.+.+.+.+.+.+.+.+.+.+.+.+.+.+.+.+.+.+.+.+.+.+.+.+.+.+.+.+.+.+.@.@.+.+.+.+.+.+.+.#.#.#.#.+.+.+.+.+.+.+.+.",
"@.@.$.+.+.+.+.+.+.+.+.+.+.+.+.+.+.+.+.+.+.+.+.+.+.+.+.+.+.O.O.O.O.O.O.O.O.+.+.+.+.+.+.@.@.+.+.+.+.+.+.+.#.#.#.#.+.+.+.+.+.+.+.+.",
"#.#.#.#.#.#.#.#.@.@.@.@.+.+.+.+.+.+.+.+.+.+.+.O.O..... . . . . . . . .......o.O.O.+.+.+.+.+.+.+.+.+.+.+.#.#.#.#.+.+.+.+.+.+.+.+.",
"#.#.#.#.#.#.#.#.@.@.@.@.+.+.+.+.+.+.+.+.+.+.O.O...] ] ] ] ] ] ] ] ] ] ] ] ]  . .O.O.+.+.+.+.+.+.+.+.+.+.#.#.#.#.+.+.+.+.+.+.+.+.",
"#.#.#.#.#.#.#.#.+.+.+.+.+.+.+.+.+.+.+.+.+.+.+.+.O... . . . .] ]  . . . . . ...O.O.+.+.+.+.+.+.+.+.+.+.+.#.#.#.#.+.+.+.+.+.+.+.+.",
"#.#.#.#.#.#.#.#.+.+.+.+.+.+.+.+.+.+.+.+.+.+.+.+.+.O.O.O.O.O.O.O.O.O.O.O.O.O.O.+.+.+.+.+.+.+.+.+.+.+.+.+.#.#.#.#.+.+.+.+.+.+.+.+.",
"+.+.+.+.+.+.+.+.+.+.+.+.+.+.+.+.+.+.+.+.+.+.+.+.+.+.+.+.+.+.+.+.+.+.+.+.+.+.+.+.+.+.+.+.+.+.+.+.+.+.+.+.+.+.+.+.+.+.+.+.+.+.+.+.",
"+.+.+.+.+.+.+.+.#.#.#.#.+.+.+.+.+.+.+.+.+.+.+.+.+.+.+.+.+.+.+.+.+.+.+.+.+.+.+.+.+.+.+.+.+.+.+.+.+.+.+.+.+.+.+.+.+.+.+.+.+.+.+.+.",
"+.+.+.+.+.+.+.+.#.#.#.#.+.+.+.+.+.+.+.+.+.+.+.+.+.+.+.+.+.+.+.+.+.+.+.+.+.+.+.+.+.+.+.+.+.+.+.+.+.+.+.+.+.+.+.+.+.+.+.+.+.+.+.+.",
"+.+.+.+.+.+.+.+.#.#.#.#.+.+.+.+.+.+.+.+.+.+.+.+.+.+.+.+.+.+.+.+.+.+.+.+.+.+.+.+.+.+.+.+.+.+.+.+.+.+.+.+.+.+.+.+.+.+.+.+.+.+.+.+.",
"+.+.+.+.+.+.+.+.$.$.$.$.+.+.+.+.+.+.+.+.+.+.+.+.+.+.+.+.+.+.+.+.+.+.+.+.+.+.+.+.+.+.+.+.+.+.+.+.+.+.+.+.+.+.+.+.+.+.+.+.+.+.+.+.",
"#.#.#.+.+.+.+.+.+.+.+.+.+.+.+.+.+.+.+.+.+.+.+.+.+.+.+.+.+.+.+.+.+.+.+.+.+.+.+.+.+.+.+.+.+.+.+.+.#.#.#.+.+.+.+.+.+.+.+.+.+.+.+.+.",
"#.#.#.+.+.+.+.+.+.+.+.+.+.+.+.+.+.+.+.+.+.+.+.+.+.+.+.+.+.+.+.+.+.+.+.+.+.+.+.+.+.+.+.+.+.+.+.+.#.#.#.+.+.+.+.+.+.+.+.+.+.+.+.+.",
"#.#.#.+.+.+.+.+.+.+.+.+.+.+.+.+.+.+.+.+.+.+.+.+.+.+.+.+.+.+.+.+.+.+.+.+.+.+.+.+.+.+.+.+.+.+.+.+.+.+.+.+.+.+.+.+.+.+.+.+.+.+.+.+.",
"#.#.#.+.+.+.+.+.+.+.+.+.+.+.+.+.+.+.+.+.+.+.+.+.+.+.+.+.+.+.+.+.+.+.+.+.+.+.+.+.+.+.+.+.+.+.+.+.+.+.+.+.+.+.+.+.+.+.+.+.+.+.+.+.",
"#.#.#.#.+.+.+.+.+.+.+.+.+.+.+.+.+.+.+.+.+.+.+.+.+.+.+.+.+.+.+.+.+.+.+.+.+.+.+.+.+.+.+.+.+.+.+.+.+.+.+.+.+.+.+.+.+.+.+.+.+.+.+.+.",
"9.9.9.9.9.9.9.9.+.+.+.+.+.+.+.+.+.+.+.+.+.+.+.+.+.+.+.+.+.+.+.+.+.+.+.+.+.+.+.+.+.+.+.+.+.+.+.+.+.+.+.+.+.+.+.+.+.+.+.+.+.+.+.+.",
"9.9.9.9.9.9.9.9.+.+.+.+.+.+.+.+.+.+.+.+.+.+.+.+.+.+.+.+.+.+.+.+.+.+.+.+.+.+.+.+.+.+.+.+.+.+.+.+.+.+.+.+.+.+.+.+.+.+.+.+.+.+.+.+."
};
