/* XPM */
static const char *c2Nvb3RlcjErJTI4MSUyOQ__[] = {
/* columns rows colors chars-per-pixel */
"64 64 141 2 ",
"   c #010101",
".  c #0B0505",
"X  c #060709",
"o  c #0C0C0B",
"O  c #130707",
"+  c #180A07",
"@  c #160C0B",
"#  c #1A0F0E",
"$  c #1E140D",
"%  c #111111",
"&  c #191915",
"*  c #11151E",
"=  c #171818",
"-  c #1A1A1A",
";  c #230F0D",
":  c #20160E",
">  c #34110D",
",  c #221A14",
"<  c #20161B",
"1  c #231A1A",
"2  c #2D1A18",
"3  c #351312",
"4  c #381712",
"5  c #28221D",
"6  c #1F1F21",
"7  c #1A2336",
"8  c #2F2726",
"9  c #2F2924",
"0  c #232324",
"q  c #2E2F31",
"w  c #2F3032",
"e  c #313234",
"r  c #3C3A39",
"t  c #451A14",
"y  c #591B19",
"u  c #4C241F",
"i  c #412B1B",
"p  c #572922",
"a  c #41372A",
"s  c #4E3F2F",
"d  c #5E3E26",
"f  c #742A29",
"g  c #6B472C",
"h  c #6D492C",
"j  c #754E2F",
"k  c #754F30",
"l  c #7E5636",
"z  c #242E49",
"x  c #28334D",
"c  c #30394C",
"v  c #273350",
"b  c #293552",
"n  c #2A3857",
"m  c #2C3A5B",
"M  c #2F3E61",
"N  c #314368",
"B  c #324165",
"V  c #384A73",
"C  c #394C76",
"Z  c #4C4C49",
"A  c #5D5748",
"S  c #4B4D50",
"D  c #515151",
"F  c #56585A",
"G  c #5F5F5F",
"H  c #54575A",
"J  c #605545",
"K  c #435072",
"L  c #4F5D7F",
"P  c #5F6064",
"I  c #802F2E",
"U  c #8F3332",
"Y  c #9D3737",
"T  c #A43A3A",
"R  c #AD3D3C",
"E  c #B03F3F",
"W  c #855E3F",
"Q  c #AF403E",
"!  c #B0403F",
"~  c #AE4242",
"^  c #B04140",
"/  c #96785D",
"(  c #9C7D5C",
")  c #978975",
"_  c #A38261",
"`  c #B7A07E",
"'  c #C4A07A",
"]  c #C8A47F",
"[  c #D6AC7F",
"{  c #3E5280",
"}  c #425788",
"|  c #445A8D",
" . c #505F83",
".. c #475E93",
"X. c #4D608A",
"o. c #586789",
"O. c #596889",
"+. c #526183",
"@. c #4E6495",
"#. c #50669A",
"$. c #53699A",
"%. c #5A6B93",
"&. c #687796",
"*. c #6A7B9F",
"=. c #5970A5",
"-. c #6C7EA5",
";. c #739883",
":. c #7080A4",
">. c #7283AB",
",. c #7888AC",
"<. c #7185B2",
"1. c #798CB3",
"2. c #7F91B9",
"3. c #8395BC",
"4. c #96B7A6",
"5. c #C7A482",
"6. c #CCAD8C",
"7. c #DAAE81",
"8. c #C8B38C",
"9. c #D6B68B",
"0. c #D9B88D",
"q. c #DDB284",
"w. c #D4B290",
"e. c #E0B485",
"r. c #E0BE91",
"t. c #DEC39D",
"y. c #E9C595",
"u. c #E6C99A",
"i. c #ECCA9A",
"p. c #F0CE9C",
"a. c #E1C7A7",
"s. c #E4CBA4",
"d. c #EACFAA",
"f. c #F4D3A3",
"g. c #F7D8A6",
"h. c #F9DBAA",
"j. c #FFE2B0",
"k. c #8799C1",
"l. c #8C9EC6",
"z. c #8D9FC8",
"x. c #FBE5C0",
/* pixels */
"^ ^ ^ ^ ^ ^ ^ ^ R R R R R Q R R Q Q Q R R Q Q R R R R R R R R R R R R ~ ~ ~ R R R ~ ~ R R R R R R R R R R R R R R R R R R R E ^ ",
"^ ^ ^ ^ ^ ^ ^ ^ R R R R R Q Q Q R R Q R R R R R R R R R R R R R R R R R R Q R E E ~ ^ R R R R R R R R R R R R R R R R R R R E R ",
"^ ^ ^ ^ ^ ^ ^ ^ R R R R R Q Q Q Q R R R R R R R R R R R R R R R R R R R R R R R R E ^ R R R R R R R R R R R R R R R R R R R Q Q ",
"^ ^ ^ ^ ^ ^ ^ ^ R R R R R R R R R R R R R R R R R R R R R R R R R R R R R R R R R R ~ R R R R R R R R R R R R R R R R R R R Q Q ",
"Q Q Q R ! Q Q Q R R R R R R R R R R R R R R R R R R R R R R     - -           R R R R E R R R R R R R R R R R R ^ ^ ^ ^ E E ^ ^ ",
"Q Q R R Q Q Q Q R R R R R R R R R R R R R R R R R R R R         - - - - - -     R R R R R R R R R R R R R R R R E ^ ^ ^ E R E E ",
"Q ! R R Q Q Q Q R R R R R R R R R R R R R R R ^ R R R     - - - - - - - - - -     R R R R R R R R R R R R R R R R ^ ^ R R R E E ",
"E E R R Q Q Q Q R R R R R R R R R R R R R R R R R R       - - - -     -   - - -     R R R R R R R R R R ~ R R R R R R R R R E ^ ",
"Q R R R Q Q Q Q R R R R R R R R R R R R R R R R R       -     -           -           R R R R R R R R R R R R R ! ! E R Q Q Q E ",
"R R R R Q Q Q Q R R R R R R R R R R R R         -                             -       R R R R R R R R R R R R R ! R E E R R R E ",
"R R R R Q Q Q Q R R R R R R R R R R R O                               - - - - - - h   O R R R R R R R R R R R R R R E E R R R R ",
"R R R R Q Q Q R R R R R R R R R R R R R                                           j   1 R R R R R R R R R R R R R R E R R R R R ",
"E E E ! Q Q Q R Q R R R R R R R R R R R R R R R R r p.p.f.f.f.f.  $ : : : : $ $ $ $   3 R R R R R R R R R R R R R R E E E E E E ",
"^ ^ ^ ^ ^ ^ ^ ^ Q R R R R R R R R R R R R R R         p.        j.i i l l i h j j j   R R R R R R R R R R R R R R R E E E E E E ",
"^ ^ ^ ^ ^ ^ ^ ^ R R R R R R R R R R R R R R R                               g j j j   R R R R R R R R R R R R R R R R E E E E E ",
"^ ^ ^ ^ ^ ^ ^ E R R R R R R R R R R R R R R R         p.        j.j.g.e.e.  g j j d   R R R R R R R R R R R R R R R E E E E E E ",
"^ ^ ^ ^ ^ ^ ^ R R R R R R R R R R R R R R R E E ^   p.p.p.j.j.j.j.j.j.e.    g j j   R R R R R R R R R R E R R R R R R R E E E E ",
"^ ^ ^ ^ ^ ^ ^ E E E R R ^ R R R R R ^ ^ ^ R ^ ^ ^   W W W W W j.j.j.j.e.  k j j k   R R R E R R R R Q Q ! ! E E Q Q Q Q ^ E E R ",
"^ ^ ^ ^ ^ ^ ^ E E E E R ~ ~ R R R R ^ ^ ^ R R R ^ R   y y y W j.j.f.f.e.(   g g   R R Q ! ! ! ! Q Q Q Q ! E R R Q Q Q Q ! E R R ",
"^ ^ ^ ^ ^ ^ ^ E E E E ^ ^ ~ R R R R ^ ^ ^ R R R ^ R     y f.W j.j.f.f.f.q.( ,   R R R Q ! ! ! ! Q Q ! ! ! E R R Q Q ! ! ! E R R ",
"^ ^ ^ ^ ^ ^ ^ E E ^ E R R R R R R R ^ ^ ^ R R R R R R             s f.f.e._ 9 R R R R ! Q Q ! ! Q Q Q Q Q R R R Q Q Q ! E R R R ",
"R R R R R R R R R R R R R R ^ ~ R R ^ R R R R R R R R R R R R R R X f.f.e._ 5 R R R R E R R E R R R R R R R R R R R R R R R R R ",
"R R R R R R R R R R R R R R R R R R R R R R R R R R R R R R R R R o f.f.f.          R E R R R R R R R R R R R R R R R R R R R R ",
"R R R R R R R R ~ R R R R R R R R R R R R R R R R R R R R R R R             G G G G   E R R R R R R R R R R R R R R R R R R R R ",
"R R R R R R R R ~ R R R R R R           R R R R R           R   G G G G G G G   G G G     R R R E E R R R R R R R R R R R R R R ",
"R R R R R R R R R R R R R R -   8.d.d.d.  R R R   d.d.d.`     G G   G G G G   G G G G G   R R R R R R R R R R R R R R R R R R R ",
"R R R R R R R R R R R 8           y.y.            d.d.)     X   D   G G G 2 @   G G G G     R R R R R R R R R R R R R R R R R R ",
"R R R R R R R R R R R   t t > >         t t t >   A J     t t   D   D G     x.    G G   G X R R R R R R R R R R R R R R R R R R ",
"R R R R R R R R R R R     t t > > > > t t t t >         t t t             x.x.6.  G     G X R R R R R R R R R R R R R R R R R R ",
"R R R R R R R R R R R R           > > t t t t > > > > > t t t   s.t.t.t.s.a.6.        D G X R R R R R R R R R R R R R R R R R R ",
"R R R R R R R R R R R R R R R R   % %   . . . .               w.5.5.' ] 6.6.    D D D G G X R R R R R R R R R R R R R R R R R R ",
"R R R R R R R R R R R R R R R R R R R   > t t >   R R R R R   X - 0 =   o   D D D G G G G X R R R R R R R R R R R R R R R R R R ",
"R R R R R R R R R R R R R R R R R R R   > t t >   R R R R R R   D D D D D D D D G G G G G X R R R R R R R R R R R R R R R R R R ",
"R R R R R R R R R R R R R R R Q R R R   > t t >   R R R R R R           X o P G G G G G G X R R R R R R R R R R R R R R R R R R ",
"R R R R R R R R R R R R R R R R R R R   > t t >   R R R R R R   b K o.+.L  .c * X       G X R R R R R R R R R R R R R R R R R R ",
"R R R R R R R R R R R R R R R R R R R   > t t >   R R R R R   k.l.k.:.*.1.3.O.b z z z v   Q Q R R R R R R R R R R R R R R R R R ",
"R R R R R R R R R R R R R R R R R R R   > t t >   R R R     z.l.l.,.x   >.3.3.&.X.| M n % Q Q R R R R R R R R R R R R R R R R R ",
"R R R R R R R R R R R R R R R R R R R   > t t >   R R   ..l.l.l.3.C %   >.3.3.-.@...m n % Q Q R R R R R R R R R R R R R R R R R ",
"R R R R R R R R R R R R R R R R R R R   > t t >   R     %.....l.l.} %   <.3.3.3.$...m M % R Q R R R R R R R R R R R R R R R R R ",
"R R R R R R R R R R R R R R R R R R R % > t t >   R         ........=   =.<.3.2.$.| b % R R R R R R R R R R R R R R R R R R R R ",
"R R R R R R R R R R R R R R R R R R R @ > t t >   R   9.f.9.  | ..| o | ....1.#...V % % R R R R R R R R R R R R R R R R R R R R ",
"R R R R R R R R R R R R R R R R R R R % > t t >   R   f.h.f./   |   o B N V { | ..x % R R R R R R R R R R R R R R R R R R R R R ",
"R R R R R R R R R R R R R R R R R R R % > t t >   R R X f.f.[                 7 b o % R R R R R R R R R R R R R R ^ R R R R R R ",
"R R R R R R R R R R R R R R R R R R R % > t t >   R R X X f.7.s   U       a , o o % R R R R R R R R R R R R R R R R R R R R R R ",
"! ! ! R R R R R R R R R R R R R R R R % > t t >   R R R X u.[ [ X I   [ f.r.    % T R R R R R R R R R R R R R Q R R R R R R R R ",
"! ! ! R R R R R R R R R R R R R R R R % > t t >   R R R R   X X   U   f.i.0.7.  R R R R R R R R R R R R R R R R R R R R R R R R ",
"E E ! R R R R R R R R R R R R R R R R % > t t >   R R R R   4.;.  R   y.y.[ 7.  R R R R R R R R R R R R R R R R R R R R R R R R ",
"E ! ! R R R R R R R R R R R R R R R R % > t t >   R R R R   4.;.X   f   y.[ [   R R R R R R R R R R R R R R R R R R R R R R R R ",
"Q Q Q Q Q Q Q Q E E E E R R R R R R R % > t t >   R R R             Y   y.[   R R R R R R R R R R R R R R R R R R R R R R R R R ",
"Q Q Q Q Q Q Q Q E R E E R R R R R R R X > t t >   p u u   N N N         o &   Z > > > o o o o o o     R R R R R R R R R R R R R ",
"Q Q Q Q Q Q Q Q R R R R R R R           > t t > ;       N N N N     >   4.;.  t t t t t > > > > 4       3 Q Q Q R R R R R R R R ",
"Q Q Q Q Q Q Q Q R R R R R R R   > > > . > t t > +   N N N N N N     t   4.;.  t t t t t t t t t t       Q Q Q Q R R R R R R R R ",
"R R R R R R R R R R R R R R R R         > t t > >     <             t         t t t t t t t t t t t   R R R R R R R R R R R R R ",
"R R R R R R R R Q Q Q Q R R R R R   e o @ @ t t t > > > > > > > > >   N N N   >           $ # # # @ @ R R R R R R R R R R R R R ",
"R R R R R R R R Q Q Q Q R R R R R R   w e =         > > > > >       N N N N     R R R R X e e e e   R R R R R R R R R R R R R R ",
"R R R R R R R R Q Q Q Q R R R R R R R     R R R R R           q   N N N N N   R R R R R R   H F   R R R R R R R R R R R R R R R ",
"R R R R R R R R ! ! ! ! R R R R R R R R R R R R R R R   6 6 0   N N N N       R R R R R R R     R R R R R R R R R R R R R R R R ",
"Q Q Q R R R R R R R R R R R R R R R R R R R R R R R R   c S S     N         T R T R R R R R R R Q Q Q R R R R R R R R R R R R R ",
"Q Q Q R R R R R R R R R R R R R R R R R R R R R R R R R   G F %               R R R R R R R R R Q Q Q R R R R R R R R R R R R R ",
"Q Q Q R R R R R R R R R R R R R R R R R R R R R R R R R R   % R R R R R R R R R R R R R R R R R R R R R R R R R R R R R R R R R ",
"Q Q Q R R R R R R R R R R R R R R R R R R R R R R R R R R R R R R R R R R R R R R R R R R R R R R R R R R R R R R R R R R R R R ",
"Q Q Q Q R R R R R R R R R R R R R R R R R R R R R R R R R R R R R R R R R R R R R R R R R R R R R R R R R R R R R R R R R R R R ",
"^ ^ ^ ^ ^ ^ ^ ^ R R R R R R R R R R R R R R R R R R R R R R R R R R R R R R R R R R R R R R R R R R R R R R R R R R R R R R R R ",
"^ ^ ^ ^ ^ ^ ^ ^ R R R R R R R R R R R R R R R R R R R R R R R R R R R R R R R R R R R R R R R R R R R R R R R R R R R R R R R R "
};
