/* XPM */
static const char *dGF5dGF5bG9zZQ__[] = {
/* columns rows colors chars-per-pixel */
"64 64 151 2 ",
"   c #1A1D14",
".  c #2A1B13",
"X  c #251C1C",
"o  c #31181E",
"O  c #171420",
"+  c #1D1D25",
"@  c #1F1D2A",
"#  c #1E172A",
"$  c #1D1C30",
"%  c #211C26",
"&  c #221C2C",
"*  c #2D1D29",
"=  c #2A1925",
"-  c #241E31",
";  c #2E1437",
":  c #351928",
">  c #1E202C",
",  c #1F2123",
"<  c #222322",
"1  c #22202B",
"2  c #2A292E",
"3  c #36232E",
"4  c #3A222D",
"5  c #272431",
"6  c #372230",
"7  c #412118",
"8  c #7B2524",
"9  c #7C2A27",
"0  c #694939",
"q  c #73493B",
"w  c #7C327F",
"e  c #4E4D52",
"r  c #4F4F5D",
"t  c #5B545C",
"y  c #584B48",
"u  c #604646",
"i  c #585562",
"p  c #575563",
"a  c #B9081C",
"s  c #B3041B",
"d  c #8D1D22",
"f  c #842A25",
"g  c #AC3D3C",
"h  c #B03F3F",
"j  c #CA0019",
"k  c #CD0F23",
"l  c #D01F2E",
"z  c #D92727",
"x  c #DA2D2D",
"c  c #DB3333",
"v  c #9B493A",
"b  c #AF403D",
"n  c #B0403F",
"m  c #BD6924",
"M  c #B04140",
"N  c #DD950B",
"B  c #D69B0C",
"V  c #DF8A12",
"C  c #DE9511",
"Z  c #D6921C",
"A  c #DB921F",
"S  c #E2940D",
"D  c #E1980B",
"F  c #E08E10",
"G  c #E79913",
"H  c #E9A015",
"J  c #F3A51E",
"K  c #C08B23",
"L  c #D58F20",
"P  c #DA9424",
"I  c #D0902B",
"U  c #DA9629",
"Y  c #D79728",
"T  c #E39F27",
"R  c #D7A12E",
"E  c #DBA334",
"W  c #ECA523",
"Q  c #EEA924",
"!  c #EDA629",
"~  c #E4A827",
"^  c #F1A622",
"/  c #F0A728",
"(  c #E7A737",
")  c #E5B13F",
"_  c #E8B23F",
"`  c #AB8344",
"'  c #BCA479",
"]  c #E8AF40",
"[  c #E1A146",
"{  c #E5B140",
"}  c #EAB158",
"|  c #F4BC5E",
" . c #DD9C6D",
".. c #DE9C72",
"X. c #D39C79",
"o. c #D49977",
"O. c #E69A67",
"+. c #E19C6E",
"@. c #E19C73",
"#. c #E5977B",
"$. c #DAA069",
"%. c #C1A776",
"&. c #C1A974",
"*. c #EFBE60",
"=. c #E4A87B",
"-. c #F1A37C",
";. c #F6CD69",
":. c #F5C475",
">. c #F4CB75",
",. c #F3CA7A",
"<. c #F2C77C",
"1. c #7B3784",
"2. c #862D8E",
"3. c #882A93",
"4. c #B726A6",
"5. c #B525AC",
"6. c #BF22AC",
"7. c #BF25BA",
"8. c #C41FAD",
"9. c #C421A5",
"0. c #C421AC",
"q. c #C523B8",
"w. c #D663C7",
"e. c #D767CB",
"r. c #DB6FCE",
"t. c #DA66C8",
"y. c #CB73C6",
"u. c #E06FCE",
"i. c #E376D8",
"p. c #D19F83",
"a. c #EC9F84",
"s. c #EEBD96",
"d. c #EFBE98",
"f. c #F2BD96",
"g. c #F9BA93",
"h. c #F9BA93",
"j. c #F3BE99",
"k. c #F0BD9A",
"l. c #F1BD9A",
"z. c #F7C681",
"x. c #F1C880",
"c. c #F1C09E",
"v. c #E5C0A8",
"b. c #E6C5B9",
"n. c #EADFEE",
"m. c #E9D7F0",
"M. c #EEDCF5",
"N. c #EDDCF8",
"B. c #F1DBF4",
"V. c #F1DCF8",
"C. c #FDFCFD",
/* pixels */
"M M M M M M M M g g g h g b g g b b b g g b b g g g g g g g g g g g b M M M g g g M M g g g g g g g g g g g g g g g g g g g h M ",
"M M M M M M M M g g g g g b g g g g b g g g g g g g g g g g g g g g g b b M g g n M M g g g g g g g g g g g g g g g g g g g h h ",
"M M M M M M M M g g g g g b b b b g g g g g g g g g g g g g g g g g g g g g g g n n M g g g g g g g g g g g g g g g g g g g b g ",
"M M M M M M M M g g g g g g g g g g g g g g g g g g g g g g g g g g g g g g g g g M M g g g g g g g g g g g g g g g g g g g b b ",
"b b b g n b b b g g g g g g g g g g g g g g g g g g g g g g g g g g g g g g g g g g g g g g g g g g g g g g g g M M M M h h M M ",
"b b g g b b b b g g g g g g g g g g g g g g g g g g g + + @ @ @ @ @ @ @ + g g g g g g g g g g g g g g g g g g g g M M M h g g h ",
"b g g g b b b b g g g g g g g g g g g g g g g g g g g & O @ & & & & & + @ g g g g g g g g g g g g g g g g g g g h M M g g g h h ",
"h h g g b b b b g g g g g g g g g g g g g g g g 4 4 % ,.>.,.>.>.>.,.,.,.>.% & & g g g g g g g g g g g g M g g g g g g g g g h M ",
"b g g g b b b b g g g g g g g g g g g g g g e u %.%.%.) ) ) { ] R E { { _ ` ` ' y e g g g g g g g b g g n g g g n n g g b b b h ",
"g g g g b b b b g g g g g g g g g g g g g g & 7 ,.,.,.Q Q W Q ~ G V Q Q Q Q ! ,.. & g g g g g g g n b b n g g g n g g h g g h h ",
"g g g g b b b b g g g g g g g g g g g g % @ z.:.J ^ J Q Q Q N N 9 8 N Q Q ^ ^ Q <.:.+ & g g g g g b b b g g g g g h g g g g g g ",
"g g g g b b b g g g g g g g g g g g g g @ @ x.;.Q Q Q Q Q W N S 8 f S & & & & & >.,.& @ g g g g g b b b b g g g g h h g g g g g ",
"h h h n b b b g b g g g g g g g g g g g @ @ ! Q Q Q Q Q W H f 8 ..& & & & h.h.& Q Q $ @ g g g g g b b b b g g g g g h g g h h h ",
"M M M M M M M M b g g g g g g g g g g g @ @ ! Q j j Q s j m v v & & h.h.h.h.h.h.& ^ $ @ g g g g b b b b b b g g h h g g h h h h ",
"M M M M M M M M g g g g g g g g g g g g @ @ / j @ @ s : @ j @.+.& h.h.h.h.h.h.h.h.& & @ g g g g b b b b b b g g h h h g h h h h ",
"M M M M M M M h g g g g g g g g g g g g @ @ j @ @ @ @ @ @ @ j d.& & h.h.h.h.h.v.v.h.h.@ & g g b b b b b b g g g h h g g h h h h ",
"M M M M M M M g g g g g g g g g g g g g @ @ j @ @ @ @ @ @ @ j j j & & & & & & ....h.h.h.h.& b b b b b b b g g g g g g g h h h h ",
"M M M M M M M h h h M n g g g g g g M M + @ j @ @ @ @ @ @ @ k k.k.j @ @ @ @ @ @ & ..h.h.h.h.& & b b b n b b g g b b b b M h h g ",
"M M M M M M M h h h n n g g g g g g M M & r ! j @ @ @ @ @ j d.s.s.k.j @ @ @ @ @ j & 0 ....h.h.& b b n n b h g g b b n b n h g g ",
"M M M M M M M h h h M M M g g g g g M @ & @ } ( a @ @ @ j k.k.j.k.k.a.l @ @ @ j [ E * 0 ......% b b n n n h g g b b n n n h g g ",
"M M M M h h h h h h h g g g g g g g M t | | C Y d j j j k.k.c c c c k.k.j j j 8 P C ( T 5 ..% & b b b b b b b g b b b n n g g g ",
"g g g g g g g g g g g g g g g g g g g + *.( D P 8 $.@.k.k.k.z x x c k.k.f...#.8 A D W ~ & 0 % g g g g g b b b b b b g g g g g g ",
"g g g g g g g g g g g g g g g g g g g p B S P D S 3 +  .+.+.+.+.+.+.+.+...= + F S D S C p % g g g g g g b b b b b b g g g g g g ",
"g g g g g g g g g g g g g g g g g g g , I K L Z Z   # X.X.X.X.X.X.X.X.X.o.> * P U P U U @ b b b b b b b b b b b b b g g g g g g ",
"g g g g g g g g g g g g g g g g g g g g 4 4 4 6 3 n.M.@ @ @ @ @ @ @ @ @ @ M.M.& @ @ @ & @ n n n b n b b b b b b b b g g g g g g ",
"g g g g g g g g g g g g g g g g g g g g g % & C.C.C.C.M.M.M.M.M.M.M.M.M.M.C.C.C.C.% & g b n n n b b b b b b b b b b b b b b b b ",
"g g g g g g g g g g g g g g g g g g g g g % % C.C.C.C.N.B.M.B.M.M.M.M.M.M.C.C.C.% % b b b b n n b n b b b b b b b b b b b b g g ",
"g g g g g g g g g g g g g g g g g g g g % s.s...C.& @ C.C.C.C.C.C.C.C.C.C.+ + % b b b b b b n b n n b b b b b b g g g g g g g g ",
"g g g g g g g g g g g g g g g g g g g % s.s.....% 1 @ C.C.C.C.C.C.C.C.C.C.@ @ n b b g g g g g g g g g g g g g g g g g g g g g g ",
"g g g g g g g g g g g g g g g g g g % s.......i % 1 @ C.C.C.V.M.M.n.C.C.C.@ @ n b b h g g g g g g g g g g g g g g g g g g g g g ",
"g g g g g g g g g g g g g g g g g % s.....i i % g & @ n.n.n.B.M.M.M.n.n.n.@ % b b b g g g g g g g g g g g g g g g g g g g g g g ",
"g g g g g g g g g g g g g g g g g % % ....v.% g g & @ M.M.M.M.M.V.M.M.M.M.@ @ b b b b g g g g g g g g g g g g g g g g g g g g g ",
"g g g g g g g g g g g g g g g g g g % % h.h.v.% g @ @ M.M.M.M.V.M.M.M.M.M.@ @ b b b b b g g g g g g g g g g g g g g g g g g g g ",
"g g g g g g g g g g g g g g g g g g g g % h.h.v.% < $ B.M.M.V.M.M.M.V.m.M.% X b b b b b g g g g g g g g g g g g g g g g g g g g ",
"g g g g g g g g g g g g g g g g g g g g g % h.h.d.< < @ % % M.M.M.M.B.- @ C.C.& b b b b h g g g g g g g g g g g g g g g g g g g ",
"g g g g g g g g g g g g g g g g g g g g g g % h.d.d.d.d.d.% 5.5.5.5.4.y.r.% @ @ b b b b n b b g g g g g g g g g g g g g g g g g ",
"g g g g g g g g g g g g g g g g g g g g g g < % h.h.> % % % 8.8.8.8.8.t.i.@ @ @ b b b b n n b g g g g g g g g g g g g g g g g g ",
"g g g g g g g g g g g g g g g g g g g g g g g < @ % % 8.8.8.8.8.8.8.8.0.0.i.e.% b b b b n n b g g g g g g g g g g g g g g g g g ",
"g g g g g g g g g g g g g g g g g g g g g g g g @ r.w.8.8.8.8.8.8.8.8.0.0.t.u.@ b b b b b b b g g g g g g g g g g g g g g g g g ",
"g g g g g g g g g g g g g g g g g g g g g g g g @ q.0.8.8.8.8.8.8.8.8.8.8.8.0.& b b b b b b b g g g g g g g g g g g g g g g g g ",
"g g g g g g g g g g g g g g g g g g g g g g g g @ 7.8.8.8.8.8.8.8.8.8.8.8.8.0.$ b b b b b b b g g g g g g g g g g g g g g g g g ",
"g g g g g g g g g g g g g g g g g g g g g g g g @ 6.9.9.9.8.6.6.6.6.9.9.9.9.0.@ b b b b b b b g g g g g g g g g g g g g g g g g ",
"g g g g g g g g g g g g g g g g g g g g g g g g @ @.+.+. .+.% @ @ %  . .+. .@.@ b b g g g b g g g g g g g g g g g g g g g g g g ",
"g g g g g g g g g g g g g g g g g g g g g g g g @ @.@. .+.+.+ @ & % @.+. .+. .+ b b g g g b g g g g g g g g g g g g g g g g g g ",
"n n n g g g g g g g g g g g g g g g g g g g g g @ s.k.+.@.@ g g g g @  .+.+. .+ g g g h g g g g g g g g b b b b g g g g g g g g ",
"n n n g g g g g g g g g g g g g g g g g g g g g @ s.d.+.@.@ g g g g @  .+.+...b.X % g h g g g g g g g g b b b b g g g g g g g g ",
"h h n g g g g g g g g g g g g g g g g g g g g g @ f.d.+.@.@ g g g g @  .@.+...k.X @ g h h g g g g g g g b b b b g g g g g g g g ",
"h n n g g g g g g g g g g g g g g g g g g g g g @ s.d.+.@.@ g g g g g 1 @ O...k.X @ g h h g g g g g g g b b b b g g g g g g g g ",
"b b b b b b b b h h h h g g g g g g g g g g g g % k.k.+.@.@ g g g g g 1 @ O.=.k.X @ g g g g g g g g g g b b b b g g g g g g g g ",
"b b b b b b b b h g h h g g g g g g g g g g & . k. .+.@ @ g g g g g g 1 % -.+.k.X @ g g g g g g g g g g b b b b g g g g g g g g ",
"b b b b b b b b g g g g g g g g g g g g g g @ . k. . .5 + g g g g g g g g q 0 =.= @ g g g g g g g g g g b b b b g g g g g g g g ",
"b b b b b b b b g g g g g g g g g g g g g g @ . k. .+.& 2 g g g g g g g g @ @ @.o @ g g g g g g g g g g b b b b g g g g g g g g ",
"g g g g g g g g g g g g g g g g g g g g g g @ . k.& @ g g g g g g g g g g @ @ ..s.c.@ + g g g g g g g g g g g g g g g g g g g g ",
"g g g g g g g g b b b b g g g g g g g g g g @ . d.% @ g g g g g g g g g g @ % @.s.k.@ @ g g g g g g g g g g g g g g g g g g g g ",
"g g g g g g g g b b b b g g g g g g g g g g $ . +.@ @ g g g g g g g g g g g g @ p...+ @ g g g g g g g g g g g g g g g g g g g g ",
"g g g g g g g g b b b b g g g g g g g g g g @ . @.@ @ g g g g g g g g g g g g @ X...@ @ g g g g g g g g g g g g g g g g g g g g ",
"g g g g g g g g n n n n g g g g g g g g g g @ . @.@ @ g g g g g g g g g g g g @ X...+ @ g g g g g g g g g g g g g g g g g g g g ",
"b b b g g g g g g g g g g g g g g g g g g g & ; 2.@ @ g g g g g g g g g g g g @ 1.2.+ @ g g g g b b b g g g g g g g g g g g g g ",
"b b b g g g g g g g g g g g g g g g g g g g @ ; 3.@ @ g g g g g g g g g g g g @ w 3.+ @ g g g g b b b g g g g g g g g g g g g g ",
"b b b g g g g g g g g g g g g g g g g g g g g g g g g g g g g g g g g g g g g g g g g g g g g g g g g g g g g g g g g g g g g g ",
"b b b g g g g g g g g g g g g g g g g g g g g g g g g g g g g g g g g g g g g g g g g g g g g g g g g g g g g g g g g g g g g g ",
"b b b b g g g g g g g g g g g g g g g g g g g g g g g g g g g g g g g g g g g g g g g g g g g g g g g g g g g g g g g g g g g g ",
"M M M M M M M M g g g g g g g g g g g g g g g g g g g g g g g g g g g g g g g g g g g g g g g g g g g g g g g g g g g g g g g g ",
"M M M M M M M M g g g g g g g g g g g g g g g g g g g g g g g g g g g g g g g g g g g g g g g g g g g g g g g g g g g g g g g g "
};
