/* XPM */
static const char *dGF5dGF5YmFjaw__[] = {
/* columns rows colors chars-per-pixel */
"64 64 157 2 ",
"   c #19191C",
".  c #2B1D0C",
"X  c #261916",
"o  c #2B1B13",
"O  c #251B1C",
"+  c #2C1A1B",
"@  c #321C12",
"#  c #31181E",
"$  c #352E16",
"%  c #171420",
"&  c #1D1D25",
"*  c #1E1D2B",
"=  c #1B1D31",
"-  c #221C25",
";  c #211D2B",
":  c #2B1D28",
">  c #241E31",
",  c #2E1437",
"<  c #1E202B",
"1  c #1F2123",
"2  c #22202B",
"3  c #2A2029",
"4  c #2B292C",
"5  c #222322",
"6  c #272431",
"7  c #302D3C",
"8  c #73493B",
"9  c #725131",
"0  c #3D3B47",
"q  c #7C327F",
"w  c #524848",
"e  c #584B48",
"r  c #4D4C53",
"t  c #4F4F5D",
"y  c #56555E",
"u  c #5D5759",
"i  c #595563",
"p  c #595764",
"a  c #AD3D3C",
"s  c #B03F3F",
"d  c #865E27",
"f  c #AF403D",
"g  c #B0403F",
"h  c #B04140",
"j  c #BD8127",
"k  c #DF970D",
"l  c #D69B0C",
"z  c #DE9511",
"x  c #D6921C",
"c  c #DB921F",
"v  c #E3940D",
"b  c #E1980B",
"n  c #E59B14",
"m  c #EAA41E",
"M  c #F3A51E",
"N  c #C08B23",
"B  c #D38F23",
"V  c #D59326",
"C  c #DA9426",
"Z  c #DD9B26",
"A  c #D0902B",
"S  c #DA952B",
"D  c #D9992A",
"F  c #DB9933",
"G  c #E29D26",
"H  c #E79927",
"J  c #D7A12E",
"K  c #DBA334",
"L  c #E4A226",
"P  c #EBA625",
"I  c #ECA826",
"U  c #ECA62A",
"Y  c #EBAA29",
"T  c #F1A622",
"R  c #F0A728",
"E  c #E7A935",
"W  c #E5B13F",
"Q  c #E8B23F",
"!  c #AB8344",
"~  c #BCA479",
"^  c #EAAE42",
"/  c #E5B140",
"(  c #EDB052",
")  c #F4BC5E",
"_  c #DD9C6D",
"`  c #CB9B7F",
"'  c #DC9D73",
"]  c #D49E7E",
"[  c #DF9673",
"{  c #E69A67",
"}  c #E19C6E",
"|  c #E19C73",
" . c #C1A776",
".. c #C1A974",
"X. c #E0AD6C",
"o. c #EFBE60",
"O. c #E4A87B",
"+. c #F1A37C",
"@. c #F6CD69",
"#. c #F5C475",
"$. c #F3CB77",
"%. c #F5CB75",
"&. c #F2CA7A",
"*. c #F5CA79",
"=. c #F2C77C",
"-. c #7B3784",
";. c #862D8E",
":. c #882A93",
">. c #B726A6",
",. c #BF22AC",
"<. c #BF25BA",
"1. c #BE38B6",
"2. c #BF38B8",
"3. c #C41FAD",
"4. c #C421A5",
"5. c #C521AC",
"6. c #C524B1",
"7. c #C72CB3",
"8. c #C82FB3",
"9. c #CB3BB9",
"0. c #C835B6",
"q. c #C842BC",
"w. c #CE4CC3",
"e. c #D157C7",
"r. c #D25CCA",
"t. c #D45DC2",
"y. c #CF6AC7",
"u. c #D565CE",
"i. c #D76CCF",
"p. c #D864C1",
"a. c #E06FCE",
"s. c #D19F83",
"d. c #CFA286",
"f. c #D0A286",
"g. c #EEBE96",
"h. c #EEBE99",
"j. c #F1BD96",
"k. c #F1BD9A",
"l. c #F9BA93",
"z. c #E9BEA7",
"x. c #E7BEA9",
"c. c #EABDA9",
"v. c #F7C681",
"b. c #F1C880",
"n. c #F2C09C",
"m. c #FAC099",
"M. c #E5C0A8",
"N. c #E6C5B9",
"B. c #EADEEE",
"V. c #E9D7F0",
"C. c #EFDBF5",
"Z. c #EDDCF8",
"A. c #F1DBF4",
"S. c #F1DCF8",
"D. c #F4E4FA",
"F. c #F6E9FB",
"G. c #FDFCFD",
/* pixels */
"h h h h h h h h a a a a a f a a f f f a a f f a a a a a a a a a a a f h h h a a a h h a a a a a a a a a a a a a a a a a a a h h ",
"h h h h h h h h a a a a a f f f a a f a a a a a a a a a a a a a a a a f a h a a h h h a a a a a a a a a a a a a a a a a a a s a ",
"h h h h h h h h a a a a a f f f f a a a a a a a a a a a a a a a a a a a a a a a s s h a a a a a a a a a a a a a a a a a a a f a ",
"h h h h h h h h a a a a a a a a a a a a a a a a a a a a a a a a a a a a a a a a a h h a a a a a a a a a a a a a a a a a a a f f ",
"f f f a g f f f a a a a a a a a a a a a a a a a a a a a a a a a a a a a a a a a a a a a a a a a a a a a a a a a h h h h s s h h ",
"f f a a f f f f a a a a a a a a a a a a a a a a a a a & & * * * * * * * & a a a a a a a a a a a a a a a a a a a a h h h s a s s ",
"f g a a f f f f a a a a a a a a a a a a a a a a a a a ; % * ; ; ; ; ; & * a a a a a a a a a a a a a a a a a a a a h h a a a s s ",
"s s a a f f f f a a a a a a a a a a a a a a a a - - & &.$.*.$.$.%.*.*.&.%.- ; ; a a a a a a a a a a a a h a a a a a a a a a s h ",
"f a a a f f f f a a a a a a a a a a a a a a r w  . ...W W W / ^ J K / / Q ! ! ~ e r a a a a a a a a a a a a a a g g s a f f f s ",
"a a a a f f f f a a a a a a a a a a a a a a ; o &.&.&.I I I I Y n v I I I I I *.o ; a a a a a a a a a a a a a a g a s s a a a s ",
"a a a a f f f f a a a a a a a a a a a a & * v.#.M T M I I I m P G I n I I T T I =.#.& ; a a a a a a a a a a a a a a s s a a a a ",
"a a a a f f f a a a a a a a a a a a a a * * b.@.I I I I I P P I I I I I I I T I %.&.; * a a a a a a a a a a a a a a s a a a a a ",
"s s s g f f f a f a a a a a a a a a a a * * U I I I I I P m V P I I I I I P k I I I = * a a a a a a a a a a a a a a s s s s s s ",
"h h h h h h h h f a a a a a a a a a a a * * U I I I I I I P I P I I I I I I I I I T = * a a a a a a a a a a a a a a s s s s s s ",
"h h h h h h h h a a a a a a a a a a a a * * R I P I H I I I I I U I I I P I I L I I = * a a a a a a a a a a a a a a a s s s s s ",
"h h h h h h h s a a a a a a a a a a a a * * P P H I I I C I I E I P L P I I C I I P = * a a a a a a a a a a a a a a s s s s s s ",
"h h h h h h h a a a a a a a a a a a a a * * I P L I I C I I I I I P L C I I I I P I = * a a a a a a a a s a a a a a a a s s s s ",
"h h h h h h h s s s h s a a a a a a h h & 4 P I I I I I I I I I I I I Z I I I I L I = * s s a a a a f f g g s s f f f f g s s a ",
"h h h h h h h s s s s s a a a a a a h h ; t P I I I I I I I ( I I I I I I I I I P I & * g g f f f f f f g s a s f f f f g s a a ",
"h h h h h h h s s s h h h a a a a a h * ; * ^ U P I I P P I I I I I I I I P V I I K : ; ; f f f f f f g g s a a f f g g g s a a ",
"h h h h s s s s s s s a a a a a a a h y ) ) z V I I I P G I I I I P Y Y I I I P G z E G 6 f f f f f f f f a a a f f f g s a a a ",
"a a a a a a a a a a a a a a a a a a a & o.E b C P P I I P I I I I I I G Z C I I c b P L ; a a a a a a a a a a a a a a a a a a a ",
"a a a a a a a a a a a a a a a a a a a i l v C b G C C C C S C G C C C C C G P P v b v z p a a a a a a a a a a a a a a a a a a a ",
"a a a a a a a a a a a a a a a a a a a 1 A N B x x $ j C C G C C C C C C S 9 - C S C S D * a a a s a a a a a a a a a a a a a a a ",
"a a a a a a a a a a a a a a a a a a a a ; ; ; ; ; C.C.* * V C V C V C B d C.Z.; ; * * ; s s s s s s a a a a a a a a a a a a a a ",
"a a a a a a a a a a a a a a a a a a a a a a ; % G.S.S.C.C.S F C F X.C.C.C.S.F.G.& * a a a s s a a a a a a a a a a a a a a a a a ",
"a a a a a a a a a a a a a a a a a a a a a a *   G.S.D.Z.A.C.A.C.C.C.C.C.C.S.G.G.& ; s a a a s a a a a a a a a a a a a a a a a a ",
"a a a a a a a a a a a a a a a a a a a a a a *   G.2 * S.S.S.S.S.S.S.S.S.D.* & G.& ; s a a a s a a a a a a a a a a a a a a a a a ",
"a a a a a a a a a a a a a a a a a a a a a a *   G.2 * S.S.D.S.S.S.S.S.S.S.* ; G.& * s a a a a a a a a a a a a a a a a a a a a a ",
"a a a a a a a a a a a a a a a a a a a a a a *   G.2 * F.S.S.S.C.C.B.S.D.S.; * G.& * s a a a a a a a a a a a a a a a a a a a a a ",
"a a a a a a a a a a a a a a a a a a a a a a * + h.; * B.S.B.A.C.C.C.B.B.S.* - | + * a a a a a a a a a a a a a a a a a a a a a a ",
"a a a a a a a a a a a a a a a a a a a a a a & o k.; * C.C.C.C.C.S.C.C.C.C.* ; ' + * a a a a a a a a a a a a a a a a a a a a a a ",
"a a a a a a a a a a a a a a a a a a a a & * k.m.} * * C.C.C.C.S.C.C.C.C.C.* * ' l.j.* & a a a a a a a a a a a a a a a a a a a a ",
"a a a a a a a a a a a a a a a a a a a a * * g.n.' 5 = A.C.C.S.C.C.C.S.V.C.- O | l.g.* * a a a a a a a a a a a a a a a a a a a a ",
"a a a a a a a a a a a a a a a a a a a a * * } f.* G.G.* ; S.C.C.C.C.A.> * G.G.; M.j.* * a a a a a a a a a a a a a a a a a a a a ",
"a a a a a a a a a a a a a a a a a a a a * * } d.* ; < y.u.q.r.u.1.2.>.0.i.- * * c.j.* * g f f a a a a a a a a a a a a a a a a a ",
"a a a a a a a a a a a a a a a a a a a a * * } f.* ; < u.u.7.u.q.r.e.0.e.r.* * * c.j.* * g f f a a a a a a a a a a a a a a a a a ",
"a a a a a a a a a a a a a a a a a a a * * * } f.* p.t.3.3.w.9.6.9.7.3.6.u.3.u.- z.j.* * ; f f a a a a a a a a a a a a a a a a a ",
"a a a a a a a a a a a a a a a a a a a * = = } f.* 9.8.3.3.3.3.5.3.3.3.5.5.3.a.* z.j.; ; ; f f a a a a a a a a a a a a a a a a a ",
"a a a a a a a a a a a a a a a a a 7 @ k.' } | f.* 6.5.3.3.3.3.3.3.3.3.3.3.3.5.; x.k.k.h.h.@ * a a a a a a a a a a a a a a a a a ",
"a a a a a a a a a a a a a a a a a 0 u X + . } f.* <.3.3.3.3.3.3.3.3.3.3.3.3.5.= d.' O X X 3 * a a a a a a a a a a a a a a a a a ",
"a a a a a a a a a a a a a a a a a r p y * ; } f.* ,.4.4.4.3.,.,.,.,.4.4.4.4.5.* ` [ & ; i ; * a a a a a a a a a a a a a a a a a ",
"a a a a a a a a a a a a a a a a a a a a a a * * * | } } _ } - * * - _ _ } _ | * ; * a a a a a a a a a a a a a a a a a a a a a a ",
"a a a a a a a a a a a a a a a a a a a a a a * * * | | _ } } & * ; - | } _ } _ & * * a a a a a a a a a a a a a a a a a a a a a a ",
"g g g a a a a a a a a a a a a a a a a a a a a a * g.k.} | * a a a a * _ } } _ & a a a s a a a a a a a a f f f f a a a a a a a a ",
"g g g a a a a a a a a a a a a a a a a a a a a a * g.h.} | * a a a a * _ } } ' N.O - a s a a a a a a a a f f f f a a a a a a a a ",
"s s g a a a a a a a a a a a a a a a a a a a a a * j.h.} | * a a a a * _ | } ' k.O * a s a a a a a a a a f f f f a a a a a a a a ",
"s g g a a a a a a a a a a a a a a a a a a a a a * g.h.} | * a a a a a 2 * { ' k.O * a s s a a a a a a a f f f f a a a a a a a a ",
"f f f f f f f f s s s s a a a a a a a a a a a a - k.k.} | * a a a a a 2 * { O.k.O * a a a a a a a a a a f f f f a a a a a a a a ",
"f f f f f f f f s s s s a a a a a a a a a a ; o k._ } * * a a a a a a 2 - +.} k.O * a a a a a a a a a a f f f f a a a a a a a a ",
"f f f f f f f f a a a a a a a a a a a a a a * o k._ _ 6 & a a a a a a a a 8 8 O.- * a a a a a a a a a a f f f f a a a a a a a a ",
"f f f f f f f f a a a a a a a a a a a a a a * o k._ } ; 4 a a a a a a a a * * | # * a a a a a a a a a a f f f f a a a a a a a a ",
"a a a a a a a a a a a a a a a a a a a a a a * o k.; * a a a a a a a a a a * * ' g.n.* & a a a a a a a a a a a a a a a a a a a a ",
"a a a a a a a a f f f f a a a a a a a a a a * o h.- * a a a a a a a a a a * - | g.k.* * a a a a a a a a a a a a a a a a a a a a ",
"a a a a a a a a f f f f a a a a a a a a a a = o } * * a a a a a a a a a a a a * s.' & * a a a a a a a a a a a a a a a a a a a a ",
"a a a a a a a a f f f f a a a a a a a a a a * o | * * a a a a a a a a a a a a * ] ' * * a a a a a a a a a a a a a a a a a a a a ",
"a a a a a a a a g g g g a a a a a a a a a a * o | * * a a a a a a a a a a a a * ] ' & * a a a a a a a a a a a a a a a a a a a a ",
"f f f a a a a a a a a a a a a a a a a a a a ; , ;.* * a a a a a a a a a a a a * -.;.& * a a a a f f f a a a a a a a a a a a a a ",
"f f f a a a a a a a a a a a a a a a a a a a * , :.* * a a a a a a a a a a a a * q :.& * a a a a f f f a a a a a a a a a a a a a ",
"f f f a a a a a a a a a a a a a a a a a a a a a a a a a a a a a a a a a a a a a a a a a a a a a a a a a a a a a a a a a a a a a ",
"f f f a a a a a a a a a a a a a a a a a a a a a a a a a a a a a a a a a a a a a a a a a a a a a a a a a a a a a a a a a a a a a ",
"f f f f a a a a a a a a a a a a a a a a a a a a a a a a a a a a a a a a a a a a a a a a a a a a a a a a a a a a a a a a a a a a ",
"h h h h h h h h a a a a a a a a a a a a a a a a a a a a a a a a a a a a a a a a a a a a a a a a a a a a a a a a a a a a a a a a ",
"h h h h h h h h a a a a a a a a a a a a a a a a a a a a a a a a a a a a a a a a a a a a a a a a a a a a a a a a a a a a a a a a "
};
