/* XPM */
static char *_1387c69710945ddc842c40be31816932kWg01rROVIYepyT[] = {
/* columns rows colors chars-per-pixel */
"64 64 156 2 ",
"   c #1A1D14",
".  c #2A1B13",
"X  c #251C1C",
"o  c #31181E",
"O  c #171420",
"+  c #1D1D25",
"@  c #1F1D2A",
"#  c #1E172A",
"$  c #1B1D30",
"%  c #211C26",
"&  c #211D2B",
"*  c #2D1D29",
"=  c #2A1925",
"-  c #241E31",
";  c #2E1537",
":  c #351928",
">  c #1E202C",
",  c #1F2123",
"<  c #222322",
"1  c #22202B",
"2  c #2A292E",
"3  c #36232E",
"4  c #3A222D",
"5  c #272431",
"6  c #372230",
"7  c #412118",
"8  c #7B2524",
"9  c #7C272A",
"0  c #73493B",
"q  c #694939",
"w  c #7C327F",
"e  c #4E4D52",
"r  c #4F4F5D",
"t  c #5B545C",
"y  c #584B48",
"u  c #604646",
"i  c #585562",
"p  c #575563",
"a  c #B5051B",
"s  c #8D1D22",
"d  c #842A25",
"f  c #84292E",
"g  c #813131",
"h  c #AC3D3C",
"j  c #B03F3F",
"k  c #CA0019",
"l  c #CD0F23",
"z  c #D01F2E",
"x  c #D92727",
"c  c #DA2D2D",
"v  c #DB3333",
"b  c #9B4B3B",
"n  c #9D473B",
"m  c #AF403E",
"M  c #B0403F",
"N  c #BE6C24",
"B  c #B04140",
"V  c #DD950B",
"C  c #D69B0C",
"Z  c #DF8A12",
"A  c #DE9511",
"S  c #D6921D",
"D  c #DB921F",
"F  c #E2940D",
"G  c #E1980B",
"H  c #E08E10",
"J  c #E79913",
"K  c #E09216",
"L  c #E9A015",
"P  c #F3A51E",
"I  c #C08B23",
"U  c #D58F20",
"Y  c #DA9424",
"T  c #D0902B",
"R  c #DA9629",
"E  c #D79728",
"W  c #E39F27",
"Q  c #D7A12E",
"!  c #DBA434",
"~  c #EDA523",
"^  c #EEA924",
"/  c #EDA629",
"(  c #E5A827",
")  c #F1A622",
"_  c #F0A728",
"`  c #F0AA22",
"'  c #E7A737",
"]  c #E5B13F",
"[  c #E8B23F",
"{  c #AB8344",
"}  c #BCA479",
"|  c #E8AF40",
" . c #E1A146",
".. c #E5B140",
"X. c #EAB158",
"o. c #F3BD5C",
"O. c #DD9C6D",
"+. c #DE9C72",
"@. c #D39C79",
"#. c #D49977",
"$. c #E69A67",
"%. c #E09C6E",
"&. c #E29C73",
"*. c #E5977B",
"=. c #DAA069",
"-. c #C1A776",
";. c #C1A974",
":. c #EFBE60",
">. c #E5A87B",
",. c #F1A37C",
"<. c #F6CD69",
"1. c #F5C575",
"2. c #F4CB75",
"3. c #F3CA7A",
"4. c #F2C77C",
"5. c #7B3784",
"6. c #862D8E",
"7. c #882A93",
"8. c #B726A6",
"9. c #B525AC",
"0. c #BF22AC",
"q. c #BF25BA",
"w. c #C41FAD",
"e. c #C421A5",
"r. c #C421AC",
"t. c #C523B8",
"y. c #D663C7",
"u. c #D767CB",
"i. c #DB6FCE",
"p. c #DA66C8",
"a. c #CB73C6",
"s. c #E06FCE",
"d. c #E476D8",
"f. c #D19F83",
"g. c #EC9F84",
"h. c #EEBE96",
"j. c #EFBE98",
"k. c #F2BD96",
"l. c #F9BA93",
"z. c #F9BA93",
"x. c #F3BE99",
"c. c #F0BD9A",
"v. c #F1BD9A",
"b. c #F7C681",
"n. c #F1C880",
"m. c #EDC09D",
"M. c #F1C09E",
"N. c #E5C0A8",
"B. c #E6C5B9",
"V. c #EADFEE",
"C. c #E9D7F0",
"Z. c #EEDCF5",
"A. c #EDDCF8",
"S. c #F1DBF4",
"D. c #F1DCF8",
"F. c #FDFCFD",
/* pixels */
"B B B B B B B B h h h h h m h h m m m h h m m h h h h h h h h h h h m B B B h h h B B h h h h h h h h h h h h h h h h h h h j B ",
"B B B B B B B B h h h h h m m m h h m h h h h h h h h h h h h h h h h m h B h h B B B h h h h h h h h h h h h h h h h h h h j j ",
"B B B B B B B B h h h h h m m m m h h h h h h h h h h h h h h h h h h h h h h h j j B h h h h h h h h h h h h h h h h h h h m m ",
"B B B B B B B B h h h h h h h h h h h h h h h h h h h h h h h h h h h h h h h h h B B h h h h h h h h h h h h h h h h h h h m m ",
"m m m h M m m m h h h h h h h h h h h h h h h h h h h h h h h h h h h h h h h h h h h h h h h h h h h h h h h h B B B B j j B B ",
"m m h h m m m m h h h h h h h h h h h h h h h h h h h + + @ @ @ @ @ @ @ + h h h h h h h h h h h h h h h h h h h h B B B j h j j ",
"m h h h m m m m h h h h h h h h h h h h h h h h h j h & O @ & & & & & + @ h h h h h h h h h h h h h h h h h h h h B B h h h j j ",
"j j h h m m m m h h h h h h h h h h h h h h h h 4 4 % 3.2.3.2.2.2.3.3.3.2.% & & h h h h h h h h h h h h B h h h h h h h h h j B ",
"m h h h m m m m h h h h h h h h h h h h h h e u -.-.-.] ] ] ..| Q ! ....[ { { } y e h h h h h h h h h h h h h h M M j h m m m j ",
"h h h h m m m m h h h h h h h h h h h h h h & 7 3.3.3.^ ^ ~ ^ ( J Z ^ ^ ^ ^ / 3.. & h h h h h h h % % % h h h h M h j j h h h j ",
"h h h h m m m m h h h h h h h h h h h h % @ b.1.P ) P ^ ^ ^ V V 9 8 V ^ ^ ) ) ^ 4.1.+ & h h h h h % z.% h h h h h h j j h h h h ",
"h h h h m m m h h h h h h h h h h h h h @ @ n.<.^ ^ ^ ^ ^ ~ V F 9 d F ~ ^ ^ ) ^ 2.3.& @ h h h h h % z.% h h h h h h j h h h h h ",
"j j j M m m m h m h h h h h h h h h h h @ @ / ^ ^ ^ ^ ^ ~ L d 9 +.&.g 9 f K V ^ ^ ^ $ @ h h h h h % z.% % h h h h h j j j j j j ",
"B B B B B B B B m h h h h h h h h h h h @ @ / ^ k k ^ a k N n b %.%.b k k N k k ^ ) $ @ h h h h h % z.z.% h h h h h j j j j j j ",
"B B B B B B B B h h h h h h h h h h h h @ @ _ k @ @ a : @ k &.%.%.%.k @ @ k @ @ k ` $ @ h h h h % N.N.z.% h h h h h j j j j j j ",
"B B B B B B B j h h h h h h h h h h h h @ @ k @ @ @ @ @ @ @ k j.m.k @ @ @ @ @ @ @ k $ @ h h h % z.z.z.% % h h h h h j j j j j j ",
"B B B B B B B h h h h h h h h h h h h h @ @ k @ @ @ @ @ @ @ k k k k @ @ @ @ @ @ @ k $ @ h h % z.z.z.% h h h h h h h h h j j j j ",
"B B B B B B B j j j B j h h h h h h B B + @ k @ @ @ @ @ @ @ l c.c.k @ @ @ @ @ @ @ k $ @ % % z.z.+.% % h m m h h m m m m B j j h ",
"B B B B B B B j j j j j h h h h h h B B & r / k @ @ @ @ @ k j.h.h.c.k @ @ @ @ @ k o.+ @ % +.+.+.% % M M M j h h m m M m M j h h ",
"B B B B B B B j j j B B B h h h h h B @ & @ X.' a @ @ @ k c.c.x.c.c.g.z @ @ @ k  .! * & & +.+.% % m M M M j h h m m M M M j h h ",
"B B B B j j j j j j j h h h h h h h B t o.o.A E s k k k c.c.v v v v c.c.k k k 8 Y A ' W 5 +.% m m m m m m m m h m m m M M h h h ",
"h h h h h h h h h h h h h h h h h h h + :.' G Y 8 =.&.c.c.c.x c c v c.c.k.+.*.8 D G ~ ( & % % h h h h h m m m m m m h h h h h h ",
"h h h h h h h h h h h h h h h h h h h p C F Y G F 3 + O.%.%.%.%.%.%.%.%.+.= + H F G F A p % h h h h h h m m m m m m h h h h h h ",
"h h h h h h h h h h h h h h h h h h h , T I U S S   # @.@.@.@.@.@.@.@.@.#.> * Y R Y R R @ m m m m m m m m m m m m m h h h h h h ",
"h h h h h h h h h h h h h h h h h h h h 4 4 4 6 3 V.Z.@ @ @ @ @ @ @ @ @ @ Z.Z.& @ @ @ & @ M M M m M m m m m m m m m h h h h h h ",
"h h h h h h h h h h h h h h h h h h h h h % & F.F.F.F.Z.Z.Z.Z.Z.Z.Z.Z.Z.Z.F.F.F.F.% & h m M M M m m m m m m m m m m m m m m m m ",
"h h h h h h h h h h h h h h h h h h h h h % % F.F.F.F.A.S.Z.S.Z.Z.Z.Z.Z.Z.F.F.F.% % m m m m M M m M m m m m m m m m m m m m h h ",
"h h h h h h h h h h h h h h h h h h h h % h.h.+.F.& @ F.F.F.F.F.F.F.F.F.F.+ + % m m m m m m M m M M m m m m m m h h h h h h h h ",
"h h h h h h h h h h h h h h h h h h h % h.h.+.+.% 1 @ F.F.F.F.F.F.F.F.F.F.@ @ M m m h h h h h h h h h h h h h h h h h h h h h h ",
"h h h h h h h h h h h h h h h h h h % h.+.+.+.i % 1 @ F.F.F.D.Z.Z.V.F.F.F.@ @ M m m j h h h h h h h h h h h h h h h h h h h h h ",
"h h h h h h h h h h h h h h h h h % h.+.+.i i % h & @ V.V.V.S.Z.Z.Z.V.V.V.@ % m m m h h h h h h h h h h h h h h h h h h h h h h ",
"h h h h h h h h h h h h h h h h h % % +.+.N.% h h & @ Z.Z.Z.Z.Z.D.Z.Z.Z.Z.@ @ m m m m h h h h h h h h h h h h h h h h h h h h h ",
"h h h h h h h h h h h h h h h h h h % % z.z.N.% h @ @ Z.Z.Z.Z.D.Z.Z.Z.Z.Z.@ @ m m m m m h h h h h h h h h h h h h h h h h h h h ",
"h h h h h h h h h h h h h h h h h h h h % z.z.N.% < $ S.Z.Z.D.Z.Z.Z.D.C.Z.% X m m m m m h h h h h h h h h h h h h h h h h h h h ",
"h h h h h h h h h h h h h h h h h h h h h % z.z.j.< < @ % % Z.Z.Z.Z.S.- @ F.F.& m m m m j h h h h h h h h h h h h h h h h h h h ",
"h h h h h h h h h h h h h h h h h h h h h h % z.j.j.j.j.j.% 9.9.9.9.8.a.i.% @ @ m m m m M m m h h h h h h h h h h h h h h h h h ",
"h h h h h h h h h h h h h h h h h h h h h h < % z.z.> % % % w.w.w.w.w.p.d.@ @ @ m m m m M M m h h h h h h h h h h h h h h h h h ",
"h h h h h h h h h h h h h h h h h h h h h h h < @ % % w.w.w.w.w.w.w.w.r.r.d.u.% m m m m M M m h h h h h h h h h h h h h h h h h ",
"h h h h h h h h h h h h h h h h h h h h h h h h @ i.y.w.w.w.w.w.w.w.w.r.r.p.s.@ m m m m m m m h h h h h h h h h h h h h h h h h ",
"h h h h h h h h h h h h h h h h h h h h h h h h @ t.r.w.w.w.w.w.w.w.w.w.w.w.r.& m m m m m m m h h h h h h h h h h h h h h h h h ",
"h h h h h h h h h h h h h h h h h h h h h h h h @ q.w.w.w.w.w.w.w.w.w.w.w.w.r.$ m m m m m m m h h h h h h h h h h h h h h h h h ",
"h h h h h h h h h h h h h h h h h h h h h h h h @ 0.e.e.e.w.0.0.0.0.e.e.e.e.r.@ m m m m m m m h h h h h h h h h h h h h h h h h ",
"h h h h h h h h h h h h h h h h h h h h h h h h @ &.%.%.O.%.% @ @ % O.O.%.O.&.@ m m h h h m h h h h h h h h h h h h h h h h h h ",
"h h h h h h h h h h h h h h h h h h h h h h h h @ &.&.O.%.%.+ @ & % &.%.O.%.O.+ m m h h h m h h h h h h h h h h h h h h h h h h ",
"M M M h h h h h h h h h h h h h h h h h h h h h @ h.c.%.&.@ h h h h @ O.%.%.O.+ h h h j h h h h h h h h m m m m h h h h h h h h ",
"M M M h h h h h h h h h h h h h h h h h h h h h @ h.j.%.&.@ h h h h @ O.%.%.+.B.X % h j h h h h h h h h m m m m h h h h h h h h ",
"j j M h h h h h h h h h h h h h h h h h h h h h @ k.j.%.&.@ h h h h @ O.&.%.+.c.X @ h j j h h h h h h h m m m m h h h h h h h h ",
"j M M h h h h h h h h h h h h h h h h h h h h h @ h.j.%.&.@ h h h h h 1 @ $.+.c.X @ h j j h h h h h h h m m m m h h h h h h h h ",
"m m m m m m m m j j j j h h h h h h h h h h h h % c.c.%.&.@ h h h h h 1 @ $.>.c.X @ h h h h h h h h h h m m m m h h h h h h h h ",
"m m m m m m m m j h j j h h h h h h h h h h & . c.O.%.@ @ h h h h h h 1 % ,.%.c.X @ h h h h h h h h h h m m m m h h h h h h h h ",
"m m m m m m m m h h h h h h h h h h h h h h @ . c.O.O.5 + h h h h h h h h 0 q >.= @ h h h h h h h h h h m m m m h h h h h h h h ",
"m m m m m m m m h h h h h h h h h h h h h h @ . c.O.%.& 2 h h h h h h h h @ @ &.o @ h h h h h h h h h h m m m m h h h h h h h h ",
"h h h h h h h h h h h h h h h h h h h h h h @ . c.& @ h h h h h h h h h h @ @ +.h.M.@ + h h h h h h h h h h h h h h h h h h h h ",
"h h h h h h h h m m m m h h h h h h h h h h @ . j.% @ h h h h h h h h h h @ % &.h.c.@ @ h h h h h h h h h h h h h h h h h h h h ",
"h h h h h h h h m m m m h h h h h h h h h h $ . %.@ @ h h h h h h h h h h h h @ f.+.+ @ h h h h h h h h h h h h h h h h h h h h ",
"h h h h h h h h m m m m h h h h h h h h h h @ . &.@ @ h h h h h h h h h h h h @ @.+.@ @ h h h h h h h h h h h h h h h h h h h h ",
"h h h h h h h h M M M M h h h h h h h h h h @ . &.@ @ h h h h h h h h h h h h @ @.+.+ @ h h h h h h h h h h h h h h h h h h h h ",
"m m m h h h h h h h h h h h h h h h h h h h & ; 6.@ @ h h h h h h h h h h h h @ 5.6.+ @ h h h h m m m h h h h h h h h h h h h h ",
"m m m h h h h h h h h h h h h h h h h h h h @ ; 7.@ @ h h h h h h h h h h h h @ w 7.+ @ h h h h m m m h h h h h h h h h h h h h ",
"m m m h h h h h h h h h h h h h h h h h h h h h h h h h h h h h h h h h h h h h h h h h h h h h h h h h h h h h h h h h h h h h ",
"m m m h h h h h h h h h h h h h h h h h h h h h h h h h h h h h h h h h h h h h h h h h h h h h h h h h h h h h h h h h h h h h ",
"m m m m h h h h h h h h h h h h h h h h h h h h h h h h h h h h h h h h h h h h h h h h h h h h h h h h h h h h h h h h h h h h ",
"B B B B B B B B h h h h h h h h h h h h h h h h h h h h h h h h h h h h h h h h h h h h h h h h h h h h h h h h h h h h h h h h ",
"B B B B B B B B h h h h h h h h h h h h h h h h h h h h h h h h h h h h h h h h h h h h h h h h h h h h h h h h h h h h h h h h "
};
