/* XPM */
static const char *dGF5dGF5ZG93bjI_[] = {
/* columns rows colors chars-per-pixel */
"64 64 163 2 ",
"   c #19191C",
".  c #1A1D14",
"X  c #2B1D0C",
"o  c #261916",
"O  c #251A1C",
"+  c #2C1A1B",
"@  c #2C1C15",
"#  c #311C13",
"$  c #1D1E25",
"%  c #1F1D2A",
"&  c #1A1625",
"*  c #1A1D31",
"=  c #231C25",
"-  c #211D2B",
";  c #2A1E2A",
":  c #2A1925",
">  c #241E31",
",  c #351928",
"<  c #1E202B",
"1  c #22202D",
"2  c #2A2129",
"3  c #222322",
"4  c #33222C",
"5  c #3A222C",
"6  c #2C2A34",
"7  c #302D3E",
"8  c #35313D",
"9  c #3C3233",
"0  c #412118",
"q  c #42262C",
"w  c #432430",
"e  c #4E3F3D",
"r  c #503C39",
"t  c #7B2624",
"y  c #7C272A",
"u  c #73493B",
"i  c #3A3846",
"p  c #4B4A54",
"a  c #4F4F5D",
"s  c #594E52",
"d  c #604646",
"f  c #6B4E55",
"g  c #6A535D",
"h  c #585461",
"j  c #6E616C",
"k  c #B5051B",
"l  c #8D1B22",
"z  c #842A25",
"x  c #83292B",
"c  c #813131",
"v  c #AD3D3C",
"b  c #B03F3F",
"n  c #CA0019",
"m  c #CD0F23",
"M  c #D01F2E",
"N  c #DA2B2B",
"B  c #DB3333",
"V  c #96401F",
"C  c #9C4C3A",
"Z  c #9D473B",
"A  c #AF403D",
"S  c #B0403F",
"D  c #BD6924",
"F  c #BF7223",
"G  c #B04140",
"H  c #DD8D0E",
"J  c #DD950B",
"K  c #D69B0C",
"L  c #DF8A12",
"P  c #DE9511",
"I  c #D8921D",
"U  c #E2940D",
"Y  c #E1980B",
"T  c #E39514",
"R  c #EAA31A",
"E  c #E9A015",
"W  c #F3A51E",
"Q  c #C38B27",
"!  c #D58F20",
"~  c #DA9424",
"^  c #DA9629",
"/  c #D69627",
"(  c #E39F27",
")  c #D7A12E",
"_  c #DBA434",
"`  c #E3A323",
"'  c #EDA523",
"]  c #EEA924",
"[  c #EEA628",
"{  c #E9AC2A",
"}  c #F1A622",
"|  c #F0AA22",
" . c #F0A62A",
".. c #E5A836",
"X. c #E5B13F",
"o. c #E8B23F",
"O. c #AB8344",
"+. c #AB836F",
"@. c #BCA479",
"#. c #E4A843",
"$. c #E5B140",
"%. c #EAB158",
"&. c #F4BC5E",
"*. c #DD9B6D",
"=. c #D6946B",
"-. c #DD9C73",
";. c #D39C78",
":. c #DA9875",
">. c #E09C6E",
",. c #E29B73",
"<. c #C1A776",
"1. c #C1A974",
"2. c #EFBE60",
"3. c #F1A37C",
"4. c #F5C475",
"5. c #F4CB75",
"6. c #F3CA7A",
"7. c #F2C77C",
"8. c #F6CD69",
"9. c #777481",
"0. c #852D8E",
"q. c #B525AC",
"w. c #BF22AC",
"e. c #B726A6",
"r. c #BF25BA",
"t. c #C41FAD",
"y. c #C421A5",
"u. c #C421AC",
"i. c #C523B8",
"p. c #CF6AC7",
"a. c #D865C3",
"s. c #D666CB",
"d. c #DB6FCE",
"f. c #D867C8",
"g. c #D76CD1",
"h. c #CB73C6",
"j. c #E06FCE",
"k. c #E376D8",
"l. c #88888E",
"z. c #D19F83",
"x. c #EA9E85",
"c. c #CFA286",
"v. c #D0A286",
"b. c #EEBC96",
"n. c #EEBF9B",
"m. c #F0BE96",
"M. c #F2BD9A",
"N. c #F1BD9A",
"B. c #F9BA93",
"V. c #E9BEA7",
"C. c #EABDA9",
"Z. c #E7BEA9",
"A. c #F4C781",
"S. c #EDC09D",
"D. c #F2C099",
"F. c #E5C0A8",
"G. c #E6C5B9",
"H. c #EADFEE",
"J. c #EEDCF5",
"K. c #ECD9F4",
"L. c #F1DBF4",
"P. c #F1DCF8",
"I. c #FDFCFD",
/* pixels */
"G G G G G G G G v v v v v A v v A A A v v A A v v v v v v v v v v v A G G G v v v G G v v v v v v v v v v v v v v v v v v v b G ",
"G G G G G G G G v v v v v A A A v v A v v v v v v v v v v v v v v v v A v G v v G G G v v v v v v v v v v v v v v v v v v v b v ",
"G G G G G G G G v v v v v A A A A v v v v v v v v v v v v v v v v v v v v v v v b b G v v v v v v v v v v v v v v v v v v v A A ",
"G G G G G G G G v v v v v v v v v v v v v v v v v v v v v v v v v v v v v v v v v G G v v v v v v v v v v v v v v v v v v v A A ",
"A A A v S A A A v v v v v v v v v v v v v v v v v v v v v v v v v v v v v v v v v v v v v v v v v v v v v v v v G G G G b b G G ",
"A A v v A A A A v v v v v v v v v v v v v v v v v v v $ $ % % % % % % % $ v v v v v v v v v v v v v v v v v v v b G G G b v b b ",
"A S v v A A A A v v v v v v v v v v v v v v v v v v v - & % - - - - - $ % v v v v v v v v v v v v v v v v v v v v G G v v v b b ",
"b b v v A A A A v v v v v v v v v v v v v v v v 5 5 = 6.5.6.5.5.5.6.6.6.5.= - - v v v v v v v v v v v v G v v v v v v v v v b G ",
"A v v v A A A A v v v v v v v v v v v v v v p d <.<.1.X.X.X.$.$.) _ $.$.o.O.O.@.d p v v v v v v v v v v v v v v S S b v A A A b ",
"v v v v A A A A v v v v v v v v v v v v v v - 0 6.6.6.] ] ' ] { T L ] ] ] ] [ 6.@ - v v v v v v v v v v v v v v S v b b v v v b ",
"v v v v A A A A v v v v v v v v v v v v = % A.4.W } W ] ] ] J J y t J ] ] } } ] 7.4.$ - v v v v v v v v v v v v v v b b v v v v ",
"v v v v A A A v v v v v v v v v v v v v % % A.8.] ] ] ] ] ' J U y z U ' ] ] } ] 5.6.- % v v v v v v v v v v v v v v b v v v v v ",
"b b b S A A A v A v v v v v v v v v v v % % [ ] ] ] ] ] ' E z y -.,.c y x T J ] ] ] * % v v v v v v v v v v v v v v b b b b b b ",
"G G G G G G G G A v v v v v v v v v v v % % [ ] ] ] ] E ` D Z C >.>.C C C F F R ] } * % v v v v v v v v v v v v v v b b b b b b ",
"G G G G G G G G v v v v v v v v v v v v % %  .] n n | k n x ,.>.>.>.*.n n x n n | | * % v v v v v v v v v v v v v v v b b b b b ",
"G G G G G G G b v v v v v v v v v v v v % %  .n % % k , % n M.n.S.n.n % % n % % n | * % v v v v v v v v v v v v v v b b b b b b ",
"G G G G G G G v v v v v v v v v v v v v % % n % % % % % % % n N.N.n % % % % % % % n * % v v v v v v v v b v v v v v v v b b b b ",
"G G G G G G G b b b G b v v v v v v G G $ % n % % % % % % % n n n n % % % % % % % n * % v b v v v v A A S S b b A A A A S b b v ",
"G G G G G G G b b b G b v v v v v v G G - a n % % % % % % % m b.b.n % % % % % % % n $ % S S S A A A A A S b v b A A A A S b v v ",
"G G G G G G G b b b G G G v v v v v G v - % %.n % % % % % n N.M.N.N.n % % % % % n _ ; - v A A A A A A S S b v v A A S S S b v v ",
"G G G G b b b b b b b v v v v v v v G 6 9 % %./ k % % % n N.B B B B x.M % % % n #._ ; - 4 A A A A A A A A v v v A A A S b v v v ",
"v v v v v v v v v v v v v v v v v v v p &.&.P / l n n n N.N.N N N B N.N.n n n t ~ P ..( 1 v b b v v v v v v v v v v v v v v v v ",
"v v v v v v v v v v v v v v v v v v v 6 2...Y ~ V 4 $ *.>.>.>.>.>.>.>.>.-.: $ t I Y ' ` - v v v v v v v v v v v v v v v v v v v ",
"v v v v v v v v v v v v v v v v v v v p K U ~ Y U $ % ;.;.;.;.;.;.;.;.;.;.e r H U Y U P p v v v b v v v v v v v v v v v v v v v ",
"v v v v v v v v v v v v v v v v v v v q Q Q ! I I . J.% % % % % % % % % % J.= ~ ^ ~ ^ ^ 7 b b b b b v v v v v v v v v v v v v v ",
"v v v v v v v v v v v v v v v v v v v v 5 5 - % l.I.I.J.J.J.J.J.J.J.J.J.J.I.j 9.i i p p s b b v v v v v v v v v v v v v v v v v ",
"v v v v v v v v v v v v v v v v v v v v v v %   I.I.I.P.L.J.L.J.J.J.J.J.J.I.I.I.$ - b v v v b v v v v v v v v v v v v v v v v v ",
"v v v v v v v v v v v v v v v v v v v v v v %   I.- % I.I.I.I.I.I.I.I.I.I.$ $ I.$ % b v v v b v v v v v v v v v v v v v v v v v ",
"v v v v v v v v v v v v v v v v v v v v v v %   I.1 % I.I.I.I.I.I.I.I.I.I.- - I.$ % b v v v v v v v v v v v v v v v v v v v v v ",
"v v v v v v v v v v v v v v v v v v v v v v %   I.1 % I.I.I.P.J.J.H.I.I.I.- % I.$ % b v v v v v v v v v v v v v v v v v v v v v ",
"v v v v v v v v v v v v v v v v v v v v v v % + n.- % H.H.H.L.J.J.J.H.H.H.% = ,.+ % v v v v v v v v v v v v v v v v v v v v v v ",
"v v v v v v v v v v v v v v v v v v v v v v $   N.- % J.J.J.J.J.P.J.J.J.J.% % -.+ % v v v v v v v v v v v v v v v v v v v v v v ",
"v v v v v v v v v v v v v v v v v v v v v v @   >.% % J.J.J.J.P.J.J.J.J.J.% % -.% % % $ v v v v v v v v v v v v v v v v v v v v ",
"v v v v v v v v v v v v v v v v v v v v % % b.N.:.3 * L.J.J.P.J.J.J.P.K.J.= O ,.B.b.% % v v v v v v v v v v v v v v v v v v v v ",
"v v v v v v v v v v v v v v v v v v v v % % >.z.% I.I.% - P.J.J.J.J.L.> % I.I.- F.m.% % v v v v v v v v v v v v v v v v v v v v ",
"v v v v v v v v v v v v v v v v v v v v % % >.c.% - < p.g.q.q.q.q.q.e.h.d.= % % C.m.% % S A A v v v v v v v v v v v v v v v v v ",
"v v v v v v v v v v v v v v v v v v v v % % >.v.% - < g.s.t.t.t.t.t.t.f.k.% % % C.m.% % S A A v v v v v v v v v v v v v v v v v ",
"v v v v v v v v v v v v v v v v v v v v % % >.v.% a.f.t.t.t.t.t.t.t.t.u.u.k.s.- V.m.% % v S A v v v v v v v v v v v v v v v v v ",
"v v v v v v v v v v v v v v v v v v v % % % >.v.% d.a.t.t.t.t.t.t.t.t.u.u.f.j.% V.m.% % - A A v v v v v v v v v v v v v v v v v ",
"v v v v v v v v v v v v v v v v v v v 8 * * >.v.% i.u.t.t.t.t.t.t.t.t.t.t.t.u.- V.m.- - - # % v v v v v v v v v v v v v v v v v ",
"v v v v v v v v v v v v v v v v v 8 # N.-.>.,.v.% r.t.t.t.t.t.t.t.t.t.t.t.t.u.* Z.N.N.b.b.# % v v v v v v v v v v v v v v v v v ",
"v v v v v v v v v v v v v v v v v i h o + X >.v.% w.y.y.y.t.w.w.w.w.y.y.y.y.u.% c.:.O o o 2 % v v v v v v v v v v v v v v v v v ",
"v v v v v v v v v v v v v v v v v p g f q w =.v.4 ,.*.>.*.*.= % % = >.*.>.>.,.% +.:.2 4 h - % v v v v v v v v v v v v v v v v v ",
"v v v v v v v v v v v v v v v v v v v v v v % % 4 *.>.*.>.,.= - % $ >.>.*.,.,.% - % v v v v v v v v v v v v v v v v v v v v v v ",
"S S S v v v v v v v v v v v v v v v v v v v % ; $ *.>.>.*.>.- v v % u ,.>.N.b.% % % v b v v v v v v v v A A A A v v v v v v v v ",
"S S S v v v v v v v v v v v v v v v v v v v v v $ $ G.>.*.u $ v v % % ,.-.b.b.% v v v b v v v v v v v v A A A A v v v v v v v v ",
"b b S v v v v v v v v v v v v v v v v v v v v v v $ G.,.*.u - v v % % >.-.G.% % v v v b b v v v v v v v A A A A v v v v v v v v ",
"b S S v v v v v v v v v v v v v v v v v v v v v v $ $ b.>.- - v v % % >.-.G.% v v v v b b v v v v v v v A A A A v v v v v v v v ",
"A A A A A A A A b b b b v v v v v v v v v v v v v $ $ z.>.$ - v v % u 3.-.% % v v v v v v v v v v v v v A A A A v v v v v v v v ",
"A A A A A A A A b b b b v v v v v v v v v v v v v v $ z.>.u - v v % 3.3.N.% % v v v v v v v v v v v v v A A A A v v v v v v v v ",
"A A A A A A A A v v v v v v v v v v v v v v v v v v $ $ >.>.- v v u 3.-.N.% % v v v v v v v v v v v v v A A A A v v v v v v v v ",
"A A A A A A A A v v v v v v v v v v v v v v v v v v $ $ z.z.- v u u 3.-.N.% v v v v v v v v v v v v v v A A A A v v v v v v v v ",
"v v v v v v v v v v v v v v v v v v v v v v v v v v v $ z.0.- v % % -.b.% % v v v v v v v v v v v v v v v v v v v v v v v v v v ",
"v v v v v v v v A A A A v v v v v v v v v v v v v v v $ 0.0.$ v % % -.b.% v v v v v v v v v v v v v v v v v v v v v v v v v v v ",
"v v v v v v v v A A A A v v v v v v v v v v v v v v v v v v v v % z.:.b.% v v v v v v v v v v v v v v v v v v v v v v v v v v v ",
"v v v v v v v v A A A A v v v v v v v v v v v v v v v v v v v v % z.:.% % v v v v v v v v v v v v v v v v v v v v v v v v v v v ",
"v v v v v v v v S S S S v v v v v v v v v v v v v v v v v v v v % z.:.% v v v v v v v v v v v v v v v v v v v v v v v v v v v v ",
"A A A v v v v v v v v v v v v v v v v v v v v v v v v v v v v v % 0.0.% v v v v v v v v v v v v A A A v v v v v v v v v v v v v ",
"A A A v v v v v v v v v v v v v v v v v v v v v v v v v v v v v % 0.0.% v v v v v v v v v v v v A A A v v v v v v v v v v v v v ",
"A A A v v v v v v v v v v v v v v v v v v v v v v v v v v v v v v v v v v v v v v v v v v v v v v v v v v v v v v v v v v v v v ",
"A A A v v v v v v v v v v v v v v v v v v v v v v v v v v v v v v v v v v v v v v v v v v v v v v v v v v v v v v v v v v v v v ",
"A A A A v v v v v v v v v v v v v v v v v v v v v v v v v v v v v v v v v v v v v v v v v v v v v v v v v v v v v v v v v v v v ",
"G G G G G G G G v v v v v v v v v v v v v v v v v v v v v v v v v v v v v v v v v v v v v v v v v v v v v v v v v v v v v v v v ",
"G G G G G G G G v v v v v v v v v v v v v v v v v v v v v v v v v v v v v v v v v v v v v v v v v v v v v v v v v v v v v v v v "
};
