/* XPM */
static char *_d89fd772aa94e60dd853f797a72aafchdXq6DCeADCpRabe[] = {
/* columns rows colors chars-per-pixel */
"64 64 42 1 ",
"  c #AD3D3C",
". c #1C1A24",
"X c #584B48",
"o c #F3CA7B",
"O c #C1A775",
"+ c #E6B13F",
"@ c #EEA924",
"# c #C07020",
"$ c #E4930E",
"% c #7B2722",
"& c #D39C78",
"* c #CA0019",
"= c #E29973",
"- c #1F1D2A",
"; c #B2041B",
": c #EDC09D",
"> c #E1A146",
", c #F3BE99",
"< c #C08B23",
"1 c #EFDBF4",
"2 c #F1E9E9",
"3 c #FDFDFD",
"4 c #261C26",
"5 c #231C25",
"6 c #2E1E27",
"7 c #CEA286",
"8 c #E19B6F",
"9 c #241C25",
"0 c #1D1A24",
"q c #1F1B25",
"w c #D56CD2",
"e c #B525AB",
"r c #C41FAD",
"t c #E09C6F",
"y c #261915",
"u c #F2BC98",
"i c #E09E72",
"p c #D29166",
"a c #F2BC96",
"s c #DF9C6F",
"d c #73493B",
"f c #892A92",
/* pixels */
"                                                                ",
"                                                                ",
"                                                                ",
"                                                                ",
"                                                                ",
"                           ...XXX...                            ",
"                         ....XXXXX...                           ",
"                      XX...oooooooooo....                       ",
"                      .OOOoo++++++@@@@OOX                       ",
"                     ..OOoo+++@@@@@X.@oOX                       ",
"                     .OOo@@@@@@@@##.#@+oo.                      ",
"                    .Ooo@@@@@@@$$#..%$$+@.                      ",
"                    .oo@@@@@@@$$#.&&%%#@@.                      ",
"                    .+@@@@@@@@$#..&&.%#*@.                      ",
"                    .+@@@@@@@@@..=====*-;..                     ",
"                    .+@@@@@@@@@..=:::=*--*.                     ",
"                    .+@@@@@@@@$..=:****--;.                     ",
"                    .+@@@@@@@@$..;;;;;*--;.                     ",
"                    .+@@@@@@@@>.&,,,,,*--;.                     ",
"                   .++@@@@@@@>>.&=,,,,*-;.                      ",
"                   Xo+@@>@$$@@$.&&=,,,=**.                      ",
"                   Xoo@@@@$$$@$$.&==,,&&.                       ",
"                   .oo@$$$$$$$$$.&&&&&&&.                       ",
"                   ..o$<<$$$$<<>$..&&&.XX                       ",
"                     ............1.....                         ",
"                      .........1111.                            ",
"                         ..221111111.                           ",
"                         ..2333333333.                          ",
"                         4.3333333333.                          ",
"                          523.33.1122.                          ",
"                          611.33.1....                          ",
"                          511.78.11.                            ",
"                          911.78.11.                            ",
"                          41.778.11.                            ",
"                          01.778.1..                            ",
"                         qwe..78.ew..                           ",
"                        .wwe..78.rww.                           ",
"                        .rrr..78.rrr.                           ",
"                       .rrrr..78..rrr.                          ",
"                       .rrrr..78t...r..                         ",
"                      ..rrrryt7ttt..rr..                        ",
"                      ..rrrrytuuty..rr..                        ",
"                        .....yyyy......                         ",
"                          .ii.yy.pp..                           ",
"                          .iiiii.pi..                           ",
"                          .iiaa.ppii.                           ",
"                          .iiaa.ppia.                           ",
"                         .siaa..dpia..                          ",
"                         .iiaa..dpia..                          ",
"                         .iia...ddiia.                          ",
"                        .dssa.....piad.                         ",
"                        .dsa...  ..pi..                         ",
"                       ..ssi..   ..pi..                         ",
"                       ..iad..    .dia.                         ",
"                       ..iad.     ..pa.                         ",
"                       ..aa..      .pi.                         ",
"                       ..ii.       .pi..                        ",
"                       .ff..       .ff..                        ",
"                       .fff.       .fff.                        ",
"                                                                ",
"                                                                ",
"                                                                ",
"                                                                ",
"                                                                "
};
