/* XPM */
static const char *dGF5dGF5Z3JhYkI_[] = {
/* columns rows colors chars-per-pixel */
"64 64 154 2 ",
"   c #261916",
".  c #2A1B13",
"X  c #251B1C",
"o  c #2D181C",
"O  c #31181E",
"+  c #311C13",
"@  c #352E16",
"#  c #171420",
"$  c #1E1D25",
"%  c #1E1D2B",
"&  c #1B1D30",
"*  c #221C26",
"=  c #211D2B",
"-  c #2B1E2A",
";  c #241E31",
":  c #2E1437",
">  c #341C35",
",  c #1D202D",
"<  c #1F2123",
"1  c #222323",
"2  c #22202B",
"3  c #2A2029",
"4  c #2B292C",
"5  c #3A222D",
"6  c #35222D",
"7  c #272431",
"8  c #372230",
"9  c #412118",
"0  c #73493B",
"q  c #725131",
"w  c #7C327F",
"e  c #4E4D52",
"r  c #4F4F5D",
"t  c #5B545C",
"y  c #584B48",
"u  c #604646",
"i  c #585462",
"p  c #575563",
"a  c #AD3D3C",
"s  c #B03F3F",
"d  c #865E27",
"f  c #AF403D",
"g  c #B0403F",
"h  c #B04140",
"j  c #BD8127",
"k  c #DF970D",
"l  c #D69B0C",
"z  c #DF8A12",
"x  c #DE9511",
"c  c #D6921C",
"v  c #DB921F",
"b  c #E2940D",
"n  c #E1980B",
"m  c #E59B14",
"M  c #EAA41E",
"N  c #F3A51E",
"B  c #C08B23",
"V  c #D38F23",
"C  c #D59326",
"Z  c #DA9426",
"A  c #DD9B26",
"S  c #D0902B",
"D  c #DA952B",
"F  c #D9992A",
"G  c #DB9933",
"H  c #E29D26",
"J  c #E79927",
"K  c #D7A12E",
"L  c #DBA334",
"P  c #E4A226",
"I  c #EBA626",
"U  c #ECA826",
"Y  c #ECA62A",
"T  c #EBAA29",
"R  c #F1A622",
"E  c #F0A728",
"W  c #E7A935",
"Q  c #E5B13F",
"!  c #E8B23F",
"~  c #AB8344",
"^  c #BCA479",
"/  c #EAAE42",
"(  c #E5B140",
")  c #EDAF51",
"_  c #F4BC5E",
"`  c #DD9C6D",
"'  c #CB9B7F",
"]  c #DD9C72",
"[  c #D49E7E",
"{  c #DF9673",
"}  c #E69A67",
"|  c #E19C6E",
" . c #E19C73",
".. c #C1A776",
"X. c #C1A974",
"o. c #E0AD6C",
"O. c #EFBE60",
"+. c #E4A87B",
"@. c #F1A37C",
"#. c #F6CD69",
"$. c #F5C475",
"%. c #F3CB77",
"&. c #F5CB75",
"*. c #F2CA7A",
"=. c #F5CA79",
"-. c #F2C77C",
";. c #7B3784",
":. c #862D8E",
">. c #882A93",
",. c #B726A6",
"<. c #BF22AC",
"1. c #BF25BA",
"2. c #BE38B6",
"3. c #BF38B8",
"4. c #C41FAD",
"5. c #C421A5",
"6. c #C521AC",
"7. c #C524B1",
"8. c #C72CB3",
"9. c #C82FB3",
"0. c #C632B3",
"q. c #CB3BB9",
"w. c #C937B9",
"e. c #CC42BD",
"r. c #CE4CC3",
"t. c #D157C7",
"y. c #D25CCA",
"u. c #D465CE",
"i. c #D76ACF",
"p. c #E06FCE",
"a. c #D19F83",
"s. c #CFA185",
"d. c #EEBF96",
"f. c #EFBE98",
"g. c #F1BD96",
"h. c #F9BA93",
"j. c #F0BD99",
"k. c #E9BEA7",
"l. c #E7BEA9",
"z. c #EABDA9",
"x. c #F7C681",
"c. c #F1C880",
"v. c #F1C09E",
"b. c #E5C0A8",
"n. c #E6C5B9",
"m. c #EADEEE",
"M. c #E9D7F0",
"N. c #EFDBF5",
"B. c #EDDCF8",
"V. c #F1DBF4",
"C. c #F1DCF8",
"Z. c #F4E4FA",
"A. c #F6E9FB",
"S. c #FDFCFD",
/* pixels */
"h h h h h h h h a a a a a f a a f f f a a f f a a a a a a a a a a a f h h h a a a h h a a a a a a a a a a a a a a a a a a a s h ",
"h h h h h h h h a a a a a f f f a a f a a a a a a a a a a a a a a a a f a h a a h h h a a a a a a a a a a a a a a a a a a a s a ",
"h h h h h h h h a a a a a f f f f a a a a a a a a a a a a a a a a a a a a a a a s s h a a a a a a a a a a a a a a a a a a a f f ",
"h h h h h h h h a a a a a a a a a a a a a a a a a a a a a a a a a a a a a a a a a h h a a a a a a a a a a a a a a a a a a a f f ",
"f f f a g f f f a a a a a a a a a a a a a a a a a a a a a a a a a a a a a a a a a a a a a a a a a a a a a a a a h h h h s s h h ",
"f f a a f f f f a a a a a a a a a a a a a a a a a a a $ $ % % % % % % % $ a a a a a a a a a a a a a a a a a a a s h h h s a s s ",
"f g a a f f f f a a a a a a a a a a a a a a a a a a a = # % = = = = = $ % a a a a a a a a a a a a a a a a a a a a h h a a a s s ",
"s s a a f f f f a a a a a a a a a a a a a a a a 5 5 * *.%.=.%.%.&.=.=.*.&.* = = a a a a a a a a a a a a h a a a a a a a a a s h ",
"f a a a f f f f a a a a a a a a a a a a a a e u ......Q Q Q ( / K L ( ( ! ~ ~ ^ y e a a a a a a a a a a a a a a g g s a f f f s ",
"a a a a f f f f a a a a a a a a a a a a a a = 9 *.*.*.U U U U T m z U U U U U =.. = a a a a a a a a a a a a a a g a s s a a a s ",
"a a a a f f f f a a a a a a a a a a a a * % x.$.N R N U U U M I H U m U U R R U -.$.$ = a a a a a a a a a a a a a a s s a a a a ",
"a a a a f f f a a a a a a a a a a a a a % % c.#.U U U U U I I U U U U U U U R U &.*.= % a a a a a a a a a a a a a a s a a a a a ",
"s s s g f f f a f a a a a a a a a a a a % % Y U U U U U I M Z I U U U U U I k U U U & % a a a a a a a a a a a a a a s s s s s s ",
"h h h h h h h h f a a a a a a a a a a a % % Y U U U U U U I U I U U U U U U U U U R & % a a a a a a a a a a a a a a s s s s s s ",
"h h h h h h h h a a a a a a a a a a a a % % E U I U J U U U U U Y U U U I U U P U U & % a a a a a a a a a a a a a a s s s s s s ",
"h h h h h h h s a a a a a a a a a a a a % % I I J U U U Z U U W U I P I U U Z U U I & % a a a a a a a a a a a a a a s s s s s s ",
"h h h h h h h a a a a a a a a a a a a a % % U I P U U Z U U U U U I P Z U U U U I U & % a a a a a a a a s a a a a a a a s s s s ",
"h h h h h h h s s s h s a a a a a a h h $ 4 I U U U U U U U U U U U U A U U U U P U & % s s a a a a f f g g s s f f f f g s s a ",
"h h h h h h h s s s h s a a a a a a h h = r I U U U U U U U ) U U U U U U U U U I U $ % g g g f f f f f g s a s f f g f g s a a ",
"h h h h h h h s s s h h h a a a a a h % = % / Y I U U I I U U U U U U U U I C U U L - = = g f f f f f g g s a a f f g g g s a a ",
"h h h h s s s s s s s a a a a a a a h t _ _ x C U U U I H U U U U I T T U U U I H x W H 7 f g f f f f f f a a a f f f g s a a a ",
"a a a a a a a a a a a a a a a a a a a $ O.W n Z I I U U I U U U U U U H A Z U U v n I P = a a a a a a a a a a a a a a a a a a a ",
"a a a a a a a a a a a a a a a a a a a p l b Z n H Z Z Z Z D Z H Z Z Z Z Z H I I b n b x p a a a a a a a a a a a a a a a a a a a ",
"a a a a a a a a a a a a a a a a a a a < S B V c c @ j Z Z H Z Z Z Z Z Z D q - Z D Z D F % a a a s a a a a a a a a a a a a a a a ",
"a a a a a a a a a a a a a a a a a a a a 5 5 5 8 6 N.N.% % C Z Z Z Z Z V d N.B.= = % % = s s s s s s a a a a a a a a a a a a a a ",
"a a a a a a a a a a a a a a a a a a a a a * = S.S.C.C.N.N.D G Z G o.N.N.N.C.A.S.$ % a a a s s a a a a a a a a a a a a a a a a a ",
"a a a a a a a a a a a a a a a a a a a a a * * S.S.C.Z.B.V.N.V.N.N.N.N.N.N.C.S.S.$ = s a a a s a a a a a a a a a a a a a a a a a ",
"a a a a a a a a a a a a a a a a a a a a * d.d.] S.2 % C.C.C.C.C.C.C.C.C.Z.% $ S.$ = s a a a s a a a a a a a a a a a a a a a a a ",
"a a a a a a a a a a a a a a a a a a a * d.d.] ] * 2 % C.C.Z.C.C.C.C.C.C.C.% = S.$ % s a a a a a a a a a a a a a a a a a a a a a ",
"a a a a a a a a a a a a a a a a a a * d.] ] ] i * 2 % A.C.C.C.N.N.m.C.Z.C.= % S.$ % s a a a a a a a a a a a a a a a a a a a a a ",
"a a a a a a a a a a a a a a a a a * d.] ] i i * a = % m.C.m.V.N.N.N.m.m.C.% *  .o % a a a a a a a a a a a a a a a a a a a a a a ",
"a a a a a a a a a a a a a a a a a * * ] ] b.* a a = % N.N.N.N.N.C.N.N.N.N.% = ] o % a a a a a a a a a a a a a a a a a a a a a a ",
"a a a a a a a a a a a a a a a a a a * * h.h.b.* a % % N.N.N.N.C.N.N.N.N.N.% % ] h.g.% $ a a a a a a a a a a a a a a a a a a a a ",
"a a a a a a a a a a a a a a a a a a a a * h.h.b.* 1 & V.N.N.C.N.N.N.C.M.N.* X  .h.d.% % a a a a a a a a a a a a a a a a a a a a ",
"a a a a a a a a a a a a a a a a a a a a a * h.h.f.1 1 % * * N.N.N.N.V.; % S.S.= b.g.% % a a a a a a a a a a a a a a a a a a a a ",
"a a a a a a a a a a a a a a a a a a a a a a * h.f.f.f.% 0.i.y.u.2.3.,.0.i.* % % z.g.% % g f f a a a a a a a a a a a a a a a a a ",
"a a a a a a a a a a a a a a a a a a a a a a 1 * h., , > u.8.u.e.y.t.w.t.y.% % % z.g.% % g f f a a a a a a a a a a a a a a a a a ",
"a a a a a a a a a a a a a a a a a a a a a a a 1 % % 8.4.4.r.q.7.q.8.4.7.u.4.u.* k.g.% % = g f a a a a a a a a a a a a a a a a a ",
"a a a a a a a a a a a a a a a a a a a a a a a a % q.9.4.4.4.4.6.4.4.4.6.6.4.p.% k.g.= = = f f a a a a a a a a a a a a a a a a a ",
"a a a a a a a a a a a a a a a a a a a a a a a a % 7.6.4.4.4.4.4.4.4.4.4.4.4.6.= l.j.j.f.f.+ % a a a a a a a a a a a a a a a a a ",
"a a a a a a a a a a a a a a a a a a a a a a a a % 1.4.4.4.4.4.4.4.4.4.4.4.4.6.& s.] X     3 % a a a a a a a a a a a a a a a a a ",
"a a a a a a a a a a a a a a a a a a a a a a a a % <.5.5.5.4.<.<.<.<.5.5.5.5.6.% ' { 2 - i = % a a a a a a a a a a a a a a a a a ",
"a a a a a a a a a a a a a a a a a a a a a a a a %  .| | ` | * % % * ` ` | `  .% = % a a a a a a a a a a a a a a a a a a a a a a ",
"a a a a a a a a a a a a a a a a a a a a a a a a %  . .` | | $ % = *  .| ` | ` $ % % a a a a a a a a a a a a a a a a a a a a a a ",
"g g g a a a a a a a a a a a a a a a a a a a a a % d.j.|  .% a a a a % ` | | ` $ a a a s a a a a a a a a f f f f a a a a a a a a ",
"g g g a a a a a a a a a a a a a a a a a a a a a % d.f.|  .% a a a a % ` | | ] n.X * a s a a a a a a a a f f f f a a a a a a a a ",
"s s g a a a a a a a a a a a a a a a a a a a a a % g.f.|  .% a a a a % `  .| ] j.X % a s s a a a a a a a f f f f a a a a a a a a ",
"s g g a a a a a a a a a a a a a a a a a a a a a % d.f.|  .% a a a a a 2 % } ] j.X % a s s a a a a a a a f f f f a a a a a a a a ",
"f f f f f f f f s s s s a a a a a a a a a a a a * j.j.|  .% a a a a a 2 % } +.j.X % a a a a a a a a a a f f f f a a a a a a a a ",
"f f f f f f f f s s s s a a a a a a a a a a = . j.` | % % a a a a a a 2 * @.| j.X % a a a a a a a a a a f f f f a a a a a a a a ",
"f f f f f f f f a a a a a a a a a a a a a a % . j.` ` 7 $ a a a a a a a a 0 0 +.* % a a a a a a a a a a f f f f a a a a a a a a ",
"f f f f f f f f a a a a a a a a a a a a a a % . j.` | = 4 a a a a a a a a % %  .O % a a a a a a a a a a f f f f a a a a a a a a ",
"a a a a a a a a a a a a a a a a a a a a a a % . j.= % a a a a a a a a a a % % ] d.v.% $ a a a a a a a a a a a a a a a a a a a a ",
"a a a a a a a a f f f f a a a a a a a a a a % . f.* % a a a a a a a a a a % *  .f.j.% % a a a a a a a a a a a a a a a a a a a a ",
"a a a a a a a a f f f f a a a a a a a a a a & . | % % a a a a a a a a a a a a % a.] $ % a a a a a a a a a a a a a a a a a a a a ",
"a a a a a a a a f f f f a a a a a a a a a a % .  .% % a a a a a a a a a a a a % [ ] % % a a a a a a a a a a a a a a a a a a a a ",
"a a a a a a a a g g g g a a a a a a a a a a % .  .% % a a a a a a a a a a a a % [ ] $ % a a a a a a a a a a a a a a a a a a a a ",
"f f f a a a a a a a a a a a a a a a a a a a = : :.% % a a a a a a a a a a a a % ;.:.$ % a a a a f f f a a a a a a a a a a a a a ",
"f f f a a a a a a a a a a a a a a a a a a a % : >.% % a a a a a a a a a a a a % w >.$ % a a a a f f f a a a a a a a a a a a a a ",
"f f f a a a a a a a a a a a a a a a a a a a a a a a a a a a a a a a a a a a a a a a a a a a a a a a a a a a a a a a a a a a a a ",
"f f f a a a a a a a a a a a a a a a a a a a a a a a a a a a a a a a a a a a a a a a a a a a a a a a a a a a a a a a a a a a a a ",
"f f f f a a a a a a a a a a a a a a a a a a a a a a a a a a a a a a a a a a a a a a a a a a a a a a a a a a a a a a a a a a a a ",
"h h h h h h h h a a a a a a a a a a a a a a a a a a a a a a a a a a a a a a a a a a a a a a a a a a a a a a a a a a a a a a a a ",
"h h h h h h h h a a a a a a a a a a a a a a a a a a a a a a a a a a a a a a a a a a a a a a a a a a a a a a a a a a a a a a a a "
};
