/* XPM */
static const char *dGF5dGF5Z3JhYkIx[] = {
/* columns rows colors chars-per-pixel */
"64 64 145 2 ",
"   c #2A1B13",
".  c #251C1C",
"X  c #31181E",
"o  c #352E16",
"O  c #171420",
"+  c #1D1C25",
"@  c #1F1D2A",
"#  c #1B1D30",
"$  c #221C26",
"%  c #211D2C",
"&  c #2D1D29",
"*  c #241E31",
"=  c #2E1437",
"-  c #341C35",
";  c #1F2123",
":  c #1D202D",
">  c #222322",
",  c #22202B",
"<  c #2B292C",
"1  c #3A222D",
"2  c #35222D",
"3  c #272431",
"4  c #372230",
"5  c #412118",
"6  c #73493B",
"7  c #725131",
"8  c #7C327F",
"9  c #4E4D52",
"0  c #4F4F5D",
"q  c #5B545C",
"w  c #584B48",
"e  c #604646",
"r  c #585562",
"t  c #575563",
"y  c #AC3D3C",
"u  c #B03F3F",
"i  c #865E27",
"p  c #AF403D",
"a  c #B0403F",
"s  c #B04140",
"d  c #BD8127",
"f  c #DF970D",
"g  c #D69B0C",
"h  c #DF8A12",
"j  c #DE9511",
"k  c #D6921C",
"l  c #DB921F",
"z  c #E2940D",
"x  c #E1980B",
"c  c #E59B14",
"v  c #EAA41E",
"b  c #F3A51E",
"n  c #C08B23",
"m  c #D38F23",
"M  c #D59326",
"N  c #DA9426",
"B  c #DD9B26",
"V  c #D0902B",
"C  c #DA952B",
"Z  c #D9992A",
"A  c #DB9933",
"S  c #E29D26",
"D  c #E79927",
"F  c #D7A12E",
"G  c #DBA334",
"H  c #E4A226",
"J  c #EBA626",
"K  c #ECA826",
"L  c #ECA62A",
"P  c #EBAA29",
"I  c #F1A622",
"U  c #F0A728",
"Y  c #E7A935",
"T  c #E5B13F",
"R  c #E8B23F",
"E  c #AB8344",
"W  c #BCA479",
"Q  c #EAAE42",
"!  c #E5B140",
"~  c #EDAF51",
"^  c #F4BC5E",
"/  c #DD9C6D",
"(  c #DE9C72",
")  c #D49E7E",
"_  c #E69A67",
"`  c #E19C6E",
"'  c #E19D73",
"]  c #C1A776",
"[  c #C1A974",
"{  c #E0AD6C",
"}  c #EFBE60",
"|  c #E4A87B",
" . c #F1A37C",
".. c #F6CD69",
"X. c #F5C475",
"o. c #F3CB77",
"O. c #F5CB75",
"+. c #F2CA7A",
"@. c #F5CA79",
"#. c #F2C77C",
"$. c #7B3784",
"%. c #862D8E",
"&. c #882A93",
"*. c #B726A6",
"=. c #BF22AC",
"-. c #BF25BA",
";. c #BE38B6",
":. c #BF38B8",
">. c #C41FAD",
",. c #C421A5",
"<. c #C521AC",
"1. c #C524B1",
"2. c #C72CB3",
"3. c #C82FB3",
"4. c #C632B3",
"5. c #C937B9",
"6. c #CB3BB9",
"7. c #CC42BD",
"8. c #CE4CC3",
"9. c #D157C7",
"0. c #D25CCA",
"q. c #D465CE",
"w. c #D76ACF",
"e. c #E06FCE",
"r. c #D19F83",
"t. c #EEBF96",
"y. c #EFBE98",
"u. c #EFBE98",
"i. c #F1BD95",
"p. c #F9BA93",
"a. c #F0BE9A",
"s. c #F7C681",
"d. c #F1C880",
"f. c #F1C09E",
"g. c #E5C0A8",
"h. c #E6C5B9",
"j. c #EADEEE",
"k. c #E9D7F0",
"l. c #EFDBF5",
"z. c #EDDCF8",
"x. c #F1DBF4",
"c. c #F1DCF8",
"v. c #F4E4FA",
"b. c #F6E9FB",
"n. c #FDFDFD",
/* pixels */
"s s s s s s s s y y y u y p y y p p p y y p p y y y y y y y y y y y p s s s y y y s s y y y y y y y y y y y y y y y y y y y u s ",
"s s s s s s s s y y y y y p y p y y p y y y y y y y y y y y y y y y y p p s y y u s s y y y y y y y y y y y y y y y y y y y u u ",
"s s s s s s s s y y y y y p p p p y y y y y y y y y y y y y y y y y y y y y y y u u s y y y y y y y y y y y y y y y y y y y p p ",
"s s s s s s s s y y y y y y y y y y y y y y y y y y y y y y y y y y y y y y y y y s s y y y y y y y y y y y y y y y y y y y p p ",
"p p p y a p p p y y y y y y y y y y y y y y y y y y y y y y y y y y y y y y y y y y y y y y y y y y y y y y y y s s s s u u s s ",
"p p y y p p p p y y y y y y y y y y y y y y y y y y y + + @ @ @ @ @ @ @ + y y y y y y y y y y y y y y y y y y y y s s s u y y u ",
"p p y y p p p p y y y y y y y y y y y y y y y y y y y % O @ % % % % % + @ y y y y y y y y y y y y y y y y y y y u s s y y y u u ",
"u u y y p p p p y y y y y y y y y y y y y y y y 1 1 $ +.o.@.o.o.O.@.@.+.O.$ % % y y y y y y y y y y y y s y y y y y y y y y u s ",
"p y y y p p p p y y y y y y y y y y y y y y 9 e ] ] ] T T T ! Q F G ! ! R E E W w 9 y y y y y y y y y y y y y y a a u y p p p u ",
"y y y y p p p p y y y y y y y y y y y y y y % 5 +.+.+.K K K K P c h K K K K K @.  % y y y y y y y y y y y y y y a y u u y y u u ",
"y y y y p p p p y y y y y y y y y y y y $ @ s.X.b I b K K K v J S K c K K I I K #.X.+ % y y y y y y y y y y y y y y u u y y y y ",
"y y y y p p p y y y y y y y y y y y y y @ @ d...K K K K K J J K K K K K K K I K O.+.% @ y y y y y y y y y y y y y y u u y y y y ",
"u u u a p p p y p y y y y y y y y y y y @ @ L K K K K K J v N J K K K K K J f K K K # @ y y y y y y y y y y y y y y u u u u u u ",
"s s s s s s s s p y y y y y y y y y y y @ @ L K K K K K K J K J K K K K K K K K K I # @ y y y y y y y y y y y y y y u u u u u u ",
"s s s s s s s s y y y y y y y y y y y y @ @ U K J K D K K K K K L K K K J K K H K K # @ y y y y y y y y y y y y y y y u u u u u ",
"s s s s s s s u y y y y y y y y y y y y @ @ J J D K K K N K K Y K J H J K K N K K J # @ y y y y y y y y y y y y y y y u u u u u ",
"s s s s s s s y y y y y y y y y y y y y @ @ K J H K K N K K K K K J H N K K K K J K # @ y y y y y y y y y y y y y y y y u u u u ",
"s s s s s s s u u u s u y y y y y y s s + < J K K K K K K K K K K K K B K K K K H K # @ y y y y y y p a p p y y p p p p s u u y ",
"s s s s s s s u u u s u y y y y y y s s % 0 J K K K K K K K ~ K K K K K K K K K J K + @ p a p p p p a a a u y y p p a p a u y y ",
"s s s s s s s u u u s s s y y y y y s @ % @ Q L J K K J J K K K K K K K K J M K K G & % % p p p p p a a a u y y p p a a a u y y ",
"s s s s u u u u u u u y y y y y y y s q ^ ^ j M K K K J S K K K K J P P K K K J S j Y S 3 p p p p p p p @ @ @ y p p p a a y y y ",
"y y y y y y y y y y y y y y y y y y y + } Y x N J J K K J K K K K K K S B N K K l x J H % y y y y y y y @ u.@ p p p y y y y y y ",
"y y y y y y y y y y y y y y y y y y y t g z N x S N N N N C N S N N N N N S J J z x z j t y y y y y y y @ u.@ @ p p y y y y y y ",
"y y y y y y y y y y y y y y y y y y y ; V n m k k o d N N S N N N N N N C 7 & N C N C Z @ @ @ @ @ @ @ @ @ u.u.@ p p y y y y y y ",
"y y y y y y y y y y y y y y y y y y y y 1 1 1 4 2 l.l.@ @ M N N N N N m i l.z.% @ @ @ % @ a.a.a.a.a.u.u.u.u.u.@ p p y y y y y y ",
"y y y y y y y y y y y y y y y y y y y y y $ % n.n.c.c.l.l.C A N A { l.l.l.c.b.n.n.( ( ( ( ( ( p.p.p.g.g.g.p.p.@ p p y y y y y y ",
"y y y y y y y y y y y y y y y y y y y y y $ $ n.n.c.v.z.x.l.x.l.l.l.l.l.l.c.n.n.n.( ( ( ( ( % % % % % @ @ @ @ @ p p y y y y y y ",
"y y y y y y y y y y y y y y y y y y y y $ t.t.( n., @ c.c.c.c.c.c.c.c.c.v.@ + @ @ @ @ @ @ @ % y y y y y y y y y y y y y y y y y ",
"y y y y y y y y y y y y y y y y y y y $ t.t.( ( $ , @ c.c.v.c.c.c.c.c.c.c.@ % a p p y y y y y y y y y y y y y y y y y y y y y y ",
"y y y y y y y y y y y y y y y y y y $ t.( ( ( r $ , @ b.c.c.c.l.l.j.c.v.c.@ @ a p p u y y y y y y y y y y y y y y y y y y y y y ",
"y y y y y y y y y y y y y y y y y $ t.( ( r r $ y % @ j.c.j.x.l.l.l.j.j.c.@ $ a p p y y y y y y y y y y y y y y y y y y y y y y ",
"y y y y y y y y y y y y y y y y y $ $ ( ( g.$ y y % @ l.l.l.l.l.c.l.l.l.l.@ @ p p p p y y y y y y y y y y y y y y y y y y y y y ",
"y y y y y y y y y y y y y y y y y y $ $ p.p.g.$ y @ @ l.l.l.l.c.l.l.l.l.l.@ @ p p p p p y y y y y y y y y y y y y y y y y y y y ",
"y y y y y y y y y y y y y y y y y y y y $ p.p.g.$ > # x.l.l.c.l.l.l.c.k.l.$ . p p p p p y y y y y y y y y y y y y y y y y y y y ",
"y y y y y y y y y y y y y y y y y y y y y $ p.p.u.> > @ $ $ l.l.l.l.x.* @ n.n.% p p p p u y y y y y y y y y y y y y y y y y y y ",
"y y y y y y y y y y y y y y y y y y y y y y $ p.u.u.u.@ 4.w.0.q.;.:.*.4.w.$ @ @ p p p p a p p y y y y y y y y y y y y y y y y y ",
"y y y y y y y y y y y y y y y y y y y y y y > $ p.: : - q.2.q.7.0.9.5.9.0.@ @ @ p p p p a a p y y y y y y y y y y y y y y y y y ",
"y y y y y y y y y y y y y y y y y y y y y y y > @ @ 2.>.>.8.6.1.6.2.>.1.q.>.q.$ p p p p a a p y y y y y y y y y y y y y y y y y ",
"y y y y y y y y y y y y y y y y y y y y y y y y @ 6.3.>.>.>.>.<.>.>.>.<.<.>.e.@ p p p p p p p y y y y y y y y y y y y y y y y y ",
"y y y y y y y y y y y y y y y y y y y y y y y y @ 1.<.>.>.>.>.>.>.>.>.>.>.>.<.% p p p p p p p y y y y y y y y y y y y y y y y y ",
"y y y y y y y y y y y y y y y y y y y y y y y y @ -.>.>.>.>.>.>.>.>.>.>.>.>.<.# p p p p p p p y y y y y y y y y y y y y y y y y ",
"y y y y y y y y y y y y y y y y y y y y y y y y @ =.,.,.,.>.=.=.=.=.,.,.,.,.<.@ p p p p p p p y y y y y y y y y y y y y y y y y ",
"y y y y y y y y y y y y y y y y y y y y y y y y @ ' ` ` / ` $ @ @ $ / / ` / ' @ p p y y y p p y y y y y y y y y y y y y y y y y ",
"y y y y y y y y y y y y y y y y y y y y y y y y @ ' ' / ` ` + @ % $ ' ` / ` / + p p y y y p y y y y y y y y y y y y y y y y y y ",
"a a a y y y y y y y y y y y y y y y y y y y y y @ t.a.` ' @ y y y y @ / ` ` / + y y y u y y y y y y y y p p p p y y y y y y y y ",
"a a a y y y y y y y y y y y y y y y y y y y y y @ t.u.` ' @ y y y y @ / ` ` ( h.. $ y u y y y y y y y y p p p p y y y y y y y y ",
"u u a y y y y y y y y y y y y y y y y y y y y y @ i.u.` ' @ y y y y @ / ' ` ( a.. @ y u u y y y y y y y p p p p y y y y y y y y ",
"u a a y y y y y y y y y y y y y y y y y y y y y @ t.u.` ' @ y y y y y , @ _ ( a.. @ y u u y y y y y y y p p p p y y y y y y y y ",
"p p p p p p p p u u u u y y y y y y y y y y y y $ a.a.` ' @ y y y y y , @ _ | a.. @ y y y y y y y y y y p p p p y y y y y y y y ",
"p p p p p p p p u u u u y y y y y y y y y y %   a./ ` @ @ y y y y y y , $  .` a.. @ y y y y y y y y y y p p p p y y y y y y y y ",
"p p p p p p p p y y y y y y y y y y y y y y @   a./ / 3 + y y y y y y y y 6 6 | $ @ y y y y y y y y y y p p p p y y y y y y y y ",
"p p p p p p p p y y y y y y y y y y y y y y @   a./ ` % < y y y y y y y y @ @ ' X @ y y y y y y y y y y p p p p y y y y y y y y ",
"y y y y y y y y y y y y y y y y y y y y y y @   a.% @ y y y y y y y y y y @ @ ( t.f.@ + y y y y y y y y y y y y y y y y y y y y ",
"y y y y y y y y p p p p y y y y y y y y y y @   u.$ @ y y y y y y y y y y @ $ ' u.a.@ @ y y y y y y y y y y y y y y y y y y y y ",
"y y y y y y y y p p p p y y y y y y y y y y #   ` @ @ y y y y y y y y y y y y @ r.( + @ y y y y y y y y y y y y y y y y y y y y ",
"y y y y y y y y p p p p y y y y y y y y y y @   ' @ @ y y y y y y y y y y y y @ ) ( @ @ y y y y y y y y y y y y y y y y y y y y ",
"y y y y y y y y a a a a y y y y y y y y y y @   ' @ @ y y y y y y y y y y y y @ ) ( + @ y y y y y y y y y y y y y y y y y y y y ",
"p p p y y y y y y y y y y y y y y y y y y y % = %.@ @ y y y y y y y y y y y y @ $.%.+ @ y y y y p p p y y y y y y y y y y y y y ",
"p p p y y y y y y y y y y y y y y y y y y y @ = &.@ @ y y y y y y y y y y y y @ 8 &.+ @ y y y y p p p y y y y y y y y y y y y y ",
"p p p y y y y y y y y y y y y y y y y y y y y y y y y y y y y y y y y y y y y y y y y y y y y y y y y y y y y y y y y y y y y y ",
"p p p y y y y y y y y y y y y y y y y y y y y y y y y y y y y y y y y y y y y y y y y y y y y y y y y y y y y y y y y y y y y y ",
"p p p p y y y y y y y y y y y y y y y y y y y y y y y y y y y y y y y y y y y y y y y y y y y y y y y y y y y y y y y y y y y y ",
"s s s s s s s s y y y y y y y y y y y y y y y y y y y y y y y y y y y y y y y y y y y y y y y y y y y y y y y y y y y y y y y y ",
"s s s s s s s s y y y y y y y y y y y y y y y y y y y y y y y y y y y y y y y y y y y y y y y y y y y y y y y y y y y y y y y y "
};
