/* XPM */
static const char *dGF5dGF5[] = {
/* columns rows colors chars-per-pixel */
"64 64 167 2 ",
"   c #19191C",
".  c #1A1D14",
"X  c #2B1D0C",
"o  c #261916",
"O  c #2B1B13",
"+  c #251B1C",
"@  c #2C1A1B",
"#  c #321C12",
"$  c #31181E",
"%  c #1D1D25",
"&  c #1F1D2A",
"*  c #1A1625",
"=  c #1B1D31",
"-  c #231C25",
";  c #211D2B",
":  c #2B1E2A",
">  c #2A1925",
",  c #241E31",
"<  c #2E1437",
"1  c #351928",
"2  c #1E202B",
"3  c #1F2123",
"4  c #222225",
"5  c #22202B",
"6  c #2A252C",
"7  c #36232E",
"8  c #3A222D",
"9  c #272431",
"0  c #372230",
"q  c #302D3C",
"w  c #412118",
"e  c #7B2524",
"r  c #7C272A",
"t  c #73493B",
"y  c #694939",
"u  c #3D3B47",
"i  c #7C327F",
"p  c #4D4C53",
"a  c #4F4F5D",
"s  c #5A555C",
"d  c #584B48",
"f  c #604646",
"g  c #595563",
"h  c #595764",
"j  c #B5051B",
"k  c #8D1D22",
"l  c #842A25",
"z  c #84292E",
"x  c #813131",
"c  c #AD3D3C",
"v  c #B03F3F",
"b  c #CA0019",
"n  c #CD0F23",
"m  c #D01F2E",
"M  c #DA2B2B",
"N  c #DB3333",
"B  c #9B4A3B",
"V  c #AF403D",
"C  c #B0403F",
"Z  c #BE6C24",
"A  c #B04140",
"S  c #DD950B",
"D  c #D69B0C",
"F  c #DF8A12",
"G  c #DE9511",
"H  c #D6921C",
"J  c #DB921F",
"K  c #E2940D",
"L  c #E1980B",
"P  c #E08E10",
"I  c #E39514",
"U  c #E9A015",
"Y  c #F3A51E",
"T  c #C08B23",
"R  c #D58F20",
"E  c #DA9424",
"W  c #DA9629",
"Q  c #D49529",
"!  c #E39F27",
"~  c #D7A12E",
"^  c #DBA334",
"/  c #EDA523",
"(  c #EEA924",
")  c #EDA629",
"_  c #E4A827",
"`  c #F1A622",
"'  c #F0A728",
"]  c #F0AA22",
"[  c #E7A737",
"{  c #E5B13F",
"}  c #E8B23F",
"|  c #AB8344",
" . c #BCA479",
".. c #E8AF40",
"X. c #E1A146",
"o. c #E5B140",
"O. c #EAB158",
"+. c #F3BD5C",
"@. c #DD9C6D",
"#. c #CB9B7F",
"$. c #DD9C73",
"%. c #D39C79",
"&. c #DA9875",
"*. c #E69A67",
"=. c #E19C6E",
"-. c #E19C73",
";. c #E5977B",
":. c #DAA069",
">. c #C1A776",
",. c #C1A974",
"<. c #EFBE60",
"1. c #E4A87B",
"2. c #F1A37C",
"3. c #F6CD69",
"4. c #F5C475",
"5. c #F4CB75",
"6. c #F5CA79",
"7. c #F2CA7A",
"8. c #F2C77C",
"9. c #7B3784",
"0. c #862D8E",
"q. c #882A93",
"w. c #B525AC",
"e. c #BF22AC",
"r. c #B726A6",
"t. c #BF25BA",
"y. c #C41FAD",
"u. c #C421A5",
"i. c #C421AC",
"p. c #C523B8",
"a. c #CF6AC7",
"s. c #D865C3",
"d. c #D666CB",
"f. c #DB6FCE",
"g. c #D867C8",
"h. c #CB73C6",
"j. c #D76CD1",
"k. c #E06FCE",
"l. c #E376D8",
"z. c #D19F83",
"x. c #EC9F84",
"c. c #CFA286",
"v. c #D0A286",
"b. c #EEBD96",
"n. c #EEBE99",
"m. c #F1BD96",
"M. c #F3BE99",
"N. c #F0BD9A",
"B. c #F1BD9A",
"V. c #F9BA93",
"C. c #E9BEA7",
"Z. c #E7BEA9",
"A. c #EABDA9",
"S. c #F7C681",
"D. c #F1C880",
"F. c #EDC09D",
"G. c #F2C09C",
"H. c #FAC099",
"J. c #E5C0A8",
"K. c #E6C5B9",
"L. c #EADFEE",
"P. c #E9D7F0",
"I. c #EEDCF5",
"U. c #EDDCF8",
"Y. c #F1DBF4",
"T. c #F1DCF8",
"R. c #FDFCFD",
/* pixels */
"A A A A A A A A c c c c c V c c V V V c c V V c c c c c c c c c c c V A A A c c c A A c c c c c c c c c c c c c c c c c c c A A ",
"A A A A A A A A c c c c c V V V c c V c c c c c c c c c c c c c c c c V c A c c A A A c c c c c c c c c c c c c c c c c c c v c ",
"A A A A A A A A c c c c c V V V V c c c c c c c c c c c c c c c c c c c c c c c v v A c c c c c c c c c c c c c c c c c c c V c ",
"A A A A A A A A c c c c c c c c c c c c c c c c c c c c c c c c c c c c c c c c c A A c c c c c c c c c c c c c c c c c c c V V ",
"V V V c C V V V c c c c c c c c c c c c c c c c c c c c c c c c c c c c c c c c c c c c c c c c c c c c c c c c A A A A v v A A ",
"V V c c V V V V c c c c c c c c c c c c c c c c c c c % % & & & & & & & % c c c c c c c c c c c c c c c c c c c c A A A v c v v ",
"V C c c V V V V c c c c c c c c c c c c c c c c c c c ; * & ; ; ; ; ; % & c c c c c c c c c c c c c c c c c c c c A A c c c v v ",
"v v c c V V V V c c c c c c c c c c c c c c c c 8 8 - 7.5.6.5.5.5.6.6.7.5.- ; ; c c c c c c c c c c c c A c c c c c c c c c v A ",
"V c c c V V V V c c c c c c c c c c c c c c p f >.>.>.{ { { o...~ ^ o.o.} | |  .d p c c c c c c c c c c c c c c C C v c V V V v ",
"c c c c V V V V c c c c c c c c c c c c c c ; w 7.7.7.( ( / ( _ I F ( ( ( ( ) 6.O ; c c c c c c c c c c c c c c C c v v c c c v ",
"c c c c V V V V c c c c c c c c c c c c - & S.4.Y ` Y ( ( ( S S r e S ( ( ` ` ( 8.4.% ; c c c c c c c c c c c c c c v v c c c c ",
"c c c c V V V c c c c c c c c c c c c c & & D.3.( ( ( ( ( / S K r l K / ( ( ` ( 5.7.; & c c c c c c c c c c c c c c v c c c c c ",
"v v v C V V V c V c c c c c c c c c c c & & ) ( ( ( ( ( / U l r $.-.x r z I S ( ( ( = & c c c c c c c c c c c c c c v v v v v v ",
"A A A A A A A A V c c c c c c c c c c c & & ) ( b b ( j b Z B B =.=.B b b Z b b ( ` = & c c c c c c c c c c c c c c v v v v v v ",
"A A A A A A A A c c c c c c c c c c c c & & ' b & & j 1 & b -.=.=.=.b & & b & & b ] = & c c c c c c c c c c c c c c c v v v v v ",
"A A A A A A A v c c c c c c c c c c c c & & b & & & & & & & b n.F.b & & & & & & & b = & c c c c c c c c c c c c c c v v v v v v ",
"A A A A A A A c c c c c c c c c c c c c & & b & & & & & & & b b b b & & & & & & & b = & c c c c c c c c v c c c c c c c v v v v ",
"A A A A A A A v v v A v c c c c c c A A % & b & & & & & & & n N.N.b & & & & & & & b = & v v c c c c V V C C v v V V V V C v v c ",
"A A A A A A A v v v v v c c c c c c A A ; a ) b & & & & & b b.b.b.N.b & & & & & b +.% & C C V V V V V V C v c v V V V V C v c c ",
"A A A A A A A v v v A A A c c c c c A & ; & O.[ j & & & b N.N.M.N.N.x.m & & & b X.^ : ; ; V V V V V V C C v c c V V C C C v c c ",
"A A A A v v v v v v v c c c c c c c A s +.+.G Q k b b b N.N.N N N N N.N.b b b e E G [ ! 9 V V V V V V V V c c c V V V C v c c c ",
"c c c c c c c c c c c c c c c c c c c % <.[ L E e :.-.N.N.N.M M M N N.N.m.$.;.e J L / _ ; c c c c c c c c c c c c c c c c c c c ",
"c c c c c c c c c c c c c c c c c c c g D K E L K 7 % @.=.=.=.=.=.=.=.=.$.> % P K L K G h c c c c c c c c c c c c c c c c c c c ",
"c c c c c c c c c c c c c c c c c c c 3 Q T R H H . & %.%.%.%.%.%.%.%.%.%.2 : E W E W W & c c c v c c c c c c c c c c c c c c c ",
"c c c c c c c c c c c c c c c c c c c c 8 8 8 0 7 L.I.& & & & & & & & & & I.I.; ; & & ; v v v v v v c c c c c c c c c c c c c c ",
"c c c c c c c c c c c c c c c c c c c c c c ; * R.R.R.I.I.I.I.I.I.I.I.I.I.R.R.R.% & c c c v v c c c c c c c c c c c c c c c c c ",
"c c c c c c c c c c c c c c c c c c c c c c &   R.R.R.U.Y.I.Y.I.I.I.I.I.I.R.R.R.% ; v c c c v c c c c c c c c c c c c c c c c c ",
"c c c c c c c c c c c c c c c c c c c c c c &   R.; & R.R.R.R.R.R.R.R.R.R.% % R.% ; v c c c v c c c c c c c c c c c c c c c c c ",
"c c c c c c c c c c c c c c c c c c c c c c &   R.5 & R.R.R.R.R.R.R.R.R.R.& ; R.% & v c c c c c c c c c c c c c c c c c c c c c ",
"c c c c c c c c c c c c c c c c c c c c c c &   R.5 & R.R.R.T.I.I.L.R.R.R.; & R.% & v c c c c c c c c c c c c c c c c c c c c c ",
"c c c c c c c c c c c c c c c c c c c c c c & @ n.; & L.L.L.Y.I.I.I.L.L.L.& - -.@ & c c c c c c c c c c c c c c c c c c c c c c ",
"c c c c c c c c c c c c c c c c c c c c c c % O N.; & I.I.I.I.I.T.I.I.I.I.& ; $.@ & c c c c c c c c c c c c c c c c c c c c c c ",
"c c c c c c c c c c c c c c c c c c c c % & M.H.=.& & I.I.I.I.T.I.I.I.I.I.& & $.V.m.& % c c c c c c c c c c c c c c c c c c c c ",
"c c c c c c c c c c c c c c c c c c c c & & b.G.&.4 = Y.I.I.T.I.I.I.T.P.I.- + -.V.b.& & c c c c c c c c c c c c c c c c c c c c ",
"c c c c c c c c c c c c c c c c c c c c & & =.v.& R.R.& ; T.I.I.I.I.Y., & R.R.; J.m.& & c c c c c c c c c c c c c c c c c c c c ",
"c c c c c c c c c c c c c c c c c c c c & & =.c.& ; 2 a.j.w.w.w.w.w.r.h.f.- & & A.m.& & C V V c c c c c c c c c c c c c c c c c ",
"c c c c c c c c c c c c c c c c c c c c & & =.v.& ; 2 j.d.y.y.y.y.y.y.g.l.& & & A.m.& & C V V c c c c c c c c c c c c c c c c c ",
"c c c c c c c c c c c c c c c c c c c & & & =.v.& s.g.y.y.y.y.y.y.y.y.i.i.l.d.; C.m.& & ; V V c c c c c c c c c c c c c c c c c ",
"c c c c c c c c c c c c c c c c c c c & = = =.v.& f.s.y.y.y.y.y.y.y.y.i.i.g.k.& C.m.; ; ; V V c c c c c c c c c c c c c c c c c ",
"c c c c c c c c c c c c c c c c c q # N.$.=.-.v.& p.i.y.y.y.y.y.y.y.y.y.y.y.i.; Z.N.N.n.n.# & c c c c c c c c c c c c c c c c c ",
"c c c c c c c c c c c c c c c c c u s o @ X =.v.& t.y.y.y.y.y.y.y.y.y.y.y.y.i.= c.&.o o o 6 & c c c c c c c c c c c c c c c c c ",
"c c c c c c c c c c c c c c c c c p h s & ; =.v.& e.u.u.u.y.e.e.e.e.u.u.u.u.i.& #.&.4 : g ; & c c c c c c c c c c c c c c c c c ",
"c c c c c c c c c c c c c c c c c c c c c c & & & -.=.=.@.=.- & & - @.@.=.@.-.& ; & c c c c c c c c c c c c c c c c c c c c c c ",
"c c c c c c c c c c c c c c c c c c c c c c & & & -.-.@.=.=.% & ; - -.=.@.=.@.% & & c c c c c c c c c c c c c c c c c c c c c c ",
"C C C c c c c c c c c c c c c c c c c c c c c c & b.N.=.-.& c c c c & @.=.=.@.% c c c v c c c c c c c c V V V V c c c c c c c c ",
"C C C c c c c c c c c c c c c c c c c c c c c c & b.n.=.-.& c c c c & @.=.=.$.K.+ - c v c c c c c c c c V V V V c c c c c c c c ",
"v v C c c c c c c c c c c c c c c c c c c c c c & m.n.=.-.& c c c c & @.-.=.$.N.+ & c v v c c c c c c c V V V V c c c c c c c c ",
"v C C c c c c c c c c c c c c c c c c c c c c c & b.n.=.-.& c c c c c 5 & *.$.N.+ & c v v c c c c c c c V V V V c c c c c c c c ",
"V V V V V V V V v v v v c c c c c c c c c c c c - N.N.=.-.& c c c c c 5 & *.1.N.+ & c c c c c c c c c c V V V V c c c c c c c c ",
"V V V V V V V V v v v v c c c c c c c c c c ; O N.@.=.& & c c c c c c 5 ; 2.=.N.+ & c c c c c c c c c c V V V V c c c c c c c c ",
"V V V V V V V V c c c c c c c c c c c c c c & O N.@.@.9 % c c c c c c c c t y 1.> & c c c c c c c c c c V V V V c c c c c c c c ",
"V V V V V V V V c c c c c c c c c c c c c c & O N.@.=.; 6 c c c c c c c c & & -.$ & c c c c c c c c c c V V V V c c c c c c c c ",
"c c c c c c c c c c c c c c c c c c c c c c & O N.; & c c c c c c c c c c & & $.b.G.& % c c c c c c c c c c c c c c c c c c c c ",
"c c c c c c c c V V V V c c c c c c c c c c & O n.- & c c c c c c c c c c & ; -.b.N.& & c c c c c c c c c c c c c c c c c c c c ",
"c c c c c c c c V V V V c c c c c c c c c c = O =.& & c c c c c c c c c c c c & z.&.% & c c c c c c c c c c c c c c c c c c c c ",
"c c c c c c c c V V V V c c c c c c c c c c & O -.& & c c c c c c c c c c c c & %.&.& & c c c c c c c c c c c c c c c c c c c c ",
"c c c c c c c c C C C C c c c c c c c c c c & O -.& & c c c c c c c c c c c c & %.&.% & c c c c c c c c c c c c c c c c c c c c ",
"V V V c c c c c c c c c c c c c c c c c c c ; < 0.& & c c c c c c c c c c c c & 9.0.% & c c c c V V V c c c c c c c c c c c c c ",
"V V V c c c c c c c c c c c c c c c c c c c & < q.& & c c c c c c c c c c c c & i q.% & c c c c V V V c c c c c c c c c c c c c ",
"V V V c c c c c c c c c c c c c c c c c c c c c c c c c c c c c c c c c c c c c c c c c c c c c c c c c c c c c c c c c c c c c ",
"V V V c c c c c c c c c c c c c c c c c c c c c c c c c c c c c c c c c c c c c c c c c c c c c c c c c c c c c c c c c c c c c ",
"V V V V c c c c c c c c c c c c c c c c c c c c c c c c c c c c c c c c c c c c c c c c c c c c c c c c c c c c c c c c c c c c ",
"A A A A A A A A c c c c c c c c c c c c c c c c c c c c c c c c c c c c c c c c c c c c c c c c c c c c c c c c c c c c c c c c ",
"A A A A A A A A c c c c c c c c c c c c c c c c c c c c c c c c c c c c c c c c c c c c c c c c c c c c c c c c c c c c c c c c "
};
