/* XPM */
static const char *dGF5dGF5bGVmdA__[] = {
/* columns rows colors chars-per-pixel */
"64 64 42 1 ",
"  c #AD3D3C",
". c #1C1A24",
"X c #584B48",
"o c #F3CA7B",
"O c #C1A775",
"+ c #EEA924",
"@ c #E6B13F",
"# c #C07020",
"$ c #E4930E",
"% c #7B2722",
"& c #D39C78",
"* c #CA0019",
"= c #B2041B",
"- c #1F1D2A",
"; c #E29973",
": c #EDC09D",
"> c #F3BE99",
", c #E1A146",
"< c #C08B23",
"1 c #EFDBF4",
"2 c #F1E9E9",
"3 c #FDFDFD",
"4 c #261C26",
"5 c #231C25",
"6 c #2E1E27",
"7 c #E19B6F",
"8 c #CEA286",
"9 c #241C25",
"0 c #1D1A24",
"q c #D56CD2",
"w c #B525AB",
"e c #1F1B25",
"r c #C41FAD",
"t c #E09C6F",
"y c #261915",
"u c #F2BC98",
"i c #D29166",
"p c #DE9C73",
"a c #F2BC96",
"s c #D69D7E",
"d c #73493B",
"f c #852D8E",
/* pixels */
"                                                                ",
"                                                                ",
"                                                                ",
"                                                                ",
"                                                                ",
"                          ...XXX...                             ",
"                         ...XXXXX....                           ",
"                     ....oooooooooo...XX                        ",
"                     XOO++++@@@@@@ooOOO.                        ",
"                     XOo+.X+++++@@@ooOO..                       ",
"                    .oo@+#.##++++++++oOO.                       ",
"                    .+@$$%..#$$+++++++ooO.                      ",
"                    .++#%%&&.#$$+++++++oo.                      ",
"                    .+*#%.&&..#$++++++++@.                      ",
"                   ..=-*;;;;;..+++++++++@.                      ",
"                   .*--*;:::;..+++++++++@.                      ",
"                   .=--****:;..$++++++++@.                      ",
"                   .=--*=====..$++++++++@.                      ",
"                   .=--*>>>>>&.,++++++++@.                      ",
"                    .=-*>>>>;&.,,+++++++@@.                     ",
"                    .**;>>>;&&.$++$$+,++@oX                     ",
"                     .&&>>;;&.$$+$$$++++ooX                     ",
"                     .&&&&&&&.$$$$$$$$$+oo.                     ",
"                     XX.&&&..$,<<$$$$<<$o..                     ",
"                       .....1............                       ",
"                          .1111.........                        ",
"                         .111111122..                           ",
"                        .3333333332..                           ",
"                        .3333333333.4                           ",
"                        .2211.33.325                            ",
"                        ....1.33.116                            ",
"                          .11.78.115                            ",
"                          .11.78.119                            ",
"                          .11.788.14                            ",
"                          ..1.788.10                            ",
"                         ..qw.78..wqe                           ",
"                         .qqr.78..wqq.                          ",
"                         .rrr.78..rrr.                          ",
"                        .rrr..78..rrrr.                         ",
"                       ..r...t78..rrrr.                         ",
"                      ..rr..ttt8tyrrrr..                        ",
"                      ..rr..ytuutyrrrr..                        ",
"                       ......yyyy.....                          ",
"                         ...i.yy.i..                            ",
"                          ..piiiii..                            ",
"                          ..paaai...                            ",
"                           .paaai..                             ",
"                           .paaas..                             ",
"                           .daasd.                              ",
"                           ..assd                               ",
"                            .ppp.                               ",
"                            .dpp..                              ",
"                            ..ps..                              ",
"                            ..ps..                              ",
"                            ..ps..                              ",
"                             .ps..                              ",
"                            ..ff..                              ",
"                           ..fff..                              ",
"                                                                ",
"                                                                ",
"                                                                ",
"                                                                ",
"                                                                ",
"                                                                "
};
