/* XPM */
static const char *dGF5dGF5cmlnaHQlMjgxJTI5[] = {
/* columns rows colors chars-per-pixel */
"64 64 154 2 ",
"   c #B24441",
".  c #B24341",
"X  c #B24242",
"o  c #B14242",
"O  c #B14141",
"+  c #AF3F3F",
"@  c #AE3D3D",
"#  c #AE3F3C",
"$  c #AD403D",
"%  c #AE413E",
"&  c #AD3F3E",
"*  c #AD3E3E",
"=  c #AE403E",
"-  c #AF403E",
";  c #AF3E3E",
":  c #AE3E3E",
">  c #AD3D3D",
",  c #AE3F3F",
"<  c #AC3C3C",
"1  c #AB3B3B",
"2  c #AC3B3B",
"3  c #AD3E3C",
"4  c #AD3F3C",
"5  c #B14441",
"6  c #B14341",
"7  c #B24141",
"8  c #AD3F3D",
"9  c #AE3F3E",
"0  c #AD3E3D",
"q  c #AC3F3C",
"w  c #B04240",
"e  c #B04140",
"r  c #B14240",
"t  c #B14040",
"y  c #AE3E3D",
"u  c #AC3E3C",
"i  c #AD3C3C",
"p  c #AE3F3D",
"a  c #AF413E",
"s  c #AF3F3E",
"d  c #B0403F",
"f  c #AD3D3C",
"g  c #AC3D3C",
"h  c #AB3D3B",
"j  c #AB3C3B",
"k  c #B04040",
"l  c #B03F3F",
"z  c #AE403F",
"x  c #AF413F",
"c  c #AF403D",
"v  c #AE403D",
"b  c #AC3D3B",
"n  c #AC3D3D",
"m  c #AE3C3C",
"M  c #AB3D3A",
"N  c #AC3C3B",
"B  c #AF3F3D",
"V  c #AF403F",
"C  c #AB3B3A",
"Z  c #AF3D3D",
"A  c #B03F3E",
"S  c #AC3A3A",
"D  c #AB3A3A",
"F  c #AE3D3B",
"G  c #AE3E3B",
"H  c #AE3E3C",
"J  c #AF3E3D",
"K  c #AC3B3A",
"L  c #AD3B3A",
"P  c #AA3A3A",
"I  c #AB3939",
"U  c #AD3B3B",
"Y  c #AE3D3C",
"T  c #AA3B3B",
"R  c #2E1E27",
"E  c #1C1A24",
"W  c #40222A",
"Q  c #CA0019",
"!  c #B2041B",
"~  c #251C25",
"^  c #584B48",
"/  c #F3CA7B",
"(  c #EEA924",
")  c #1F1D2A",
"_  c #6C4745",
"`  c #A93A3A",
"'  c #C1A775",
"]  c #E6B13F",
"[  c #D39C78",
"{  c #2E1F27",
"}  c #E4930E",
"|  c #C07020",
" . c #E29973",
".. c #2D1E27",
"X. c #251C26",
"o. c #7B2722",
"O. c #F3BE99",
"+. c #48242B",
"@. c #C41FAD",
"#. c #EDC09D",
"$. c #52272D",
"%. c #FDFDFD",
"&. c #F1E9E9",
"*. c #EFDBF4",
"=. c #241C25",
"-. c #D56CD2",
";. c #372028",
":. c #49242B",
">. c #372129",
",. c #B525AB",
"<. c #E09C6F",
"1. c #261915",
"2. c #D29166",
"3. c #DE9C73",
"4. c #73493B",
"5. c #40232A",
"6. c #372029",
"7. c #652B30",
"8. c #F2BC96",
"9. c #993566",
"0. c #E1A146",
"q. c #E19B6F",
"w. c #F2BC98",
"e. c #D69D7E",
"r. c #852D8E",
"t. c #96346A",
"y. c #C08B23",
"u. c #CEA286",
"i. c #8A2F84",
"p. c #41242A",
"a. c #231C25",
"s. c #261C26",
"d. c #1D1A24",
"f. c #49252C",
"g. c #53282E",
"h. c #5B292F",
"j. c #3F222A",
"k. c #AB3C3C",
"l. c #42232B",
"z. c #41232B",
"x. c #5A292E",
"c. c #784744",
"v. c #B9795C",
"b. c #AA3C3C",
"n. c #AB3D3D",
"m. c #734845",
"M. c #4A262C",
"N. c #382129",
"B. c #A93C3C",
"V. c #53282D",
"C. c #642B30",
"Z. c #6D4745",
"A. c #AC3F3D",
"S. c #AC3E3D",
/* pixels */
"      . X o O O + + + + @ # # # $ % % & * = - ; : * * > @ @ > > > > , , , , , , , , , * * * : < 1 1 1 1 2 2 < < 3 4 > > : ; + + ",
"    5 6 7 O O O + + + + : 4 4 4 8 9 = 9 * : 9 : : * * > > @ > > 0 0 : , + + + , , , + * * * : < 1 1 1 1 2 2 < < 4 4 > > : ; + + ",
"  6 6 O 7 O O O + + + ; @ 4 4 q 8 : : : : : : : : * * * > @ > 0 8 * , + + + + + , + + : * * : < 1 1 1 1 2 2 < < 4 4 > > : ; + + ",
"w e e r t t e e 9 y @ @ > u u u u > > > > , : * * * * * * * * * * * : , , , + + + + + > > > > < < < < < i i > > p p : : ; ; + + ",
"a a - s d - a a f g < < h h h h j 1 1 1 2 : : : * * * * * * * * * * * : : : : : : : : < < < < > > > > * , , + + + + k k l l k k ",
"a - s s a a a a i < < < h h h h j 1 1 1 1 : : : : : , , * * * * * * * , , , , : : : : < < < < > > > > * , + + + + + k k l + + + ",
"a s ; s a a a a i < < < h h h h j 2 1 1 1 : : : : , , , , 9 = = , , , , , , , 9 : : : < < i i > > > @ : , + + + + k k + + + + + ",
"; ; ; s a a a a i i < < h h h h j 2 1 1 1 : : : : + , , , z % = , , , , x x x % 9 : : < i i i > @ @ : : , + + + + + + + + + + k ",
"p @ @ y c c c v : * * > i i i i i b j 1 1 i < n n n n > > > > > @ m i i i i i 2 2 2 2 M M M M j 1 1 1 2 i m m m c c ; : - a a ; ",
"@ @ @ y c c v v : * * * < < < 2 2 2 N N 1 i i i n n n > > > > @ @ @ i i m i i 2 2 2 2 M M M M j 1 1 1 2 m m m @ c p ; ; ; ; ; ; ",
"@ @ @ y c v v v : * * * n < < < 2 2 2 N j f i i > > > * * : @ y @ @ i i m m i i i 2 2 M M M M j 1 1 1 2 m m @ @ B ; ; ; ; ; ; ; ",
"@ @ @ y v v v p : : * > < < < < < 2 2 2 N 4 f f i > > * * * p p @ @ m m m m m i i i i M M M M j 1 1 1 2 m @ @ @ ; ; ; ; ; ; ; s ",
"l l l d V V V + = 9 : : > > > > > < i < < y y y @ @ @ @ : : s s ; ; @ @ @ m i 2 2 2 2 C C C C 1 2 2 2 i Z Z @ @ ; ; ; ; ; l l A ",
"t t t k k k k k - 9 : : > n n > > > > > > : : , , : @ @ : : + + l ; @ @ @ @ i S S S S D D D D 2 2 2 2 i Z Z @ @ ; ; ; ; l l l l ",
"t t t k k k k k s ; : : > n n n n > > > > : : , , : @ @ : : + + l l ; @ @ @ i S S S S D D D D 2 2 2 2 i Z @ @ @ ; ; ; ; l l l l ",
"t t k k k k k l ; ; : : > n n n n n > > > : : , , : @ @ Z ; l + l l ; @ @ @ i S S S S D D D D 2 2 2 2 i Z @ @ @ ; ; ; ; l l l l ",
"t t k k k k k + ; : : : > n n n n n > > > : ; ; + : Z Z Z ; l l l l ; v v p i S S S S D D D D 2 2 2 2 i Z @ @ @ ; ; ; ; l l l l ",
"O O t k k k k l l l + + + + + + + + k k k + + + k ; Z Z Z @ i i m m F G G G H B B B B J J J J J J J c c - - s ; a a a a d l l + ",
"O O t k k k k l l l + + + + + + + + k k k + + + k ; Z Z Z @ i i m m F G G G H B B B B c c c c c c c c c a s ; ; a a a a d l + + ",
"O O t k k k k l l l + + + + + + + + k k k + + + k + ; ; ; @ i i m m F G G G H B B B B c c c c c c c c c a s ; ; a a a a d l + ; ",
"O O t k k k k l l l l + + + + + + + k k k + + + k + ; ; ; Z m m m m F G G G H B B B B c c c c c c c c c a s ; ; a a a a d + + ; ",
"; ; Z @ @ @ > i i i i < < < < < < < > > > > > @ @ i i i i < 1 1 1 1 K K K K L m m m m s s s s B B B B B y @ @ @ y y y y @ @ @ @ ",
"@ m m m i 2 2 2 1 1 1 1 1 1 1 1 1 1 1 1 2 < < i i 2 2 2 2 1 P P P P I I I I S U U U U ; ; ; ; B B B B J m i i i i i i i i i i i ",
"@ @ m m i 2 2 2 1 1 1 1 1 1 1 1 1 1 1 1 2 < i i i 2 2 2 2 1 P P P P I I I I S U U U U ; ; ; ; B B B B J m i i i i i i i i i i i ",
"@ @ @ m i i 2 2 1 1 1 1 1 1 1 1 1 1 1 2 2 < i i i 2 2 2 2 2 P P P P I I I I S U U U U ; ; ; ; B B B B J m i i i i i i i i i i i ",
"@ > i i i i i 2 1 1 1 1 1 1 1 1 1 2 2 2 2 i i i i 2 2 2 2 2 P P P P D D D D 2 m m m m ; ; ; ; y H H H Y i i i < < < < < < < < i ",
"< < < < < < < < 1 1 1 1 1 1 1 1 1 < < < i i i i > < 1 1 1 1 P P P P 1 2 2 2 i l l l l Z Z Z Z i 2 2 2 2 1 1 1 1 1 1 1 1 1 1 1 1 ",
"< < < < < < < < 1 1 1 1 1 1 1 1 1 < i i i i i > > < 1 1 1 1 P P P P 1 2 2 2 i l l l l Z Z Z Z i 2 2 2 2 1 1 1 1 1 1 1 1 1 1 1 1 ",
"i < < < < < < < 1 1 1 1 1 1 1 1 2 i i i i i > > > < 1 1 1 1 P P P P 1 2 2 2 i l l l l Z Z Z Z i 2 2 2 2 1 1 1 1 1 1 1 1 1 1 1 1 ",
"i < < < < < < < 1 1 1 1 1 1 1 1 2 i i i i > > > > < 1 1 1 1 P P P P 1 2 2 2 i l l l l Z Z Z Z i 2 2 2 2 1 1 1 1 1 1 1 1 1 1 1 1 ",
"< < < g u g < < 1 1 1 1 1 < < < < < < < < < < < < 1 1 1 1 1 2 2 2 2 < f f f @ ; ; ; ; Z Z Z Z i 2 2 2 1 T T T T T T T T T T T T ",
"< < < g q q < < 1 1 1 1 < < < < < < < < < 1 1 1 1 1 1 1 1 2 i i i i f 3 3 3 y ; ; ; ; Z Z Z Z i 2 2 2 1 T T T T T T T T T T T T ",
"< < < g 4 q q q 1 1 1 1 < < < < < < < < < j 1 1 1 1 1 1 1 2 i i i i f 3 3 3 y ; ; ; ; Z Z Z Z i 2 2 2 1 T T T T T T T T T T T T ",
"< < < g 4 4 4 q 2 2 2 1 < < < < R E E E E N N 1 1 1 1 1 1 2 i i i i f 3 3 3 y ; ; ; ; Z Z Z Z i 2 2 2 1 T T T T T T T T T T T T ",
"< < < g 3 3 3 3 2 2 N N W E E E E Q ! ! ! ~ E N 1 T T T T 1 i i i i 3 3 3 3 3 y y y y J J J J i 2 2 2 2 1 1 1 1 1 1 1 1 1 1 1 1 ",
"< < < < < < < < 1 ~ ^ ^ / ( ( ( ! ) ) ) ) ! Q E E _ ` ` ` T < < < < 3 4 4 4 4 3 3 3 3 p c c c f < < < < < < < < < < < < i i i i ",
"< < < < < < < < 1 E ' ' / ] ( Q ) ) ) ) ) ) Q [ [ ^ 1 ` ` T < < < < 3 4 4 4 4 3 3 3 { ~ B c c f < < < < < < < < < < < < i i i i ",
"< < < < < < < < N E ' / ] } | | Q Q Q Q Q Q  .[ [ E ..` ` T < < < < 3 4 4 4 4 3 3 X.E E { c c f < < < < < < < < < < < < i i i i ",
"< < < < < < < < N E ( ( ( } o.o. . .Q ! O.O.O.O.[ [ E ` ` +.E E E < 3 4 4 4 4 3 { E @.@.E c c f < < < < < < < < < < < < i i i i ",
"u q q u < < < < R / ( E | o.o.E  .#.Q ! O.O.O.O.[ [ E < $.%.%.&.E i j 1 1 E ~ E @.@.@.@.E E N 2 2 2 2 2 i i i i @ @ @ @ i i i i ",
"q q q u < < < E E / ( ^ E E [ [  .#.Q ! O.O.O. .[ [ E E *.%.%.&.E ~ +.=...E -.@.@.E E E E E E E 2 2 2 2 i i i i @ @ @ @ i i i i ",
"q q q u < < < E E / ( ( | E [ [  .#.#.! O.O. . .[ E E *.*.%.%.*.E *.*.*.E -.-.@.@.E E E E E E R ;.:.E W i i i i @ @ @ >.i i i i ",
"q q q u < < < E ^ / ] ( | | E E  . . .! O. .[ [ [ E *.*.*.%.%.*.*.*.*.*.*.,.@.@.E E <.1.E 2.3.3.3.3.4.E 5.6.E E E @ R 7.i i i i ",
"p 8 8 0 < < < ^ ^ / ] ( ( } | E E E E E [ [ [ E E } E *.*.%.%.E E E E E E E E E E <.<.<.1.E 2.8.8.8.8.8.3.4.E E E E E 9.i i i i ",
"l l l ; < < < ^ ^ / ] ( ( } } | E E E E E E E } } 0.E *.*.%.%.%.%.q.q.q.q.q.q.q.q.q.<.w.1.1.2.8.8.8.8.e.3.3.3.3.3.3.r.t.2 2 2 2 ",
"l l l ; < < < ^ ^ / ] ( ( ( } } ( ( } } 0.0.} } } y.E E *.%.%.%.%.u.u.u.u.u.u.u.u.u.u.w.1.1.2.8.8.8.e.e.3.3.e.e.e.e.r.i.2 2 2 2 ",
"l l l ; < < < E ^ / ] ] ( ( ( ( ( ( ( ( ( 0.( ( } y.E E *.%.%.E E E E u.u.E E E E E <.<.1.E 2.2.2.e.4.4.E E E E E E E E N 2 2 2 ",
"l l l ; < < < E E / ] ] ( ( ( ( ( ( ( ( ( ( ( } } } E E &.%.%.%.*.*.*.E E E E E E E 1.1.E 2.2.E E E E y p p.E E E E E E N 2 2 2 ",
"a a a a a a - E E / / ] ( ( ( ( ( ( ( ( ( ( } } } } E E &.&.%.&.*.*.*.*.*.,.,.@.@.@.@.@.E E E E E E y 9 v v v p < < < < n n n n ",
"a a a a a a a p E E / / ( ( ( ( ( ( ( ( ( ( } } } } E E E E E a.R a.=.s.d.-.-.@.@.@.@.@.E E 5.f.y y : 9 v v v v < < < < n n n n ",
"a a a a a a a a g.E ' / ( ( ( ( ( ( ( ( ( ( ( ( } } E E h.E j.< < < k.k.k.l.-.@.@.@.@.@.E < < > : : : 9 v v v v < < < < n n n n ",
"a a a a a a a a ; z.' ' / ( ( ( ( ( ( ( ( ( 0.( } y.E E < < < < < < k.k.k.k.x.E @.@.@.@.5.< < > : : : 9 v v v v < < < < n n n n ",
"p y y y y y y y B c.v.' ' / ( ( ( ( ( ( ( ( ( ( } y.E E < < < < < < < n n n k.< X.E E E k.b.b.n > > > 0 0 0 0 0 n.n.n.n.n n n n ",
"> > > > @ @ @ @ c m.M.N.' / / ( ( ( ( ( ( ( ( ( ( } E R < < < < < < n n n n n k.k.k.E =.B.B.B.n.n n n n n n n n n.n.n.n.n n n n ",
"> > > > @ @ @ @ c c c V.>.' / ] ] ] ] ] ] ] ] / / / E < < < < < < < n n n n n k.k.k.k.b.B.B.b.n.n n n n n n n n n.n.n.n.n n n n ",
"> > > > @ @ @ @ c c c c 0 C.X.E E E E E E ] / / / f.< < < < < < < < n n n n n k.k.k.k.b.b.b.b.n.n n n n n n n n n.n.n.n.n n n n ",
"0 > > > @ @ @ @ c c c c 0 n n n n k.k.k.k.E ^ Z.5.R < < < < < < < < n n n n n k.k.k.k.k.b.b.b.n.n n n n n n n n n.n.n.n.n n n n ",
"v v v p @ @ @ @ i i i i < k.k.k.k.k.b.k.k.> n n n 0 * * > > n n n > n n n n n n n n n n n n n 8 $ $ $ A.n.n.n.n.n.n.n.n.n n n n ",
"v v v p @ @ @ @ i i i i < k.k.k.k.b.b.b.k.n n n n * * > > > n n n n n n n n n n n n n n n n n S.$ $ $ S.n.n.n.n.n.n.n.n.n n n n ",
"v v v p @ @ @ @ i i i i < k.k.k.k.b.b.b.k.n n n n * > > > > n n n n n n n n n n n n n n n n n n S.8 8 n n.n.n.n.n.n.n.n.n n n n ",
"v v v p @ @ @ @ i i i i < k.k.k.k.b.b.k.k.n n n n > > > > > n n n n n n n n n n n n n n n n n n n n n n n.n.n.n.n.n.n.n.n n n n ",
"x x x x + + + + @ @ @ @ > n n n k.b.k.k.k.n n n n > > > > > * * * * * * * * > > * * * * > > > n n > > > n n n n n n n n > * * * ",
"w w w e k k k k ; ; ; ; > n n n n.b.k.k.k.n n n n > > > > > : : * * , : * * * * * * * > @ @ @ n n n > > > > > > n n n n * : * * ",
"w w w e k k k k ; ; ; ; > n n n n.b.k.k.k.n n n n > > > > > : * * * : : * * * > * * * > @ @ > n n n > > > > > > n n n n * : * * "
};
