/* XPM */
static char *d81f96ed598a41facc470e0b1b23646ecdHdxsMkasdM1O79[] = {
/* columns rows colors chars-per-pixel */
"64 64 169 2 ",
"   c #5A4C3F",
".  c #5C4E43",
"X  c #5D4F48",
"o  c #5E5145",
"O  c #5F5249",
"+  c #605147",
"@  c #61554B",
"#  c #64594E",
"$  c #685A4F",
"%  c #615750",
"&  c #655D54",
"*  c #695E53",
"=  c #665F58",
"-  c #666057",
";  c #6A6156",
":  c #6C645A",
">  c #6F695E",
",  c #70675B",
"<  c #70675C",
"1  c #71675C",
"2  c #71665A",
"3  c #70685C",
"4  c #71685C",
"5  c #70685D",
"6  c #71685D",
"7  c #71695D",
"8  c #72685C",
"9  c #72695D",
"0  c #73695D",
"q  c #736A5D",
"w  c #70685E",
"e  c #70695E",
"r  c #71695E",
"t  c #70695F",
"y  c #72695E",
"u  c #73695E",
"i  c #706A5F",
"p  c #716A5F",
"a  c #726A5E",
"s  c #736A5E",
"d  c #726A5F",
"f  c #736A5F",
"g  c #726B5F",
"h  c #736B5F",
"j  c #746A5D",
"k  c #746B5E",
"l  c #756B5E",
"z  c #746B5F",
"x  c #756B5F",
"c  c #746C5F",
"v  c #756C5F",
"b  c #766C5F",
"n  c #776C5F",
"m  c #746A5D",
"M  c #6E6960",
"N  c #6F6960",
"B  c #6F6A60",
"V  c #706A60",
"C  c #716A60",
"Z  c #716B60",
"A  c #706A61",
"S  c #706B61",
"D  c #716B61",
"F  c #726B60",
"G  c #736B60",
"H  c #746B60",
"J  c #736C60",
"K  c #726C61",
"L  c #736C61",
"P  c #736D61",
"I  c #726C62",
"U  c #736C62",
"Y  c #736D62",
"T  c #746C60",
"R  c #756C60",
"E  c #746D60",
"W  c #746C61",
"Q  c #756D61",
"!  c #766C60",
"~  c #766D60",
"^  c #776D60",
"/  c #766D61",
"(  c #766E61",
")  c #776E61",
"_  c #746D62",
"`  c #756D62",
"'  c #746D63",
"]  c #766D62",
"[  c #756E62",
"{  c #746E63",
"}  c #756E63",
"|  c #756F63",
" . c #766E62",
".. c #776E62",
"X. c #776F62",
"o. c #776E63",
"O. c #766F63",
"+. c #776F63",
"@. c #766F64",
"#. c #766D61",
"$. c #786D60",
"%. c #786E61",
"&. c #786E62",
"*. c #786F62",
"=. c #796F62",
"-. c #786F63",
";. c #796F63",
":. c #786F64",
">. c #796F62",
",. c #777066",
"<. c #797063",
"1. c #787064",
"2. c #797064",
"3. c #787164",
"4. c #797164",
"5. c #787165",
"6. c #7A7064",
"7. c #7A7164",
"8. c #7B7164",
"9. c #7A7165",
"0. c #7A7265",
"q. c #7B7265",
"w. c #787166",
"e. c #7A7266",
"r. c #7B7266",
"t. c #7B7366",
"y. c #7A7367",
"u. c #7B7367",
"i. c #7C7265",
"p. c #7C7366",
"a. c #7D7367",
"s. c #7C7467",
"d. c #7D7467",
"f. c #7B7265",
"g. c #7D7468",
"h. c #7D7569",
"j. c #7F7569",
"k. c #7E7669",
"l. c #7F766A",
"z. c #7F776A",
"x. c #7C7569",
"c. c #807669",
"v. c #81776D",
"b. c #80786A",
"n. c #81786B",
"m. c #82786B",
"M. c #81796C",
"N. c #82796C",
"B. c #827A6C",
"V. c #847B6E",
"C. c #857B6E",
"Z. c #857C6F",
"A. c #83796D",
"S. c #877D71",
"D. c #867D70",
"F. c #877E71",
"G. c #847C73",
"H. c #897F72",
"J. c #887F72",
"K. c #897E74",
"L. c #878177",
"P. c #8A8073",
"I. c #8B857C",
"U. c #90867F",
"Y. c #948B84",
"T. c #979089",
"R. c #9A948C",
"E. c #9D9790",
"W. c #9E9991",
/* pixels */
"P.P.P.H.D.V.z.z.k.x.t.t.t.t.t.t.3.3.3.<.) $.l $.$.$.f.f.y.y.x.x.0.x.t.t.t.u.u.t.t.t.t.t.t.t.t.t.t.t.8.3.8.3.3.<.] <.n X.n X.*.<.",
"P.P.P.H.P.V.V.z.x.x.t.t.t.t.t.t.b.3.3.X.$.$.^ $.$.<.<.f.y.y.t.y.x.0.x.3.u.u.u.t.t.t.t.t.t.t.t.t.t.8.t.8.8.3.<.<.<.] 3.n n n n *.",
"P.P.P.H.P.V.N.z.x.t.t.t.t.t.t.t.3.3.3.3.<.$.^ ^ =.<.<.<.y.y.y.y.0.t.t.x.u.u.u.t.t.t.t.0.t.t.t.t.t.8.3.8.8.8.<.<.<.<.*.3.*.n *.<.",
"H.H.H.H.S.D.z.j.k.t.0.0.3.t.t.t.3.3.3.3.) ^ ^ ^ ) <.<.f.y.y.y.y.3.x.3.x.3.t.u.3.3.t.t.0.t.t.3.t.3.t.8.3.<.<.<.&.] n n n n n n *.",
"S.S.H.D.N.N.j.j.8.<.@.8.3.3.3.3.3.E 3.E E q q E b ) 3.E 3.3.y.y.w.3.3.3.3.3.3.w.3.3.3.P 3.3.3.,.3.3.3.] 3.] ] n n z z z n n g ] ",
"V.V.V.Z.N.j.j.i.3.] ] ] 3.P 3.] E E E E q q 3 E c c E E 3.3.| | @.@.@.@.3.,.,.,.,.,.,.,.,.P ,.,.3.@.] ] ] ] ] z z z j z 7 7 g g ",
"N.N.N.c.j.a.8.:.] i z z P P P P E E E 3 q 3 3 3 c q q E | P | | { { { { { ,.P B P P > ,.> P B ,.P P P V i i i i i 2 7 7 7 7 7 i ",
"c.c.c.c.a.8.@.] z i i i i > P > q q 3 3 3 3 ; 3 3 3 q E P P P S I I { B P B P B P B P P B g B M N N N V > i i 2 : i : : 2 : : 2 ",
"a.a.a.i.i.&.H H i 2 2 , , N N N > > > > : : 3 3 - > M M B B B B N N B N M M M M M M M M M M M M M M > > > > > : : 2 : : : : : : ",
"i.i.i.8.&.H H , 2 : : : : : : > > : : : - : ; ; - M - M B B B M N N M M M M : M M : : M M - M M > M - > : : : : : - * : * : - : ",
"i.i.i.8.&.H 0 , : : ; : : : : > 3 : 3 ; : - - ; - B M M > > B > : M M : M M M : : M : M M M > : : : : : : : - - : - - : - - : - ",
"i.i.i.8.&.] z 2 ; ; * : - - : : - 3 - ; - - - ; - - - - M - B - : : M : : : : : - : : : - : : : M - : - : : ; ; - ; * - * * * * ",
"i.8.s.8.&.z 0 : * * * * - - - : ; ; - - - * * - - - : : - - M M - M : - : : : = M = : : : - : - - - > - ; ; ; ; ; & & - & * & * ",
"i.j.j.8.&.z 2 2 * * & * - - - - - - - - # - # * - - - - - - - - - = : - - = : - - = - - - : : - - - - - ; * & & $ - $ $ & & & & ",
"s.t.t.t.&.z 2 2 * * $ & & & ; = * - - - - # # - # - - - - - - - = - - - = = : = - - - - - - - - - - - - & & & & & $ & # $ # # $ ",
"j.j.j.u.:.H , * * # # & # & & * - - # # # # # # # # # - - - # - = & = & = * * * = = & - - - - & - & & = & $ & & # # # # # # # # ",
"t.j.k.t.X.k 2 ; $ $ $ # # # & # & # # # # # # # # # - - # - - - % - # - % - % - # - - - - - # - # - # & # & # # # # # # @ # # # ",
"z.u.k.0.*.k 2 ; $ @ @ $ @ # # # # # # # # @ # o # # o - # o # - # # # - # # # - % # # # # # # - # # O # # # # # @ @ @ # o # o o ",
"t.k.k.k.n j : * $ @ @ @ @ @ # # # # # # o # o o # o o # o # # # # o - o o # % # # # # # o # # # # # # O # o o # @ # o @ # o # o ",
"z.t.t.t.n j 2 * $ + @ @ @ @ o @ O O o o o o @ o o # o o # o o o # o o o # o o o o o % o % o o # O O # O # o @ @ o o o o o o o o ",
"d.d.i.i.*.j ; $ $ + + @ o @ O O o o o o o o o o o o o o o o o o o o o o o o o o o o o o o o o o o o O o o o @ o o o o o   o o o ",
"d.z.z.i.*.j ; * $ + + o @ o o o o o o o o o o     o   o     o     o o   o   o o o o o o o o o o o o   o   o   o o     o     o   ",
"d.d.c.8.$.j 2 $ # o @     o o       o         o                                     o               o                           ",
"d.d.i.8.$.j 2 $ $ + + + o o   o o o   o o o o o o o o   o o o o o   o   o   o o o o o o o o o o o   o o o o @ o o o   o o   o o ",
"f.f.f.f.l j * * $ o o o o o   o o o o o o o o o o o o o o o o o o o o o o o o o o o o o o o o o o o o o o O O O o o o o o o o o ",
"f.f.f.f.j 2 * $ $ o o o @ o O o o o o O # o % # O # # O # o o O # o # o o # # # % o % % O O @ O # o # o % @ @ O o $ # o # o o # ",
"f.=.=.=.j 2 2 $ $ $ o + o o o o O o % O o # % % O # # # O # # o # # O O # o # O # # # o - O O O % # O & % # # # $ # # # # # # # ",
"=.=.=.=.j 2 2 $ + + + + @ o @ @ O O # % % % - # - # # - # # - # - O - # - - # - % # - # # - - # - % % # & & % % $ $ $ $ # # # # ",
"=.=.=.=.j 2 * $ $ o o o $ o @ o # # # # - - - % - - - - O - % - - - - - - O - - - % - - - % # - - # - - & & & - # - - # - - - # ",
"f.=.=.=.q 2 2 * $ + $ o o o @ o O # # # - # - - - - - - - - - - - % - % - - - - - - - - - - - # % - % - - - - - - - - - - # - - ",
"=.f.=.=.j 2 * $ $ o + o # @ @ @ % % % # % % - - - - - O - - - % # - - - - - - - - - - # - % - - - % - - # - - - - - - - - - - - ",
"8.8.8.=.j q ; $ $ o + $ o # @ @ % % # # - - - - - - - - - % - - % - - - O - - # % - - - - - % - # - # - - - - - - - - - # - # - ",
"i.i.i.i.$.2 2 * $ + @ @ % X % O O % O % & = - & = & & = & $ $ = - - - - % - - - - - % - % - & & # - & - - - - - % - - - - - - - ",
"s.a.a.;.$.2 2 * $ $ + + O $ O O % O & & & = - - & = & = = = = = - # - # - # % - - - - - - % # & & # # & - - - - - - - % - - - - ",
"j.t.;.a.$.m 2 * $ % + % % % O % O - O = O = & & - - & = = = $ = - - # - - - - % - % & & & & & & # & & & % - - - - - - - - - % - ",
"t.z.c.c.$.H 2 ; $ @ % + $ + % O % O # % & = & & - & & * = = = & # - - # % # - - - - % & & % # % # # & & - - - - - - - - - - - - ",
"x.k.x.0.&.H 2 * $ @ @ @ % % O + % % % % & & = = - - - & = = & & - # # - # - % - % - - - & % & % % - & - % - - - - - = = - - % - ",
"t.s.i.0.&.2 ; * $ % + @ O % % % O & % & & & = = = & - - & = = & - - - # - - # - - & - % & & & - # - # - - - - - - = = = - - - - ",
"f.f.k.0.$.1 2 * $ O $ O % + + % % % % & & & - & & & & - & & = = % - # - # - - # - & & - & & - % & & & - - & - - = - - % % - - % ",
"f.0.0.0.$.2 ; * $ $ O O % X % % O % % & & & = = = = = = = = = % - % - % - % - - & - & & & & % - & & % - - - - - - - - - - - - - ",
"f.8.8.*.k 8 ; * $ O O O % O X % % % & % = & = = = & = & = = & & - - % % - % - - - = - - = % = % & & - % & - = = - % - - % % - - ",
"8.*.8.*.k 2 ; * $ O O % % % % % % % % % & & = & = = = = = = = & % - % - = % - % % = % - = = - - & & - = = - & = = = = - = - - % ",
"8.8.8.*.n 2 ; * $ + % + + % % % % % % & % = = & = & = = & = & & - % - - % - - = = = = = - % - = & & & = = = - = - - = % - % = - ",
"8.8.8.8.n 2 2 * $ % + @ + O + X O % % % % & & = = = & & = & & = - - - % - = % % - % - - = = % = & & & & = & - & - % = - - - - % ",
"f.f.s.<.n j ; $ % @ @ O O O O X X % % % = = = % = = = = = = = & - % - % - - - - - - = - - % - % & = & & & - - = = & & & % - % - ",
"f.s.s.i.n 2 2 * $ @ @ + O O X X X X % % % = = = = = = $ = & = = - - - - % - = = % = = % - = = % & & & = = & = = & = & & - - % - ",
"s.s.s.8.n j 2 * $ @ @ O X X X X X O % % % % = % & & & = = = = = - - - % = - - % = = - - - = - - % = & = = = = = = & & & % - - % ",
"k.s.c.i.&.2 2 * % @ @ X O X X X X X O % % % = = & = = & = = = - - - - - = - - - = = = - - % % - & & & & & = = = = = & - - % - - ",
"k.k.k.s.n k 2 ; $ @ @ X X . X . X X X % % % * & & & = & - = = - = - - & & - - - - - - - & & & & & = & & * - - - & & & & & # - & ",
"k.i.k.s.n n 2 $ $ @ X + + + . . . X O @ % % % & & & & = = - = & & & - - - - - & - & - & & & & & & % & = & - - - & - & & # - & & ",
"z.s.i.x.8.j 2 2 # @ X + X X X . . X X O @ % * * & & & & & & & & & - & - & & - - - - & - & * & # & & & = - & & - & & & & & $ & # ",
"z.z.z.s.n j ; ; $ @ @ + X . X . . X X @ @ % % % % & & & & & ; - * & * & - & - * & & & & & & & & O & & % # * - - & & & & & & & & ",
"s.z.z.s.X.3 ; $ $ + + + X X . . . . X @ @ # # # % $ & & * & & & & & ; & * & * & & & * & * & & * & & * & # * * # * & * & & & $ & ",
"s.z.z.i.8.l 2 * $ + + + X . . . . . X X @ @ # # % & # & & $ $ * & * * & & & & * & & * & # & $ # & & # & & * * - & $ & & $ & & & ",
"z.z.z.s.X.j ; * $ + + + + . . . . . + X + @ @ # % % $ & * $ & & & & & & & * & & * & $ & & # & # # # & $ * # * # $ & & $ # & # * ",
"s.s.s.s.X.j 2 * $ + + + + X X X X + X @ @ @ # # $ $ & * * & * * * ; * * * & * ; * * & * * * * * & & * * * * - * $ ; * * * * * * ",
"c.c.c.c.c.$ 2 $ $ + + + + + + + X + @ @ @ @ # # $ & & ; ; ; - - ; ; ; ; ; ; ; ; - : ; ; ; ; ; ; ; ; * ; ; ; ; ; ; ; ; ; * * ; * ",
"u c.u c.2 c.2 2 $ $ $ + + + + + @ @ @ @ # & # & & * & ; ; ; ; - ; ; : : ; : ; ; - - : ; : ; ; ; ; ; ; : ; ; ; ; ; ; ; ; ; ; ; ; ",
"c.c.c.2 c.2 2 $ $ $ + + + + $ % @ @ # # # # * # * * ; ; : : : : : : : : : : : : - > : > : - 3 - : ; : : ; : : ; ; : : ; ; ; ; : ",
"c.2 c.c.2 2 2 $ $ + + $ % $ + % @ # # # & # * * * ; ; : : : : > : i : i : > 3 : > > > M 3 3 3 3 : 3 : > : : : : : : ; : : ; 2 : ",
"u c.u c.2 2 $ $ $ $ + % $ $ % $ & & & & $ - ; ; ; ; : : > > > > > M M M g > > > M M M M > M B > 3 > > > > : > > 3 : : : 2 : : 3 ",
"c.u c.u c.2 u 2 2 $ 2 $ ; ; ; 2 : : : : i 3 3 : E X.3.0.,.,.w.w.w.y.x.y.k.k.x.x.y.y.y.y.x.x.x.z.x.x.t.0.3.t.t.t.0.0.0.0.0.0.0.0.",
"c.c.c.2 c.u c.c.c.c.c.c.v.v.v.G.D.G.D.L.S.G.L.L.L.L.L.I.I.I.I.I.I.Y.I.I.I.Y.I.I.I.I.I.Y.I.I.U.I.I.I.I.I.I.I.I.I.I.I.P.I.I.L.L.I.",
"u u c.c.c.c.c.v.K.v.K.U.U.U.Y.Y.T.T.T.T.T.R.R.R.E.R.R.E.W.E.W.W.W.E.W.W.W.W.W.W.W.W.W.W.W.W.W.W.W.W.W.W.W.W.E.W.E.W.W.E.E.E.W.W."
};
