/* XPM */
static const char *Y2FudG9zdXBkaXI_[] = {
/* columns rows colors chars-per-pixel */
"64 64 131 2 ",
"   c #5B4B3F",
".  c #5C4E42",
"X  c #5E5145",
"o  c #5F5248",
"O  c #615246",
"+  c #61554B",
"@  c #63594E",
"#  c #695B4E",
"$  c #665D55",
"%  c #695E54",
"&  c #665F58",
"*  c #676057",
"=  c #6B6156",
"-  c #676058",
";  c #6C645A",
":  c #6F695E",
">  c #706357",
",  c #72665A",
"<  c #736A5E",
"1  c #786B5F",
"2  c #746D61",
"3  c #796E62",
"4  c #777063",
"5  c #7A7163",
"6  c #797063",
"7  c #787064",
"8  c #797064",
"9  c #787164",
"0  c #797164",
"q  c #797065",
"w  c #787165",
"e  c #797165",
"r  c #7A7164",
"t  c #7A7065",
"y  c #7A7165",
"u  c #7A7265",
"i  c #7B7265",
"p  c #7B7066",
"a  c #7B7166",
"s  c #7A7266",
"d  c #7B7266",
"f  c #7A7366",
"g  c #7B7366",
"h  c #7B7367",
"j  c #7C7366",
"k  c #7C7367",
"l  c #7C7467",
"z  c #7B7166",
"x  c #7D7468",
"c  c #7E756A",
"v  c #7E766A",
"b  c #7F766A",
"n  c #7C7469",
"m  c #807467",
"M  c #80776B",
"N  c #80776C",
"B  c #80756A",
"V  c #81796E",
"C  c #82796E",
"Z  c #847B6F",
"A  c #84796E",
"S  c #847B70",
"D  c #857C71",
"F  c #857D71",
"G  c #867D72",
"H  c #857C70",
"J  c #887E74",
"K  c #887F74",
"L  c #8A7F75",
"P  c #8A8176",
"I  c #8A8277",
"U  c #8B8277",
"Y  c #8A8176",
"T  c #8B8278",
"R  c #8B8378",
"E  c #8C8278",
"W  c #8C8479",
"Q  c #8D8479",
"!  c #8D847A",
"~  c #8E867B",
"^  c #8C857B",
"/  c #90877D",
"(  c #91877D",
")  c #90877D",
"_  c #91887D",
"`  c #91887E",
"'  c #91897E",
"]  c #918A7F",
"[  c #928A7F",
"{  c #91897E",
"}  c #938B80",
"|  c #938B81",
" . c #948A80",
".. c #958C82",
"X. c #968D83",
"o. c #978F85",
"O. c #968D83",
"+. c #988F85",
"@. c #979086",
"#. c #989085",
"$. c #989086",
"%. c #989187",
"&. c #999187",
"*. c #989187",
"=. c #9B9288",
"-. c #9A9389",
";. c #9B938A",
":. c #9D958B",
">. c #9E958C",
",. c #999388",
"<. c #A0988F",
"1. c #A19A90",
"2. c #A39A91",
"3. c #A59D94",
"4. c #A79F97",
"5. c #A69F97",
"6. c #A7A097",
"7. c #A6A097",
"8. c #A8A097",
"9. c #A7A098",
"0. c #A7A098",
"q. c #A8A198",
"w. c #AAA199",
"e. c #A8A299",
"r. c #ACA49D",
"t. c #AEA79F",
"y. c #A8A299",
"u. c #B1AAA2",
"i. c #B3ADA5",
"p. c #B5AFA7",
"a. c #B6B0A8",
/* pixels */
"u u u u 6 6 3 3 3 3 3 3 3 3 6 u u u u u u u u u u u u h h u u u u l l l l u u u 6 3 3 3 3 6 6 u u u u u u u u u b G W } ,.2.q.a.",
"u u u u 6 6 3 3 3 3 2 3 3 3 6 u u u u u u u u u u u u u u u u u u l l l l u u u 6 3 3 3 3 6 6 u u u u u u u u u b G W } ,.2.q.a.",
"u u u u 6 6 3 3 3 3 2 2 3 3 6 u u u u u u u u u u u u u u u u u u l l l l u u u 6 3 3 3 3 6 6 u u u u u u u u u b G W } ,.2.q.a.",
"u u u u 6 6 3 3 3 2 2 2 3 3 6 u u u u u u u u u u u u u u u u u u l l l l u u u 6 3 3 3 3 6 6 u u u u u u u u u b G W } ,.2.q.a.",
"u u u 6 3 3 3 2 2 2 2 2 2 3 6 u u u u u u u u u u u u u u u u u u u u u u u u 6 6 3 3 3 3 3 6 u u u u u u u u u b G W } $.<.8.p.",
"2 2 2 2 2 2 2 2 < < < < 2 2 2 2 4 u u u u u u u u u u u u u u u u u u u u 7 4 2 2 2 < < 2 2 2 2 6 u u u u u u u b Z P { o.>.4.i.",
"2 2 2 2 2 2 < < < < < < < < 2 2 2 2 2 2 2 2 2 2 2 2 2 2 2 2 2 2 2 2 2 2 2 2 2 2 < < < < < < 2 2 2 2 2 2 2 2 2 3 j A K W X.,.2.u.",
"2 2 2 < < < < < < < , , < < < 2 2 2 2 2 2 2 2 2 2 2 2 2 2 2 2 2 2 2 2 2 2 2 2 < < < < < < < < 2 2 2 2 2 2 2 2 2 u M G W { $.<.r.",
"2 < < < < : : : ; ; ; ; ; : : < : : : 2 2 2 2 2 2 2 2 2 2 2 2 2 2 2 2 2 2 2 : : : : ; ; ; : < < 2 2 2 2 2 2 2 2 3 b H P ( X.:.r.",
": : : : ; ; ; ; ; ; ; ; ; ; : : : : : : : : : : : : : : : : : : : : : : : : : : ; ; ; ; ; ; : : : : : < 2 < < < 2 j A K W  .,.q.",
"; ; : ; ; ; ; ; ; ; * ; ; ; ; ; ; : ; ; ; ; : : : : : : ; ; ; ; ; ; ; ; ; ; ; ; ; ; ; ; ; ; ; ; ; : : : : < < < 2 u N G E { +.4.",
"; ; ; ; ; ; ; ; * * * * * * ; ; ; ; ; ; ; ; ; ; ; ; ; ; ; ; ; ; ; ; ; ; ; ; ; ; ; * * * * ; ; ; ; ; : : : : , , 2 u N G P ( o.4.",
"; ; ; ; ; * * * % % $ $ % * * ; ; ; ; ; ; ; ; ; ; ; ; ; ; ; ; ; ; ; ; ; ; ; ; * * * $ $ * * ; ; ; ; ; ; ; : , , < u N G T { $.6.",
"; ; * * * % % $ $ $ $ $ $ $ * * - ; ; ; ; ; ; ; ; ; ; ; ; ; ; ; ; ; ; ; ; * * * $ $ $ $ $ $ * * ; ; ; ; ; ; ; > < u N G T { $.9.",
"* * * % $ $ $ $ $ $ $ $ $ $ $ $ * * * * * - - - ; ; - - - - ; ; ; ; ; ; * * * $ $ $ $ $ $ $ $ $ * ; ; ; ; ; ; > < u M G T { $.q.",
"$ $ $ $ $ $ $ $ $ $ @ @ @ $ $ $ $ $ * * * * * * * * * * * * * * * * * * * $ $ $ $ $ $ $ $ $ $ $ $ $ * ; ; ; ; > < 3 M G T { $.q.",
"$ $ $ $ $ $ @ @ @ @ @ @ @ $ $ $ $ $ $ $ $ $ $ $ $ $ $ $ $ $ $ $ $ $ $ $ $ $ $ $ $ $ @ @ @ $ $ $ $ $ % * = ; ; > < 3 M G ^ { ,.q.",
"$ $ $ $ @ @ @ @ @ + + + @ @ @ $ $ $ $ $ $ $ $ $ $ $ $ $ $ $ $ $ $ $ $ $ $ $ $ $ @ @ @ + @ @ @ $ $ $ % % * = = > < 3 b G ^ { ,.q.",
"@ @ @ @ @ @ + + + + + + + + + @ @ @ @ @ @ @ $ $ $ $ $ $ $ $ @ @ $ $ $ $ @ @ @ @ + + + + + + + @ @ @ $ % % % = = > 3 b G ^ { ,.q.",
"+ + + + + + + + + + O O + + + + + + + + + + + + @ @ @ @ @ @ @ @ @ @ @ @ @ + + + + + + + + + + + + + @ @ # % % = > 3 b G T { ,.q.",
"+ + + O + o X X X X X X X X X X o O + + + + + + + + + + + + + + + + + + + + + O o o X X X X X X X O + + @ # % = > 3 b H P { ,.q.",
"X X X X X X X X X X X . X X X X X X X X X X X X o o o o o o o o o o o o o X X X X X X X X X X X X X O + + @ # % > < j Z P { ,.q.",
"X X X X X X . . . . . . . . . . . . . . . . . . X X X X X X X X X X X X X . . . . . . . . . . . . . X O + # # # > < j Z P { ,.q.",
". . . . . . . . . .                 . . . . . . . . . . . . . . . . . . . . . . . . . . . .         . X O + # # = < j Z P { ,.q.",
"X X X X X X X X . . . . . . . . . . . . . . . X X X . . . . . . . . X X X X X . . . . . . . . . . . X O + + # # = < j Z P { ,.q.",
"X X o o o o X X X X X X X X X X X X X X X X o o o o X X X X X X X X o o o o o o o o X X X X X X X X O + + @ # % = < j Z P { $.q.",
"+ + + + + + o o + + + + + + + + + + + + + + + + + + + + O O O O O O + + + + + + + + + + + + + O X X + + # @ # % > < j A P { $.q.",
"@ @ @ @ @ @ @ @ @ @ + + + + + + + + + + @ @ @ @ @ + + + + + + + + + + @ @ @ @ @ @ @ + + + + + + + + + @ @ # # % > < j A P ( $.8.",
"$ $ $ $ $ $ $ $ $ $ $ $ $ $ $ $ $ $ $ $ $ $ $ $ $ @ @ + @ + + + @ @ $ $ $ $ $ $ $ $ $ $ $ @ @ @ @ @ @ @ # % % % > < j A K ^ o.6.",
"$ $ $ $ $ $ $ $ $ $ $ $ $ $ $ $ $ $ $ $ $ $ $ $ $ $ $ $ $ $ @ $ $ $ $ $ $ $ $ $ $ $ $ $ $ $ $ $ $ $ $ % % % % = > 1 j A K W o.4.",
"$ $ $ $ $ $ $ $ $ $ $ $ $ $ $ $ $ $ $ $ $ $ $ $ $ $ $ $ $ $ $ $ $ $ $ $ $ $ $ $ $ $ $ $ $ $ $ $ $ $ $ % % % * = > 1 j A K W o.4.",
"$ $ $ $ $ $ $ $ $ $ $ $ $ $ $ $ $ $ $ $ $ $ $ $ $ $ $ $ $ $ $ $ $ $ $ $ $ $ $ $ $ $ $ $ $ $ $ $ $ $ $ % % % = = > 2 j Z P ^ o.6.",
"$ $ $ $ $ $ $ $ $ $ $ $ $ $ $ $ $ $ $ * * * $ $ $ $ $ $ $ $ $ $ $ $ $ $ & - * $ $ $ $ $ $ $ $ $ $ $ $ % % * = = > 3 x Z P { @.6.",
"$ $ $ $ - - $ $ $ $ * * * * $ $ $ $ * * * - $ * $ $ $ $ $ $ $ $ $ $ $ $ - - & $ $ $ $ $ $ $ $ $ $ $ $ % % * = = > 3 b H P { $.9.",
"$ $ $ $ - - & $ $ $ $ * $ $ $ $ $ $ $ $ - $ * * & & $ $ $ $ $ $ $ $ $ $ - - & $ $ $ $ $ $ $ $ $ $ $ $ % * * = = , 3 M H P { $.q.",
"$ $ $ $ - - - $ $ $ * * $ $ $ $ $ $ $ $ & * * - - & & $ $ $ $ $ $ $ $ $ - - & $ $ $ $ $ $ $ $ $ $ $ $ % * = = ; , 3 M G T { $.q.",
"$ $ $ $ * * * * $ $ $ $ $ * * * * * * & $ * - - - $ $ & & $ $ $ $ $ & - - - $ $ $ $ $ $ $ $ $ $ $ $ $ % * = ; > < 3 M G ^ { ,.q.",
"$ $ $ $ * * $ $ $ $ $ $ $ $ * * $ * $ $ $ $ * - - $ $ $ & $ $ $ $ $ & - - * $ $ $ $ $ $ $ $ $ $ $ $ $ % * = = = , 3 b G T { $.q.",
"$ $ $ $ * $ $ $ $ $ $ $ $ $ $ $ $ $ $ $ $ $ $ - - $ $ $ - $ $ & $ & & & - $ $ $ $ $ $ $ $ $ $ $ $ $ $ % % = = = > 3 b H P { $.q.",
"$ $ $ $ $ $ $ $ $ $ $ $ $ $ $ $ $ $ $ $ $ $ & & $ $ $ $ - - - & & & & & $ $ $ $ $ $ $ $ $ $ $ $ $ $ $ % % = = = > 3 b H P { @.9.",
"$ $ $ $ & & & $ $ $ $ $ $ $ $ $ $ $ $ $ $ $ & & & & & & $ $ $ $ $ $ & & $ $ $ $ $ $ $ $ $ $ $ $ $ $ $ $ % % % = > 3 x Z P ( @.6.",
"$ $ $ $ & & $ $ $ $ $ $ $ $ $ $ $ $ $ $ $ $ & & & & & & $ $ $ $ $ & & & $ $ $ $ $ $ $ $ $ $ $ $ $ $ $ $ % % % % > 2 j A P ^ o.6.",
"$ $ $ $ & & $ $ $ $ $ $ $ $ $ $ $ $ $ $ $ $ $ & $ $ & & $ $ $ $ $ $ & & $ & $ $ $ $ $ $ $ $ $ $ $ $ $ $ % % % % > 1 j A K ^ o.4.",
"$ $ $ & & & $ $ $ $ $ $ $ $ $ $ $ $ $ $ $ $ & & $ $ & & $ $ $ $ $ $ & & & & $ $ $ $ $ $ $ $ $ $ $ $ $ $ % % % % > < j A K ^ o.4.",
"$ $ $ & $ $ $ $ $ $ $ $ $ $ $ $ $ $ $ $ $ $ $ $ $ $ $ $ $ $ $ $ $ $ $ $ & & & $ $ $ $ $ $ $ $ $ $ $ $ $ % % % = > 2 j Z P ^ @.6.",
"$ $ $ $ $ $ $ $ $ $ $ $ $ $ $ $ $ $ $ $ $ $ $ $ $ $ $ $ $ $ $ $ $ $ $ $ & & & $ $ $ $ $ $ $ $ $ $ $ $ $ % % = = > 3 x Z P { @.9.",
"$ $ $ $ $ $ $ $ $ $ $ $ $ $ $ $ $ $ $ $ $ $ $ & & $ $ $ $ $ $ $ $ $ $ & $ $ $ $ $ $ $ $ $ $ $ $ $ $ $ % % % = = > 3 b H P { $.9.",
"$ $ $ $ $ $ $ $ $ $ $ $ $ $ $ $ $ $ $ $ $ $ $ & & $ $ $ $ $ $ $ $ $ $ & & $ $ $ $ $ $ $ $ $ $ $ $ $ $ % % = = = > 3 b H P { $.q.",
"$ $ $ $ $ $ $ $ $ $ $ $ $ $ $ $ $ $ $ $ $ $ $ $ $ $ $ $ $ $ $ $ $ $ $ $ & & $ $ $ $ $ $ $ $ $ $ $ $ $ % % * = = > 3 b G T { $.q.",
"$ $ $ $ $ $ $ $ $ $ $ $ $ $ $ $ $ $ $ $ $ $ $ $ $ $ $ $ $ $ $ $ $ $ $ $ & $ $ $ $ $ $ $ $ $ $ $ $ $ $ % % * = = > 3 b G T { ,.q.",
"$ $ $ $ $ $ $ $ $ $ $ $ $ $ $ $ $ $ $ $ $ $ $ $ $ $ $ $ $ $ $ $ $ $ $ $ & $ $ $ $ $ $ $ $ $ $ $ $ $ $ % % = = = , 3 b G T { ,.q.",
"$ $ $ $ $ $ $ $ $ $ $ $ $ $ $ $ $ $ $ $ $ $ $ $ $ $ $ $ $ $ $ $ $ $ $ $ $ $ $ $ $ $ $ $ $ $ $ $ $ $ $ % % = = = , 3 b G T { ,.q.",
"$ $ $ $ $ $ $ $ $ $ $ $ $ $ $ $ $ $ $ $ $ $ $ $ $ $ $ $ $ $ $ $ $ $ $ $ $ $ $ $ $ $ $ $ $ $ $ $ $ $ % % * = = > > 3 M G T } ,.q.",
"$ $ $ $ $ $ $ $ $ $ $ $ $ $ $ $ $ $ $ $ $ $ $ $ $ $ $ $ $ $ $ $ $ $ $ % $ $ $ $ $ $ $ % $ $ $ $ $ $ % % = = = > > 3 M G E } ,.q.",
"$ $ $ $ $ $ $ $ $ $ $ $ $ % % $ $ $ $ $ $ $ $ $ $ $ $ $ $ % % $ $ $ $ $ $ $ $ $ $ $ $ $ $ % % $ $ $ % % = = = > > 3 M G E } ,.q.",
"$ % $ $ $ $ $ $ $ $ $ $ $ $ $ $ $ $ $ $ $ $ $ $ $ $ $ $ $ $ $ $ $ $ $ $ $ $ $ $ $ $ $ $ $ $ $ $ $ $ % % = = = > , 3 M G E } ,.q.",
"% % % % % % % % % % % % % % % % % % % % % % % % % % % % % % % % % % % % % % % % % % % % % % % % % % * * = = = > , 3 M G E { ,.q.",
"* * * * * * * * % % % % % * * * * * * * * * * * * * * * * * * * * * * * * * * * * % % % % * * * * * * = = = = > , 3 M G T { $.q.",
"* * * * * * * * * * * * * * * ; ; ; * * ; ; ; ; ; ; ; ; ; * * ; ; = * * ; ; ; * * * * * * * * ; ; ; ; ; ; = ; > , 3 M H P { $.q.",
"; ; ; ; ; ; ; ; ; * * * ; ; ; ; ; ; ; ; ; ; ; ; ; ; ; ; ; ; ; ; ; ; ; ; ; ; ; ; ; ; * * ; ; ; ; ; ; ; ; ; ; > > , 3 M H P { $.9.",
"; ; ; ; ; ; ; ; ; ; ; ; ; ; ; ; : : : : : : : : : : : : : : : : : : : : : : ; ; ; ; ; ; ; ; ; ; : : ; ; ; > > > , 3 M Z P ( o.6.",
": < < , : : ; ; ; ; ; ; ; ; : < : < : : : : : : : : : : : : : : : < : : : : : : ; ; ; ; ; ; : < < < < , > > > > , 3 M Z P ( o.4.",
"h h h h h u u u u u u u u u u h h n n n n n n n n n n n n n n n n n n n n h h u u u u u u u u h h n u u 2 2 < < 1 j M G P ( o.4.",
"^ ^ ^ ^ ^ ^ ^ ^ W ^ ^ ^ ^ ^ ^ ^ ^ ^ ^ ^ ^ ^ ^ ^ ^ ^ ^ ^ ^ ^ ^ ^ ^ ^ ^ ^ ^ ^ ^ ^ W W ^ ^ ^ ^ ^ ^ ^ ^ ^ P G A M j m A H Y W { o.6."
};
