/* XPM */
static const char *Y2FudG9zdXBkaXI_[] = {
/* columns rows colors chars-per-pixel */
"64 64 129 2 ",
"   c #5C524E",
".  c #4D4846",
"X  c #413F3F",
"o  c #413E3E",
"O  c #4B4844",
"+  c #454341",
"@  c #524848",
"#  c #554A4A",
"$  c #444242",
"%  c #494646",
"&  c #564A4A",
"*  c #545148",
"=  c #454343",
"-  c #464444",
";  c #594E4E",
":  c #3F3D3D",
">  c #484343",
",  c #4E4A4A",
"<  c #494643",
"1  c #4F4D49",
"2  c #4D4545",
"3  c #514848",
"4  c #504D4A",
"5  c #434141",
"6  c #464141",
"7  c #4A4848",
"8  c #4D4646",
"9  c #4A4343",
"0  c #423E3E",
"q  c #464343",
"w  c #4D4B4A",
"e  c #3E3C3C",
"r  c #444140",
"t  c #474441",
"y  c #403E3E",
"u  c #4E4A46",
"i  c #615451",
"p  c #594F4C",
"a  c #4A4743",
"s  c #504947",
"d  c #5D4F4F",
"f  c #444141",
"g  c #605150",
"h  c #4A4444",
"j  c #494747",
"k  c #424040",
"l  c #444040",
"z  c #474545",
"x  c #A22D29",
"c  c #444241",
"v  c #4C4944",
"b  c #494343",
"n  c #484542",
"m  c #9C2A26",
"M  c #AC3C3C",
"N  c #AD3C3C",
"B  c #AE3D3D",
"V  c #AF3E3E",
"C  c #B14141",
"Z  c #B14040",
"A  c #B03F3F",
"S  c #AE3F3D",
"D  c #AF413E",
"F  c #B04240",
"G  c #B24441",
"H  c #AD3D3D",
"J  c #AE3C3C",
"K  c #AF3F3E",
"L  c #AF403E",
"P  c #B04140",
"I  c #B14341",
"U  c #AF3D3D",
"Y  c #B04040",
"T  c #B14441",
"R  c #AC3D3C",
"E  c #B0403F",
"W  c #AE3E3D",
"Q  c #B14240",
"!  c #B24341",
"~  c #AC3F3C",
"^  c #AC3E3C",
"/  c #AF403F",
"(  c #AE403D",
")  c #AF403D",
"_  c #B24141",
"`  c #B24242",
"'  c #4E4848",
"]  c #5A4F4F",
"[  c #564E4C",
"{  c #AC3B3B",
"}  c #B14242",
"|  c #AF3F3F",
" . c #AB3B3B",
".. c #AE403E",
"X. c #AE3E3E",
"o. c #AD3D3C",
"O. c #AE3F3E",
"+. c #AD3E3E",
"@. c #564B4B",
"#. c #494743",
"$. c #4D4B47",
"%. c #AC3D3D",
"&. c #AB3D3B",
"*. c #AD3F3C",
"=. c #AE3F3C",
"-. c #AB3C3B",
";. c #AD3F3D",
":. c #AD403D",
">. c #4E4646",
",. c #574B4B",
"<. c #4E4949",
"1. c #AC3D3B",
"2. c #AE413E",
"3. c #AC3C3B",
"4. c #AD3F3E",
"5. c #AE3F3F",
"6. c #4E4B47",
"7. c #4F4C48",
"8. c #4A4747",
"9. c #4C4848",
"0. c #484442",
"q. c #434040",
"w. c #645353",
"e. c #504747",
"r. c #56514A",
"t. c #584C4C",
"y. c #AE403F",
"u. c #AA3A3A",
"i. c #AD3E3D",
/* pixels */
"            . . . . . . X X X X X X o o o o o o O O O O O O + + + + + + @ @ @ @ @ @ # # # # # # $ $ $ $ $ $ % % % % % % & & & & ",
"            . . . . . . X X X X X X o o o o o o O O O O O O + + + + + + @ @ @ @ @ @ # # # # # # $ $ $ $ $ $ % % % % % % & & & & ",
"            . . . . . . X X X X X X o o o o o o O O O O O O + + + + + + @ @ @ @ @ @ # # # # # # $ $ $ $ $ $ % % % % % % & & & & ",
"            . . . . . . X X X X X X o o o o o o O O O O O O + + + + + + @ @ @ @ @ @ # # # # # # $ $ $ $ $ $ % % % % % % & & & & ",
"            . . . . . . X X X X X X o o o o o o O O O O O O + + + + + + @ @ @ @ @ @ # # # # # # $ $ $ $ $ $ % % % % % % & & & & ",
"* * * * * * * * * * * * * * * * * * * * * * * * * * * * * * * * * * * * * * * * * * * * * * * * * * * * * * * * * * * * * * * * ",
"= = = = = = - - - - - - ; ; ; ; ; ; : : : : : : > > > > > > , , , , , , $ $ $ $ $ $ < < < < < < 1 1 1 1 1 1 2 2 2 2 2 2 3 3 3 3 ",
"= = = = = = - - - - - - ; ; ; ; ; ; : : : : : : > > > > > > , , , , , , $ $ $ $ $ $ < < < < < < 1 1 1 1 1 1 2 2 2 2 2 2 3 3 3 3 ",
"= = = = = = - - - - - - ; ; ; ; ; ; : : : : : : > > > > > > , , , , , , $ $ $ $ $ $ < < < < < < 1 1 1 1 1 1 2 2 2 2 2 2 3 3 3 3 ",
"= = = = = = - - - - - - ; ; ; ; ; ; : : : : : : > > > > > > , , , , , , $ $ $ $ $ $ < < < < < < 1 1 1 1 1 1 2 2 2 2 2 2 3 3 3 3 ",
"= = = = = = - - - - - - ; ; ; ; ; ; : : : : : : > > > > > > , , , , , , $ $ $ $ $ $ < < < < < < 1 1 1 1 1 1 2 2 2 2 2 2 3 3 3 3 ",
"* * * * * * * * * * * * * * * * * * * * * * * * * * * * * * * * * * * * * * * * * * * * * * * * * * * * * * * * * * * * * * * * ",
"4 4 4 4 4 4 5 5 5 5 5 5 6 6 6 6 6 6 7 7 7 7 7 7 8 8 8 8 8 8 9 9 9 9 9 9 0 0 0 0 0 0 q q q q q q w w w w w w : : : : : : e e e e ",
"4 4 4 4 4 4 5 5 5 5 5 5 6 6 6 6 6 6 7 7 7 7 7 7 8 8 8 8 8 8 9 9 9 9 9 9 0 0 0 0 0 0 q q q q q q w w w w w w : : : : : : e e e e ",
"4 4 4 4 4 4 5 5 5 5 5 5 6 6 6 6 6 6 7 7 7 7 7 7 8 8 8 8 8 8 9 9 9 9 9 9 0 0 0 0 0 0 q q q q q q w w w w w w : : : : : : e e e e ",
"4 4 4 4 4 4 5 5 5 5 5 5 6 6 6 6 6 6 7 7 7 7 7 7 8 8 8 8 8 8 9 9 9 9 9 9 0 0 0 0 0 0 q q q q q q w w w w w w : : : : : : e e e e ",
"4 4 4 4 4 4 5 5 5 5 5 5 6 6 6 6 6 6 7 7 7 7 7 7 8 8 8 8 8 8 9 9 9 9 9 9 0 0 0 0 0 0 q q q q q q w w w w w w : : : : : : e e e e ",
"* * * * * * * * * * * * * * * * * * * * * * * * * * * * * * * * * * * * * * * * * * * * * * * * * * * * * * * * * * * * * * * * ",
"r r r r r r q q q q q q = = = = = = t t t t t t O O O O O O y y y y y y u u u u u u i i i i i i p p p p p p a a a a a a e e e e ",
"r r r r r r q q q q q q = = = = = = t t t t t t O O O O O O y y y y y y u u u u u u i i i i i i p p p p p p a a a a a a e e e e ",
"r r r r r r q q q q q q = = = = = = t t t t t t O O O O O O y y y y y y u u u u u u i i i i i i p p p p p p a a a a a a e e e e ",
"r r r r r r q q q q q q = = = = = = t t t t t t O O O O O O y y y y y y u u u u u u i i i i i i p p p p p p a a a a a a e e e e ",
"r r r r r r q q q q q q = = = = = = t t t t t t O O O O O O y y y y y y u u u u u u i i i i i i p p p p p p a a a a a a e e e e ",
"* * * * * * * * * * * * * * * * * * * * * * * * * * * * * * * * * * * * * * * * * * * * * * * * * * * * * * * * * * * * * * * * ",
"s s s s s s d d d d d d 5 5 5 5 5 5 f f f f f f g g g g g g h h h h h h j j j j j j k k k k k k l l l l l l z z z z z z 7 7 7 7 ",
"s s s s s s d d d d d d 5 5 5 5 5 5 f f f f f f g g g g g g h h h h h h j j j j j j k k k k k k l l l l l l z z z z z z 7 7 7 7 ",
"s s s s s s d d d d d d 5 5 5 5 5 5 f f f f f f g g g g g g h h h h h h j j j j j j k k k k k k l l l l l l z z z z z z 7 7 7 7 ",
"s s s s s s d d d d d d 5 5 5 5 5 5 f f f f f f g g g g g g h h h h h h j j j j j j k k k k k k l l l l l l z z z z z z 7 7 7 7 ",
"s s s s s s d d d d d d 5 5 5 5 5 5 f f f f f f g g g g g g h h h h h h j j j j j j k k k k k k l l l l l l z z z z z z 7 7 7 7 ",
"* * * * * * * * * * * * * * * * * * * * * * * * * * * * * * * * * * * * * * * * * * * * * * * * * * * * * * * * * * * * * * * * ",
"x x x x x x x x x x x x x x x x x x x x x x x x x x x x x x x x x x < < c c c c c c v v v v v v b b b b b b b b b b b b n n n n ",
"m m m m m m m m m m m m m m m m m m m m m m m m m m m m m m m m m x < < c c c c c c v v v v v v b b b b b b b b b b b b n n n n ",
"M M N N M M B B B B V C C C C Z Z Z Z A B B B S V D D D F G G G m x < < c c c c c c v v v v v v b b b b b b b b b b b b n n n n ",
"M M M M M M H B B J V C C C C Z Z Z Z A B B B B V K L D P I G G m x < < c c c c c c v v v v v v b b b b b b b b b b b b n n n n ",
"M M M M M M N B J J U Z Z Z Z Y Y Z Z A B B B B V V K L P I T G m x < < c c c c c c v v v v v v b b b b b b b b b b b b n n n n ",
"R R M M M M N J J J B Y Y Y Y Y Y Y Y E W W W W K K K K Q C I ! m x * * * * * * * * * * * * * * * * * * * * * * * * * * * * * * ",
"~ ^ M M M M N N N N B Y Y Y Y Y Y Y Y / ( ) ) ) D D D E Z _ _ ` m x X X j j j j j j y y y y y y ' ' ' ' ' ' ] ] ] ] ] ] [ [ [ [ ",
"~ R M M M M N N { { B Y Y Y Y Y Y Y Y / ( ( ) ) D D D L Z C C } m x X X j j j j j j y y y y y y ' ' ' ' ' ' ] ] ] ] ] ] [ [ [ [ ",
"M M M M M M N { { { H Y Y Y Y Y Y Y Y / ( ( ( ) D D D D P C C C m x X X j j j j j j y y y y y y ' ' ' ' ' ' ] ] ] ] ] ] [ [ [ [ ",
"M M M M M M { { { { N A A A A | A Y Y | S ( ( ( D D D D P C C C m x X X j j j j j j y y y y y y ' ' ' ' ' ' ] ] ] ] ] ] [ [ [ [ ",
" . . . . . . . . . .N A A A A V V K L ..X.X.X.X.N N N o.O.| | | m x X X j j j j j j y y y y y y ' ' ' ' ' ' ] ] ] ] ] ] [ [ [ [ ",
" . . . . . . . . . .N A A A A X.V V O.O.X.+.+.+.N M M R W | | | m x * * * * * * * * * * * * * * * * * * * * * * * * * * * * * * ",
" . . . . . . . . . .N A | | | X.X.X.X.X.+.+.+.+.M M M M B | | | m x @.@.$ $ $ $ $ $ #.#.#.#.#.#.$.$.$.$.$.$.$ $ $ $ $ $ - - - - ",
" . . . . . . . . . .M | | | | X.X.X.X.X.H +.+.H M M M M B V | | m x @.@.$ $ $ $ $ $ #.#.#.#.#.#.$.$.$.$.$.$.$ $ $ $ $ $ - - - - ",
"M  . . . . . . . . .M | | | | H H H H H M %.M N &.&.&.&.H B X.B m x @.@.$ $ $ $ $ $ #.#.#.#.#.#.$.$.$.$.$.$.$ $ $ $ $ $ - - - - ",
"M M  . . . . . . . .M | | | | %.%.%.%.H M M M N &.&.&.&.^ *.*.=.m x @.@.$ $ $ $ $ $ #.#.#.#.#.#.$.$.$.$.$.$.$ $ $ $ $ $ - - - - ",
"M M  . . . . . . . .M | | | | %.%.%.%.H M M M N &.&.&.&.^ *.*.=.m x @.@.$ $ $ $ $ $ #.#.#.#.#.#.$.$.$.$.$.$.$ $ $ $ $ $ - - - - ",
"M M  . . . . . . . .M | | | | %.%.%.H H M M { N &.&.&.&.^ ~ *.=.m x * * * * * * * * * * * * * * * * * * * * * * * * * * * * * * ",
"M M { {  . . . . . .M | | | | %.%.%.H H M { { N -.-.-.-.^ ;.;.:.m x , , - - - - - - >.>.>.>.>.>.,.,.,.,.,.,.<.<.<.<.<.<.e e e e ",
"M M N N M M {  . . .M | | | | %.%.H H M { { { 1.{ {  . .H X.O.2.m x , , - - - - - - >.>.>.>.>.>.,.,.,.,.,.,.<.<.<.<.<.<.e e e e ",
"M M N N N M {  . . .H Y Y Y Y H H H H N { { 3.-. . . . .H X...2.m x , , - - - - - - >.>.>.>.>.>.,.,.,.,.,.,.<.<.<.<.<.<.e e e e ",
"M M N N N M { {  . .H Y Y Y Y H H H H M { 3.3. . . . . .H X.O.4.m x , , - - - - - - >.>.>.>.>.>.,.,.,.,.,.,.<.<.<.<.<.<.e e e e ",
"M M N N N N { { { { H Y Y Y Y H H H H M 3.-. . . . . .{ H X.+.+.m x , , - - - - - - >.>.>.>.>.>.,.,.,.,.,.,.<.<.<.<.<.<.e e e e ",
" .M H N N N N M M M H | | | | X.X.X.X.W *.o.N N X.X.X.X.5.X.X...m x * * * * * * * * * * * * * * * * * * * * * * * * * * * * * * ",
" .M H H N N N N N M H | | | | V X.X.X.W o.N N M X.X.X.X.X.X.O.L m x 6.6.7.7.7.7.7.7.8.8.8.8.8.8.9.9.9.9.9.9.0.0.0.0.0.0.n n n n ",
" .M H H H N N N N N B | | | | V 5.5.5.W o.N N %.X.X.X.X.+.X.X.V m x 6.6.7.7.7.7.7.7.8.8.8.8.8.8.9.9.9.9.9.9.0.0.0.0.0.0.n n n n ",
" .M H H H H N N N N B Y Y Y Y | 5.5.5.B N H %.%.X.X.X.+.+.X.X.X.m x 6.6.7.7.7.7.7.7.8.8.8.8.8.8.9.9.9.9.9.9.0.0.0.0.0.0.n n n n ",
" . .M M M M { { { { N | | V V X.X.X.X.B H H %.%.| 5.X.+.+.+.+.+.m x 6.6.7.7.7.7.7.7.8.8.8.8.8.8.9.9.9.9.9.9.0.0.0.0.0.0.n n n n ",
" . . . . . .{ { { { N V V U U U B B B B H H %.%.5.5.5.+.+.+.+.+.m x 6.6.7.7.7.7.7.7.8.8.8.8.8.8.9.9.9.9.9.9.0.0.0.0.0.0.n n n n ",
" . . . . . .{ { { { N V V U U U B B B B +.+.H H 5.5.5.+.+.+.H H m x * * * * * * * * * * * * * * * * * * * * * * * * * * * * * * ",
" . . . . . .{ { { { N V V U U U U X.X.X.+.+.H H 5.5.+.+.+.H H B m x q.q.w.w.w.w.w.w.e.e.e.e.e.e.X X X X X X r.r.r.r.r.r.t.t.t.t.",
"{  . . . . .{ {  . .M U B B B V V X.X.X.+.X.H H y.O.+.+.+.B B B m x q.q.w.w.w.w.w.w.e.e.e.e.e.e.X X X X X X r.r.r.r.r.r.t.t.t.t.",
"N { u.u.u.u.u.u.u.u. .J N N N A A | | K S B H H 2...+.+.+.H H H m x q.q.w.w.w.w.w.w.e.e.e.e.e.e.X X X X X X r.r.r.r.r.r.t.t.t.t.",
"N { u.u.u.u.u.u.u.u. .J N N N A | | | K S W B H ....+.+.+.i.H H m x q.q.w.w.w.w.w.w.e.e.e.e.e.e.X X X X X X r.r.r.r.r.r.t.t.t.t."
};
