/* XPM */
static const char *Y2FudG9pbmZlc3E_[] = {
/* columns rows colors chars-per-pixel */
"64 64 175 2 ",
"   c #5A4B3E",
".  c #5C4E42",
"X  c #5E5146",
"o  c #5F5349",
"O  c #605347",
"+  c #61564B",
"@  c #63594E",
"#  c #695D4F",
"$  c #655D54",
"%  c #695F54",
"&  c #675F58",
"*  c #676057",
"=  c #6A6156",
"-  c #676058",
";  c #6B645B",
":  c #6E695F",
">  c #6E685F",
",  c #6D685F",
"<  c #6F695E",
"1  c #71665A",
"2  c #71665B",
"3  c #70665C",
"4  c #71675A",
"5  c #72685D",
"6  c #70695F",
"7  c #72695E",
"8  c #74695D",
"9  c #74695E",
"0  c #756A5F",
"q  c #756B5F",
"w  c #726A5E",
"e  c #6E6860",
"r  c #6E6960",
"t  c #6F6960",
"y  c #6E6A60",
"u  c #6E6A61",
"i  c #6F6A61",
"p  c #6F6A60",
"a  c #6F6A60",
"s  c #706960",
"d  c #716960",
"f  c #706A61",
"g  c #716A61",
"h  c #736B61",
"j  c #716B62",
"k  c #726B62",
"l  c #756B61",
"z  c #716C62",
"x  c #716D63",
"c  c #726C62",
"v  c #726C63",
"b  c #726D63",
"n  c #736D63",
"m  c #776D61",
"M  c #766D62",
"N  c #756E63",
"B  c #776E63",
"V  c #726D64",
"C  c #736D64",
"Z  c #736E64",
"A  c #756F64",
"S  c #756E64",
"D  c #766F65",
"F  c #776F65",
"G  c #766F64",
"H  c #756F66",
"J  c #776F66",
"K  c #726D62",
"L  c #796F63",
"P  c #7A6F65",
"I  c #796E62",
"U  c #777065",
"Y  c #767066",
"T  c #777066",
"R  c #767167",
"E  c #777167",
"W  c #747065",
"Q  c #797064",
"!  c #7A7064",
"~  c #7B7165",
"^  c #787167",
"/  c #7B7266",
"(  c #7D7467",
")  c #7B7266",
"_  c #767168",
"`  c #777168",
"'  c #767068",
"]  c #767268",
"[  c #787368",
"{  c #7B7368",
"}  c #7D7368",
"|  c #7B7469",
" . c #7B746A",
".. c #7B756A",
"X. c #7B766B",
"o. c #7C7569",
"O. c #7F7469",
"+. c #7C756B",
"@. c #7C756A",
"#. c #7D766B",
"$. c #7E766A",
"%. c #7C756C",
"&. c #7C766C",
"*. c #7F776C",
"=. c #7D756A",
"-. c #7E786D",
";. c #7F786E",
":. c #7E786F",
">. c #7F7A70",
",. c #81776C",
"<. c #80796C",
"1. c #81796E",
"2. c #81796F",
"3. c #80786E",
"4. c #807A6F",
"5. c #817A6F",
"6. c #827A6F",
"7. c #83796E",
"8. c #807A70",
"9. c #817A70",
"0. c #837B70",
"q. c #847D72",
"w. c #857E73",
"e. c #867E73",
"r. c #877F73",
"t. c #857E74",
"y. c #867E74",
"u. c #827D72",
"i. c #887E74",
"p. c #868076",
"a. c #8B8277",
"s. c #868278",
"d. c #8D867C",
"f. c #8E887F",
"g. c #90877D",
"h. c #91887E",
"j. c #8F8B82",
"k. c #928B82",
"l. c #988F85",
"z. c #969087",
"x. c #999087",
"c. c #979188",
"v. c #9B948C",
"b. c #9E988E",
"n. c #9D9790",
"m. c #9D9991",
"M. c #A2988F",
"N. c #A49D95",
"B. c #A89F97",
"V. c #A6A097",
"C. c #A6A099",
"Z. c #AAA49C",
"A. c #ADA7A0",
"S. c #AEA9A1",
"D. c #B2ADA6",
"F. c #B4AFA9",
"G. c #B6B1AB",
"H. c #BBB5AF",
"J. c #BBB6B0",
"K. c #BFBAB4",
"L. c #C0BAB5",
"P. c #C3BFBA",
"I. c #C6C1BC",
"U. c #CAC4BF",
"Y. c #CAC5C0",
"T. c #CFC9C4",
"R. c #D0CAC5",
"E. c #D2CDC9",
"W. c #D7D2CE",
"Q. c #DBD6D2",
"!. c #DFDAD7",
"~. c #E3DFDC",
"^. c #E4E0DE",
"/. c #E7E3E0",
"(. c #E8E4E2",
/* pixels */
"! ! ! ! ! ( o.o.*.<.<.<.0.e.e.t.t.t.t.e.e.e.e.e.t.t.e.t.t.t.t.t.t.t.t.t.t.t.t.t.t.e.e.e.e.e.e.e.e.e.e.e.t.t.t.t.t.t.t.t.t.t.t.t.",
"m m m L L ! ! { | o.o.*.;.;.<.0.0.0.<.<.<.<.<.<.<.<.0.0.0.0.0.0.0.0.0.0.0.0.>.0.<.0.<.<.<.<.<.<.<.<.<.0.<.0.0.0.0.0.0.0.0.<.;.<.",
"8 8 8 8 8 m m ! Y { { | | | *.*.*.o.o.| o.o.o.| o.o.*.o.*.*.*.| | | | | | | | | | o.| | | | { | | | | o.| | | | | | | | | | | | ",
"1 1 1 1 7 7 h n H H Y Y Y Y ` ` { ! Y H H H H H Y ! ! ` ` ` ` ` ` ` ` ` ` ` ` ` ` Y Y H H H m H H H Y Y ` ` ` ` ` ` ` ` Y Y Y Y ",
"= = = ; ; 3 7 7 h n n Z Z Z Z Z n n h h h h h h h n n Z Z Z Z Z n n n n Z Z Z Z n n h h h , , , e e h n n n n n n n n n Z Z n Z ",
"= = = = = ; ; > , e e e e e e e e e , > > > > > , , e e e e e e e e e e e e e e e , , > > ; ; ; > > , , e e e e e e e e e e e e ",
"% % % = = ; ; > > , , e e e e e , > > > ; ; ; > > > , e e e e e e e e e e e e e , > > > ; ; = ; ; > > > , , e , , , , , e e e e ",
"% % % = = = ; ; > > > > > , , e > > > ; = = = ; ; > > , , , , , > > > > > e e e > > > ; = = = = = ; ; > > > > > ; ; ; > , , ; ; ",
"% % % % = = = ; > ; ; ; ; ; > ; ; ; = = = = = = = ; ; > > > > > > > > > > > ; ; > ; ; = = = = = = = ; ; ; ; ; ; ; ; ; ; ; ; ; ; ",
"% % % % = = = = ; ; ; ; ; ; ; ; ; = = = = % % = = = ; ; ; ; ; ; ; ; ; ; ; ; ; ; ; ; = = = = % = = = = ; ; ; ; ; ; ; ; ; ; ; ; ; ",
"% % % % % = = = = = = = ; ; ; ; = = = $ $ $ $ $ = = = ; ; ; ; ; ; ; ; ; ; ; ; ; ; = = = % $ $ $ $ = = = ; ; ; ; ; ; ; ; ; ; ; ; ",
"% % % = = = = = = = = = = = = = - * $ $ $ $ $ $ $ $ = = = = = = = = = = = = = = = = * $ $ $ $ $ $ $ * - - = = = = = = = = = = = ",
"8 8 8 8 7 > ; = = * * * $ $ $ $ $ $ $ $ $ @ @ $ $ $ $ $ $ $ $ $ $ $ $ $ $ $ $ $ $ $ $ $ $ $ @ $ $ $ $ $ $ $ $ $ $ $ $ $ $ $ $ $ ",
",.,.o.} P l 7 ; = $ $ $ $ $ $ $ $ $ @ + + + + + @ $ $ $ $ $ $ $ $ $ $ $ $ $ $ $ $ $ $ @ @ + + + @ @ @ @ @ @ $ $ $ $ $ $ $ $ $ $ ",
"i.i.i.e.,.! l ; = $ $ $ @ @ @ @ + + + + O X O + + + + + + + + + + + + + + + + + + + + + + + + + + + + + + + + + + + + + + + + @ ",
"h.h.h.g.i.,.! 3 = @ @ @ @ + + + o o o X X X X X X X o o o o o o o o o o o o o o o o o o X X X X X X X X X X X X o o o o o o o o ",
"v.v.v.l.g.e.} 8 = @ + + + + X X X X . . . . . . . . . X X X X X X X X X X X X X X X X X X . . . . . . . . . . . . . X X X X X X ",
"B.B.B.M.l.a.,.8 = + + O O X . . . . . .             . . . . . . . . . . . . . . . . . . . . . .                     . . . . . . ",
"B.B.B.N.l.a.<.L = @ + + + O X X X . . . . . . . . . . . . . . . . . . . . . . . . . . . . X X . . . .       . . . . . . . . . . ",
"B.B.B.N.l.d.<.L = @ @ @ + + + X X X X X . . . X X X X X X X X X X X X X X X X X X X X X X X X X X X X . . . . X X X X X X X X X ",
"B.B.B.N.x.d.6.! 1 # @ @ @ + + + + + + o o X o o o o + + + + + + + + o + + + o o o + + + + + + + + o X X X X X X o o + + + + + + ",
"C.C.C.N.x.g.e.! 1 % # # @ @ @ + + + + + + + + + + + + + @ @ @ @ @ @ @ + + + + + + + + + @ @ @ + + + + + O O + + + + + + + @ @ @ ",
"C.C.C.B.v.h.e.} 4 = % % $ $ $ @ @ @ @ @ @ @ @ @ @ @ $ $ $ $ $ $ $ $ $ $ $ $ $ $ @ $ $ $ $ $ $ $ @ @ @ + + + + @ @ @ $ $ $ $ $ $ ",
"C.C.C.B.v.h.t.o.7 = = % $ $ $ $ $ $ $ $ $ $ $ $ $ $ $ $ $ $ $ $ $ $ $ $ $ $ $ $ $ $ $ $ $ $ $ $ $ $ $ $ @ @ $ $ $ $ $ $ $ $ $ $ ",
"C.C.Z.B.v.k.p.o.w = = = % $ $ $ $ $ $ $ $ $ $ $ $ $ $ $ $ $ $ $ $ $ $ $ $ $ $ $ $ $ $ $ $ $ $ $ $ $ $ $ $ $ $ $ $ $ $ $ $ $ $ $ ",
"C.C.Z.B.v.k.i.o.w = = = = * $ $ $ $ $ $ $ $ $ $ $ $ $ $ $ $ $ $ $ $ $ $ $ $ $ $ $ $ $ $ $ $ * $ $ $ $ $ $ $ $ $ $ $ $ $ $ $ $ $ ",
"C.C.C.V.v.k.i.o.w = = = = $ $ $ $ $ $ $ $ $ $ $ $ $ $ $ $ $ $ $ $ $ $ $ $ $ $ $ $ $ $ $ $ $ $ $ $ $ $ $ $ $ $ $ $ $ $ $ $ $ $ $ ",
"C.C.C.B.v.k.t.o.w = = = = = $ $ $ $ $ $ $ $ $ $ $ $ $ $ $ $ $ $ * * $ $ $ $ $ $ $ $ $ $ $ * $ $ $ $ $ $ $ $ $ $ $ $ $ $ $ $ $ $ ",
"Z.Z.Z.V.v.k.p.o.w = = = = = * * $ $ $ $ $ $ $ $ $ $ $ $ $ * - - $ $ $ $ $ $ $ $ $ $ $ $ $ $ * $ $ $ $ $ $ $ $ $ $ $ $ $ $ $ $ $ ",
"Z.Z.Z.V.v.k.p.o.w = = = = = = - * $ $ $ & - & $ & $ $ $ $ $ - - $ $ & $ $ $ $ $ $ $ $ $ * $ - - * * * * $ $ * * * * - - - - - - ",
"Z.Z.Z.V.v.k.t.o.7 = = = = = = - * * $ $ - - - - $ $ $ $ & & - - $ $ $ $ $ $ $ $ $ $ $ $ $ $ - - * * * * * * * * * - - - - - - - ",
"C.C.C.B.v.k.t.o.7 = = = = = * * * $ $ $ - & $ $ $ $ $ $ $ $ $ & $ $ $ $ $ $ $ $ $ $ $ $ $ $ - * $ $ * $ $ $ $ $ $ $ & - - - - - ",
"C.C.C.B.v.h.e.( 4 = = = = = * * & & & $ $ $ $ $ $ $ $ $ $ $ $ $ $ $ $ $ $ $ $ $ $ $ $ $ $ & - & $ $ $ $ $ $ $ $ $ $ $ & & & & & ",
"C.C.C.B.v.h.e.} 4 % % % % % $ $ & & $ $ $ $ $ $ $ $ $ $ $ $ $ $ $ $ $ $ $ $ $ $ $ $ $ $ & & & & $ $ $ $ $ $ $ $ $ $ $ $ & & $ $ ",
"Z.Z.C.B.v.h.e.} 1 % % % % $ $ $ & & $ $ $ $ $ $ $ $ $ $ $ $ $ $ $ $ $ $ $ $ $ $ $ $ $ $ $ $ & & $ $ $ $ $ $ $ $ $ & $ $ & & & & ",
"C.C.C.B.v.h.e.} 1 # % % % $ $ $ & $ $ $ $ $ $ $ $ $ $ $ $ $ $ $ $ $ $ $ $ $ $ $ $ $ $ $ $ $ $ $ $ $ $ $ $ $ $ $ $ $ & & & & & & ",
"Z.Z.C.B.v.h.e.} 1 # % % % $ $ $ & $ $ $ $ $ $ $ $ $ $ $ $ $ $ $ $ $ $ $ $ $ $ $ $ $ $ $ $ $ $ $ $ $ $ $ $ $ $ $ $ $ & & & & $ $ ",
"Z.Z.Z.B.v.h.e.} 4 % % % % $ $ $ $ $ $ $ $ $ $ $ $ $ $ $ $ $ $ $ $ $ $ $ $ $ $ $ $ $ $ $ $ $ $ $ $ $ $ $ $ $ $ $ $ $ $ & $ $ $ $ ",
"Z.Z.Z.C.v.k.i.o.8 = = = = % $ $ $ $ $ $ $ $ $ $ $ $ $ $ $ $ $ $ $ $ $ $ $ $ $ $ $ $ $ $ $ $ & $ $ $ $ $ $ $ $ $ $ $ $ $ $ $ $ $ ",
"Z.Z.Z.C.v.l.p.o.q = = = = % $ $ $ $ $ $ $ $ $ $ $ $ $ $ $ $ $ $ $ $ $ $ $ $ $ $ $ $ $ $ $ $ $ $ $ $ $ $ $ $ $ $ $ $ $ $ $ $ $ $ ",
"Z.Z.Z.C.b.l.p.;.m ; ; = = = $ $ $ $ $ $ $ $ $ $ $ $ $ $ $ $ $ $ $ $ $ $ $ $ $ $ $ $ $ $ $ $ $ $ $ $ $ $ $ $ $ $ $ $ $ $ $ $ $ $ ",
"A.A.A.C.m.l.d.<.Y < ; ; = = $ $ $ $ $ $ $ $ & & & & & & $ $ $ $ $ $ $ $ $ $ $ $ $ $ $ $ $ $ $ $ $ $ $ $ $ $ $ $ $ $ $ $ $ $ $ $ ",
"S.S.S.Z.N.z.d.u.! 7 ; ; = = % $ $ $ $ $ $ $ $ $ & & & & $ $ $ $ $ $ $ $ $ $ $ $ $ $ $ $ $ $ $ $ $ $ $ $ $ $ $ $ $ $ $ $ $ $ $ $ ",
"S.S.S.Z.N.z.d.u.! 7 , ; = = % $ $ $ $ $ $ $ $ $ $ $ $ $ $ $ $ $ $ $ $ $ $ $ $ $ $ $ $ $ $ $ $ $ $ $ $ $ $ $ $ $ $ $ $ $ $ $ $ $ ",
"S.S.S.Z.N.c.d.u.! 7 , ; ; = % $ $ $ $ $ $ $ $ $ $ $ $ $ $ $ $ $ $ $ $ $ $ $ $ $ $ $ $ $ $ $ $ $ $ $ $ $ $ $ $ $ $ $ $ $ $ $ $ $ ",
"S.S.S.Z.N.c.d.e.| w 7 ; ; = % $ $ $ $ $ $ $ $ $ $ $ $ $ $ $ $ $ $ $ $ $ $ $ $ $ $ $ $ $ $ $ $ $ $ $ $ $ $ $ $ $ $ $ $ $ $ $ $ $ ",
"S.S.S.Z.N.v.f.t.| n 7 > ; = % $ $ $ $ $ $ $ $ $ $ $ $ $ $ $ $ $ $ $ $ $ $ $ $ $ $ $ $ $ $ $ $ $ $ $ $ $ $ $ $ $ $ $ $ $ $ $ $ $ ",
"S.S.S.Z.N.v.f.t.| n 7 > ; = = $ $ $ $ $ $ $ $ $ $ $ $ $ $ $ $ $ $ $ $ $ $ $ $ @ @ @ $ $ $ $ $ $ $ $ $ $ $ $ $ $ $ $ $ $ $ $ $ $ ",
"S.S.S.Z.N.v.f.t.o.m 7 , ; = = $ $ $ $ $ $ $ $ $ $ $ $ $ $ $ $ $ $ $ $ $ $ $ $ @ @ $ $ $ $ $ $ $ $ $ $ $ $ $ $ $ $ $ $ $ $ $ $ $ ",
"S.S.S.Z.N.v.f.p.| n n 7 > ; = = = % % % % % % % % % % % % % % % % % % % % % % % $ % % % % % % % % % % % % % % % % % % % % % % % ",
"S.S.S.Z.N.v.j.p.&.Z n h 7 > ; = = = = = = = = = = = = = = = = = = = = = = = = = = = = = = = % = = = = = = = = = = = = = = = = = ",
"S.S.S.Z.N.v.j.p.*.Y n n h 7 , > > > ; ; ; ; ; ; ; ; ; > > > > ; > > > ; ; ; ; ; ; ; ; ; ; ; ; ; ; ; ; ; > > > > > > > > > > > ; ",
"S.S.S.Z.N.v.j.p.;.Y Z Z n n h e , , , > > ; > > , , , , , , , , , , , , , , , , , , , > > > > > > , , , , , , , , , , , , , , , ",
"S.S.S.Z.N.v.k.s.;.Y Y W Z Z Z n n n h h h 7 7 h h h n n n n n n n n n n n n n n n n h h h h h 7 e e h n n n n n n n n n n n n n ",
"S.S.S.Z.N.v.k.s.;.` ` Y Y Y Y Y W Z Z n n n n n n Z Z W Y Y Y Y W W Y Y Y Y Y Y W Z Z n Z n h n n n Z Z W Y Y Y Y Y Y Y Y Y Y Y ",
"G.G.G.D.Z.N.v.j.s.u.u.u.u.u.u.u.0.>.>.>.;.*.;.;.>.>.0.>.u.u.u.u.>.>.u.u.u.u.u.u.u.0.>.>.;.;.*.;.;.>.>.0.u.u.u.u.u.u.u.>.u.u.u.u.",
"K.K.K.J.F.S.V.m.c.k.k.k.j.j.j.j.j.j.j.j.d.d.d.f.j.j.j.j.j.j.j.j.j.j.j.j.j.j.j.j.j.j.j.j.f.d.d.d.f.j.j.j.j.j.j.j.j.j.j.j.j.j.j.j.",
"U.U.U.I.K.H.D.Z.B.m.m.m.m.m.m.m.m.m.n.v.v.v.v.v.n.m.m.m.m.m.m.m.m.m.m.m.m.m.m.m.m.m.m.v.v.v.v.v.v.v.m.m.m.m.m.m.m.m.m.m.m.m.m.m.",
"E.E.E.T.Y.P.K.G.D.S.S.S.S.S.S.S.S.A.A.Z.Z.Z.Z.Z.Z.A.A.S.S.S.S.S.S.S.S.S.S.S.S.S.S.A.A.Z.Z.Z.Z.Z.Z.Z.A.A.S.S.S.S.S.S.S.S.S.S.S.S.",
"Q.Q.Q.Q.E.T.Y.P.L.J.J.J.J.J.J.J.H.H.H.H.H.H.H.H.H.H.H.J.J.J.J.J.J.J.J.J.J.J.J.J.J.H.H.H.H.H.H.H.H.H.H.H.J.J.J.J.J.J.J.J.J.J.J.J.",
"^.^.^.~.!.Q.W.E.T.U.U.U.U.U.U.U.U.U.U.U.U.U.U.U.U.U.U.U.U.U.U.U.U.U.U.U.U.U.U.U.U.U.U.U.U.U.U.U.U.U.U.U.U.U.U.U.U.U.U.U.U.U.U.U.",
"(.(.(./.~.!.Q.W.E.R.R.R.R.R.R.R.R.R.R.R.T.T.T.R.R.R.R.R.R.R.R.R.R.R.R.R.R.R.R.R.R.R.R.R.R.T.T.T.R.R.R.R.R.R.R.R.R.R.R.R.R.R.R.R.",
"(.(.(./.~.!.Q.W.E.R.R.R.R.R.R.R.R.R.R.R.T.T.T.R.R.R.R.R.R.R.R.R.R.R.R.R.R.R.R.R.R.R.R.R.R.T.T.T.R.R.R.R.R.R.R.R.R.R.R.R.R.R.R.R.",
"(.(.(./.~.!.Q.W.E.R.R.R.R.R.R.R.R.R.R.R.T.T.T.R.R.R.R.R.R.R.R.R.R.R.R.R.R.R.R.R.R.R.R.R.R.T.T.T.R.R.R.R.R.R.R.R.R.R.R.R.R.R.R.R."
};
