/* XPM */
static const char *Y2FudG9pbmZkaXI_[] = {
/* columns rows colors chars-per-pixel */
"64 64 136 2 ",
"   c #5C4B3D",
".  c #5C4E42",
"X  c #5E5145",
"o  c #5F5349",
"O  c #615244",
"+  c #61564B",
"@  c #64594E",
"#  c #695B4E",
"$  c #655D54",
"%  c #695E53",
"&  c #675F58",
"*  c #666057",
"=  c #6B6156",
"-  c #676058",
";  c #6B645B",
":  c #6E695F",
">  c #706355",
",  c #71675A",
"<  c #71695E",
"1  c #786B5E",
"2  c #6E6960",
"3  c #726D62",
"4  c #7A6E61",
"5  c #757066",
"6  c #7C7266",
"7  c #767168",
"8  c #7C756A",
"9  c #7F796E",
"0  c #7F7A70",
"q  c #81796E",
"w  c #837D72",
"e  c #8A7E73",
"r  c #868277",
"t  c #8D8177",
"y  c #858078",
"u  c #868179",
"i  c #87827A",
"p  c #8A847C",
"a  c #8C877F",
"s  c #8D867D",
"d  c #8E887F",
"f  c #90857B",
"g  c #91887D",
"h  c #8F8A81",
"j  c #8F8A81",
"k  c #928D84",
"l  c #958D84",
"z  c #958F88",
"x  c #949086",
"c  c #979089",
"v  c #97918A",
"b  c #98928B",
"n  c #99948D",
"m  c #9C968F",
"M  c #9D968E",
"N  c #9E9991",
"B  c #9D9991",
"V  c #A1968D",
"C  c #A2988F",
"Z  c #A09B94",
"A  c #A39E96",
"S  c #A39B92",
"D  c #A7A19B",
"F  c #A7A29B",
"G  c #A7A29C",
"H  c #A7A098",
"J  c #A8A29C",
"K  c #A9A39D",
"L  c #ABA49E",
"P  c #ACA59E",
"I  c #ACA7A0",
"U  c #ADA7A0",
"Y  c #AEA8A1",
"T  c #AEA9A2",
"R  c #ADA8A1",
"E  c #B0ABA4",
"W  c #B1ADA6",
"Q  c #B3ACA5",
"!  c #B5AFA8",
"~  c #B7B0AA",
"^  c #B8B2AD",
"/  c #B9B3AD",
"(  c #B9B3AE",
")  c #BAB5AF",
"_  c #BBB4AE",
"`  c #BCB6B0",
"'  c #BDB7B2",
"]  c #BCB6B0",
"[  c #BFB9B3",
"{  c #BEB9B4",
"}  c #BEB8B2",
"|  c #C0BBB5",
" . c #C1BCB6",
".. c #C3BDB8",
"X. c #C3BFB9",
"o. c #C7C2BD",
"O. c #CAC4BF",
"+. c #CAC4BE",
"@. c #CAC4C0",
"#. c #CAC5C0",
"$. c #CBC6C1",
"%. c #CCC6C1",
"&. c #CCC7C2",
"*. c #CCC6C1",
"=. c #CDC8C3",
"-. c #CEC9C4",
";. c #CFC9C4",
":. c #D0CAC5",
">. c #D1CDC8",
",. c #D4CDC9",
"<. c #D7D1CD",
"1. c #D7D1CE",
"2. c #D7D2CE",
"3. c #D6D2CE",
"4. c #D8D2CE",
"5. c #D8D3CF",
"6. c #D8D3D0",
"7. c #D9D3D0",
"8. c #D9D4D0",
"9. c #DAD5D1",
"0. c #D9D6D3",
"q. c #DBD9D5",
"w. c #DFDBD8",
"e. c #DEDBD9",
"r. c #E1DDDA",
"t. c #E4E1DF",
"y. c #E6E2E0",
"u. c #E7E3E0",
"i. c #E9E6E4",
"p. c #EBE8E6",
"a. c #EFEDEB",
"s. c #F0EEED",
"d. c #F1F0EF",
"f. c #F4F3F2",
"g. c #F9F8F7",
"h. c #FFFFFE",
/* pixels */
"w w w w w w w w w w w w w w w w w w w w w w w w w w w w w w w w w w w w w w w w w w w w w w w w w w w w w w q 9 9 r x A W  .-.0.",
"w w w w w w w q w q q q q q q q q q w q w w w w w w w w q 9 q q 9 q q q q q q q q q q q q q q q q 9 9 9 9 9 9 9 8 w k Z E } =.0.",
"8 8 8 8 8 8 8 8 8 8 8 8 8 8 8 8 8 8 8 8 8 8 8 8 8 8 8 8 8 8 8 8 8 8 8 8 8 8 8 8 8 8 8 8 8 8 8 8 8 8 8 8 8 8 8 7 7 w h B R ` %.4.",
"7 7 7 7 7 7 7 7 7 3 3 3 3 3 3 3 3 7 7 7 7 7 7 7 7 7 7 7 7 7 7 7 7 7 7 3 3 3 3 3 3 3 3 3 3 3 3 3 7 3 7 7 7 3 3 3 3 9 s m I ` #.4.",
"3 3 3 3 3 3 3 3 3 3 3 3 < < : < 3 3 3 3 3 3 3 3 3 3 3 3 3 3 3 3 3 3 3 3 < < : : < < < 3 3 3 3 3 3 3 3 3 3 3 3 3 2 8 p n L ) O.2.",
"2 2 2 2 2 2 2 2 : : : : ; ; ; ; : : : 2 2 2 2 2 2 2 2 2 2 2 2 2 : : : : ; ; ; ; ; ; : : : : : : 2 : 2 : : : : : : 7 y b L / O.2.",
"2 2 2 2 2 2 2 : : : : ; ; ; ; ; : : : : : : : : : : : : : : : : : : : ; ; ; - - ; ; ; ; : : : : : : : : ; ; : : : 7 y b L / O.2.",
": : : : : : : : : : ; ; - - - - ; ; : : : : : : ; ; : : : : : : : ; ; ; - - - - - - - ; ; ; ; ; ; ; ; ; ; ; ; ; ; 7 y v L / O.2.",
": : : : : : : : ; ; - - - - - - - ; ; ; ; ; ; ; ; ; ; ; ; ; ; ; ; ; ; - - - - - - - - - - - ; ; ; ; ; ; ; ; ; ; ; 3 y v G / O.2.",
"; ; ; ; ; ; ; ; ; - - - - & - - - - ; ; ; ; ; ; ; ; ; ; ; ; ; ; ; ; - - - - - - - - - - - - - - - ; ; ; ; ; - - - 3 w v H / #.2.",
"; ; ; ; ; ; ; ; - - - & & $ & & - - - ; ; ; ; ; ; ; ; ; ; ; ; ; ; - - - - & $ & & & * - - - - - - - - - - - - - - 3 w z H / #.4.",
"- - - - - - - - - * & & $ $ $ & * * - - - - - - - - - - - - - - - - * & & $ $ $ $ & & & & * * - - - - - * * * * - 3 w z H / %.7.",
"& & & & & & & & & $ $ $ $ @ $ $ $ $ $ & & & & & & & & & & & & & & & $ $ $ $ @ $ $ $ $ $ $ $ $ $ & & & $ $ $ $ $ $ 3 w v L } ,.w.",
"$ $ $ $ $ $ $ $ $ @ @ @ + + + @ @ @ @ @ @ @ $ $ $ $ $ $ $ $ $ $ $ $ $ @ @ @ @ @ @ @ @ @ $ @ @ @ $ @ @ @ @ @ @ @ @ : w b R ..7.u.",
"+ + + + + + + + + + + + + + + + + + + + o + + + + + + + + + @ @ + + + + + + + + + + + + + + + + + + + + + + + O + ; w b E +.w.p.",
"o o o o o o o o o o o X X X X X X X X X X X X X o o X o o o o o o o o o o X X X X X X o + o X X X X X X X X X X O = q M Q %.t.d.",
"X X X X X X X X X X X X . . . . . . . . . . . . . X X X X X X X X X X X X X X X X X X X X X . . . .               % q M ~ :.i.g.",
". . . . . . . . . . . . . . .                     . . . . . . . . . . . . . . . . . . . . .                       # q V / 2.a.h.",
". . . . . . . . . . . . X X . . . .       . . . . . . . . . . X X X X X X X X X X X X X X . . .                   # q V / 2.a.h.",
"X X X X X X X X X X X X X X X X X X . . . . X X X X X X X X X X X X X X X X X X X X X o o X X . .                 # q V / 2.a.h.",
"+ o o o o o o o + + + + + + + + o X X X X X X o o o o o + + + + + + o o o o X o o + + + + + X X . .               # q V ) 2.a.h.",
"@ @ + + + + + + + + + @ @ @ + + + + + O + + + + + + + + + @ @ @ @ + + + + + + + + + + + @ + + O X .               % e C ) 2.a.h.",
"$ $ $ $ @ @ $ @ $ $ $ $ $ $ @ @ @ @ + + + + @ @ @ @ $ $ $ $ $ $ $ $ @ @ @ + + + @ @ @ $ $ @ + + O O . . .   . . . = e C ) 2.a.h.",
"& & & & $ $ $ $ $ $ $ & $ $ $ $ $ $ $ @ @ $ $ $ $ $ $ & & & & & & $ $ $ $ @ @ @ $ $ $ $ $ $ @ + + O O O O O O O O > e S _ 2.a.h.",
"& & & $ $ $ $ $ $ $ $ & & & & $ $ $ $ @ $ $ $ $ $ & & & & & & & & $ $ $ $ $ @ $ $ $ $ & & $ @ + + O O O O O O X X = e S _ 2.a.h.",
"& & & & $ $ $ $ $ $ $ & & & & $ $ $ $ $ $ $ $ & & & & & & & & & & & $ $ $ $ $ $ $ $ $ & & $ @ @ + O O O O O O O O > e S ` 2.a.h.",
"& & & & $ $ $ $ $ $ & & & & & & & $ $ $ $ $ & & & & & & & & & & & & & $ $ $ $ $ $ $ & & & $ @ @ + O O O O O O O O > e S ` 2.a.h.",
"& & & & $ $ $ $ $ $ & & & & & & & & $ $ $ & & & & & & & & & & & & & & & $ $ $ $ $ & & & & & $ @ + + O O O O O O O > e S ` 2.a.h.",
"& & & & & $ $ $ $ & & & & * & & & & & & & & & & & & & & & & & * & & & & & & & & & & & & & & $ @ + + O O O O O O O > e S ` 2.s.h.",
"& & & & & $ $ $ & & & & & - - * * * * * * * * * * - - - * * * * * & & & & & & & & & & & - & $ @ + + O O O O O O O > e S ` 2.s.h.",
"& & & & & $ $ $ & & & & & - * * * * * * * * * * - - - - * * * * * & & & & & & & & & & * - & $ @ + + O O O O O O O > e S ` 2.s.h.",
"& & & & & & $ $ & & & & & - * & & & & & & & & & & & - - - * * * & & & & & & & & & & & & & & $ @ + + O O O O O O O > e S ` 2.s.h.",
"& & & & & & & $ & & & & & & & & & & & & & & & & & & & & & & & * * & & & & & & & & & & & & $ $ @ + + O O O O O O O > e S ` 2.s.h.",
"& & & & & & & & & & & & & & & & & & & & & & & & & & & & & & & & & & & & & & & & & & & & & $ $ @ + + O O O O O O O > e S ` 2.s.h.",
"& & & & & & & & & & & & & & & & & & & $ $ & & & & & & & & & & & & & & & & & & & & & & & & $ $ @ + O O O O O O O O > e S ` 2.s.h.",
"& & & & & & & & & & & & & & & & & & $ $ $ $ & & & & & & & & & & & & & & & & & & & & & & & $ $ @ + O O O O O O O O > e S ` 2.s.h.",
"& & & & & & & & & & & & & & & & & $ $ $ $ $ & & & & & & & & & & & & & & & & & & & & & & & $ $ @ + O O O O O O O O > e S ` 4.s.h.",
"& & & & & & & & & & & & & & & & & $ $ $ $ $ $ & & & & & & & & & & & & & & & & & & & & & & $ $ @ + + O O O O O O O , t A } 4.s.h.",
"& & & & & & & & & & & & & & & & $ $ $ $ $ $ $ & & & & & & & & & & & & & & & & & & & & & & $ $ @ + + O O O O O + @ 1 t A } 0.s.h.",
"& & & & & & & & & & & & & & & & $ $ $ $ $ $ $ $ & & & & & & & & & & & & & & $ & & & & & & & $ @ @ + O O + + @ # # 1 f K  .0.s.h.",
"& & & & & & $ $ & & & & & & & & $ $ $ $ $ $ $ $ & & & & & & & & & & & & $ $ $ $ $ & & & & $ $ @ @ + O O + @ # # % 4 g K  .0.s.h.",
"& & & & & & $ $ & & & & & & & & $ $ $ $ $ $ $ $ $ & & & & & & & & & & $ $ $ $ $ $ $ & & & $ $ @ @ + O + @ # # % = 6 k K ..0.d.h.",
"& & & & & $ $ $ $ & & & & & & $ $ $ $ $ $ $ $ $ $ & & & & & & & & & $ $ $ $ $ $ $ $ & & & $ $ @ @ @ + @ # # % = = 6 l L X.0.d.h.",
"& & & $ $ $ $ $ $ $ $ & & & & $ $ $ $ $ $ $ $ $ $ $ $ & & & & & & $ $ $ $ $ $ $ $ $ $ & & $ $ @ @ @ @ @ # % % = = 6 l L X.q.d.h.",
"& $ $ $ $ $ $ $ $ $ $ $ $ & $ $ $ $ $ $ $ $ $ $ $ $ $ $ $ $ $ & $ $ $ $ $ $ $ $ $ $ $ $ & $ $ $ @ @ @ @ # % = = = 6 l L X.q.d.h.",
"$ $ $ $ $ $ $ $ $ $ $ $ $ $ $ $ $ $ $ $ $ $ $ $ $ $ $ $ $ $ $ $ $ $ $ $ $ $ $ $ $ $ $ $ $ $ $ $ @ # @ # % % = = = 6 l P X.q.d.h.",
"$ $ $ $ $ $ $ $ $ $ $ $ $ $ $ $ $ $ $ $ $ $ $ $ $ $ $ $ $ $ $ $ $ $ $ $ $ @ @ $ $ $ $ $ $ $ $ $ % # % % % = = = , 8 l P X.q.d.h.",
"$ $ $ $ $ $ @ @ @ $ $ $ $ $ $ $ $ $ $ $ $ $ $ $ $ $ $ $ $ $ $ $ $ $ $ $ @ @ @ @ $ $ $ $ $ $ $ $ % % % % = = = , , q l P X.q.d.h.",
"$ $ $ $ @ $ @ @ @ @ $ $ $ $ $ $ $ $ $ $ $ $ $ $ $ $ $ $ $ $ $ $ $ $ $ @ @ @ @ @ @ $ $ $ $ % $ % % % % = = = = = , 8 l P X.q.d.h.",
"& & & % % % % % % % % & & & & & & & & & & & & & & & & & & & & & & & % % $ $ % % $ & % % & & & - - = = = = = , , , q l P X.q.d.h.",
"- - - - - - - - - - - - - - - - - - - - = = = = - - - - - = - - - - - - - - & - - - - - - - - ; ; ; ; ; ; , , , , q l P X.q.d.h.",
"; ; ; ; ; ; ; ; ; ; ; ; ; ; ; ; ; ; ; ; ; ; ; ; : : : : ; ; ; ; ; ; ; ; ; - - - ; ; ; ; ; ; ; ; : : < , , , , , , 8 l P X.q.d.h.",
": : : : : : < < : : : : : : : : : : : : < < < < : : : : : : : : : : : : : : ; : : : : : : : : : < < 3 < < < < , , 8 l P X.q.d.h.",
"3 3 3 3 3 3 3 3 3 3 3 3 < < < 3 2 3 3 3 3 3 3 3 3 3 3 3 3 3 3 3 3 3 3 3 < < < < < < 3 3 3 3 3 3 3 3 3 3 3 < < < , 8 l P X.q.d.h.",
"5 5 7 7 7 7 7 7 3 3 3 3 3 3 3 3 3 3 3 5 7 7 7 7 7 7 7 5 7 7 7 7 5 3 3 3 3 3 3 3 3 3 3 3 3 3 3 3 5 5 7 3 3 3 < < , 8 l P X.q.d.h.",
"0 0 w w w w w w w 0 0 9 9 9 9 9 0 0 w w w w w w w w w 0 0 w w w w w 0 0 9 9 9 9 9 9 9 0 0 0 0 0 w w w w 0 9 9 8 8 t B ! #.w.f.h.",
"h h h h h h h h h h h d s s s d h h h h h h h h h h h h h h h h h h d h d s s s d d d h h h h h h h h h h d s s s b L } >.r.f.h.",
"B B B B B B B B B B m m m m m m m B B B B B B B B B B B B B B B B B B m m m m m m m m m B B B B B B B B B B m m m H ~ o.2.u.g.h.",
"R R R R R R R R I I P P P L P P P I I R R R R R R R R R R R R R R I I P P L L L P P P P I I I I R R R I I I I P P ! ..>.w.p.g.h.",
"] ] ] ] ] ] ] ] ) ) ) ) ) ) ) ) ) ) ) ] ] ] ] ] ] ] ] ] ] ] ] ] ) ) ) ) ) ) ) ) ) ) ) ) ) ) ) ) ) ] ] ` ` ` ` ` ` X.-.0.t.a.g.h.",
"O.O.O.O.O.O.O.O.O.+.+.+.+.+.+.+.+.+.O.O.O.O.O.O.O.O.O.O.O.O.O.O.O.O.+.+.+.+.+.+.+.+.+.+.+.+.+.O.O.O.O.O.#.%.%.%.=.,.0.r.p.f.g.h.",
":.:.:.:.:.:.:.:.:.:.:.:.-.-.-.:.:.:.:.:.:.:.:.:.:.:.:.:.:.:.:.:.:.:.:.:.:.-.-.-.-.:.:.:.:.:.:.:.:.:.:.:.:.,.,.,.,.7.r.u.a.f.g.h.",
":.:.:.:.:.:.:.:.:.:.:.:.-.-.-.:.:.:.:.:.:.:.:.:.:.:.:.:.:.:.:.:.:.:.:.:.:.-.-.-.-.:.:.:.:.:.:.:.:.:.:.:.:.,.,.,.,.7.r.u.a.f.g.h.",
":.:.:.:.:.:.:.:.:.:.:.:.-.-.-.:.:.:.:.:.:.:.:.:.:.:.:.:.:.:.:.:.:.:.:.:.:.-.-.-.-.:.:.:.:.:.:.:.:.:.:.:.:.,.,.,.,.7.r.u.a.f.g.h."
};
