/* XPM */
static const char *c3BlYWtub3c_[] = {
/* columns rows colors chars-per-pixel */
"64 64 180 2 ",
"   c #090909",
".  c #120E0E",
"X  c #0F0F10",
"o  c #120E11",
"O  c #180E16",
"+  c #0F1017",
"@  c #131214",
"#  c #1B1314",
"$  c #151519",
"%  c #1C161A",
"&  c #1A1A1B",
"*  c #201314",
"=  c #21121E",
"-  c #211D1F",
";  c #2C181A",
":  c #121521",
">  c #171923",
",  c #1F1E20",
"<  c #161A2A",
"1  c #1B1F2D",
"2  c #221420",
"3  c #231C23",
"4  c #2C1E24",
"5  c #2D1D2B",
"6  c #331F25",
"7  c #3A1B34",
"8  c #1F2024",
"9  c #232224",
"0  c #2B2026",
"q  c #262629",
"w  c #29252B",
"e  c #2B292D",
"r  c #312226",
"t  c #33242D",
"y  c #3A222B",
"u  c #302A2E",
"i  c #2E2D32",
"p  c #372635",
"a  c #3B2732",
"s  c #332D33",
"d  c #3C2D36",
"f  c #3B2B3A",
"g  c #323136",
"h  c #34343A",
"j  c #3B363D",
"k  c #39383F",
"l  c #471E32",
"z  c #432126",
"x  c #44252A",
"c  c #48272C",
"v  c #42282F",
"b  c #4B282D",
"n  c #55282C",
"m  c #5C2A2F",
"M  c #442534",
"N  c #4A2C34",
"B  c #44263F",
"V  c #4E2A39",
"C  c #552C33",
"Z  c #5E2C34",
"A  c #53333B",
"S  c #642E32",
"D  c #6F3036",
"F  c #753135",
"G  c #793236",
"H  c #7D3539",
"J  c #3C3C44",
"K  c #452F41",
"L  c #5B2746",
"P  c #5C294C",
"I  c #433A47",
"U  c #742C47",
"Y  c #693B40",
"T  c #64354B",
"R  c #7D3B41",
"E  c #70364F",
"W  c #7B374F",
"Q  c #743456",
"!  c #7A335B",
"~  c #733269",
"^  c #793E70",
"/  c #42434C",
"(  c #464650",
")  c #494B55",
"_  c #4E4F5A",
"`  c #813437",
"'  c #8C3131",
"]  c #83363A",
"[  c #8A3639",
"{  c #833A3F",
"}  c #8E383B",
"|  c #933434",
" . c #993636",
".. c #933A3D",
"X. c #9D3A3C",
"o. c #A43939",
"O. c #AD3D3D",
"+. c #B03F3F",
"@. c #AF403E",
"#. c #B0413F",
"$. c #833D42",
"%. c #933F40",
"&. c #83375F",
"*. c #813667",
"=. c #83366A",
"-. c #87386C",
";. c #8D386A",
":. c #923C6E",
">. c #8D3971",
",. c #8A3C7C",
"<. c #923B75",
"1. c #983C76",
"2. c #913C7E",
"3. c #954344",
"4. c #9C4345",
"5. c #AE4141",
"6. c #AF4141",
"7. c #AE4040",
"8. c #AF4240",
"9. c #AF4241",
"0. c #AF4340",
"q. c #AF4242",
"w. c #AF4343",
"e. c #AD4040",
"r. c #AF4646",
"t. c #AE4141",
"y. c #AA4748",
"u. c #A94848",
"i. c #B04040",
"p. c #B14040",
"a. c #B04140",
"s. c #B04141",
"d. c #B14141",
"f. c #B04240",
"g. c #B14341",
"h. c #B04340",
"j. c #B04242",
"k. c #B04343",
"l. c #B24241",
"z. c #B14441",
"x. c #B24441",
"c. c #B14443",
"v. c #B24643",
"b. c #B04444",
"n. c #B14444",
"m. c #B14545",
"M. c #B04545",
"N. c #B24545",
"B. c #B24745",
"V. c #B14646",
"C. c #B14747",
"Z. c #B04646",
"A. c #B24646",
"S. c #B24747",
"D. c #B14443",
"F. c #B34846",
"G. c #B34946",
"H. c #B14848",
"J. c #B24848",
"K. c #B34949",
"L. c #B34948",
"P. c #B34A4A",
"I. c #B34B4B",
"U. c #B24B49",
"Y. c #B44B48",
"T. c #B44B4A",
"R. c #B44949",
"E. c #B04C4A",
"W. c #B44C4B",
"Q. c #B34C4C",
"!. c #B04C4C",
"~. c #B44C4C",
"^. c #B54C4C",
"/. c #B44D4D",
"(. c #B54D4D",
"). c #B54E4E",
"_. c #B64E4E",
"`. c #B64D4D",
"'. c #B44A49",
"]. c #923C81",
/* pixels */
"x.x.x.f.f.f.f.f.O.O.O.O.O.O.O.O.@.@.@.O.O.@.@.O.O.O.O.O.O.O.O.O.O.O.8.e.8.e.O.O.O.8.8.O.O.O.O.O.O.O.O.O.O.O.O.O.O.O.O.O.O.O.+.#.",
"x.x.x.f.f.f.f.f.O.O.O.O.O.@.@.@.O.O.@.O.O.O.O.O.O.O.O.O.O.O.O.O.O.O.O.8.O.e.O.O.e.8.f.O.O.O.O.O.O.O.O.O.O.O.O.O.O.O.O.O.O.O.+.+.",
"x.f.f.f.f.f.f.f.O.O.O.O.O.@.@.@.@.O.O.O.O.O.O.O.O.O.O.O.O.O.O.O.O.O.O.O.O.O.O.O.O.i.f.O.O.O.O.O.O.O.O.O.O.O.O.O.O.O.O.O.O.O.O.+.",
"f.f.f.f.f.f.f.f.O.O.O.O.O.O.O.O.O.O.O.O.O.O.O.O.O.O.O.O.O.O.O.O.O.O.O.O.O.O.O.O.O.i.i.O.O.O.O.O.O.O.O.O.O.O.O.O.O.O.O.O.O.O.O.O.",
"@.@.@.O.#.@.@.@.O.O.O.O.O.O.O.O.O.O.O.O.O.O.O.O.O.O.O.O.O.O.O.O.O.O.O.O.O.O.O.O.O.O.O.O.O.O.O.O.O.O.O.O.O.O.O.O.i.i.f.f.+.+.f.f.",
"@.@.O.O.@.@.@.@.O.O.O.O.O.O.O.O.O.O.O.O.O.O.O.O.O.O.O.8.O.O.O.O.O.e.O.O.O.O.O.O.O.O.O.O.O.O.O.O.O.O.O.O.O.O.O.O.+.i.f.f.+.O.+.+.",
"#.+.O.O.@.@.@.@.O.O.O.O.O.O.O.O.O.O.O.O.O.O.O.O.O.8.8.8.8.8.@.8.8.8.8.8.8.8.O.O.O.O.O.O.O.O.O.O.O.O.O.O.O.O.O.O.O.f.f.O.O.O.+.+.",
"+.+.O.O.@.@.@.@.O.O.O.O.O.O.O.O.O.O.O.O.O.O.O.O.O.f.8.8.8.8.8.8.8.f.f.8.f.8.8.@.@.O.O.O.O.O.O.O.O.O.O.O.O.O.O.O.O.O.O.O.O.O.+.f.",
"O.O.O.O.@.@.@.@.O.O.O.O.O.O.O.O.O.O.O.O.O.O.O.O.O.O.e.8.8.8.8.8.8.O.O.O.O.O.O.O.O.O.O.O.O.O.O.O.O.O.O.O.O.O.O.O.#.#.+.O.@.@.@.+.",
"O.O.O.O.@.@.@.@.O.O.O.O.O.O.O.O.O.O.O.O.O.O.O.O.8.8.8.8.8.8.8.f.f.f.8.8.f.e.O.O.O.O.O.O.O.O.O.O.O.O.O.O.O.O.O.O.#.O.+.+.O.O.O.+.",
"O.O.O.O.@.@.@.@.O.O.O.O.O.O.O.O.O.O.O.O.O.O.O.8.8.8.w.M.M.M.M.M.M.M.f.8.f.f.8.e.O.O.O.O.O.O.O.O.O.O.O.O.O.O.O.O.O.O.+.+.O.O.O.O.",
"O.O.O.O.@.@.@.O.O.O.O.O.O.O.O.O.O.O.O.O.O.@.8.8.8.M.M.M.M.M.F.F.M.M.M.M.f.f.f.8.@.O.O.O.O.O.O.O.O.O.O.O.O.O.O.O.O.O.+.O.O.O.O.O.",
"+.+.+.#.@.@.@.O.@.O.O.O.O.O.O.O.O.O.O.O.8.f.x.M.M.M.M.M.K.K.R.R.R.R.K.M.M.M.k.8.8.O.O.O.O.O.O.O.O.O.O.O.O.O.O.O.O.O.+.+.+.+.+.+.",
"f.f.f.f.i.i.f.f.@.O.O.O.O.O.O.O.O.O.8.8.8.M.M.K.K.K.K.K.~.~.~.~.~.~.R.K.K.K.M.f.8.@.O.O.O.O.O.O.O.O.O.O.O.O.O.O.O.O.+.+.+.+.+.+.",
"f.f.f.f.i.i.i.f.O.O.O.O.O.O.O.O.O.8.8.8.M.M.K.K.K.W.R.~.~.~.~.~.~.~.~.W.~.K.K.M.f.8.8.O.O.O.O.O.O.O.O.O.O.O.O.O.O.O.+.+.+.+.+.+.",
"f.f.f.f.i.i.i.+.O.O.O.O.O.O.O.e.8.8.8.M.M.K.K.Q.~.~.~.3 3 @ o o o @ 3 3 ~.~.K.M.M.x.8.8.O.O.O.O.O.O.O.O.O.O.O.O.O.O.+.+.+.+.+.+.",
"i.i.i.i.f.f.f.O.O.O.O.O.O.O.O.O.8.8.M.M.K.K.~.~.Q.< #                   @ N u.y.M.M.M.8.8.O.O.O.O.O.O.O.+.O.O.O.O.O.O.O.+.+.+.+.",
"f.f.i.f.f.f.f.+.+.+.O.e.8.f.f.f.M.M.K.R.~.~.$.a u e &                 & e s i A W.W.R.F.M.x.f.f.#.O.@.@.#.#.+.+.@.@.@.@.#.+.+.O.",
"f.f.f.f.f.f.i.+.+.+.e.8.8.f.f.f.M.M.R.~.~.R > 9 w i 9 @             @ 9 i k J J Y E.W.R.F.M.x.f.#.#.@.@.#.+.O.+.@.@.#.@.#.+.O.O.",
"f.f.f.f.f.f.i.+.+.+.e.8.f.f.f.M.M.K.R.Q.3.b % & , i e &             & q h ) / / j A 3.K.F.F.x.x.f.#.@.#.#.+.O.O.@.@.#.#.#.+.O.O.",
"f.f.f.f.i.i.+.+.+.+.f.8.f.f.k.M.M.K.~.3.x % @ & & q h q X           , e J / / / g s N 3.R.F.x.x.f.#.@.@.@.O.O.O.@.@.#.#.+.O.O.O.",
"O.O.O.O.O.O.O.O.O.O.O.O.O.e.8.8.M.M.4.b # @ @ $ & 9 i e @           9 g J / / J h g e C R.K.M.x.f.f.#.@.O.O.O.O.O.O.O.O.O.O.O.O.",
"O.O.O.O.O.O.O.O.O.O.O.O.O.O.8.8.r.r.S @     @ $ & & 9 i $         @ e h / J k h g i e 0 $.K.M.x.f.f.#.O.O.O.O.O.O.O.O.O.O.O.O.O.",
"O.O.O.O.O.O.O.O.O.O.O.O.O.e.8.8.r.{ 6       @ @ $ & & w ,         & g h / h g h i e w - w R.M.M.x.f.#.O.O.O.O.O.O.O.O.O.O.O.O.O.",
"O.O.O.O.O.O.O.O.O.O.O.O.O.O.8.8.M.t *           @ $ & 9 w P =.=.*.M s / J g i i w 9 & @ ; p M.M.x.f.#.O.O.O.O.O.O.O.O.O.O.O.O.O.",
"O.O.O.O.O.O.O.O.O.O.O.O.O.O.8.8.M.%                 @ 3 ! <.].].2.:.E h k e e q & @       : M.M.f.f.@.O.O.O.O.O.O.O.O.O.O.O.O.O.",
"O.O.O.O.O.O.O.O.O.O.O.O.O.O.8.8.M.%                 2 -.].].].].].].].W e q 3 @           $ M.M.8.O.O.O.O.O.O.O.O.O.O.O.O.O.O.O.",
"O.O.O.O.O.O.O.O.O.O.O.O.O.O.8.8.M.                  7 ].].].].].].].].].B 3                 M.M.8.O.O.O.O.O.O.O.O.O.O.O.O.O.O.O.",
"O.O.O.O.O.O.O.O.O.O.O.O.O.O.8.8.M.                  >.].].].,.K ,.].].].].                  M.f.O.O.O.O.O.O.O.O.O.O.O.O.O.O.O.O.",
"O.O.O.O.O.O.O.O.O.O.O.O.O.O.8.8.M.                  ].].].].j   B ].].].].                  M.f.O.O.O.O.O.O.O.O.O.O.O.O.O.O.O.O.",
"O.O.O.O.O.O.O.O.O.O.O.O.O.8.8.8.M.                  2.].].].^ 5 ~ ].].2.2.                  M.f.e.O.O.O.O.O.O.O.O.O.O.O.O.O.O.O.",
"O.O.O.O.O.O.O.O.O.O.O.O.O.e.8.8.M.                  ! ].].].].].].].].1.Q @                 M.f.O.O.O.O.O.O.O.O.O.O.O.O.O.O.O.O.",
"O.O.O.O.O.O.O.O.O.O.O.O.O.O.@.8.M.@                 2 ;.].].].].].].].>.9 9 & @           + M.8.O.O.O.O.O.O.O.O.O.O.O.O.O.O.O.O.",
"O.O.O.O.O.O.O.O.O.O.O.O.O.O.8.8.r.$                 @ V <.].].].].].].L & e e 9 $         $ M.8.O.O.O.O.O.O.O.O.O.O.O.O.O.O.O.O.",
"O.O.O.O.O.O.O.O.O.O.O.O.O.O.O.8.8.m             @ , 9 i T &.<.].<.U l O @ 0 e i q & @   . < x.8.O.O.O.O.O.O.O.O.O.O.O.O.O.O.O.O.",
"O.O.O.O.O.O.O.O.O.O.O.O.O.O.O.O.8.] %         $ 9 q e i ( I f 5 =         & 9 i g i 9 @ y %.x.@.O.O.O.O.O.O.O.O.O.O.O.O.O.O.O.O.",
"O.O.O.O.O.O.O.O.O.O.O.O.O.O.O.O.8.@.n .     & 9 q e g / / J e @           $ 3 w i g e 4 N x.x.@.O.O.O.O.O.O.O.O.O.O.O.O.O.O.O.O.",
"O.O.O.O.O.O.O.O.O.O.O.O.O.O.O.O.O.@.` 3 $ 3 q e e k J ( / h 9             @ @ & e i u v y.x.f.O.O.O.O.O.O.O.O.O.O.O.O.O.O.O.O.O.",
"O.O.O.O.O.O.O.O.O.O.O.O.O.O.O.O.O.O.O.S 3 0 e i s k ( _ J i &               @ & 9 e t H x.x.#.O.O.O.O.O.O.O.O.O.O.O.O.O.O.O.O.O.",
"O.O.O.O.O.O.O.O.O.O.O.O.O.O.O.O.O.O.8...C r e g h J ( ( / i &               @ @ % 3 S e.O.O.O.O.O.O.O.O.O.O.O.O.O.O.O.O.O.O.O.O.",
"O.O.O.O.O.O.O.O.O.O.O.O.O.O.O.O.O.O.O.O.8.G r e J ) ( ( J i &                 # % t } O.O.O.O.O.O.O.O.O.O.O.O.O.O.O.O.O.O.O.O.O.",
"O.O.O.O.O.O.O.O.O.O.O.O.O.O.O.O.O.O.O.O.O.8.Z t s / / / k w &               # z D X.O.O.O.O.O.O.O.O.O.O.O.O.O.O.O.O.O.O.O.O.O.O.",
"O.O.O.O.O.O.O.O.O.O.O.O.O.O.O.O.O.O.O.O.O.O.X.H a d i ( h q &             2 y [ O.O.O.O.O.O.O.O.O.O.O.O.O.O.O.O.O.O.O.O.O.O.O.O.",
"O.O.O.O.O.O.O.O.O.O.O.O.O.O.O.O.O.O.O.O.O.O.O.8...F 1 p 0 & @       % % 4 Z } O.O.O.O.O.O.O.O.O.O.O.O.O.O.O.O.O.O.O.O.O.O.O.O.O.",
"+.+.#.O.O.O.O.O.O.O.O.O.O.O.O.O.O.O.O.O.O.O.O.O.8.8...H H G F F F G ` ` ..o.O.O.O.O.O.+.O.O.O.O.O.O.O.O.@.@.@.@.O.O.O.O.O.O.O.O.",
"#.+.#.O.O.O.O.O.O.O.O.O.O.O.O.O.O.O.O.O.O.O.O.O.O.O.8.8.8.8.O.O.O.O.O.O.O.O.O.O.O.O.O.+.O.O.O.O.O.O.O.O.@.@.@.@.O.O.O.O.O.O.O.O.",
"+.+.#.O.O.O.O.O.O.O.O.O.O.O.O.O.O.O.O.O.O.O.O.O.O.O.O.O.O.O.O.O.O.O.O.O.O.O.O.O.O.O.O.+.+.O.O.O.O.O.O.O.@.@.@.@.O.O.O.O.O.O.O.O.",
"+.+.#.O.O.O.O.O.O.O.O.O.O.O.O.O.O.O.O.O.O.O.O.O.O.O.O.O.O.o.o.o.o.o.o.o.o.O.O.O.O.O.O.+.+.O.O.O.O.O.O.O.@.@.@.@.O.O.O.O.O.O.O.O.",
"@.@.@.@.@.@.@.@.+.+.+.+.O.O.O.O.O.O.O.O.O.O.O.o.o. . .| | | | | | | |  . . .X.o.o.O.O.O.O.O.O.O.O.O.O.O.@.@.@.@.O.O.O.O.O.O.O.O.",
"@.@.@.@.@.@.@.@.+.+.+.+.O.O.O.O.O.O.O.O.O.O.o.o. .' ' ' ' ' ' ' ' ' ' ' ' ' | | o.o.O.O.O.O.O.O.O.O.O.O.@.@.@.@.O.O.O.O.O.O.O.O.",
"@.@.@.@.@.@.@.@.O.O.O.O.O.O.O.O.O.O.O.O.O.O.O.O.o. .| | | | ' ' | | | | | |  .o.o.O.O.O.O.O.O.O.O.O.O.O.@.@.@.@.O.O.O.O.O.O.O.O.",
"@.@.@.@.@.@.@.@.O.O.O.O.O.O.O.O.O.O.O.O.O.O.O.O.O.o.o.o.o.o.o.o.o.o.o.o.o.o.o.O.O.O.O.O.O.O.O.O.O.O.O.O.@.@.@.@.O.O.O.O.O.O.O.O.",
"O.O.O.O.O.O.O.O.O.O.O.O.O.O.O.O.O.O.O.O.O.O.O.O.O.O.O.O.O.O.O.O.O.O.O.O.O.O.O.O.O.O.O.O.O.O.O.O.O.O.O.O.O.O.O.O.O.O.O.O.O.O.O.O.",
"O.O.O.O.O.O.O.O.@.@.@.@.O.O.O.O.O.O.O.O.O.O.O.O.O.O.O.O.O.O.O.O.O.O.O.O.O.O.O.O.O.O.O.O.O.O.O.O.O.O.O.O.O.O.O.O.O.O.O.O.O.O.O.O.",
"O.O.O.O.O.O.O.O.@.@.@.@.O.O.O.O.O.O.O.O.O.O.O.O.O.O.O.O.O.O.O.O.O.O.O.O.O.O.O.O.O.O.O.O.O.O.O.O.O.O.O.O.O.O.O.O.O.O.O.O.O.O.O.O.",
"O.O.O.O.O.O.O.O.@.@.@.@.O.O.O.O.O.O.O.O.O.O.O.O.O.O.O.O.O.O.O.O.O.O.O.O.O.O.O.O.O.O.O.O.O.O.O.O.O.O.O.O.O.O.O.O.O.O.O.O.O.O.O.O.",
"O.O.O.O.O.O.O.O.#.#.#.#.O.O.O.O.O.O.O.O.O.O.O.O.O.O.O.O.O.O.O.O.O.O.O.O.O.O.O.O.O.O.O.O.O.O.O.O.O.O.O.O.O.O.O.O.O.O.O.O.O.O.O.O.",
"@.@.@.O.O.O.O.O.O.O.O.O.O.O.O.O.O.O.O.O.O.O.O.O.O.O.O.O.O.O.O.O.O.O.O.O.O.O.O.O.O.O.O.O.O.O.O.O.@.@.@.O.O.O.O.O.O.O.O.O.O.O.O.O.",
"@.@.@.O.O.O.O.O.O.O.O.O.O.O.O.O.O.O.O.O.O.O.O.O.O.O.O.O.O.O.O.O.O.O.O.O.O.O.O.O.O.O.O.O.O.O.O.O.@.@.@.O.O.O.O.O.O.O.O.O.O.O.O.O.",
"@.@.@.O.O.O.O.O.O.O.O.O.O.O.O.O.O.O.O.O.O.O.O.O.O.O.O.O.O.O.O.O.O.O.O.O.O.O.O.O.O.O.O.O.O.O.O.O.O.O.O.O.O.O.O.O.O.O.O.O.O.O.O.O.",
"@.@.@.O.O.O.O.O.O.O.O.O.O.O.O.O.O.O.O.O.O.O.O.O.O.O.O.O.O.O.O.O.O.O.O.O.O.O.O.O.O.O.O.O.O.O.O.O.O.O.O.O.O.O.O.O.O.O.O.O.O.O.O.O.",
"@.@.@.@.O.O.O.O.O.O.O.O.O.O.O.O.O.O.O.O.O.O.O.O.O.O.O.O.O.O.O.O.O.O.O.O.O.O.O.O.O.O.O.O.O.O.O.O.O.O.O.O.O.O.O.O.O.O.O.O.O.O.O.O.",
"f.f.f.f.f.f.f.f.O.O.O.O.O.O.O.O.O.O.O.O.O.O.O.O.O.O.O.O.O.O.O.O.O.O.O.O.O.O.O.O.O.O.O.O.O.O.O.O.O.O.O.O.O.O.O.O.O.O.O.O.O.O.O.O.",
"f.f.f.f.f.f.f.f.O.O.O.O.O.O.O.O.O.O.O.O.O.O.O.O.O.O.O.O.O.O.O.O.O.O.O.O.O.O.O.O.O.O.O.O.O.O.O.O.O.O.O.O.O.O.O.O.O.O.O.O.O.O.O.O."
};
