/* XPM */
static const char *cmVwdXRhdGlvbg__[] = {
/* columns rows colors chars-per-pixel */
"64 64 181 2 ",
"   c #090909",
".  c #120E0E",
"X  c #0F0F10",
"o  c #120E11",
"O  c #0F1017",
"+  c #131214",
"@  c #1B1314",
"#  c #1B1817",
"$  c #151519",
"%  c #1C161A",
"&  c #1A1A1B",
"*  c #201314",
"=  c #211D1F",
"-  c #2C181A",
";  c #121521",
":  c #171923",
">  c #1E1E21",
",  c #161A2A",
"<  c #1B1F2D",
"1  c #201720",
"2  c #221D22",
"3  c #2C1E24",
"4  c #331F25",
"5  c #1F2024",
"6  c #232224",
"7  c #2B2026",
"8  c #272629",
"9  c #29252B",
"0  c #2B292D",
"q  c #312226",
"w  c #33242D",
"e  c #3A222B",
"r  c #302A2E",
"t  c #2D2D32",
"y  c #372635",
"u  c #3B2732",
"i  c #332D33",
"p  c #3C2D36",
"a  c #313136",
"s  c #34343A",
"d  c #39363C",
"f  c #3B393B",
"g  c #432126",
"h  c #44252A",
"j  c #48272C",
"k  c #42282F",
"l  c #4B282D",
"z  c #55282C",
"x  c #5C2A2F",
"c  c #4A2C34",
"v  c #552C33",
"b  c #5E2C34",
"n  c #413A37",
"m  c #413C3B",
"M  c #53333B",
"N  c #642E32",
"B  c #6F3036",
"V  c #753135",
"C  c #793236",
"Z  c #7D3539",
"A  c #3C3C44",
"S  c #693B40",
"D  c #7D3B41",
"F  c #404041",
"G  c #4C4442",
"H  c #4A4847",
"J  c #42434C",
"K  c #4E4B4E",
"L  c #524C4E",
"P  c #594C48",
"I  c #464650",
"U  c #494B55",
"Y  c #4E4F5A",
"T  c #595555",
"R  c #5C5B5C",
"E  c #636364",
"W  c #6E6C6D",
"Q  c #716F6F",
"!  c #7C7876",
"~  c #813437",
"^  c #8C3131",
"/  c #83363A",
"(  c #8A3639",
")  c #833A3F",
"_  c #8E383B",
"`  c #933434",
"'  c #993636",
"]  c #933A3D",
"[  c #9D3A3C",
"{  c #A43939",
"}  c #AD3D3D",
"|  c #B03F3F",
" . c #AF403E",
".. c #B0413F",
"X. c #833D42",
"o. c #933F40",
"O. c #954344",
"+. c #9C4345",
"@. c #AE4141",
"#. c #AF4141",
"$. c #AE4040",
"%. c #AF4240",
"&. c #AF4241",
"*. c #AF4340",
"=. c #AF4242",
"-. c #AF4343",
";. c #AE4242",
":. c #AD4040",
">. c #AF4646",
",. c #AE4141",
"<. c #AA4748",
"1. c #A94848",
"2. c #B04040",
"3. c #B14040",
"4. c #B04140",
"5. c #B04141",
"6. c #B14141",
"7. c #B24141",
"8. c #B04240",
"9. c #B04340",
"0. c #B14341",
"q. c #B14241",
"w. c #B04242",
"e. c #B04343",
"r. c #B14343",
"t. c #B14342",
"y. c #B24242",
"u. c #B24341",
"i. c #B14441",
"p. c #B24441",
"a. c #B14443",
"s. c #B14643",
"d. c #B24643",
"f. c #B04444",
"g. c #B14444",
"h. c #B04545",
"j. c #B14545",
"k. c #B14544",
"l. c #B24545",
"z. c #B24745",
"x. c #B14646",
"c. c #B14747",
"v. c #B04646",
"b. c #B24646",
"n. c #B24747",
"m. c #B14443",
"M. c #B24845",
"N. c #B34846",
"B. c #B34A47",
"V. c #B14848",
"C. c #B24848",
"Z. c #B34949",
"A. c #B34948",
"S. c #B34A49",
"D. c #B34A4A",
"F. c #B34B4B",
"G. c #B14B49",
"H. c #B44949",
"J. c #B44B48",
"K. c #B44A4A",
"L. c #B44B4B",
"P. c #B54B4B",
"I. c #B04C4A",
"U. c #B44C4B",
"Y. c #B04C4C",
"T. c #B34C4C",
"R. c #B44C4C",
"E. c #B54C4C",
"W. c #B44D4D",
"Q. c #B54D4D",
"!. c #B54E4E",
"~. c #B64E4E",
"^. c #B64D4D",
"/. c #B44A49",
"(. c #848283",
"). c #929192",
"_. c #9B9A9C",
"`. c #A3A1A2",
"'. c #ABAAAB",
"]. c #B0AFB0",
"[. c #B1B0B1",
/* pixels */
"p.p.p.8.8.8.8.8.} } } } } } } }  . . .} }  . .} } } } } } } } } } } :.:.:.} } :.%.%.%.} } } } } } } } } } } } } } } } } } } | ..",
"p.p.p.8.8.8.8.8.} } } } }  . . .} }  .} } } } } } } } } } } } } } } } :.} } | } %.%.2.} } } } } } } } } } } } } } } } } } } | | ",
"p.8.8.8.8.8.8.8.} } } } }  . . . .} } } } } } } } } } } } } } } } } :.} } } } | } } } } } } } } } } } } } } } } } } } } } } } | ",
"8.8.8.8.8.8.8.8.} } } } } } } } } } } } } } } } } } } } } } } } } } } } } } } | } } } } } } } } } } } } } } } } } } } } } } } } ",
" . . .} .. . . .} } } } } } } } } } } } } } } } } } } } } } } } } } } } } } } } } } } } } } } } } } } } } } } } 2.2.8.8.| | 8.8.",
" . .} }  . . . .} } } } } } } } } } } } } } } } } } } %.} } } } } } } } } } } } } } } } } } } } } } } } } } } } | 2.8.8.| } | | ",
"..| } }  . . . .} } } } } } } } } } } } } } } } } %.%.%.%.%. .%.%.%.%.%.%.%.:.} } } } } } } } } } } } } } } } } } 8.8.} } } | | ",
"| | } }  . . . .} } } } } } } } } } } } } } } } } 8.%.%.%.%.%.%.%.%.8.%.8.%.%.%.%.} } } } } } } } } } } } } } } } } } } } } | 8.",
"} } } }  . . . .} } } } } } } } } } } } } } } } } } :.%.%.%.%.%.%.} } } } } } } } } } } } } } } } } } } } } } } ....| }  . . .| ",
"} } } }  . . . .} } } } } } } } } } } } } } } } %.%.%.%.%.%.%.8.8.8.%.%.8.} :.} } } } } } } } } } } } } } } } } ..} | | } } } | ",
"} } } }  . . . .} } } } } } } } } } } } } } } %.%.%.-.h.h.h.h.h.h.h.8.%.8.8.%.:.} } } } } } } } } } } } } } } } } } | | } } } } ",
"} } } }  . . .} } } } } } } } } } } } } }  .%.%.%.h.h.h.h.h.N.N.h.h.h.h.8.8.8.%. .} } } } } } } } } } } } } } } } } | } } } } } ",
"| | | .. . . .}  .} } } } } } } } } } } %.8.p.h.h.h.h.h.Z.Z.H.H.H.H.Z.h.h.h.8.%.%.} } } } } } } } } } } } } } } } } | | | | | | ",
"8.8.8.8.2.2.8.8. .} } } } } } } } } %.%.%.h.h.Z.Z.Z.Z.Z.R.R.R.R.R.R.H.Z.Z.Z.h.8.%. .} } } } } } } } } } } } } } } } | | | | | | ",
"8.8.8.8.2.2.2.8.} } } } } } } } } %.%.%.h.h.Z.Z.Z.U.H.R.R.R.R.R.R.R.R.U.L.Z.Z.h.8.%.%.} } } } } } } } } } } } } } } | | | | | | ",
"8.8.8.8.2.2.2.| } } } } } } } :.%.%.%.h.h.Z.Z.T.R.R.R.2 2 + o o o $ 2 2 R.L.Z.h.h.p.%.%.} } } } } } } } } } } } } } | | | | | | ",
"2.2.2.2.8.8.8.} } } } } } } } } %.%.h.h.Z.Z.R.R.T., @                   + c 1.<.h.h.h.%.%.} } } } } } } | } } } } } } } | | | | ",
"8.8.2.8.8.8.8.| | | } :.%.8.8.8.h.h.Z.H.R.R.X.u r 0 &                 & 0 i t M U.U.H.N.h.p.8.8...}  . .....| |  . . . ...| | } ",
"8.8.8.8.8.8.2.| | | :.%.%.8.8.8.h.h.H.R.R.D : 6 9 t 6 +             + 6 t d A A S I.U.H.N.h.p.8..... . ...| } |  . ... ...| } } ",
"8.8.8.8.8.8.2.| | | :.%.8.8.8.h.h.Z.H.T.O.l % & > t 0 &             & 8 s U J J d M O.Z.B.N.p.p.8... .....| } }  . .......| } } ",
"8.8.8.8.2.2.| | | | 8.%.8.8.e.h.h.Z.R.O.h % + & & 8 s 8 X           > 0 A J J J a i c O.H.N.p.p.8... . . .} } }  . .....| } } } ",
"} } } } } } } } } } } } } :.%.%.h.h.+.l @ + + $ & 6 t 0 +           6 a A J J A s a 0 v H.Z.h.p.8.8... .} } } } } } } } } } } } ",
"} } } } } } } } } } } } } } %.%.>.>.N +     + $ & & 6 t $         + 0 s J A d s a t 0 7 X.Z.h.p.8.8...} } } } } } } } } } } } } ",
"} } } } } } } } } } } } } :.%.%.>.) 4       + + $ & & 8 +         + 0 s J s a s t 0 9 = 9 H.h.h.p.8...} } } } } } } } } } } } } ",
"} } } } } } } } } } } } } } %.%.h.w *           + $ & >   f Q Q H 9 2 d A a t t 9 6 & + - y h.h.p.8...} } } } } } } } } } } } } ",
"} } } } } } } } } } } } } } %.%.h.%                 + + m         # ! s d 0 0 8 & +       ; h.h.8.8. .} } } } } } } } } } } } } ",
"} } } } } } } } } } } } } } %.%.h.%                   W             > '.0 8 2 +           $ h.h.%.} } } } } } } } } } } } } } } ",
"} } } } } } } } } } } } } } %.%.h.                  R                   (.2                 h.h.%.} } } } } } } } } } } } } } } ",
"} } } } } } } } } } } } } } %.%.h.                  `.      + F         ).                  h.8.} } } } } } } } } } } } } } } } ",
"} } } } } } } } } } } } } } %.%.h.                  [.      E _.>       ).                  h.8.} } } } } } } } } } } } } } } } ",
"} } } } } } } } } } } } } %.%.%.h.                  ].      & t         (.                  h.8.:.} } } } } } } } } } } } } } } ",
"} } } } } } } } } } } } } :.%.%.h.                  (.                  n +                 h.8.} } } } } } } } } } } } } } } } ",
"} } } } } } } } } } } } } }  .%.h.+                 + f               W 6 6 & +           O h.%.} } } } } } } } } } } } } } } } ",
"} } } } } } } } } } } } } } %.%.>.$                 + G f +       + W G & 0 0 6 $         $ h.%.} } } } } } } } } } } } } } } } ",
"} } } } } } } } } } } } } } } %.%.x             + > 6 t L K T E W P G   + 7 0 t 8 & +   . , p.%.} } } } } } } } } } } } } } } } ",
"} } } } } } } } } } } } } } } } %./ %         $ 6 8 0 a t a 2   +         & 6 t a t 6 + e o.p. .} } } } } } } } } } } } } } } } ",
"} } } } } } } } } } } } } } } } %. .z .     & 6 8 0 a J A s 9 +           $ 2 9 t a 0 3 c p.p. .} } } } } } } } } } } } } } } } ",
"} } } } } } } } } } } } } } } } }  .~ 2 $ 2 8 0 0 d A I J s 6             + + & 0 t r k ;.p.8.} } } } } } } } } } } } } } } } } ",
"} } } } } } } } } } } } } } } } } } } N 2 7 0 t i d I Y A t &               + & 6 0 w Z p.p...} } } } } } } } } } } } } } } } } ",
"} } } } } } } } } } } } } } } } } } %.] v q 0 a s A I I J t &               + + % 2 N :.} } } } } } } } } } } } } } } } } } } } ",
"} } } } } } } } } } } } } } } } } } } } %.C q 0 A U I I A t &                 @ % w _ } } } } } } } } } } } } } } } } } } } } } ",
"} } } } } } } } } } } } } } } } } } } } } %.b w i J J J d 9 &               @ g B [ } } } } } } } } } } } } } } } } } } } } } } ",
"} } } } } } } } } } } } } } } } } } } } } } [ Z u p t I s 8 &             1 e ( } } } } } } } } } } } } } } } } } } } } } } } } ",
"} } } } } } } } } } } } } } } } } } } } } } } %.] V < i 7 & +       % % 3 b _ } } } } } } } } } } } } } } } } } } } } } } } } } ",
"| | ..} } } } } } } } } } } } } } } } } } } } } %.%.] Z Z C V V V C ~ ~ ] { } } } } } | } } } } } } } }  . . . .} } } } } } } } ",
"..| ..} } } } } } } } } } } } } } } } } } } } } } } %.%.%.%.} } } } } } } } } } } } } | } } } } } } } }  . . . .} } } } } } } } ",
"| | ..} } } } } } } } } } } } } } } } } } } } } } } } } } } } } } } } } } } } } } } } | | } } } } } } }  . . . .} } } } } } } } ",
"| | ..} } } } } } } } } } } } } } } } } } } } } } } } } } { { { { { { { { } } } } } } | | } } } } } } }  . . . .} } } } } } } } ",
" . . . . . . . .| | | | } } } } } } } } } } } { { ' ' ` ` ` ` ` ` ` ` ' ' ' [ { { } } } } } } } } } } }  . . . .} } } } } } } } ",
" . . . . . . . .| | | | } } } } } } } } } } { { ' ^ ^ ^ ^ ^ ^ ^ ^ ^ ^ ^ ^ ^ ` ` { { } } } } } } } } } }  . . . .} } } } } } } } ",
" . . . . . . . .} } } } } } } } } } } } } } } } { ' ` ` ` ` ^ ^ ` ` ` ` ` ` ' { { } } } } } } } } } } }  . . . .} } } } } } } } ",
" . . . . . . . .} } } } } } } } } } } } } } } } } { { { { { { { { { { { { { { } } } } } } } } } } } } }  . . . .} } } } } } } } ",
"} } } } } } } } } } } } } } } } } } } } } } } } } } } } } } } } } } } } } } } } } } } } } } } } } } } } } } } } } } } } } } } } ",
"} } } } } } } }  . . . .} } } } } } } } } } } } } } } } } } } } } } } } } } } } } } } } } } } } } } } } } } } } } } } } } } } } ",
"} } } } } } } }  . . . .} } } } } } } } } } } } } } } } } } } } } } } } } } } } } } } } } } } } } } } } } } } } } } } } } } } } ",
"} } } } } } } }  . . . .} } } } } } } } } } } } } } } } } } } } } } } } } } } } } } } } } } } } } } } } } } } } } } } } } } } } ",
"} } } } } } } } ........} } } } } } } } } } } } } } } } } } } } } } } } } } } } } } } } } } } } } } } } } } } } } } } } } } } } ",
" . . .} } } } } } } } } } } } } } } } } } } } } } } } } } } } } } } } } } } } } } } } } } } } }  . . .} } } } } } } } } } } } } ",
" . . .} } } } } } } } } } } } } } } } } } } } } } } } } } } } } } } } } } } } } } } } } } } } }  . . .} } } } } } } } } } } } } ",
" . . .} } } } } } } } } } } } } } } } } } } } } } } } } } } } } } } } } } } } } } } } } } } } } } } } } } } } } } } } } } } } } ",
" . . .} } } } } } } } } } } } } } } } } } } } } } } } } } } } } } } } } } } } } } } } } } } } } } } } } } } } } } } } } } } } } ",
" . . . .} } } } } } } } } } } } } } } } } } } } } } } } } } } } } } } } } } } } } } } } } } } } } } } } } } } } } } } } } } } } ",
"8.8.8.8.8.8.8.8.} } } } } } } } } } } } } } } } } } } } } } } } } } } } } } } } } } } } } } } } } } } } } } } } } } } } } } } } ",
"8.8.8.8.8.8.8.8.} } } } } } } } } } } } } } } } } } } } } } } } } } } } } } } } } } } } } } } } } } } } } } } } } } } } } } } } "
};
