/* XPM */
static const char *MTk4OQ__[] = {
/* columns rows colors chars-per-pixel */
"64 64 170 2 ",
"   c #090909",
".  c #120E0E",
"X  c #0F0F10",
"o  c #120E11",
"O  c #0F1017",
"+  c #131214",
"@  c #1B1314",
"#  c #151519",
"$  c #1C161A",
"%  c #1A1A1B",
"&  c #201314",
"*  c #211D1F",
"=  c #2C181A",
"-  c #121521",
";  c #171923",
":  c #1E1E21",
">  c #161A2A",
",  c #1B1F2D",
"<  c #201720",
"1  c #231D22",
"2  c #2C1E24",
"3  c #331F25",
"4  c #1D2025",
"5  c #232224",
"6  c #2B2026",
"7  c #262629",
"8  c #29252B",
"9  c #26292F",
"0  c #2B292D",
"q  c #312226",
"w  c #33242D",
"e  c #3A222B",
"r  c #302A2E",
"t  c #272B31",
"y  c #2E2D32",
"u  c #372635",
"i  c #3B2732",
"p  c #332D33",
"a  c #3C2D36",
"s  c #313136",
"d  c #34343A",
"f  c #3A363C",
"g  c #3A393E",
"h  c #432126",
"j  c #44252A",
"k  c #48272C",
"l  c #42282F",
"z  c #4B282D",
"x  c #55282C",
"c  c #5C2A2F",
"v  c #4A2C34",
"b  c #552C33",
"n  c #5E2C34",
"m  c #53333B",
"M  c #642E32",
"N  c #6F3036",
"B  c #753135",
"V  c #793236",
"C  c #7D3539",
"Z  c #2D3640",
"A  c #353840",
"S  c #3C3C44",
"D  c #363F49",
"F  c #443E42",
"G  c #693B40",
"H  c #7D3B41",
"J  c #37404B",
"K  c #3D414A",
"L  c #42434C",
"P  c #464650",
"I  c #464851",
"U  c #494B55",
"Y  c #4E4F5A",
"T  c #574F56",
"R  c #49505D",
"E  c #5F585E",
"W  c #625158",
"Q  c #5F5F69",
"!  c #695C60",
"~  c #5F6475",
"^  c #67626C",
"/  c #6C6674",
"(  c #813437",
")  c #8C3131",
"_  c #83363A",
"`  c #8A3639",
"'  c #833A3F",
"]  c #8E383B",
"[  c #933434",
"{  c #993636",
"}  c #933A3D",
"|  c #9D3A3C",
" . c #A43939",
".. c #AD3D3D",
"X. c #B03F3F",
"o. c #AF403E",
"O. c #B0413F",
"+. c #833D42",
"@. c #933F40",
"#. c #954344",
"$. c #9C4345",
"%. c #AF4141",
"&. c #AE4040",
"*. c #AF4241",
"=. c #AF4242",
"-. c #AF4343",
";. c #AD4040",
":. c #AF4646",
">. c #AE4141",
",. c #AA4748",
"<. c #A94848",
"1. c #B04040",
"2. c #B14040",
"3. c #B04140",
"4. c #B04141",
"5. c #B14141",
"6. c #B14341",
"7. c #B04240",
"8. c #B04242",
"9. c #B04343",
"0. c #B24241",
"q. c #B14441",
"w. c #B24441",
"e. c #B14443",
"r. c #B24643",
"t. c #B04444",
"y. c #B14444",
"u. c #B14545",
"i. c #B04545",
"p. c #B24545",
"a. c #B14646",
"s. c #B14747",
"d. c #B04646",
"f. c #B24646",
"g. c #B24747",
"h. c #B24745",
"j. c #B14443",
"k. c #B34846",
"l. c #B34946",
"z. c #B24848",
"x. c #B34949",
"c. c #B34A4A",
"v. c #B34B4B",
"b. c #B24A49",
"n. c #B44B48",
"m. c #B44B4A",
"M. c #B44949",
"N. c #B04C4A",
"B. c #B44C4B",
"V. c #B34C4C",
"C. c #B04C4C",
"Z. c #B44C4C",
"A. c #B54D4D",
"S. c #B54E4E",
"D. c #B64E4E",
"F. c #B64D4D",
"G. c #B44A49",
"H. c #586A82",
"J. c #656F81",
"K. c #627185",
"L. c #697386",
"P. c #6C778C",
"I. c #707384",
"U. c #72798B",
"Y. c #697F9A",
"T. c #727C92",
"R. c #787E93",
"E. c #6E829C",
"W. c #70859F",
"Q. c #6E86A2",
/* pixels */
"w.w.w.7.7.7.7.7.................o.o.o.....o.o.......................*.;.*.;.......*.*.......................................X.O.",
"w.w.w.7.7.7.7.7...........o.o.o.....o.................................*...;.....;.*.7.......................................X.X.",
"w.7.7.7.7.7.7.7...........o.o.o.o.................................................1.7.........................................X.",
"7.7.7.7.7.7.7.7...................................................................1.1...........................................",
"o.o.o...O.o.o.o.................................................................................................1.1.7.7.X.X.7.7.",
"o.o.....o.o.o.o.......................................*...........................................................1.7.7.X...X.X.",
"O.X.....o.o.o.o...................................*.*.*.*.*.o.*.*.*.*.*.*.*.;.....................................7.7.......X.X.",
"X.X.....o.o.o.o...................................7.*.*.*.*.*.*.*.*.7.*.7.*.*.*.o...........................................X.7.",
"........o.o.o.o.......................................*.*.*.*.*.*...............................................O.O.X...o.o.o.X.",
"........o.o.o.o.................................*.*.*.*.*.*.*.7.7.7.*.*.7.......................................O...X.X.......X.",
"........o.o.o.o...............................*.*.*.*.i.i.i.i.i.i.i.7.*.7.7.*.;.....................................X.X.........",
"........o.o.o.............................o.*.*.*.i.i.i.i.i.k.k.i.i.i.i.7.7.7.*.o...................................X...........",
"X.X.X.O.o...o...o.......................*.7.w.i.i.i.i.i.x.x.M.M.M.M.x.i.i.i.7.*.*...................................X.X.X.X.X.X.",
"7.7.7.7.1.1.7.7.o...................*.*.*.i.i.x.x.x.x.x.Z.Z.Z.Z.Z.Z.M.x.x.x.i.7.*.o.................................X.X.X.X.X.X.",
"7.7.7.7.1.1.1.7...................*.*.*.i.i.x.x.v.B.M.Z.Z.Z.Z.Z.Z.Z.Z.B.Z.x.x.i.7.*.*...............................X.X.X.X.X.X.",
"7.7.7.7.1.1.1.X...............;.*.*.*.i.i.x.x.V.Z.Z.Z.1 1 + o o o # 1 1 Z.Z.x.i.i.w.*.*.............................X.X.X.X.X.X.",
"1.1.1.1.7.7.7...............;...*.*.i.i.x.x.Z.Z.V.> @                   + v <.,.i.i.i.*.*...............X...............X.X.X.X.",
"7.7.1.1.7.7.7.X.X.X.....*.7.7.7.i.i.x.M.Z.Z.+.i r 0 %                 % 0 p y m B.B.M.k.i.w.7.7.O...o.o.O.O.X.X.o.o.o.o.O.X.X...",
"7.7.7.7.7.7.1.X.X.X...*.*.7.7.9.i.i.M.Z.Z.H ; 5 8 y 5 +             + 5 y g S S G N.B.M.k.i.w.7.O.O.o.o.O.X...X.o.o.O.o.O.X.....",
"7.7.7.7.7.7.1.X.X.X.;.*.7.7.7.i.i.x.M.V.#.z $ % : y 0 %             % 7 d U L L f m #.x.k.k.w.w.7.O.o.O.O.X.....o.o.O.O.O.X.....",
"7.7.7.7.1.1.X.X.X.X.7.*.7.7.9.i.i.x.Z.#.j $ + % % 7 d 7 X           : 0 S L L L s p v #.M.k.w.w.7.O.o.o.o.......o.o.O.O.X.......",
"............................*.*.i.i.$.z @ + + # % 5 y 0 +           5 s S L L S d s 0 b M.x.i.w.7.7.O.o.........................",
"............................*.*.:.:.M +     + # % % 5 y #         + 0 d L S g d s y 0 6 +.x.i.w.7.7.O...........................",
"............................*.*.:.' 3       + + # % % 8 :         % s d L d s d y 0 8 * 8 M.i.i.w.7.O...........................",
"............................*.*.i.w &           + # % 5 9 R K.L.J.g s L S s y y 8 5 % + = u i.i.w.7.O...........................",
"............................*.*.i.$                 + 7 ^ T.Q.Q.Q.U.E d g 0 0 7 % +       - i.i.7.7.o...........................",
"............................*.*.i.$                 4 L.Q.Q.Q.Q.Q.Q.Q.! 0 7 1 +           # i.i.*...............................",
"............................*.*.i.                  Z Q.Q.Q.Q.Q.Q.Q.Q.Q.J 1                 i.i.*...............................",
"............................*.*.i.                  P.Q.Q.Q.Y.K Y.Q.Q.Q.Q.                  i.7.................................",
"............................*.*.i.                  Q.Q.Q.Q.S   D Q.Q.Q.Q.                  i.7.................................",
"..........................*.*.*.i.                  E.Q.Q.Q.K.9 H.Q.Q.W.E.                  i.7.;...............................",
"..........................;.*.*.i.                  ~ Q.Q.Q.Q.Q.Q.Q.Q.R.Q +                 i.7.................................",
"............................o.*.i.+                 4 I.Q.Q.Q.Q.Q.Q.Q.U.5 5 % +           O i.*.................................",
"............................*.*.:.#                 + F T.Q.Q.Q.Q.Q.Q.U % 0 0 5 #         # i.*.................................",
"..............................*.*.c             + : 5 y T / T.Q.T.W g # + 6 0 y 7 % +   . > w.*.................................",
"................................*._ $         # 5 7 0 y I K A t :         % 5 y s y 5 + e @.w.o.................................",
"................................*.o.x .     % 5 7 0 s L L S 0 +           # 1 8 y s 0 2 v w.w.o.................................",
"..................................o.( 1 # 1 7 0 0 g S P L d 5             + + % 0 y r l ,.w.7...................................",
"......................................M 1 6 0 y p g P Y S y %               + % 5 0 w C w.w.O...................................",
"....................................*.} b q 0 s d S P P L y %               + + $ 1 M ;.........................................",
"........................................*.V q 0 S U P P S y %                 @ $ w ] ..........................................",
"..........................................*.n w p L L L g 8 %               @ h N | ............................................",
"............................................| C i a y P d 7 %             < e ` ................................................",
"..............................................*.} B , p 6 % +       $ $ 2 n ] ..................................................",
"X.X.O...........................................*.*.} C C V B B B V ( ( }  ...........X.................o.o.o.o.................",
"O.X.O...............................................*.*.*.*...........................X.................o.o.o.o.................",
"X.X.O.................................................................................X.X...............o.o.o.o.................",
"X.X.O..................................................... . . . . . . . .............X.X...............o.o.o.o.................",
"o.o.o.o.o.o.o.o.X.X.X.X....................... . .{ { [ [ [ [ [ [ [ [ { { { |  . .......................o.o.o.o.................",
"o.o.o.o.o.o.o.o.X.X.X.X..................... . .{ ) ) ) ) ) ) ) ) ) ) ) ) ) [ [  . .....................o.o.o.o.................",
"o.o.o.o.o.o.o.o................................. .{ [ [ [ [ ) ) [ [ [ [ [ [ {  . .......................o.o.o.o.................",
"o.o.o.o.o.o.o.o................................... . . . . . . . . . . . . . ...........................o.o.o.o.................",
"................................................................................................................................",
"................o.o.o.o.........................................................................................................",
"................o.o.o.o.........................................................................................................",
"................o.o.o.o.........................................................................................................",
"................O.O.O.O.........................................................................................................",
"o.o.o...........................................................................................o.o.o...........................",
"o.o.o...........................................................................................o.o.o...........................",
"o.o.o...........................................................................................................................",
"o.o.o...........................................................................................................................",
"o.o.o.o.........................................................................................................................",
"7.7.7.7.7.7.7.7.................................................................................................................",
"7.7.7.7.7.7.7.7................................................................................................................."
};
