/* XPM */
static const char *ZXhpdA__[] = {
/* columns rows colors chars-per-pixel */
"64 64 174 2 ",
"   c #FDAF51",
".  c #F4B655",
"X  c #FCB453",
"o  c #FFBD54",
"O  c #FDB45C",
"+  c #FEBE5B",
"@  c #F6BC63",
"#  c #FBBC64",
"$  c #FCBF6B",
"%  c #FCBD73",
"&  c #FFC05D",
"*  c #FFC363",
"=  c #FFC56B",
"-  c #FFC86E",
";  c #F6C373",
":  c #FFC771",
">  c #FFC974",
",  c #F4C37A",
"<  c #FFCC7B",
"1  c #FCC585",
"2  c #FFCF83",
"3  c #FAC788",
"4  c #FDCC89",
"5  c #FFD085",
"6  c #FFD28B",
"7  c #EFCD95",
"8  c #FBC790",
"9  c #F4CD93",
"0  c #FBCA92",
"q  c #FACD9C",
"w  c #FFD594",
"e  c #F2D19B",
"r  c #FFD699",
"t  c #FFD99C",
"y  c #FACEA2",
"u  c #EFD5AA",
"i  c #F0D3A4",
"p  c #FAD3A4",
"a  c #FFDBA3",
"s  c #F4D7AD",
"d  c #F9D4AE",
"f  c #FFDEAA",
"g  c #F7DFB7",
"h  c #F0DBB8",
"j  c #FFE0AE",
"k  c #FFE2B4",
"l  c #FFE5BC",
"z  c #EEE1CB",
"x  c #FFE7C1",
"c  c #FFE9C4",
"v  c #FBE4CC",
"b  c #FFEBCC",
"n  c #EEE4D0",
"m  c #EEE9DD",
"M  c #FAE4D2",
"N  c #F5E8D3",
"B  c #FFEED2",
"V  c #FDEDDA",
"C  c #FFF0D7",
"Z  c #FFF2DD",
"A  c #ECEAE3",
"S  c #EBEDEC",
"D  c #FFF4E3",
"F  c #F4F4EF",
"G  c #FEF6EC",
"H  c #FFF8ED",
"J  c #EBEFF2",
"K  c #FAEFF1",
"L  c #EDF2F4",
"P  c #F5F5F3",
"I  c #FBF4F5",
"U  c #FCF5F2",
"Y  c #F7F8F3",
"T  c #F7F8F4",
"R  c #F8F8F3",
"E  c #FFF9F0",
"W  c #FFF9F1",
"Q  c #FEFAF1",
"!  c #FFFAF1",
"~  c #FDF9F3",
"^  c #FEF9F2",
"/  c #FFF9F2",
"(  c #FEF8F3",
")  c #FFF9F3",
"_  c #FEFAF2",
"`  c #FFFAF2",
"'  c #FEFAF3",
"]  c #FFFAF3",
"[  c #F9F8F4",
"{  c #F8F9F4",
"}  c #F9F9F4",
"|  c #F8F9F5",
" . c #FBF8F4",
".. c #FBF9F5",
"X. c #F9FAF5",
"o. c #F8F8F6",
"O. c #F8F9F6",
"+. c #F8F8F7",
"@. c #FAF9F7",
"#. c #F9FAF7",
"$. c #FBFAF6",
"%. c #FBFBF7",
"&. c #FDF8F4",
"*. c #FCF9F4",
"=. c #FDF9F4",
"-. c #FDF9F5",
";. c #FEF9F4",
":. c #FEFAF4",
">. c #FFFAF4",
",. c #FFFBF4",
"<. c #FFFBF5",
"1. c #FCFAF6",
"2. c #FDFAF6",
"3. c #FCFBF6",
"4. c #FDFBF6",
"5. c #FFFBF6",
"6. c #FEFAF7",
"7. c #FEFBF7",
"8. c #FFFBF7",
"9. c #FFFCF6",
"0. c #FEFCF7",
"q. c #FFFCF7",
"w. c #FEFAF4",
"e. c #F1F5F8",
"r. c #F2F6F8",
"t. c #F5F8F8",
"y. c #F5F8F9",
"u. c #F6F8F8",
"i. c #F6F9F9",
"p. c #F6F9FA",
"a. c #F6F9FA",
"s. c #F8F9F8",
"d. c #F9F9F8",
"f. c #F9FAF8",
"g. c #FBFBF8",
"h. c #FBFAF9",
"j. c #F8FAFB",
"k. c #FAFAFB",
"l. c #FAFBFB",
"z. c #FBFBFB",
"x. c #FEFBF8",
"c. c #FDFAFA",
"v. c #FDFBFB",
"b. c #FCFCF9",
"n. c #FEFCF8",
"m. c #FFFCF8",
"M. c #FEFCF9",
"N. c #FDFCFB",
"B. c #FDFDFB",
"V. c #FEFCFA",
"C. c #FEFDFA",
"Z. c #FFFDFA",
"A. c #FEFCFB",
"S. c #FEFDFB",
"D. c #FFFDFB",
"F. c #FFFEFB",
"G. c #FBFCFD",
"H. c #FBFDFD",
"J. c #FDFCFC",
"K. c #FCFDFC",
"L. c #FCFDFD",
"P. c #FDFDFD",
"I. c #FEFDFC",
"U. c #FFFDFC",
"Y. c #FFFEFC",
"T. c #FEFEFD",
"R. c #FFFEFD",
"E. c #FDFDFE",
"W. c #FDFEFE",
"Q. c #FEFEFE",
"!. c #FFFEFE",
"~. c #FFFFFE",
"^. c white",
"/. c #FFFFFF",
/* pixels */
"^.^.^.^.^.^.^.^.^.^.^.^.^.^.^.^.^.^.^.^.^.^.^.^.^.^.^.^.^.^.^.^.^.^.^.^.^.^.^.^.^.^.^.^.^.^.^.^.^.^.^.^.^.^.^.^.^.^.^.^.^.^.^.^.",
"^.^.^.^.^.^.^.^.^.^.^.^.^.^.^.^.^.^.^.^.^.^.^.^.^.^.^.^.^.^.^.^.^.^.^.^.^.^.^.^.^.^.^.^.^.^.^.^.^.^.^.^.^.^.^.^.^.^.^.^.^.^.^.^.",
"^.^.^.^.^.^.^.^.^.^.^.^.^.^.^.^.^.^.^.^.^.^.^.^.^.^.^.^.^.^.^.^.^.^.^.^.^.^.^.^.^.^.^.^.^.^.^.^.^.^.^.^.^.^.^.^.^.^.^.^.^.^.^.^.",
"^.^.^.^.^.^.^.^.^.^.^.^.^.^.^.^.^.^.^.^.^.^.^.^.^.^.^.^.^.^.^.^.^.^.^.^.^.^.^.^.^.^.^.^.^.^.^.^.^.^.^.^.^.^.^.^.^.^.^.^.^.^.^.^.",
"^.^.^.^.^.^.^.^.^.^.^.^.^.^.^.^.^.^.^.^.^.^.^.^.^.^.^.^.^.^.^.^.^.^.^.^.^.^.^.^.^.^.^.^.^.^.^.^.^.^.^.^.^.^.^.^.^.^.^.^.^.^.^.^.",
"^.^.^.^.^.^.M.M.^.^.^.^.^.^.^.^.^.^.^.^.^.^.^.^.^.^.^.^.^.^.^.^.^.^.^.^.^.^.^.^.^.M.M.^.^.^.^.^.^.^.^.^.^.^.^.^.^.^.^.^.^.^.^.^.",
"^.^.^.^.^.^.;.;.^.^.^.^.^.^.^.^.^.^.^.^.^.^.^.^.^.^.^.^.^.^.^.^.^.^.^.^.^.^.^.^.M.;.;.^.^.^.^.^.^.^.^.^.^.^.^.^.^.^.^.^.^.^.^.^.",
"^.^.^.^.^.M.E E ^.^.^.^.^.^.^.^.^.^.^.^.^.^.^.^.^.^.^.^.^.^.^.^.^.^.^.^.^.^.^.^.;.G ^ M.^.^.^.^.^.^.^.^.^.^.^.^.^.^.^.^.^.^.^.^.",
"^.^.^.M.M.;.G G ;.x.M.^.^.^.^.^.^.^.^.^.^.^.^.^.^.^.^.;.Z x x b D M.^.^.^.^.M.0.^ G G ;.M.M.^.^.^.^.^.^.^.^.^.^.^.^.^.^.^.^.^.^.",
"^.^.^.;.^ H G G G E ;.M.^.^.^.^.^.^.^.^.^.^.^.^.^.^.^ Z a : : 5 l ^ ^.^.^.^.0.^ H G G G E ;.M.^.^.^.^.^.^.^.^.^.^.^.^.^.^.^.^.^.",
"^.^.M.;.^ H G G G E ;.M.^.^.^.^.^.^.^.^.^.^.^.^.^.0.Z x 2 o o = t Z ;.^.^.M.M.^ H G G G E ^ M.^.^.^.^.^.^.^.^.^.^.^.^.^.^.^.^.^.",
"^.M.$.$.;.^ G G ;.M.^.^.^.^.^.^.^.^.^.^.^.^.^.^.^.D t < * o o & : f D ;.z.$.$.;.^ G G ^ M.M.^.^.^.^.^.^.^.^.^.^.^.^.^.^.^.^.^.^.",
"z.z.$.Y Y $.^ ^ M.^.^.^.^.^.^.^.^.^.^.^.^.^.^.H B f > & o o o o & r V $.$.$.R $.;.^ ^ 0.^.^.^.^.^.^.^.^.^.^.^.^.^.^.^.^.^.^.^.^.",
"u.u.$.P P P ;.0.^.^.^.^.^.^.^.^.^.^.^.^.^.^.^.Z f < * o o o o o & w N P u.$.P P u.;.M.M.^.^.^.^.^.^.^.^.^.^.^.^.^.^.^.^.^.^.^.^.",
"J L u.u.P P z.^.^.^.^.^.^.^.^.^.^.^.^.^.^.^.^.B w & o o o o o o + 9 z S L u.T P P z.^.^.^.^.^.^.^.^.^.^.^.^.^.^.^.^.^.^.^.^.^.^.",
"J L L u.$.$.^.^.^.^.^.^.^.^.^.^.^.^.^.^.^.^.;.c 6 & o o o o o o @ 9 z A S L z.$.$.^.^.^.^.^.^.^.^.^.^.^.^.^.^.^.^.^.^.^.^.^.^.^.",
"L L L u.z.^.^.^.^.^.^.^.^.^.^.^.^.^.^.^.^.M.Z f 2 & o o o o o + ; e h n S L u.z.^.^.^.^.^.^.^.^.^.^.^.^.^.^.^.^.^.^.^.^.^.^.^.^.",
"L L L u.G.^.^.^.^.^.^.^.^.^.^.^.^.^.^.^.^.^ f < * o o o o o o $ 9 i 7 u m L u.^.^.^.^.^.^.^.^.^.^.^.^.^.^.^.^.^.^.^.^.^.^.^.^.^.",
"L e.z.G.^.^.^.^.^.^.^.^.^.^.^.^.^.^.^.^.^.H 5 + o o o o o X X % p s , , e g G M.^.^.^.^.^.^.^.^.^.^.^.^.^.^.^.^.^.^.^.^.^.^.^.x.",
"e.u.^.^.^.^.^.^.^.^.^.^.^.^.^.^.^.^.^.M.;.D 2 o o o o o X X O % p p , @ * < C ^ M.^.^.^.^.^.^.^.^.^.^.^.^.^.^.^.^.^.^.^.^.^.x.I ",
"z.^.^.^.^.^.^.^.^.^.^.^.^.^.^.^.^.^.^.G b k : o o o o o X O % 0 q 3 = + o * f b D ^.^.^.^.^.^.^.^.^.^.^.^.^.^.^.^.^.^.^.^.^.I K ",
"^.^.^.^.^.^.^.^.^.^.^.^.^.^.^.^.^.^.M.Z f < * o o o o o O % 8 d 0 $ + o o & < r c ^ M.^.^.^.^.^.^.^.^.^.^.^.^.^.^.^.^.^.^.^.x.I ",
"^.^.^.^.^.^.^.^.^.^.^.^.^.^.^.^.^.^.M.B w & + o o o o & > 0 q y 1 O o o o o * < a V H M.^.^.^.^.^.^.^.^.^.^.^.^.^.^.^.^.^.^.^.x.",
"^.^.^.^.^.^.^.^.^.^.^.^.^.^.^.^.^.^.M.b 6 o o o o o + = a l p % # o o o o o o & : f V ;.^.^.^.^.^.^.^.^.^.^.^.^.^.^.^.^.^.^.^.^.",
"^.^.^.^.^.^.^.^.^.^.^.^.^.^.^.^.^.^.M.Z k 6 * o o * 5 a b D c r w < * o o o o o & < t x 0.^.^.^.^.^.^.^.^.^.^.^.^.^.^.^.^.^.^.^.",
"^.^.^.^.^.^.^.^.^.^.^.^.^.^.^.^.^.^.^.;.D b 2 * * > l Z ^ ;.G Z V f < * & & o o o * = 5 G M.^.^.^.^.^.^.^.^.^.^.^.^.^.^.^.^.^.^.",
"^.^.^.^.^.^.^.^.^.^.^.^.^.^.^.^.^.^.^.^.^.^ f 5 6 a Z M.^.^.^.^.M.B f 6 5 5 & o o o o : D M.^.^.^.^.^.^.^.^.^.^.^.^.^.^.^.^.^.^.",
"^.^.^.^.^.^.^.^.^.^.^.^.^.^.^.^.^.^.^.^.^.^.D Z Z D ;.^.^.^.^.^.^.^ D Z Z b : + o o o : D M.^.^.^.^.^.^.^.^.^.^.^.^.^.^.^.^.^.^.",
"^.^.^.^.^.^.^.^.^.^.^.^.^.^.^.^.^.^.^.^.^.^.^.M.M.M.^.^.^.^.^.;.Z c l l l j = = < < = > D M.^.^.^.^.^.^.^.^.^.^.^.^.^.^.^.^.^.^.",
"^.^.^.^.^.^.^.^.^.^.^.^.^.^.^.^.^.^.^.^.^.^.^.^.^.^.^.^.^.^.^.G l 6 2 2 2 < * < a f < < D M.^.^.^.^.^.^.^.^.^.^.^.^.^.^.^.^.^.^.",
"^.^.^.^.^.^.^.^.^.^.^.^.^.^.^.^.^.^.^.^.^.^.^.^.^.^.^.^.^.^.^.G c r w w w w r j V b 6 < D M.^.^.^.^.^.^.^.^.^.^.^.^.^.^.^.^.^.^.",
"^.^.^.^.^.^.^.^.^.^.^.^.^.^.^.^.^.^.^.^.^.^.^.^.^.M.^ G G G G D B x l l l l c b D B t 6 G M.^.^.^.^.^.^.^.^.^.^.^.^.^.^.^.^.^.^.",
"^.^.^.^.^.^.^.^.^.^.^.^.^.^.^.^.^.^.^.^.^.^.^.^.^.^ B x l l l l l k k k k k l b D Z k j H M.^.^.^.^.^.^.^.^.^.^.^.^.^.^.^.^.^.^.",
"^.^.^.^.^.^.^.^.^.^.^.^.^.^.^.^.^.^.^.^.^.^.^.^.^.D r > - - - - = - - - - - > w b ^ G G M.^.^.^.^.^.^.^.^.^.^.^.^.^.^.^.^.^.^.^.",
"^.^.^.^.^.^.^.^.^.^.^.^.^.^.^.^.^.^.^.^.^.M.b l l k f t t t t t t t r t t t t f k l l x ;.^.^.^.^.^.^.^.^.^.^.^.^.^.^.^.^.^.^.^.",
"^.^.^.^.^.^.^.^.^.^.^.^.^.^.^.^.^.^.^.^.^.^ r > : 2 k c b b b b b b b b b b c k w > : 5 G M.^.^.^.^.^.^.^.^.^.^.^.^.^.^.^.^.^.^.",
"^.^.^.^.^.^.^.^.^.^.^.^.^.^.^.^.^.^.^.^.^.H 2 + o = a l x x x x x x x x x x l f < + o : D M.^.^.^.^.^.^.^.^.^.^.^.^.^.^.^.^.^.^.",
"^.^.^.^.^.^.^.^.^.^.^.^.^.^.^.^.^.^.^.^.^.H 2 + o & < 5 5 5 5 5 5 5 5 5 5 5 5 < = o o : D M.^.^.^.^.^.^.^.^.^.^.^.^.^.^.^.^.^.^.",
"^.^.^.^.^.^.^.^.^.^.^.^.^.^.^.^.^.^.^.^.^.H 2 o o o + & & & & & & & & & & & & + o o o : D M.^.^.^.^.^.^.^.^.^.^.^.^.^.^.^.^.^.^.",
"^.^.^.^.^.^.^.^.^.^.^.^.^.^.^.^.^.^.^.^.^.H 2 o o o o o o o o o o o o o o o o o o o o = D M.^.^.^.^.^.^.^.^.^.^.^.^.^.^.^.^.^.^.",
"^.^.^.^.^.^.M.M.^.^.^.^.^.^.^.^.^.^.^.^.^.H 2 o o o o o o o o o o o o o o o o o o o o : D M.^.^.^.^.^.^.^.^.^.^.^.^.^.^.^.^.^.^.",
"^.^.^.^.^.^.;.^ ^.^.^.^.^.^.^.^.^.^.^.M.^ D 5 * * & + o o o o o o o o o o o o o + + + < Z ^ M.^.^.^.^.^.^.^.^.^.^.^.^.^.^.^.^.^.",
"^.^.^.^.^.M.E E ^.^.^.^.^.^.^.^.^.^.^.H C x t 6 5 2 * o o o o o o o o o o o o * > 2 2 w l b H ^.^.^.^.^.^.^.^.^.^.^.^.^.^.^.^.^.",
"^.^.^.M.M.;.G G ;.x.^.^.^.^.^.^.^.^.^ b r < l Z Z x 2 * & & & & & & & & & & * < a c b x < 5 b ^ ^.^.^.^.^.^.^.^.^.^.^.^.^.^.^.^.",
"^.^.^.M.;.^ G G E ^ ;.M.^.^.^.^.^.;.V f 2 * f c c l r 5 2 2 2 2 5 5 5 2 2 2 5 w a k k f = : f B H ^.^.^.^.^.^.^.^.^.^.^.^.^.^.^.",
"^.M.b.x.;.^ G G ^ ;.x.^.^.^.^.^.M.D r = & o * = = < k b B B B B B B B B B b b k 6 = = * o + = w b M.^.^.^.^.^.^.^.^.^.^.^.^.^.^.",
"^.b.$.$.;.^ G G ;.M.^.^.^.^.^.^.M.D 5 & o o o o o = a l x x x x x x x x l l k a < o o o o o & 2 b M.^.^.^.^.^.^.^.^.^.^.^.^.^.^.",
"z.z.$.$.$.;.^ ^ M.^.^.^.^.^.^.^.;.Z 5 & o o o o o & > 2 2 2 2 2 2 2 2 2 2 2 2 > * o o o o o & 2 x ^ M.^.^.^.^.^.^.^.^.^.^.^.^.^.",
"e.u.$.P F P ;.M.^.^.^.^.^.^.^.^ B k > + o o o o o o o o o o o o o o o . o o o X X o o o o o + : a b D ^.^.^.^.^.^.^.^.^.^.^.^.^.",
"L L u.P F P z.^.^.^.^.^.^.^.M.D f 2 * o o o o o o o o o o o o o o . . . . o o X X o o o o o o & > a b M.^.^.^.^.^.^.^.^.^.^.^.^.",
"L L L u.z.z.^.^.^.^.^.^.^.^.M.Z w = o o o o o o o o o o o o o o o . . . . . o o o o o o o o o o & 5 l 0.^.^.^.^.^.^.^.^.^.^.^.^.",
"L L L u.z.^.^.^.^.^.^.^.^.M.H b 5 * o o o o o o o o o o o o o o . . . . . . o o o o o o o o o o + < k H M.^.^.^.^.^.^.^.^.^.^.^.",
"L L e.u.G.^.^.^.^.^.^.^.^.^ B a > & o o o o o o o o o o o o X X . . . . . . o o o o o o o o o o + : w b G M.^.^.^.^.^.^.^.^.^.^.",
"L e.l.^.^.^.^.^.^.^.^.^.M.D f > * & & & & & o o o o o o o X X X X . . . . o o o o o o o & & & & & * = f B 0.^.^.^.^.^.^.^.^.^.x.",
"e.u.^.^.^.^.^.^.^.^.^.^.M.H c t w w w w w 6 * o o o o o X X X   X X . . o o o o o o o & 6 w w w w w r l D M.^.^.^.^.^.^.^.^.x.I ",
"z.^.^.^.^.^.^.^.^.^.^.^.^.M.H D D D D D Z B 2 * & & & O O O O O O O O + + & & & & & & : b Z D D D D D G ;.^.^.^.^.^.^.^.^.^.I I ",
"^.^.^.^.^.^.^.^.^.^.^.^.^.^.^.^.^.^.^.^.^.^ f 6 6 6 6 6 4 1 1 1 3 4 4 6 6 6 6 6 6 6 6 t H M.^.^.^.^.^.^.^.^.^.^.^.^.^.^.^.^.x.I ",
"^.^.^.^.^.^.^.^.^.^.^.^.^.^.^.^.^.^.^.^.^.^.D Z Z Z Z Z V M M v M V V Z Z Z Z Z Z Z Z D M.^.^.^.^.^.^.^.^.^.^.^.^.^.^.^.^.^.^.x.",
"^.^.^.^.^.^.^.^.^.^.^.^.^.^.^.^.^.^.^.^.^.^.^.^.^.^.^.^.^.x.I I I x.^.^.^.^.^.^.^.^.^.^.^.^.^.^.^.^.^.^.^.^.^.^.^.^.^.^.^.^.^.^.",
"^.^.^.^.^.^.^.^.^.^.^.^.^.^.^.^.^.^.^.^.^.^.^.^.^.^.^.^.^.^.^.v.^.^.^.^.^.^.^.^.^.^.^.^.^.^.^.^.^.^.^.^.^.^.^.^.^.^.^.^.^.^.^.^.",
"^.^.^.^.^.^.^.^.^.^.^.^.^.^.^.^.^.^.^.^.^.^.^.^.^.^.^.^.^.^.^.^.^.^.^.^.^.^.^.^.^.^.^.^.^.^.^.^.^.^.^.^.^.^.^.^.^.^.^.^.^.^.^.^.",
"^.^.^.^.^.^.^.^.^.^.^.^.^.^.^.^.^.^.^.^.^.^.^.^.^.^.^.^.^.^.^.^.^.^.^.^.^.^.^.^.^.^.^.^.^.^.^.^.^.^.^.^.^.^.^.^.^.^.^.^.^.^.^.^.",
"^.^.^.^.^.^.^.^.^.^.^.^.^.^.^.^.^.^.^.^.^.^.^.^.^.^.^.^.^.^.^.^.^.^.^.^.^.^.^.^.^.^.^.^.^.^.^.^.^.^.^.^.^.^.^.^.^.^.^.^.^.^.^.^.",
"^.^.^.^.^.^.^.^.^.^.^.^.^.^.^.^.^.^.^.^.^.^.^.^.^.^.^.^.^.^.^.^.^.^.^.^.^.^.^.^.^.^.^.^.^.^.^.^.^.^.^.^.^.^.^.^.^.^.^.^.^.^.^.^."
};
