/* XPM */
static char *dc31a257eb874f72d3e444fcfc233590TSc2Q7s6CFWTKqHf[] = {
/* columns rows colors chars-per-pixel */
"64 64 157 2 ",
"   c #654F3F",
".  c #6A4D3F",
"X  c #724C3E",
"o  c #7D4A3E",
"O  c #66503F",
"+  c #68503E",
"@  c #7A533A",
"#  c #664E40",
"$  c #A53E3C",
"%  c #AD3D3C",
"&  c #B03F3F",
"*  c #BE7D1F",
"=  c #81473F",
"-  c #8B453E",
";  c #90453E",
":  c #9C413E",
">  c #8B5536",
",  c #845A37",
"<  c #8B5935",
"1  c #805638",
"2  c #945835",
"3  c #905138",
"4  c #B55D2D",
"5  c #AE4536",
"6  c #A1413D",
"7  c #AF403D",
"8  c #B14D35",
"9  c #B0423E",
"0  c #B34B3B",
"q  c #B84E3F",
"w  c #B25332",
"e  c #B45830",
"r  c #91682E",
"t  c #956230",
"y  c #AC632D",
"u  c #AB6A2A",
"i  c #BA6D26",
"p  c #B4642B",
"a  c #B8662A",
"s  c #B46A28",
"d  c #BA6A2A",
"f  c #AF7724",
"g  c #B37325",
"h  c #BB7423",
"j  c #BD7921",
"k  c #BF7328",
"l  c #A56030",
"z  c #BB6336",
"x  c #C17030",
"c  c #CC7F34",
"v  c #B14140",
"b  c #B54B43",
"n  c #B84F46",
"m  c #B75145",
"M  c #BA5447",
"N  c #BD5847",
"B  c #BB5449",
"V  c #BE5A49",
"C  c #C15D4B",
"Z  c #C2614C",
"A  c #C6684F",
"S  c #C9744A",
"D  c #C76A51",
"F  c #CD7455",
"G  c #D27D59",
"H  c #BF801D",
"J  c #C48621",
"K  c #C68827",
"L  c #CA8B26",
"P  c #CD8E29",
"I  c #CF902B",
"U  c #D2932D",
"Y  c #D69631",
"T  c #D89731",
"R  c #DC9B35",
"E  c #DE9E38",
"W  c #E09F37",
"Q  c #E09F39",
"!  c #E4A33C",
"~  c #E8A73F",
"^  c #E9A83F",
"/  c #D88543",
"(  c #D4825A",
")  c #D8875D",
"_  c #D88A5F",
"`  c #E6A641",
"'  c #EFAE46",
"]  c #EEAC44",
"[  c #EBAA43",
"{  c #EEAF49",
"}  c #ECAE4C",
"|  c #EEAF4A",
" . c #F1AF46",
".. c #F0AF47",
"X. c #F3B148",
"o. c #F2B149",
"O. c #F1B14A",
"+. c #F4B34B",
"@. c #F5B44B",
"#. c #F7B64E",
"$. c #F5B34B",
"%. c #F8B64D",
"&. c #F9B74E",
"*. c #F8B74F",
"=. c #F8B64D",
"-. c #FAB84F",
";. c #FAB84F",
":. c #F4B655",
">. c #F8B750",
",. c #F9B951",
"<. c #FAB950",
"1. c #FBB951",
"2. c #FBB950",
"3. c #FBBA53",
"4. c #FCBA51",
"5. c #FDBB52",
"6. c #FDBB53",
"7. c #FEBC53",
"8. c #F9BB57",
"9. c #FFBD54",
"0. c #FDBD57",
"q. c #FFBE57",
"w. c #FFBD54",
"e. c #F0B658",
"r. c #FFBF59",
"t. c #FCBE5B",
"y. c #FFBF59",
"u. c #DB8D60",
"i. c #E5A068",
"p. c #E9A76B",
"a. c #E8A56A",
"s. c #ECAC6D",
"d. c #EEB06F",
"f. c #F3B872",
"g. c #FFC05B",
"h. c #FFC05D",
"j. c #FEC15F",
"k. c #FEC05E",
"l. c #FFC05D",
"z. c #FEC161",
"x. c #FEC262",
"c. c #FEC365",
"v. c #FEC364",
"b. c #FEC467",
"n. c #FEC264",
"m. c #FEC468",
"M. c #FEC469",
"N. c #FEC46A",
"B. c #FEC56B",
"V. c #FEC56D",
"C. c #FDC66F",
"Z. c #FEC66E",
"A. c #FEC56B",
"S. c #FEC771",
"D. c #FEC772",
"F. c #FEC976",
"G. c #FDC874",
/* pixels */
"v v v b v b v v v v & % % % v % % % % % % % & % & % 7 % % & % % % % % v $ & & & % % % % % % % % % % % % % % % % % % % % & & & & ",
"v b v v v v v v & & & & & % % 7 % % % % % % 9 % % % % % % & % % % % v % v v v $ % % % % % % % % % % % % % % % % % % % % & % & & ",
"b v v v v v v v & & & & % 7 7 7 % % % % & % & & v % 7 % $ % % v v v % v & & v & % % % % % % % % % % % % % % % % % % % % % & & & ",
"v v v v v v v v & % % % % % % $ $ % % % % & % & % % 7 % v % % % % % v % $ & & & % % % % % % % % % % % % % % % % % % % % & & % & ",
"7 7 % v 9 % 7 v % % % % % % % % % $ % % % & % % & % $ % % v v % & $ $ & & & $ & % % % % % % % % % % % % % % & & & & & & & & & & ",
"7 7 & 9 9 v 7 7 % % % % % $ % $ % % % % % % % % % v v % % % % % % & & & & & & % % % % % % % % % % % % % % % & % & & & & & & & & ",
"v v % % 7 7 9 7 % $ % % % % $ % % % % % % % % % % % v v v $ v $ & & v & & $ & & % % % % % % % % % % % % % % % % & & & & % & & & ",
"7 % & 9 7 7 7 v % % % % % % % $ % % % % % % % % v & % v v v v v $ & $ & v v v & % % % % % % % % % % % % % % % % & & & & & & & & ",
"9 % % % 7 7 7 7 % % % % % % % % % % % % % % % % % % % % % % % % v % % % % % % % % % % % % % % % % % % % % % % % % & & % & & & & ",
"% % % % 7 7 7 7 % % % & % % % % % % % % % % % % % % % % % b b % % % % % % % % % % % % % $ % % $ % % % % % % % & & % & % & % & % ",
"& % % 7 % 7 % 7 % % % & % % % % $ $ % % % % % % & % % V ( V.b.0.% & % % % % % % % % % % % % % % % % % % % % % % & & % & % & & % ",
"& % % % 7 7 7 v % 5 % % % % % % % % % % % % % % % % D p.b.y.g.7.0.% % % % % % % % % % % $ % % $ % % % % % % & % % & & & & % & & ",
"& & & & v & v % 7 v 7 % % % % % % % % % % % % % % F Z.j.-.=.&.7.6.& % & % % % % % % % % % % % % % % % % % & % & % & & % & & & & ",
"v v v v & v & v 7 % & 7 % % % % % % % % % 9 % v B Z.x.7.X.[ X.7.7.& & % % & % % % % % % % % $ % % % % % % % % % & & % & & & & & ",
"v & & v & v v v % & % % % % % % % % % & % & % M _ b.7.[ R ! ^ ;.7.v & % % % % % % % % % % % % % % % % % % & % & % & % & & & & & ",
"v v v v v & & v % & % % % % % % & % % % % % b _ Z.j.X.T P T o.7.>.9 & & % % % % % % % % % % % % % % % % & & % % % & & % & & & & ",
"v & v & v v & & % % % % % % % % % % & & & & F t.b.X.E P P ! ;.7.x h 8 7 % & % % % % % % % % % % % % % % % & 5 & & % & & & & & & ",
"v v & v & v v & % % % % % % & % & & & & & & G t.3. .Y I T ] 5.7.h h 0 N 5 % % & % % % & % % % & % % % % & & & % & & 5 & & & & & ",
"v v v v & v & & % % % % % % % % & % & & v n f.y. .T P T ^ @.7.@.h i g.Z.G & % & % % & & % & & & % % % % & % & & % 5 & & & & & & ",
"v v v v v & v & % % % % % % % % & & & & v G x.&.! P P ^ X.-.-.h * Q 7.g.b.C % & & % & 5 % % 5 % % 5 % % & % & % & & & & & & & & ",
"& & & & v & & & % % % % % % % % % & % % B B.0.X.P P R  .-.-.c * h &.0.7.t.V.V & % & % 5 % 5 & & 5 % & & & & & & & & 5 & & & & & ",
"& & % % & % % % % % % % % % % % % % % % C Z.,.[ U U ^ -.-.c h i &.5.7.0.y.t.V.C % & % & & % & & % % & % % 5 % % % & % % & & % % ",
"& % % % % % % % % $ % % % % $ % % % % % b M.>.[ ! ~ &.7.-.x i L ] 7.7.7.7.7.t.S.C & % & & & % & % 5 % % % % % % % % % % % % % % ",
"% % % % % % % % % % $ % % % % % % % % % n b.,. .X.-.7.7.q 8 4 * L ! -.0.y.7.y.t.t.x & % % & & % % % & & % % % % % % % % % % % % ",
"% % % & % % % % % $ % % % % % % % % % % % ] X.6.6.7.7.b % % 5 i * J I ~ >.7.0.0.g.v.B.q % 9 & % % % % % % % % % % % % % % % % % ",
"% % % % % % % % % % $ % % % $ % $ % % % % % &.1.6.7.9 % % % $ 5 4 i * J T $.7.7.-.g.b.D v % & % % % % % % % % % % % % % % % % % ",
"% % % % % % % % % % $ % % % % % % % % % % % % % % % % % % % % % % 5 4 h L U X.0.-.g.7.g.& % & % % % % % % % % % % % % % % % % % ",
"% % % % % % % % % % % % $ $ % $ % % % % % % % % % % % % % % $ $ % % % w i h ! 7.g.7.7.-.& & & % % % % % $ % % $ % % % % % % % % ",
"% % % % % % % % % $ % % % % % % % % % % % % % % % % % % % % % % b ( G ) S a ` 0.^ ^ X.-.% % % % % % % % % % $ % % % % % % % % % ",
"% % % % % % % % % % % $ $ % % $ $ % % % % % % % % % % % $ % % % b Z.Z.G.S.y.7.7.~ h ~ -.% % % % % % % % % % % % % % % % % % % % ",
"% % % % % % % % % % $ % % % % % % % % % % % % % % % % % % % % % 5 | { } ` Q ! ! T h T ~ % % % % % % % % % $ % $ $ % % % % % % % ",
"% % % % % % % % % % % % % % % % % % % % % % % % $ b n M q n M M z d a a a a a a i h T T % % % % % % % % % $ % % $ % % % % % % % ",
"% % % % % % % % $ % % % % % % $ % % % % % % % % m C.D.D.G.S.S.S.m.e.` [ X.&.@.X.! i W 5.& & % % % % % % % % $ % % $ % % % % $ % ",
"% % % % $ % % % % % % $ % % % % % % $ % % $ % 7 w { :.y.y.j.y.y.y.0.0.7.0.7.0.5.W i ~ 5.& & & % % % % % % % % $ % % % $ $ $ % $ ",
"% % % % % % % % % % % % % % % % % % % % % % b 0 a i i ~ 7.0.5.7.0.7.7.7.7.7.7.7.* i ^ g.% % % % % % % % $ % $ % % $ % % % % % % ",
"% % % % % % % % % % % % % % % % $ % % $ % % S.M.+.~ i h i i i * * * h i d i i 4 g.^ g.g.& % & % % % % % % % % % % % % % % % % % ",
"% % % % % % % % $ % $ % % % % % % % $ % $ 0 S.y.7.7.j H * * * * H * H j j j h a -.g.g.-.& 5 % % % % % % % % % % % % % % % % % % ",
"% $ % % % % % $ % % % % $ % $ $ % % $ % % 7 Z.y.0.7.a j i i p a i a d i h a e 5 g.g.-.g.& % % % % % % % % % % % % % % % % % % % ",
"% $ % % % % $ % % % % $ % % % % % % % $ % % g.g.g.-.7.7.7.g.7.7.7.0.7.7.7.7.0.0.g.-.-.-.& & % % % % % % % % % % % % % % % % % % ",
"% % % % % % % % % % % % % % % $ $ % % % % 0 j.g.-.g.7.0.7.0.g.7.7.7.7.g.g.7.0.7.-.g.7.% % % % % % % % % % $ % % % % % % % % % % ",
"% % 5 $ % % % % % % % % % % $ % % % % % $ % W ^ 7.g.7.g.g.b.B.b.B.B.B.B.b.0.7.0.7.7.7.8 5 % % % % % % % % % % % % % % % % % % % ",
"% $ % % % % % % % % $ $ % % % % $ % % % % % X.^ -.7.7.7.7.j.b.B.b.x.x.g.0.0.7.7.7.] R a w % % % % % % % % % % % % % % % % % % % ",
"% % % % % % % % % % % % % $ % % % % % $ & 9 x h h i 5.5.7.7.7.7.7.7.7.7.0.0.7.7.~ * * i 8 % % % % % % % % % % % % % % % % % % % ",
"% % % % % % $ % % % % % % % % % % % % % b.6.h j * * W ~ ' @.7.7.7.0.7.;.@.X.] E P * * i y.b.9 % % % % % % % % % % % % % % % % % ",
"% % % % % % % % % $ % % % $ % $ % % 9 ( M.7.d j h j j h i * i * h j h h h h h h h i h p y.B.Z.M % % % % % % 5 % % % % % % % % % ",
"% % % % % % % % % $ % % % % % % % M B.b.M.y.a * h * j j * * * * * H * * * * * * j @.0.7.5.x.S.Z.5 % % % % % % % % % % % % % % % ",
"% % % % % % % % % $ % % % % % % M b.B.b.x.0.' h * i i * * * * * j j * H * * * * i 5.7.7.0.7.B.G.u.q % % % % % % % % % % % % % % ",
"% % % % % % % % % % $ % % % % m M.x.b.0.0.7.0.] d i h i i i * H h i i h h h i h a ,.0.7.7.7.g.Z.s.c % % % % % % % % % % % % % % ",
"% 5 % % & & & & % & & % % % & S g.g.g.g.-.g.g.g.g.^ g.^ ^ ^ ^ ^ ^ ^ { g.g.{ g.^ =.4.g.-.g.-.-.g.t.a.v & 7 7 7 7 % % $ % % % % % ",
"% % % % & 5 5 & & % & % % % C y.g.g.g.-.&.g.g.g.g.g.g.g.g.g.g.g.g.g.e.g.{ { g.^ g.4.-.g.g.g.g.g.M.s.n & % 7 7 6 % % $ % % % % % ",
"& & 5 % & & & & & & % & % % & t.g.-.-.g.g.g.j.b.Z.Z.g.g.g.@.g.g.g.@.e.@.g.{ g.g.^ g.g.g.-.g.-.g.b.d.C & 7 7 7 7 % % % % % % % % ",
"& 5 % % & & 5 & % & & & % & C f.-.g.g.g.&.g.g.v.b.b.b.v.g.g.g.g.:.:.e.e.} g.@.g.g.g.^ g.g.-.g.-.y.i.M & 7 7 7 v % % % % % % % % ",
"5 & % & % & & & % & % 7 % % b y.0.7.g.-.7.0.7.0.g.g.g.g.g.g.g.{ :.:.:.:.@.g.g.@.4.4.g.4.7.7.0.g.=.z 8 % % 7 $ % % % % & % % % % ",
"% % % % % % % % 9 7 9 7 & % % ` ~ ;.-.g.7.7.7.0.g.g.4.-.4.4.g.{ :.:.:.:.g.7.@.g.g.4.5.5.7.0.7.;.Q a w % % % v % $ % $ $ % % % $ ",
"& % % & & % & % 9 % 7 7 7 % 7 d L I ^ -.7.g.0.7.g.g.-.g.g.g.X.g.:.:.:.g.7.7.7.g.5.5.g.5.0.7.] Y h a 7 % % % % % % % % % % % % % ",
"% % % % % % % % 7 9 7 7 % % % 8 s K L U Y T E ` g.&.g.-.4.=.g.{ :.:.+.g.7.7.7.7.7.g.-.^ ! I J * g w % % $ % % % $ & % $ % % % % ",
"% % % % % % & % & 7 % % % % % % ; 3 y g * i * L Q ! Q ! Q ! Q ` ! ! ! ~ ~ ! ! ! ` Q Y h j j f r # : & % $ % % & % % % $ % % % % ",
"& 5 9 % & & % % % % % % % % % % $ - o o @ @ > > 2 l z a a p p p s u p y y u y p y l l s u t , 3 v v % $ & % % % % $ % % % v % $ ",
"% 9 & % % & % & % % % % % % % % % $ $ : = o X . # # # # # # # # + + + +       + # # # # # - $ % v v & % % % % $ % % % $ % $ % % ",
"7 % % & % % & % % % % % $ % % % % % $ $ % % $ : ; - = - ; # # # . . . .   . . X = - - - 7 & % % % & % & $ $ & $ % $ % % % v % % ",
"7 7 7 7 % & % % % % % % % % % % $ % $ % % % % % % % % % $ : : ; : : : : 6 : $ $ $ % % $ & % % & % % % % $ % % % $ % $ & % % $ % ",
"7 7 7 7 & % & & & % & % % % $ % % % % % % $ % % % % & % % % & & & % & % % % % & & % % & $ % % % % % % % % % % % % % % % % v & v ",
"v v v v & & & & & % % & % % % % $ % % % % % % % % % % % % & % & % % v % % v & % & & v % % % % $ & $ & % % & % % % % % % & $ & $ ",
"v v v 7 & & & & & & % % % % % % % % $ % $ % % & % & % % % $ & & % & % v % % % % % % % % % & & % % % % % % % % % % % % $ & & & & "
};
