/* XPM */
static char *_f25e7c4fd7f4b769acfefaa004745bftPfy6oxOQW6oqM6C[] = {
/* columns rows colors chars-per-pixel */
"64 64 162 2 ",
"   c #19191C",
".  c #1A1D14",
"X  c #2B1D0C",
"o  c #261916",
"O  c #2B1B13",
"+  c #251B1C",
"@  c #2C1A1B",
"#  c #321C13",
"$  c #31181E",
"%  c #1D1D25",
"&  c #1F1D2A",
"*  c #1B1625",
"=  c #1B1D31",
"-  c #221C25",
";  c #211D2B",
":  c #2D1E2A",
">  c #2A1925",
",  c #241E31",
"<  c #2E1537",
"1  c #351928",
"2  c #1E202B",
"3  c #1F2123",
"4  c #242225",
"5  c #23202A",
"6  c #2A212C",
"7  c #2A292E",
"8  c #272431",
"9  c #3B2A34",
"0  c #302D3C",
"q  c #44281F",
"w  c #7B2524",
"e  c #7C272A",
"r  c #73493B",
"t  c #694939",
"y  c #3D3B47",
"u  c #7C327F",
"i  c #4D4C53",
"p  c #4F4F5D",
"a  c #5D575C",
"s  c #56545E",
"d  c #584B48",
"f  c #634D4D",
"g  c #595563",
"h  c #595764",
"j  c #B5051B",
"k  c #8D1D22",
"l  c #822B26",
"z  c #89302B",
"x  c #843134",
"c  c #CA0019",
"v  c #CD0F23",
"b  c #D01F2E",
"n  c #DA2B2B",
"m  c #DB3333",
"M  c #9C4B3B",
"N  c #BE6E24",
"B  c #C06F2A",
"V  c #BE6464",
"C  c #DD950B",
"Z  c #D69B0C",
"A  c #DE9511",
"S  c #D6921D",
"D  c #DB921F",
"F  c #E2940D",
"G  c #E1980B",
"H  c #E18F17",
"J  c #E19114",
"K  c #E79913",
"L  c #E9A015",
"P  c #F3A51E",
"I  c #C08B23",
"U  c #D58F20",
"Y  c #DA9424",
"T  c #DA9629",
"R  c #D49529",
"E  c #E39F27",
"W  c #D7A12E",
"Q  c #DBA434",
"!  c #EDA523",
"~  c #EEA924",
"^  c #EDA629",
"/  c #E5A827",
"(  c #F1A622",
")  c #F0A728",
"_  c #F0AA22",
"`  c #E7A737",
"'  c #E5B13F",
"]  c #E8B23F",
"[  c #AB8344",
"{  c #BCA479",
"}  c #E8AF40",
"|  c #E1A146",
" . c #E5B140",
".. c #EAB158",
"X. c #F3BD5C",
"o. c #DD9C6D",
"O. c #CB9B7F",
"+. c #DD9C73",
"@. c #D39C79",
"#. c #DA9875",
"$. c #E69A67",
"%. c #E19C6E",
"&. c #E19C73",
"*. c #E5977B",
"=. c #DAA069",
"-. c #C1A776",
";. c #C1A974",
":. c #EFBE60",
">. c #E5A87B",
",. c #F1A37C",
"<. c #F6CD69",
"1. c #F5C575",
"2. c #F4CB75",
"3. c #F3CA7A",
"4. c #F2C77C",
"5. c #7B3784",
"6. c #862D8E",
"7. c #882A93",
"8. c #B726A6",
"9. c #B525AC",
"0. c #BF22AC",
"q. c #BF25BA",
"w. c #C41FAD",
"e. c #C421A5",
"r. c #C421AC",
"t. c #C523B8",
"y. c #CF6AC7",
"u. c #D865C4",
"i. c #D666CB",
"p. c #DB6FCE",
"a. c #D867C8",
"s. c #CB73C6",
"d. c #D76CD1",
"f. c #E06FCE",
"g. c #E476D8",
"h. c #D19F83",
"j. c #EC9F84",
"k. c #CFA286",
"l. c #D0A286",
"z. c #EEBE96",
"x. c #EEBD99",
"c. c #F1BD96",
"v. c #F1BD9A",
"b. c #F9BA93",
"n. c #E9BEA7",
"m. c #E7BEA9",
"M. c #EABDA9",
"N. c #F7C681",
"B. c #F1C880",
"V. c #EDC09D",
"C. c #F2C09C",
"Z. c #FAC099",
"A. c #E5C0A8",
"S. c #E6C5B9",
"D. c #EADFEE",
"F. c #E9D7F0",
"G. c #EEDCF5",
"H. c #EDDCF8",
"J. c #F1DBF4",
"K. c #F1DCF8",
"L. c #FEFAFE",
"P. c #FDFCFD",
/* pixels */
"V V V V V V V V V V V V V V V V V V V V V V V V V V V V V V V V V V V V V V V V V V V V V V V V V V V V V V V V V V V V V V V V ",
"V V V V V V V V V V V V V V V V V V V V V V V V V V V V V V V V V V V V V V V V V V V V V V V V V V V V V V V V V V V V V V V V ",
"V V V V V V V V V V V V V V V V V V V V V V V V V V V V V V V V V V V V V V V V V V V V V V V V V V V V V V V V V V V V V V V V ",
"V V V V V V V V V V V V V V V V V V V V V V V V V V V V V V V V V V V V V V V V V V V V V V V V V V V V V V V V V V V V V V V V ",
"V V V V V V V V V V V V V V V V V V V V V V V V V V V V V V V V V V V V V V V V V V V V V V V V V V V V V V V V V V V V V V V V ",
"V V V V V V V V V V V V V V V V V V V V V V V V V V V % % & & & ; % & & % V V V V V V V V V V V V V V V V V V V V V V V V V V V ",
"V V V V V V V V V V V V V V V V V V V V V V V V V V V ;   & & & ; ; ; * & V V V V V V V V V V V V V V V V V V V V V V V V V V V ",
"V V V V V V V V V V V V V V V V V V V V V V V V 9 9 4 3.3.3.2.2.2.3.3.3.2.- ; ; V V V V V V V V V V V V V V V V V V V V V V V V ",
"V V V V V V V V V V V V V V V V V V V V V V i f ;.{ { ' ' '  .} W Q '  .} [ [ { d i V V V V V V V V V V V V V V V V V V V V V V ",
"V V V V V V V V V V V V V V V V V V V V V V , q 3.2.2.~ ~ ~ ) / K H ~ ~ ~ ! ~ 3.@ 5 V V V V V V V V V V V V V V V V V V V V V V ",
"V V V V V V V V V V V V V V V V V V V V 5 & N.1.P P P ~ ~ ~ C C w w C _ ~ ( ( ~ 4.1.& 5 V V V V V V V V V V V V V V V V V V V V ",
"V V V V V V V V V V V V V V V V V V V V ; ; B.<.~ ~ ~ ~ ~ ! C F w l F ! ~ ~ ( ~ 2.4., & V V V V V V V V V V V V V V V V V V V V ",
"V V V V V V V V V V V V V V V V V V V V & & ! ~ ~ ~ ~ ~ ! L z w &.&.x e x A C ~ ! ~ = & V V V V V V V V V V V V V V V V V V V V ",
"V V V V V V V V V V V V V V V V V V V V ; ; ^ ~ c c ~ j c B M M %.%.M c c N c c ~ ! = % V V V V V V V V V V V V V V V V V V V V ",
"V V V V V V V V V V V V V V V V V V V V & & ) c & & j 1 & c &.o.%.%.c ; & c & & c P = % V V V V V V V V V V V V V V V V V V V V ",
"V V V V V V V V V V V V V V V V V V V V & & c & & & & & & & c x.C.c & & ; & & & ; c 2 2 V V V V V V V V V V V V V V V V V V V V ",
"V V V V V V V V V V V V V V V V V V V V & & c & ; % & & & & c c c c & & ; & & ; % c = & V V V V V V V V V V V V V V V V V V V V ",
"V V V V V V V V V V V V V V V V V V V V % & c & & & ; & ; & v v.V.c & & & & & % & c = & V V V V V V V V V V V V V V V V V V V V ",
"V V V V V V V V V V V V V V V V V V V V ; p ^ c ; ; ; ; % c x.v.x.v.c * & % & & c :.* & V V V V V V V V V V V V V V V V V V V V ",
"V V V V V V V V V V V V V V V V V V V & ; = ..` j & & ; c v.v.v.v.v.j.n & ; & c | Q : , 5 V V V V V V V V V V V V V V V V V V V ",
"V V V V V V V V V V V V V V V V V V V a X.X.A R l c c c c.c.m m m m v.v.c c c w Y J ` / 5 V V V V V V V V V V V V V V V V V V V ",
"V V V V V V V V V V V V V V V V V V V * :.` F U w =.&.b.v.C.n n n m v.v.c.+.*.w D G ! / & V V V V V V V V V V V V V V V V V V V ",
"V V V V V V V V V V V V V V V V V V V g Z F Y G J 9 2 o.%.%.o.o.o.%.&.&.+.> % H F F F C g V V V V V V V V V V V V V V V V V V V ",
"V V V V V V V V V V V V V V V V V V V % R I S S S . * @.@.@.@.@.@.@.@.@.#.2 : Y T Y T R & V V V V V V V V V V V V V V V V V V V ",
"V V V V V V V V V V V V V V V V V V V V 9 9 9 9 9 D.G.2 & 2 % 2 % & 2 % % G.H.& & & & & V V V V V V V V V V V V V V V V V V V V ",
"V V V V V V V V V V V V V V V V V V V V V V ; * P.P.P.G.G.F.G.G.G.G.G.D.G.P.P.P.& & V V V V V V V V V V V V V V V V V V V V V V ",
"V V V V V V V V V V V V V V V V V V V V V V &   P.P.P.G.J.G.J.K.G.G.G.J.G.P.P.P.% & V V V V V V V V V V V V V V V V V V V V V V ",
"V V V V V V V V V V V V V V V V V V V V V V &   P.5 ; P.P.P.P.P.P.P.P.P.P.; % P.4 & V V V V V V V V V V V V V V V V V V V V V V ",
"V V V V V V V V V V V V V V V V V V V V V V &   P.5 & P.P.P.P.L.P.P.P.P.P.& & P.% & V V V V V V V V V V V V V V V V V V V V V V ",
"V V V V V V V V V V V V V V V V V V V V V V %   P.5 & P.P.P.K.G.G.D.P.P.P.& % P.% & V V V V V V V V V V V V V V V V V V V V V V ",
"V V V V V V V V V V V V V V V V V V V V V V & > V.; ; D.D.D.G.G.J.G.D.D.D.; - +.> & V V V V V V V V V V V V V V V V V V V V V V ",
"V V V V V V V V V V V V V V V V V V V V V V % O x.= & K.G.G.G.G.K.G.G.G.G.& ; +.@ & V V V V V V V V V V V V V V V V V V V V V V ",
"V V V V V V V V V V V V V V V V V V V V & & v.Z.+.% & G.K.G.G.K.G.K.H.G.G.& & +.c.c.* 2 V V V V V V V V V V V V V V V V V V V V ",
"V V V V V V V V V V V V V V V V V V V V & ; z.C.#.4 , K.G.G.K.K.G.G.K.F.G.- + *.b.z.& & V V V V V V V V V V V V V V V V V V V V ",
"V V V V V V V V V V V V V V V V V V V V ; & %.h.& P.P.& ; K.G.H.G.K.K.5 ; P.P.& m.z.& & V V V V V V V V V V V V V V V V V V V V ",
"V V V V V V V V V V V V V V V V V V V V & & %.k.& 5 & y.d.9.9.9.9.9.8.y.p.- & & m.x.= & V V V V V V V V V V V V V V V V V V V V ",
"V V V V V V V V V V V V V V V V V V V V & & &.l.& & 2 p.i.w.w.w.w.w.w.i.g.& & & m.c.& % V V V V V V V V V V V V V V V V V V V V ",
"V V V V V V V V V V V V V V V V V V V & & ; %.l.& u.a.w.w.w.w.w.w.w.w.r.r.g.i.& n.c.& & & V V V V V V V V V V V V V V V V V V V ",
"V V V V V V V V V V V V V V V V V V V = = = &.k.& p.i.w.w.w.w.w.w.w.w.r.w.u.p.& n.c.; ; ; V V V V V V V V V V V V V V V V V V V ",
"V V V V V V V V V V V V V V V V V 0 # v.+.o.&.l.& t.r.w.w.w.w.w.w.w.w.w.w.w.r.& m.v.c.x.v.# & V V V V V V V V V V V V V V V V V ",
"V V V V V V V V V V V V V V V V V y a @ @ X %.l.; q.r.w.w.w.r.w.w.r.w.w.r.w.r.& k.+.o o o 6 & V V V V V V V V V V V V V V V V V ",
"V V V V V V V V V V V V V V V V V i h s ; ; %.l.& 0.e.e.e.w.0.0.r.r.e.r.e.e.e.& h.#.5 6 g ; & V V V V V V V V V V V V V V V V V ",
"V V V V V V V V V V V V V V V V V V V V V V ; & & &.%.%.o.%.- & & + o.o.%.%.&.% & & V V V V V V V V V V V V V V V V V V V V V V ",
"V V V V V V V V V V V V V V V V V V V V V V & & & &.&.o.%.%.- % ; - &.%.o.%.o.2 & & V V V V V V V V V V V V V V V V V V V V V V ",
"V V V V V V V V V V V V V V V V V V V V V V V V ; x.x.%.&.& V V V V & #.o.o.o.% V V V V V V V V V V V V V V V V V V V V V V V V ",
"V V V V V V V V V V V V V V V V V V V V V V V V & z.x.%.>.& V V V V * o.&.%.+.S.+ % V V V V V V V V V V V V V V V V V V V V V V ",
"V V V V V V V V V V V V V V V V V V V V V V V V & c.z.%.+.& V V V V & o.&.%.+.v.+ & V V V V V V V V V V V V V V V V V V V V V V ",
"V V V V V V V V V V V V V V V V V V V V V V V V & z.v.%.&.& V V V V V ; 2 $.o.C.+ & V V V V V V V V V V V V V V V V V V V V V V ",
"V V V V V V V V V V V V V V V V V V V V V V V V % z.v.%.+.; V V V V V 5 % $.>.C.+ & V V V V V V V V V V V V V V V V V V V V V V ",
"V V V V V V V V V V V V V V V V V V V V V V ; O c.o.%.& % V V V V V V 5 ; ,.o.V.+ & V V V V V V V V V V V V V V V V V V V V V V ",
"V V V V V V V V V V V V V V V V V V V V V V & O v.%.%.7 & V V V V V V V V r t j.> & V V V V V V V V V V V V V V V V V V V V V V ",
"V V V V V V V V V V V V V V V V V V V V V V ; O v.o.%.; 7 V V V V V V V V - & %.$ % V V V V V V V V V V V V V V V V V V V V V V ",
"V V V V V V V V V V V V V V V V V V V V V V ; O v.; & V V V V V V V V V V & & +.C.C.& % V V V V V V V V V V V V V V V V V V V V ",
"V V V V V V V V V V V V V V V V V V V V V V & O x.> & V V V V V V V V V V & ; &.z.v.& & V V V V V V V V V V V V V V V V V V V V ",
"V V V V V V V V V V V V V V V V V V V V V V = O +.& & V V V V V V V V V V V V & k.+.% & V V V V V V V V V V V V V V V V V V V V ",
"V V V V V V V V V V V V V V V V V V V V V V & O &.% = V V V V V V V V V V V V & @.+.% 2 V V V V V V V V V V V V V V V V V V V V ",
"V V V V V V V V V V V V V V V V V V V V V V & O +.& & V V V V V V V V V V V V & @.+.2 2 V V V V V V V V V V V V V V V V V V V V ",
"V V V V V V V V V V V V V V V V V V V V V V = < 6.2 & V V V V V V V V V V V V & 5.6.% % V V V V V V V V V V V V V V V V V V V V ",
"V V V V V V V V V V V V V V V V V V V V V V & < 7.2 & V V V V V V V V V V V V & u 7.% & V V V V V V V V V V V V V V V V V V V V ",
"V V V V V V V V V V V V V V V V V V V V V V V V V V V V V V V V V V V V V V V V V V V V V V V V V V V V V V V V V V V V V V V V ",
"V V V V V V V V V V V V V V V V V V V V V V V V V V V V V V V V V V V V V V V V V V V V V V V V V V V V V V V V V V V V V V V V ",
"V V V V V V V V V V V V V V V V V V V V V V V V V V V V V V V V V V V V V V V V V V V V V V V V V V V V V V V V V V V V V V V V ",
"V V V V V V V V V V V V V V V V V V V V V V V V V V V V V V V V V V V V V V V V V V V V V V V V V V V V V V V V V V V V V V V V ",
"V V V V V V V V V V V V V V V V V V V V V V V V V V V V V V V V V V V V V V V V V V V V V V V V V V V V V V V V V V V V V V V V "
};
