/* XPM */
static const char *c2Nvb3RlcjM_[] = {
/* columns rows colors chars-per-pixel */
"64 64 120 2 ",
"   c #010101",
".  c #0B0505",
"X  c #0C0C0C",
"o  c #180A07",
"O  c #160D0C",
"+  c #1A0F0E",
"@  c #1B100E",
"#  c #0B0E16",
"$  c #0F1010",
"%  c #111111",
"&  c #1E1916",
"*  c #171818",
"=  c #1A1A1A",
"-  c #230F0D",
";  c #34110D",
":  c #221914",
">  c #20161B",
",  c #201818",
"<  c #2D1A18",
"1  c #381712",
"2  c #28221D",
"3  c #161920",
"4  c #1F1F21",
"5  c #1E273E",
"6  c #232324",
"7  c #2F2726",
"8  c #2F2924",
"9  c #2E2F31",
"0  c #2F3032",
"q  c #313234",
"w  c #3B3733",
"e  c #3C3D3F",
"r  c #451A14",
"t  c #591B19",
"y  c #4C241F",
"u  c #412B1B",
"i  c #572922",
"p  c #4E3F2F",
"a  c #5E3E26",
"s  c #6B472C",
"d  c #6D492C",
"f  c #754E2F",
"g  c #754F30",
"h  c #7E5636",
"j  c #2A3247",
"k  c #2A344D",
"l  c #2A3655",
"z  c #303851",
"x  c #2F3F62",
"c  c #314368",
"v  c #3A4E7A",
"b  c #414346",
"n  c #4B4D4F",
"m  c #5D5748",
"M  c #4B4D50",
"N  c #4E5053",
"B  c #515151",
"V  c #54575A",
"C  c #56585A",
"Z  c #5F5F5F",
"A  c #605545",
"S  c #AD3D3C",
"D  c #B03F3F",
"F  c #855E3F",
"G  c #AF403D",
"H  c #B0403F",
"J  c #AE4242",
"K  c #B04140",
"L  c #96785D",
"P  c #9C7D5C",
"I  c #9F8160",
"U  c #978975",
"Y  c #A38261",
"T  c #BA966F",
"R  c #B7A07E",
"E  c #C4A07A",
"W  c #C8A47F",
"Q  c #D6AC7F",
"!  c #415685",
"~  c #405688",
"^  c #445B8F",
"/  c #475E93",
"(  c #495F90",
")  c #4B6294",
"_  c #5A6B93",
"`  c #556CA0",
"'  c #647BAF",
"]  c #6A7FAF",
"[  c #667DB3",
"{  c #709380",
"}  c #739984",
"|  c #7EA38F",
" . c #8395BC",
".. c #94B4A4",
"X. c #C7A482",
"o. c #CCAD8C",
"O. c #D0AD82",
"+. c #DAAF81",
"@. c #C8B38C",
"#. c #DDB284",
"$. c #D6B68B",
"%. c #D4B290",
"&. c #E0B486",
"*. c #E7BE8F",
"=. c #DEC39D",
"-. c #EAC393",
";. c #E6C99A",
":. c #F0CE9C",
">. c #E1C7A7",
",. c #E4CBA4",
"<. c #EACFAA",
"1. c #EFD9AA",
"2. c #F5D4A3",
"3. c #F7D8A6",
"4. c #F9DDAC",
"5. c #FFE2B0",
"6. c #8698C0",
"7. c #8D9FC7",
"8. c #8D9FC8",
"9. c #FBE5C0",
/* pixels */
"K K K K K K K K S S S S S G S S G G G S S G G S S S S S S S S S S S S S J J S S S J J S S S S S S S S S S S S S S S S S S S K K ",
"K K K K K K K K S S S S S G G G S S G S S S S S S S S S S S S S S S S S S J D J S D K S S S S S S S S S S S S S S S S S S S D S ",
"K K K K K K K K S S S S S G G G G S S S S S S S S S S S S S S S S S S S S S S D J D K S S S S S S S S S S S S S S S S S S S G S ",
"K K K K K K K K S S S S S S S S S S S S S S S S S S S S S S S S S S S S S G S S D S S S S S S S S S S S S S S S S S S S S S G G ",
"G G G S H G G G S S S S S S S S S S S S S S S S S S S S S S     = =           S S S S S S S S S S S S S S S S S K K K K D D K K ",
"G G S S G G G G S S S S S S S S S S S S S S S S S S S S $   =   = = = = = = &   S S S S S S S S S S S S S S S S D K K K D S D D ",
"G H S S G G G G S S S S S S S S S S S S S S S K S S S     = = = = = = = = = =     S S S S S S S S S S S S S S S S K K S S S D D ",
"D D S S G G G G S S S S S S S S S S S S S S S S S S     = = = = =     =   = = =     S S S S S S S S S S J S S S S S S S S S D K ",
"G S S S G G G G S S S S S S S S S S S S S S S S S       =     =           =           S S S S S S S S S S S S S H H D S G G G D ",
"S S S S G G G G S S S S S S S S S S S S   = = = =                             =       S S S S S S S S S S S S S H S D D S S S D ",
"S S S S G G G G S S S S S S S S S S S                                 = = = = = = d     S S S S S S S S S S S S S S D D S S S S ",
"S S S S G G G S S S S S S S S S S S S S                                           f   = S S S S S S S S S S S S S S D S S S S S ",
"D D D H G G G S G S S S S S S S S S S S S S S S S w :.:.2.2.2.2.                        S S S S S S S S S S S S S S D D D D D D ",
"K K K K K K K K G S S S S S S S S S S S S S S         :.        5.u u h h u d f f f   S S S S S S S S S S S S S S S D D D D D D ",
"K K K K K K K K S S S S S S S S S S S S S S S                               s f f f   S S S S S S S S S S S S S S S S D D D D D ",
"K K K K K K K D S S S S S S S S S S S S S S S         :.        5.5.3.&.&.  s f f a   S S S S S S S S S S S S S S S D D D D D D ",
"K K K K K K K S S S S S S S S S S S S S S S D D K   :.:.:.5.5.5.5.5.5.&.    s f f   S S S S S S S S S S D S S S S S S S D D D D ",
"K K K K K K K D D D S S J S S S S S K K K S K K K   F F F F F 5.5.5.5.&.  g f f g   S S S S S S S S G G H H D D G G G G H D D S ",
"K K K K K K K D D D D S J J S S S S K K K S S S K S   t t t F 5.5.2.2.&.P   s s   S S G H H H H G G G G H D S D G G G G H D S S ",
"K K K K K K K D D D D K K K S S S S K K K S S S K S     t 2.F 5.5.2.2.2.#.P :   S S S G H H H H G G G H H D S S G G H H H D S S ",
"K K K K D K K D D K D S S S S S S S K K K S S S S S S             p 2.2.&.Y 8 S S S S H G G H H G G G G G S S S G G G H D S S S ",
"S S S S S S S S S S S S S S K J S S K S S S S S S S S S S S S S S . 2.2.&.Y 2 S S S S D S S D D S S S S S S S S S S S S S S S S ",
"S S S S S S S S S S S S S S S S S S S S S S S S S S S S S S S S S X 2.2.2.          S D S S S S S S S S S S S S S S S S S S S S ",
"S S S S S S S S J S S S S S S S S S S S S S S S S S S S S S S S             Z Z Z Z   D S S S S D S S S S S S S S S S S S S S S ",
"S S S S S S S S J S S S S S S           S S S S S           S   Z Z Z Z Z Z Z   Z Z Z     S S S D D S S S S S S S S S S S S S S ",
"S S S S S S S S S S S S S S &   @.<.<.<.  S S S   <.<.<.R     Z Z   Z Z Z Z   Z Z Z Z Z   S S S S S S S S S S S S S S S S S S S ",
"S S S S S S S S S S S 7           -.-.            <.<.U     .   B   Z Z Z < O   Z Z Z Z     S S S S S S S S S S S S S S S S S S ",
"S S S S S S S S S S S   r r ; ;         r r r ;   m A     r r   B   B Z     9.    Z Z   Z . S S S S S S S S S S S S S S S S S S ",
"S S S S S S S S S S S     r r ; ; ; ; r r r r ;         r r r             9.9.o.  Z     Z . S S S S S S S S S S S S S S S S S S ",
"S S S S S S S S S S S S           ; ; r r r r ; ; ; ; ; r r r   ,.=.=.=.,.>.o.        B Z . S S S S S S S S S S S S S S S S S S ",
"S S S S S S S S S S S S S S S S   % %   . . . .               %.X.X.E W o.o.    B B B Z Z . S S S S S S S S S S S S S S S S S S ",
"S S S S S S S S S S S S S S S S S S S   ; r r ;   S S S S S   . = 6 *   X   B B B Z Z Z Z . S S S S S S S S S S S S S S S S S S ",
"S S S S S S S S S S S S S S S S S S S   ; r r ;   S S S S S S   B B B B B B B B Z Z Z Z Z . S S S S S S S S S S S S S S S S S S ",
"S S S S S S S S S S S S S S S G S S S   ; r r ;   S S S S S S               Z Z Z Z Z Z Z . S S S S S S S S S S S S S S S S S S ",
"S S S S S S S S S S S S S S S S S S S   ; r r ;   S S S S S S   l l l l l l             Z . S S S S S S S S S S S S S S S S S S ",
"S S S S S S S S S S S S S S S S S S S   ; r r ;   S S S S S   6.7.7.7.7.7.l l l l l l l   G G S S S S S S S S S S S S S S S S S ",
"S S S S S S S S S S S S S S S S S S S   ; r r ;   S S S     7.7.7.7./ / 7.7.7.7.) / ^ x % G G S S S S S S S S S S S S S S S S S ",
"S S S S S S S S S S S S S S S S S S S   ; r r ;   S S   / 7.7.7. ./ 5 / 7.7.7.7./ / / x % G G S S S S S S S S S S S S S S S S S ",
"S S S S S S S S S S S S S S S S S S S   ; r r ;   S     _ / / 7.7./ j 5 / ] 7.7.[ / ^ c 3 G G S S S S S S S S S S S S S S S S S ",
"S S S S S S S S S S S S S S S S S S S % ; r r ;   S         / / / / v   k / [ [ [ / ~ v     S S S S S S S S S S S S S S S S S S ",
"S S S S S S S S S S S S S S S S S S S X ; r r ;   S   $.2.$.  ^ / ^   #   _ / / / /       . S S S S S S S S S S S S S S S S S S ",
"S S S S S S S S S S S S S S S S S S S # ; r r ;   S   2.4.2.L   ^   S S S   ( / l     I     S S S S S S S S S S S S S S S S S S ",
"S S S S S S S S S S S S S S S S S S S % ; r r ;   S S . 2.2.Q     S S S S S   l     I T   S S S S S S S S S S S S K S S S S S S ",
"S S S S S S S S S S S S S S S S S S S % ; r r ;   S S . . 2.+.p   S S S S S S     O.-.*.+.      S S S S S S S S S S S S S S S S ",
"H H H S S S S S S S S S S S S S S S S % ; r r ;   S S S . ;.Q Q   S S S S S S S   1.1.1.&.&.  ..  X . .     G G S S S S S S S S ",
"H H H S S S S S S S S S S S S S S S S % ; r r ;   S S S S   . .   S S S S S S S S   . 1.4.#.  ..| }   ' ' !   G S S S S S S S S ",
"D D H S S S S S S S S S S S S S S S S % ; r r ;   S S S S   ..}   S S S S S S S S S S         { } }   ! ! !   G S S S S S S S S ",
"D H H S S S S S S S S S S S S S S S S % ; r r ;   S S S S   ..} . S S S S S S S S S S S S S S * . .   ! ! !   G S S S S S S S S ",
"G G G G G G G G D D D D S S S S S S S % ; r r ;   S S S           S S S S X X X X X X S S S S S S S   ! !   G G S S S S S S S S ",
"G G G G G G G G D D D D S S S S S S S . ; r r ;   i y y   c c c     X X X ; ; ; ; ; ; X X X X         ! !   G G S S S S S S S S ",
"G G G G G G G G S S S S S S S           ; r r ; -       c c c c     ; ; ; r r r r r r ; ; ; ; ; 1         G G G S S S S S S S S ",
"G G G G G G G G S S S S S S S   ; ; ; . ; r r ; o   c c c c c c     r r r r r r r r r r r r r r r       G G G G S S S S S S S S ",
"S S S S S S S S S S S S S S S S         ; r r ; ;     >             r r r r r r r r r r r r r r r r   S S S S S S S S S S S S S ",
"S S S S S S S S G G G G S S S S S   q X O O r r r ; ; ; ; ; ; ; ; ; ; ; ; ; ; ;           @ + + + O O S S S S S S S S S S S S S ",
"S S S S S S S S G G G G S S S S S S   0 q *         ; ; ; ; ;                   S S S S . q q q q   S S S S S S S S S S S S S S ",
"S S S S S S S S G G G G S S S S S S S     S S S S S           9   S S S S S S S S S S S S   V C   S S S S S S S S S S S S S S S ",
"S S S S S S S S H H H H S S S S S S S S S S S S S S S   4 4 6 N   S S S S S S S S S S S S S     S S S S S S S S S S S S S S S S ",
"G G G S S S S S S S S S S S S S S S S S S S S S S S S   z M n b   S S S S S S S S S S S S S S S G G G S S S S S S S S S S S S S ",
"G G G S S S S S S S S S S S S S S S S S S S S S S S S S   Z C % S S S S S S S S S S S S S S S S G G G S S S S S S S S S S S S S ",
"G G G S S S S S S S S S S S S S S S S S S S S S S S S S S   % S S S S S S S S S S S S S S S S S S S S S S S S S S S S S S S S S ",
"G G G S S S S S S S S S S S S S S S S S S S S S S S S S S S S S S S S S S S S S S S S S S S S S S S S S S S S S S S S S S S S S ",
"G G G G S S S S S S S S S S S S S S S S S S S S S S S S S S S S S S S S S S S S S S S S S S S S S S S S S S S S S S S S S S S S ",
"K K K K K K K K S S S S S S S S S S S S S S S S S S S S S S S S S S S S S S S S S S S S S S S S S S S S S S S S S S S S S S S S ",
"K K K K K K K K S S S S S S S S S S S S S S S S S S S S S S S S S S S S S S S S S S S S S S S S S S S S S S S S S S S S S S S S "
};
