/* XPM */
static const char *c2Nvb3RlcjI_[] = {
/* columns rows colors chars-per-pixel */
"64 64 151 2 ",
"   c #010101",
".  c #0B0505",
"X  c #0D0B09",
"o  c #050609",
"O  c #130707",
"+  c #180A07",
"@  c #150D0B",
"#  c #1A0E0C",
"$  c #1C130C",
"%  c #090B11",
"&  c #0F131C",
"*  c #111111",
"=  c #171818",
"-  c #1A1A1A",
";  c #260E0E",
":  c #2C0F0B",
">  c #21170F",
",  c #34110D",
"<  c #251B13",
"1  c #20161B",
"2  c #231C1A",
"3  c #2D1A18",
"4  c #361512",
"5  c #381712",
"6  c #391914",
"7  c #28221D",
"8  c #161920",
"9  c #1D1E23",
"0  c #141721",
"q  c #1A2236",
"w  c #1D263B",
"e  c #2F2726",
"r  c #2F2924",
"t  c #232324",
"y  c #37322E",
"u  c #2E2F31",
"i  c #222B3E",
"p  c #2F3032",
"a  c #323234",
"s  c #3C3A39",
"d  c #451A14",
"f  c #411818",
"g  c #591B19",
"h  c #4C241F",
"j  c #412B1B",
"k  c #572922",
"l  c #46382A",
"z  c #4E3F2F",
"x  c #5E3E26",
"c  c #7D2C2C",
"v  c #6B472C",
"b  c #6D492C",
"n  c #754E2F",
"m  c #764F30",
"M  c #7C5535",
"N  c #232D47",
"B  c #26324D",
"V  c #2A3655",
"C  c #2C3958",
"Z  c #313E5C",
"A  c #343E54",
"S  c #403043",
"D  c #314369",
"F  c #354363",
"G  c #3A4C79",
"H  c #46484B",
"J  c #5D5748",
"K  c #4B4D50",
"L  c #4E5053",
"P  c #515151",
"I  c #56585A",
"U  c #5F5F5F",
"Y  c #54575A",
"T  c #605545",
"R  c #4E6659",
"E  c #5F5F60",
"W  c #48597F",
"Q  c #5A7264",
"!  c #57627B",
"~  c #607E6E",
"^  c #9D3737",
"/  c #9D3838",
"(  c #973434",
")  c #A03737",
"_  c #A53A3A",
"`  c #AD3D3C",
"'  c #B03F3F",
"]  c #855E3F",
"[  c #AF403E",
"{  c #B0403F",
"}  c #825F40",
"|  c #AE4242",
" . c #B04140",
".. c #896240",
"X. c #8F6845",
"o. c #856141",
"O. c #906845",
"+. c #936B48",
"@. c #96785D",
"#. c #9C7D5C",
"$. c #978975",
"%. c #A38261",
"&. c #A98765",
"*. c #B7A07E",
"=. c #C8A47F",
"-. c #C4A07A",
";. c #D6AC7F",
":. c #415685",
">. c #445B8E",
",. c #485D8D",
"<. c #475E93",
"1. c #4C6297",
"2. c #5A6B93",
"3. c #5E7098",
"4. c #566588",
"5. c #596EA0",
"6. c #5F76A9",
"7. c #667DB3",
"8. c #739883",
"9. c #769A86",
"0. c #8DAD9D",
"q. c #BCA681",
"w. c #8395BC",
"e. c #96B7A6",
"r. c #C7A482",
"t. c #CCAD8C",
"y. c #D7AC81",
"u. c #DAAE81",
"i. c #C8B38C",
"p. c #D6B68B",
"a. c #DDB284",
"s. c #D4B290",
"d. c #E0B485",
"f. c #DEC39D",
"g. c #E5C293",
"h. c #E9C293",
"j. c #EBC898",
"k. c #E6C99A",
"l. c #F0CE9C",
"z. c #E1C7A7",
"x. c #E4CBA4",
"c. c #EACFAA",
"v. c #F4D4A3",
"b. c #F7D8A6",
"n. c #F9DBAA",
"m. c #FFE2B0",
"M. c #8597C0",
"N. c #8698C0",
"B. c #8C9EC6",
"V. c #8D9FC8",
"C. c #FBE5C0",
/* pixels */
" . . . . . . . .` ` ` ` ` [ ` ` [ [ [ ` ` [ [ ` ` ` ` ` ` ` ` ` ` ` ` ` ` ` | | ` ` ` ` ` ` ` ` ` ` ` ` ` ` ` ` ` ` ` ` ` ` '  .",
" . . . . . . . .` ` ` ` ` [ [ [ ` ` [ ` ` ` ` ` ` ` ` ` ` ` ` ` ` ` ` ` ` ` | | ` ` ` ` ` ` ` ` ` ` ` ` ` ` ` ` ` ` ` ` ` ` ' ` ",
" . . . . . . . .` ` ` ` ` [ [ [ [ ` ` ` ` ` ` ` ` ` ` ` ` `     - -           | ` ` ` ` ` ` ` ` ` ` ` ` ` ` ` ` ` ` ` ` ` ` [ [ ",
" . . . . . . . .` ` ` ` ` ` ` ` ` ` ` ` ` ` ` ` ` ` ` `         - - - - - -      .` ` ` ` ` ` ` ` ` ` ` ` ` ` ` ` ` ` ` ` ` [ [ ",
"[ [ [ ` { [ [ [ ` ` ` ` ` ` ` ` ` ` ` ` ` ` ` ` ` ` `     - - - - - - - - - -     ` ` ` ` ` ` ` ` ` ` ` ` ` ` `  . . . .' '  . .",
"[ [ ` ` [ [ [ [ ` ` ` ` ` ` ` ` ` ` ` ` ` ` ` ` ` `       - - - -     -   - - -     ` ` ` ` ` ` ` ` ` ` ` ` ` ` '  . . .' ` ' ' ",
"[ { ` ` [ [ [ [ ` ` ` ` ` ` ` ` ` ` ` ` ` ` `  .`       -     -           -           ` ` ` ` ` ` ` ` ` ` ` ` ` `  . .` ` ` ' ' ",
"' ' ` ` [ [ [ [ ` ` ` ` ` ` ` ` ` ` ` `         -                             -   `   ` ` ` ` ` ` ` ` ` | ` ` ` ` ` ` ` ` ` '  .",
"[ ` ` ` [ [ [ [ ` ` ` ` ` ` ` ` ` ` ` O                               - - - - - -   ` O ` ` ` ` ` ` ` ` ` ` ` ` { { ' ` [ [ [ ' ",
"` ` ` ` [ [ [ [ ` ` ` ` ` ` ` ` ` ` ` `                                             ` 2 ` ` ` ` ` ` ` ` ` ` ` ` { ` ' ' ` ` ` ' ",
"` ` ` ` [ [ [ [ ` ` ` ` ` ` ` ` ` ` ` ` ` ` ` ` `   m.m.m.m.m.} +.< < < < < < < > $   4 ` ` ` ` ` ` ` ` ` ` ` ` ` ` ' ' ` ` ` ` ",
"` ` ` ` [ [ [ ` ` ` ` ` ` ` ` ` ` ` ` ` ` ` ` ` ` y m.m.m.v.v.  o.X.O.O.O...M M n n   ` ` ` ` ` ` ` ` ` ` ` ` ` ` ` ' ` ` ` ` ` ",
"' ' ' { [ [ [ ` [ ` ` ` ` ` ` ` ` ` ` ` ` ` ` ` ` s l.l.v.v.v.v.  M M M M M m n n n   ` ` ` ` ` ` ` ` ` ` ` ` ` ` ` ' ' ' ' ' ' ",
" . . . . . . . .[ ` ` ` ` ` ` ` ` ` ` ` ` ` `         l.        m.j j M M j b n n n   ` ` ` ` ` ` ` ` ` ` ` ` ` ` ` ' ' ' ' ' ' ",
" . . . . . . . .` ` ` ` ` ` ` ` ` ` ` ` ` ` `                               v n n n   ` ` ` ` ` ` ` ` ` ` ` ` ` ` ` ` ' ' ' ' ' ",
" . . . . . . .' ` ` ` ` ` ` ` ` ` ` ` ` ` ` `         l.        m.m.b.d.d.  v n n x   ` ` ` ` ` ` ` ` ` ` ` ` ` ` ` ' ' ' ' ' ' ",
" . . . . . . .` ` ` ` ` ` ` ` ` ` ` ` ` ` ` ' '  .  l.l.l.m.m.m.m.m.m.d.    v n n   ` ` ` ` ` ` ` ` ` ` ' ` ` ` ` ` ` ` ' ' ' ' ",
" . . . . . . .' ' ' ` `  .` ` ` ` `  . . .`  . . .  ] ] ] ] ] m.m.m.m.d.  m n n m   ` ` ` ' ` ` ` ` [ [ { { ' ' [ [ [ [  .' ' ` ",
" . . . . . . .' ' ' ' ` | | ` ` ` `  . . .` ` `  .`   g g g ] m.m.v.v.d.#.  v v   ` ` [ { { { { [ [ [ [ { ' ` ` [ [ [ [ { ' ` ` ",
" . . . . . . .' ' ' '  . .| ` ` ` `  . . .` ` `  .`     g v.] m.m.v.v.v.a.#.<   ` ` ` [ { { { { [ [ { { { ' ` ` [ [ { { { ' ` ` ",
" . . . . . . .' '  .' ` ` ` ` ` ` `  . . .` ` ` ` ` `             z v.v.d.%.r ` ` ` ` { [ [ { { [ [ [ [ [ ` ` ` [ [ [ { ' ` ` ` ",
"` ` ` ` ` ` ` ` ` ` ` ` ` `  .| ` `  .` ` ` ` ` ` ` ` ` ` ` ` ` ` o v.v.d.%.7 ` ` ` ` ' ` ` ' ` ` ` ` ` ` ` ` ` ` ` ` ` ` ` ` ` ",
"` ` ` ` ` ` ` ` ` ` ` ` ` ` ` ` ` ` ` ` ` ` ` ` ` ` ` ` ` ` ` ` ` X v.v.v.          ` ' ` ` ` ` ` ` ` ` ` ` ` ` ` ` ` ` ` ` ` ` ",
"` ` ` ` ` ` ` ` | ` ` ` ` ` ` ` ` ` ` ` ` ` ` ` ` ` ` ` ` ` ` `             U U U U   ' ` ` ` ` ` ` ` ` ` ` ` ` ` ` ` ` ` ` ` ` ",
"` ` ` ` ` ` ` ` | ` ` ` ` ` `           ` ` ` ` `           `   U U U U U U U   U U U     ` ` ` ' ' ` ` ` ` ` ` ` ` ` ` ` ` ` ` ",
"` ` ` ` ` ` ` ` ` ` ` ` ` ` -   i.c.c.c.  ` ` `   c.c.c.*.    U U   U U U U   U U U U U   ` ` ` ` ` ` ` ` ` ` ` ` ` ` ` ` ` ` ` ",
"` ` ` ` ` ` ` ` ` ` ` e           h.h.            c.c.$.    o   P   U U U 3 @   U U U U     ` ` ` ` ` ` ` ` ` ` ` ` ` ` ` ` ` ` ",
"` ` ` ` ` ` ` ` ` ` `   d d , ,         d d d ,   J T     d d   P   P U     C.    U U   U o ` ` ` ` ` ` ` ` ` ` ` ` ` ` ` ` ` ` ",
"` ` ` ` ` ` ` ` ` ` `     d d , , , , d d d d ,         d d d             C.C.t.  U     U o ` ` ` ` ` ` ` ` ` ` ` ` ` ` ` ` ` ` ",
"` ` ` ` ` ` ` ` ` ` ` `           , , d d d d , , , , , d d d   x.f.f.f.x.z.t.        P U o ` ` ` ` ` ` ` ` ` ` ` ` ` ` ` ` ` ` ",
"` ` ` ` ` ` ` ` ` ` ` ` ` ` ` `   * *   . . . .               s.r.r.-.=.t.t.    P P P U U o ` ` ` ` ` ` ` ` ` ` ` ` ` ` ` ` ` ` ",
"` ` ` ` ` ` ` ` ` ` ` ` ` ` ` ` ` ` `   , d d ,   ` ` ` ` `   o - t =   X   P P P U U U U o ` ` ` ` ` ` ` ` ` ` ` ` ` ` ` ` ` ` ",
"` ` ` ` ` ` ` ` ` ` ` ` ` ` ` ` ` ` `   , d d ,   ` ` ` ` ` `   P P P P P P P P U U U U U o ` ` ` ` ` ` ` ` ` ` ` ` ` ` ` ` ` ` ",
"` ` ` ` ` ` ` ` ` ` ` ` ` ` ` [ ` ` `   , d d ,   ` ` ` ` ` `               E U U U U U U o ` ` ` ` ` ` ` ` ` ` ` ` ` ` ` ` ` ` ",
"` ` ` ` ` ` ` ` ` ` ` ` ` ` ` ` ` ` `   , d d ,   ` ` ` ` ` `   V V V V Z F A 9 o       U o ` ` ` ` ` ` ` ` ` ` ` ` ` ` ` ` ` ` ",
"` ` ` ` ` ` ` ` ` ` ` ` ` ` ` ` ` ` `   , d d ,   ` ` ` ` `   N.B.B.w.w.w.w.w.N N N N N   [ [ ` ` ` ` ` ` ` ` ` ` ` ` ` ` ` ` ` ",
"` ` ` ` ` ` ` ` ` ` ` ` ` ` ` ` ` ` `   , d d ,   ` ` `     B.B.B.B.>.Z 4.M.w.w.! <.<.N * [ [ ` ` ` ` ` ` ` ` ` ` ` ` ` ` ` ` ` ",
"` ` ` ` ` ` ` ` ` ` ` ` ` ` ` ` ` ` `   , d d ,   ` `   <.B.B.B.w.<.q X W w.w.w.3.<.<.N * [ [ ` ` ` ` ` ` ` ` ` ` ` ` ` ` ` ` ` ",
"` ` ` ` ` ` ` ` ` ` ` ` ` ` ` ` ` ` `   , d d ,   `     2.<.<.B.B.<.i X 5.w.w.w.w.>.<.N 8 ` [ ` ` ` ` ` ` ` ` ` ` ` ` ` ` ` ` ` ",
"` ` ` ` ` ` ` ` ` ` ` ` ` ` ` ` ` ` ` * , d d ,   `         <.<.<.<.G X <.7.w.w.w.1.>.N & ` ` ` ` ` ` ` ` ` ` ` ` ` ` ` ` ` ` ` ",
"` ` ` ` ` ` ` ` ` ` ` ` ` ` ` ` ` ` ` % , d d ,   `   p.v.p.  >.<.>.  X <.<.<.w.1.>.D i o ` ` ` ` ` ` ` ` ` ` ` ` ` ` ` ` ` ` ` ",
"` ` ` ` ` ` ` ` ` ` ` ` ` ` ` ` ` ` ` * , d d ,   `   v.n.v.@.  >.  ) X <.<.<.<.<.<.B 2   ` ` ` ` ` ` ` ` ` ` ` ` ` ` ` ` ` ` ` ",
"` ` ` ` ` ` ` ` ` ` ` ` ` ` ` ` ` ` ` * , d d ,   ` ` o v.v.;.    ` ` X 0 & % & q C X X ` ` ` ` ` ` ` ` ` ` ` ` `  .` ` ` ` ` ` ",
"` ` ` ` ` ` ` ` ` ` ` ` ` ` ` ` ` ` ` * , d d ,   ` ` o o v.u.z   ` ` X X X X X X X X ` ` ` ` ` ` ` ` ` ` ` ` ` ` ` ` ` ` ` ` ` ",
"{ { { ` ` ` ` ` ` ` ` ` ` ` ` ` ` ` ` * , d d ,   ` ` ` o k.;.;.o ` ` X q.v.v.&.X X ` ` ` ` ` ` ` ` ` ` ` ` [ [ ` ` ` ` ` ` ` ` ",
"{ { { ` ` ` ` ` ` ` ` ` ` ` ` ` ` ` ` * , d d ,   ` ` ` `   o o   ` ` X q.v.h.q.    ` ` ` ` ` ` ` ` ` ` ` ` ` ` ` ` ` ` ` ` ` ` ",
"' ' { ` ` ` ` ` ` ` ` ` ` ` ` ` ` ` ` * , d d ,   ` ` ` `   e.8.  ` ` ( X g.g.q.  ` ` ` ` ` ` ` ` ` ` ` ` ` ` [ ` ` ` ` ` ` ` ` ",
"' { { ` ` ` ` ` ` ` ` ` ` ` ` ` ` ` ` * , d d ,   ` ` ` `   e.8.o ` ` ` X v.j.y.@ ` ` ` ` ` ` ` ` ` ` ` ` ` ` ` ` ` ` ` ` ` ` ` ",
"[ [ [ [ [ [ [ [ ' ' ' ' ` ` ` ` ` ` ` * , d d ,   ` ` `           ` ` ` c X v.l X ; ` ` ` ` ` ` ` ` ` ` ` ` [ [ ` ` ` ` ` ` ` ` ",
"[ [ [ [ [ [ [ [ ' ` ' ' ` ` ` ` ` ` ` o , d d ,   k h h   D D D     X X X : . X 0.; # X X X X       ` ` ` ` [ [ ` ` ` ` ` ` ` ` ",
"[ [ [ [ [ [ [ [ ` ` ` ` ` ` `           , d d , ;       D D D D     , , , d ; Q 9.8.; + , , , , 5       ` [ [ [ ` ` ` ` ` ` ` ` ",
"[ [ [ [ [ [ [ [ ` ` ` ` ` ` `   , , , . , d d , +   D D D D D D     d d d d 6 @ R ~ X :.; d d d d       [ [ [ [ ` ` ` ` ` ` ` ` ",
"` ` ` ` ` ` ` ` ` ` ` ` ` ` ` `         , d d , ,     1             d d d d d 5 X ; C 6.:.; d d d d   ` ` ` ` ` ` ` ` ` ` ` ` ` ",
"` ` ` ` ` ` ` ` [ [ [ [ ` ` ` ` `   a X @ @ d d d , , , , , , , , , , , , , , ,   :.:.>.,.; # # # @ @ ` ` ` ` ` ` ` ` ` ` ` ` ` ",
"` ` ` ` ` ` ` ` [ [ [ [ ` ` ` ` ` `   p a =         , , , , ,                   ; :.:.:.B o u a a   ` ` ` ` ` ` ` ` ` ` ` ` ` ` ",
"` ` ` ` ` ` ` ` [ [ [ [ ` ` ` ` ` ` `     ` ` ` ` `           u   ` ` ` ` ` ; ; :.:.w S f   Y I   ` ` ` ` ` ` ` ` ` ` ` ` ` ` ` ",
"` ` ` ` ` ` ` ` { { { { ` ` ` ` ` ` ` ` ` ` ` ` ` ` `   9 9 t L   ` ` ` ` ` ; ; ; ; ; _ ^ `     ` ` ` ` ` ` ` ` ` ` ` ` ` ` ` ` ",
"[ [ [ ` ` ` ` ` ` ` ` ` ` ` ` ` ` ` ` ` ` ` ` ` ` ` `   A K K H   ` ` ` ` ` ` / _ ` _ ` ` ` ` ` [ [ [ ` ` ` ` ` ` ` ` ` ` ` ` ` ",
"[ [ [ ` ` ` ` ` ` ` ` ` ` ` ` ` ` ` ` ` ` ` ` ` ` ` ` `   E I * ` ` ` ` ` ` ` ` ` ` ` ` ` ` ` ` [ [ [ ` ` ` ` ` ` ` ` ` ` ` ` ` ",
"[ [ [ ` ` ` ` ` ` ` ` ` ` ` ` ` ` ` ` ` ` ` ` ` ` ` ` ` `   * ` ` ` ` ` ` ` ` ` ` ` ` ` ` ` ` ` ` ` ` ` ` ` ` ` ` ` ` ` ` ` ` ` ",
"[ [ [ ` ` ` ` ` ` ` ` ` ` ` ` ` ` ` ` ` ` ` ` ` ` ` ` ` ` ` ` ` ` ` ` ` ` ` ` ` ` ` ` ` ` ` ` ` ` ` ` ` ` ` ` ` ` ` ` ` ` ` ` ` ",
"[ [ [ [ ` ` ` ` ` ` ` ` ` ` ` ` ` ` ` ` ` ` ` ` ` ` ` ` ` ` ` ` ` ` ` ` ` ` ` ` ` ` ` ` ` ` ` ` ` ` ` ` ` ` ` ` ` ` ` ` ` ` ` ` ",
" . . . . . . . .` ` ` ` ` ` ` ` ` ` ` ` ` ` ` ` ` ` ` ` ` ` ` ` ` ` ` ` ` ` ` ` ` ` ` ` ` ` ` ` ` ` ` ` ` ` ` ` ` ` ` ` ` ` ` ` ",
" . . . . . . . .` ` ` ` ` ` ` ` ` ` ` ` ` ` ` ` ` ` ` ` ` ` ` ` ` ` ` ` ` ` ` ` ` ` ` ` ` ` ` ` ` ` ` ` ` ` ` ` ` ` ` ` ` ` ` ` "
};
