/* XPM */
static const char *dGF5dGF5bGVmdDI_[] = {
/* columns rows colors chars-per-pixel */
"64 64 60 1 ",
"  c #AD3D3C",
". c #1C1A24",
"X c #584B48",
"o c #F3CA7B",
"O c #C1A775",
"+ c #EEA924",
"@ c #E6B13F",
"# c #C07020",
"$ c #E4930E",
"% c #7B2722",
"& c #D39C78",
"* c #CA0019",
"= c #B2041B",
"- c #1F1D2A",
"; c #E29973",
": c #EDC09D",
"> c #F3BE99",
", c #E1A146",
"< c #E29D38",
"1 c #E4A33D",
"2 c #EBA31E",
"3 c #EBA72D",
"4 c #423120",
"5 c #4A3B39",
"6 c #5D5664",
"7 c #C08B23",
"8 c #49252B",
"9 c #EFDBF4",
"0 c #36313D",
"q c #FDFDFD",
"w c #FBF9F9",
"e c #F1E9E9",
"r c #261C26",
"t c #231C25",
"y c #2E1E27",
"u c #E19B6F",
"i c #CEA286",
"p c #241C25",
"a c #1D1A24",
"s c #D56CD2",
"d c #B525AB",
"f c #1F1B25",
"g c #C41FAD",
"h c #282229",
"j c #E09C6F",
"k c #261915",
"l c #F2BC98",
"z c #461B46",
"x c #A47355",
"c c #32282C",
"v c #AF7D5E",
"b c #F2BC96",
"n c #DD9C70",
"m c #E09E72",
"M c #4D3B38",
"N c #D69469",
"B c #D29166",
"V c #DF9C6F",
"C c #73493B",
"Z c #892A92",
/* pixels */
"                                                                ",
"                                                                ",
"                                                                ",
"                                                                ",
"                                                                ",
"                          ...XXX...                             ",
"                         ...XXXXX....                           ",
"                     ....oooooooooo...XX                        ",
"                     XOO++++@@@@@@ooOOO.                        ",
"                     XOo+.X+++++@@@ooOO..                       ",
"                    .oo@+#.##++++++++oOO.                       ",
"                    .+@$$%..#$$+++++++ooO.                      ",
"                    .++#%%&&.#$$+++++++oo.                      ",
"                    .+*#%.&&..#$++++++++@.                      ",
"                   ..=-*;;;;;..+++++++++@.                      ",
"                   .*--*;:::;..+++++++++@.                      ",
"                   .=--****:;..$++++++++@.                      ",
"                   .=--*=====..$++++++++@.                      ",
"                   .=--*>>>>>&.,++++++++@.                      ",
"                    .=-*>>>>;&.,,+++++++@@.                     ",
"                    .**;>>>;&&.<1+22+3++@@.                     ",
"                     .&&>>;;&.4$++$$+,++@oX                     ",
"                     .&&&&&&&.$$+$$$++++ooX                     ",
"                     XX.&&&.5.$$$$$$$$$+oo.                     ",
"                       .....6$,77$$$$77$o.8                     ",
"                          .996...........                       ",
"                         .999990........                        ",
"                        .qqqqqqqqwe..                           ",
"                        .qqqqqqqqqq.r                           ",
"                        .ee99.qq.qet                            ",
"                        ....9.qq.99y                            ",
"                          .99.ui.99t                            ",
"                          .99.ui.99p                            ",
"                          .99.uii.9r                            ",
"                          ..9.uii.9a                            ",
"                         ..sd.ui..dsf                           ",
"                         .ssg.ui..dss.                          ",
"                         .ggg.ui..ggg.                          ",
"                        .gggg.ui..gggg.                         ",
"                       ..ggg.hui..gggg.                         ",
"                      ..gg...jui..gggg..                        ",
"                      ..gg..jjjijkgggg..                        ",
"                       .....kjlljkz...                          ",
"                         ..xckkkk.v.                            ",
"                         ..bn.kk.mm.                            ",
"                         .bbbmmMMNB.                            ",
"                         .bbbmm.BBm.                            ",
"                        ..bbmm..BBmV.                           ",
"                        ..bbmC..BBmm.                           ",
"                        .bbmmC...bmm.                           ",
"                       .CbmB.....bVVC.                          ",
"                       ..mB..  ...bVC.                          ",
"                       ..mB..   ..BVV..                         ",
"                       .bmC.    ..Cbm..                         ",
"                       .bB..     .Cbm..                         ",
"                       .mB.      ..bb..                         ",
"                      ..mB.       .mm..                         ",
"                      ..ZZ.       ..ZZ.                         ",
"                      .ZZZ.       .ZZZ.                         ",
"                                                                ",
"                                                                ",
"                                                                ",
"                                                                ",
"                                                                "
};
