/* XPM */
static const char *dGF5dGF5Z3JhYg__[] = {
/* columns rows colors chars-per-pixel */
"64 64 161 2 ",
"   c #1A1D14",
".  c #261916",
"X  c #2A1B13",
"o  c #251B1C",
"O  c #2D181C",
"+  c #31181E",
"@  c #311C13",
"#  c #171420",
"$  c #1E1D25",
"%  c #1F1D2A",
"&  c #1E172A",
"*  c #1B1D30",
"=  c #221C26",
"-  c #211D2B",
";  c #2B1E2A",
":  c #2A1925",
">  c #241E31",
",  c #2E1437",
"<  c #351928",
"1  c #1E202C",
"2  c #1F2123",
"3  c #222323",
"4  c #22202B",
"5  c #2A2029",
"6  c #2A292E",
"7  c #36232E",
"8  c #3A222D",
"9  c #272431",
"0  c #372230",
"q  c #412118",
"w  c #7B2524",
"e  c #7C272A",
"r  c #73493B",
"t  c #694939",
"y  c #7C327F",
"u  c #4E4D52",
"i  c #4F4F5D",
"p  c #5B545C",
"a  c #584B48",
"s  c #604646",
"d  c #585462",
"f  c #575563",
"g  c #B5051B",
"h  c #8D1D22",
"j  c #842A25",
"k  c #84292E",
"l  c #813131",
"z  c #AD3D3C",
"x  c #B03F3F",
"c  c #CA0019",
"v  c #CD0F23",
"b  c #D01F2E",
"n  c #D92727",
"m  c #DA2D2D",
"M  c #DB3333",
"N  c #9B4A3B",
"B  c #AF403D",
"V  c #B0403F",
"C  c #BE6C24",
"Z  c #B04140",
"A  c #DD950B",
"S  c #D69B0C",
"D  c #DF8A12",
"F  c #DE9511",
"G  c #D6921C",
"H  c #DB921F",
"J  c #E2940D",
"K  c #E1980B",
"L  c #E08E10",
"P  c #E39514",
"I  c #E9A015",
"U  c #F3A51E",
"Y  c #C08B23",
"T  c #D58F20",
"R  c #DA9424",
"E  c #DA9629",
"W  c #D49529",
"Q  c #E39F27",
"!  c #D7A12E",
"~  c #DBA334",
"^  c #EDA523",
"/  c #EEA924",
"(  c #EDA629",
")  c #E4A827",
"_  c #F1A622",
"`  c #F0A728",
"'  c #F0AA22",
"]  c #E7A737",
"[  c #E5B13F",
"{  c #E8B23F",
"}  c #AB8344",
"|  c #BCA479",
" . c #E8AF40",
".. c #E1A146",
"X. c #E5B140",
"o. c #EAB158",
"O. c #F3BD5C",
"+. c #DD9C6D",
"@. c #CB9B7F",
"#. c #DD9C72",
"$. c #D39C79",
"%. c #DA9875",
"&. c #E69A67",
"*. c #E09C6E",
"=. c #E29C73",
"-. c #E5977B",
";. c #DAA069",
":. c #C1A776",
">. c #C1A974",
",. c #EFBE60",
"<. c #E4A87B",
"1. c #F1A37C",
"2. c #F6CD69",
"3. c #F5C475",
"4. c #F4CB75",
"5. c #F5CA79",
"6. c #F2CA7A",
"7. c #F2C77C",
"8. c #7B3784",
"9. c #862D8E",
"0. c #882A93",
"q. c #B726A6",
"w. c #B525AC",
"e. c #BF22AC",
"r. c #BF25BA",
"t. c #C41FAD",
"y. c #C421A5",
"u. c #C421AC",
"i. c #C523B8",
"p. c #D767CB",
"a. c #DB6FCE",
"s. c #D865C8",
"d. c #CB73C6",
"f. c #E06FCE",
"g. c #E376D8",
"h. c #D19F83",
"j. c #EC9F84",
"k. c #CFA185",
"l. c #EEBE96",
"z. c #EFBE98",
"x. c #F1BD96",
"c. c #F9BA93",
"v. c #F3BE99",
"b. c #F0BD9A",
"n. c #F1BD9A",
"m. c #E9BEA7",
"M. c #E7BEA9",
"N. c #EABDA9",
"B. c #F7C681",
"V. c #F1C880",
"C. c #EDC09D",
"Z. c #F1C09E",
"A. c #E5C0A8",
"S. c #E6C5B9",
"D. c #EADFEE",
"F. c #E9D7F0",
"G. c #EEDCF5",
"H. c #EDDCF8",
"J. c #F1DBF4",
"K. c #F1DCF8",
"L. c #FDFCFD",
/* pixels */
"Z Z Z Z Z Z Z Z z z z z z B z z B B B z z B B z z z z z z z z z z z B Z Z Z z z z Z Z z z z z z z z z z z z z z z z z z z z x Z ",
"Z Z Z Z Z Z Z Z z z z z z B B B z z B z z z z z z z z z z z z z z z z B z Z z z Z Z Z z z z z z z z z z z z z z z z z z z z x z ",
"Z Z Z Z Z Z Z Z z z z z z B B B B z z z z z z z z z z z z z z z z z z z z z z z x x Z z z z z z z z z z z z z z z z z z z z B B ",
"Z Z Z Z Z Z Z Z z z z z z z z z z z z z z z z z z z z z z z z z z z z z z z z z z Z Z z z z z z z z z z z z z z z z z z z z B B ",
"B B B z V B B B z z z z z z z z z z z z z z z z z z z z z z z z z z z z z z z z z z z z z z z z z z z z z z z z Z Z Z Z x x Z Z ",
"B B z z B B B B z z z z z z z z z z z z z z z z z z z $ $ % % % % % % % $ z z z z z z z z z z z z z z z z z z z x Z Z Z x z x x ",
"B V z z B B B B z z z z z z z z z z z z z z z z z x z - # % - - - - - $ % z z z z z z z z z z z z z z z z z z z z Z Z z z z x x ",
"x x z z B B B B z z z z z z z z z z z z z z z z 8 8 = 6.4.5.4.4.4.5.5.6.4.= - - z z z z z z z z z z z z Z z z z z z z z z z x Z ",
"B z z z B B B B z z z z z z z z z z z z z z u s :.:.:.[ [ [ X. .! ~ X.X.{ } } | a u z z z z z z z z z z z z z z V V x z B B B x ",
"z z z z B B B B z z z z z z z z z z z z z z - q 6.6.6./ / ^ / ) P D / / / / ( 5.X - z z z z z z z z z z z z z z V z x x z z z x ",
"z z z z B B B B z z z z z z z z z z z z = % B.3.U _ U / / / A A e w A / / _ _ / 7.3.$ - z z z z z z z z z z z z z z x x z z z z ",
"z z z z B B B z z z z z z z z z z z z z % % V.2./ / / / / ^ A J e j J ^ / / _ / 4.6.- % z z z z z z z z z z z z z z x z z z z z ",
"x x x V B B B z B z z z z z z z z z z z % % ( / / / / / ^ I j e #.=.l e k P A / / / * % z z z z z z z z z z z z z z x x x x x x ",
"Z Z Z Z Z Z Z Z B z z z z z z z z z z z % % ( / c c / g c C N N *.*.N c c C c c / _ * % z z z z z z z z z z z z z z x x x x x x ",
"Z Z Z Z Z Z Z Z z z z z z z z z z z z z % % ` c % % g < % c =.*.*.*.c % % c % % c ' * % z z z z z z z z z z z z z z x x x x x x ",
"Z Z Z Z Z Z Z x z z z z z z z z z z z z % % c % % % % % % % c z.C.c % % % % % % % c * % z z z z z z z z z z z z z z x x x x x x ",
"Z Z Z Z Z Z Z z z z z z z z z z z z z z % % c % % % % % % % c c c c % % % % % % % c * % z z z z z z z z x z z z z z z z x x x x ",
"Z Z Z Z Z Z Z x x x Z x z z z z z z Z Z $ % c % % % % % % % v b.b.c % % % % % % % c * % x x z z z z B B V V x x B B B B V x x z ",
"Z Z Z Z Z Z Z x x x Z x z z z z z z Z Z - i ( c % % % % % c z.l.l.b.c % % % % % c O.$ % V V B B B B B B V x z x B B V B V x z z ",
"Z Z Z Z Z Z Z x x x Z Z Z z z z z z Z % - % o.] g % % % c b.b.v.b.b.j.b % % % c ..~ ; - - V B B B B B V V x z z B B V V V x z z ",
"Z Z Z Z x x x x x x x z z z z z z z Z p O.O.F W h c c c b.b.M M M M b.b.c c c w R F ] Q 9 B B B B B B B B z z z B B B V x z z z ",
"z z z z z z z z z z z z z z z z z z z $ ,.] K R w ;.=.b.b.b.n m m M b.b.x.#.-.w H K ^ ) - z z z z z z z z z z z z z z z z z z z ",
"z z z z z z z z z z z z z z z z z z z f S J R K J 7 $ +.*.*.*.*.*.*.*.*.#.: $ L J K J F f z z z z z z z z z z z z z z z z z z z ",
"z z z z z z z z z z z z z z z z z z z 2 W Y T G G   & $.$.$.$.$.$.$.$.$.$.1 ; R E R E E % z z z x z z z z z z z z z z z z z z z ",
"z z z z z z z z z z z z z z z z z z z z 8 8 8 0 7 D.G.% % % % % % % % % % G.H.- - % % - x x x x x x z z z z z z z z z z z z z z ",
"z z z z z z z z z z z z z z z z z z z z z = - L.L.L.L.G.G.G.G.G.G.G.G.G.G.L.L.L.$ % z z z x x z z z z z z z z z z z z z z z z z ",
"z z z z z z z z z z z z z z z z z z z z z = = L.L.L.L.H.J.G.J.G.G.G.G.G.G.L.L.L.$ - x z z z x z z z z z z z z z z z z z z z z z ",
"z z z z z z z z z z z z z z z z z z z z = l.l.#.L.- % L.L.L.L.L.L.L.L.L.L.$ $ L.$ - x z z z x z z z z z z z z z z z z z z z z z ",
"z z z z z z z z z z z z z z z z z z z = l.l.#.#.= 4 % L.L.L.L.L.L.L.L.L.L.% - L.$ % x z z z z z z z z z z z z z z z z z z z z z ",
"z z z z z z z z z z z z z z z z z z = l.#.#.#.d = 4 % L.L.L.K.G.G.D.L.L.L.- % L.$ % x z z z z z z z z z z z z z z z z z z z z z ",
"z z z z z z z z z z z z z z z z z = l.#.#.d d = z - % D.D.D.J.G.G.G.D.D.D.% = =.O % z z z z z z z z z z z z z z z z z z z z z z ",
"z z z z z z z z z z z z z z z z z = = #.#.A.= z z - % G.G.G.G.G.K.G.G.G.G.% % #.O % z z z z z z z z z z z z z z z z z z z z z z ",
"z z z z z z z z z z z z z z z z z z = = c.c.A.= z % % G.G.G.G.K.G.G.G.G.G.% % #.c.x.% $ z z z z z z z z z z z z z z z z z z z z ",
"z z z z z z z z z z z z z z z z z z z z = c.c.A.= 3 * J.G.G.K.G.G.G.K.F.G.= o =.c.l.% % z z z z z z z z z z z z z z z z z z z z ",
"z z z z z z z z z z z z z z z z z z z z z = c.c.z.3 3 % = = G.G.G.G.J.> % L.L.- A.x.% % z z z z z z z z z z z z z z z z z z z z ",
"z z z z z z z z z z z z z z z z z z z z z z = c.z.z.z.z.z.= w.w.w.w.q.d.a.= % % N.x.% % V B B z z z z z z z z z z z z z z z z z ",
"z z z z z z z z z z z z z z z z z z z z z z 3 = c.c.1 = = = t.t.t.t.t.s.g.% % % N.x.% % V B B z z z z z z z z z z z z z z z z z ",
"z z z z z z z z z z z z z z z z z z z z z z z 3 % = = t.t.t.t.t.t.t.t.u.u.g.p.= m.x.% % - B B z z z z z z z z z z z z z z z z z ",
"z z z z z z z z z z z z z z z z z z z z z z z z % a.s.t.t.t.t.t.t.t.t.u.u.s.f.% m.x.- - - B B z z z z z z z z z z z z z z z z z ",
"z z z z z z z z z z z z z z z z z z z z z z z z % i.u.t.t.t.t.t.t.t.t.t.t.t.u.- M.b.b.z.z.@ % z z z z z z z z z z z z z z z z z ",
"z z z z z z z z z z z z z z z z z z z z z z z z % r.t.t.t.t.t.t.t.t.t.t.t.t.u.* k.#.o . . 5 % z z z z z z z z z z z z z z z z z ",
"z z z z z z z z z z z z z z z z z z z z z z z z % e.y.y.y.t.e.e.e.e.y.y.y.y.u.% @.%.4 ; d - % z z z z z z z z z z z z z z z z z ",
"z z z z z z z z z z z z z z z z z z z z z z z z % =.*.*.+.*.= % % = +.+.*.+.=.% - % z z z z z z z z z z z z z z z z z z z z z z ",
"z z z z z z z z z z z z z z z z z z z z z z z z % =.=.+.*.*.$ % - = =.*.+.*.+.$ % % z z z z z z z z z z z z z z z z z z z z z z ",
"V V V z z z z z z z z z z z z z z z z z z z z z % l.b.*.=.% z z z z % +.*.*.+.$ z z z x z z z z z z z z B B B B z z z z z z z z ",
"V V V z z z z z z z z z z z z z z z z z z z z z % l.z.*.=.% z z z z % +.*.*.#.S.o = z x z z z z z z z z B B B B z z z z z z z z ",
"x x V z z z z z z z z z z z z z z z z z z z z z % x.z.*.=.% z z z z % +.=.*.#.b.o % z x x z z z z z z z B B B B z z z z z z z z ",
"x V V z z z z z z z z z z z z z z z z z z z z z % l.z.*.=.% z z z z z 4 % &.#.b.o % z x x z z z z z z z B B B B z z z z z z z z ",
"B B B B B B B B x x x x z z z z z z z z z z z z = b.b.*.=.% z z z z z 4 % &.<.b.o % z z z z z z z z z z B B B B z z z z z z z z ",
"B B B B B B B B x x x x z z z z z z z z z z - X b.+.*.% % z z z z z z 4 = 1.*.b.o % z z z z z z z z z z B B B B z z z z z z z z ",
"B B B B B B B B z z z z z z z z z z z z z z % X b.+.+.9 $ z z z z z z z z r t <.: % z z z z z z z z z z B B B B z z z z z z z z ",
"B B B B B B B B z z z z z z z z z z z z z z % X b.+.*.- 6 z z z z z z z z % % =.+ % z z z z z z z z z z B B B B z z z z z z z z ",
"z z z z z z z z z z z z z z z z z z z z z z % X b.- % z z z z z z z z z z % % #.l.Z.% $ z z z z z z z z z z z z z z z z z z z z ",
"z z z z z z z z B B B B z z z z z z z z z z % X z.= % z z z z z z z z z z % = =.l.b.% % z z z z z z z z z z z z z z z z z z z z ",
"z z z z z z z z B B B B z z z z z z z z z z * X *.% % z z z z z z z z z z z z % h.#.$ % z z z z z z z z z z z z z z z z z z z z ",
"z z z z z z z z B B B B z z z z z z z z z z % X =.% % z z z z z z z z z z z z % $.#.% % z z z z z z z z z z z z z z z z z z z z ",
"z z z z z z z z V V V V z z z z z z z z z z % X =.% % z z z z z z z z z z z z % $.#.$ % z z z z z z z z z z z z z z z z z z z z ",
"B B B z z z z z z z z z z z z z z z z z z z - , 9.% % z z z z z z z z z z z z % 8.9.$ % z z z z B B B z z z z z z z z z z z z z ",
"B B B z z z z z z z z z z z z z z z z z z z % , 0.% % z z z z z z z z z z z z % y 0.$ % z z z z B B B z z z z z z z z z z z z z ",
"B B B z z z z z z z z z z z z z z z z z z z z z z z z z z z z z z z z z z z z z z z z z z z z z z z z z z z z z z z z z z z z z ",
"B B B z z z z z z z z z z z z z z z z z z z z z z z z z z z z z z z z z z z z z z z z z z z z z z z z z z z z z z z z z z z z z ",
"B B B B z z z z z z z z z z z z z z z z z z z z z z z z z z z z z z z z z z z z z z z z z z z z z z z z z z z z z z z z z z z z ",
"Z Z Z Z Z Z Z Z z z z z z z z z z z z z z z z z z z z z z z z z z z z z z z z z z z z z z z z z z z z z z z z z z z z z z z z z ",
"Z Z Z Z Z Z Z Z z z z z z z z z z z z z z z z z z z z z z z z z z z z z z z z z z z z z z z z z z z z z z z z z z z z z z z z z "
};
