/* XPM */
static const char *dGF5dGF5Z3JhYjE_[] = {
/* columns rows colors chars-per-pixel */
"64 64 156 2 ",
"   c #1A1D14",
".  c #2A1B13",
"X  c #251C1C",
"o  c #31181E",
"O  c #171420",
"+  c #1D1D25",
"@  c #1F1D2A",
"#  c #1E172A",
"$  c #1B1D30",
"%  c #221C26",
"&  c #211D2C",
"*  c #2D1D29",
"=  c #2A1925",
"-  c #241E31",
";  c #2E1437",
":  c #351928",
">  c #1E202C",
",  c #1F2123",
"<  c #222322",
"1  c #22202B",
"2  c #2A292E",
"3  c #36232E",
"4  c #3A222D",
"5  c #272431",
"6  c #372230",
"7  c #412118",
"8  c #7B2524",
"9  c #7C272A",
"0  c #73493B",
"q  c #694939",
"w  c #7C327F",
"e  c #4E4D52",
"r  c #4F4F5D",
"t  c #5B545C",
"y  c #584B48",
"u  c #604646",
"i  c #585562",
"p  c #575563",
"a  c #B9081C",
"s  c #B3041B",
"d  c #8D1D22",
"f  c #842A25",
"g  c #84292E",
"h  c #813131",
"j  c #AC3D3C",
"k  c #B03F3F",
"l  c #CA0019",
"z  c #CD0F23",
"x  c #D01F2E",
"c  c #D92727",
"v  c #DA2D2D",
"b  c #DB3333",
"n  c #9B4B3B",
"m  c #9D473B",
"M  c #AF403D",
"N  c #B0403F",
"B  c #BE6C24",
"V  c #B04140",
"C  c #DD950B",
"Z  c #D69B0C",
"A  c #DF8A12",
"S  c #DE9511",
"D  c #D6921C",
"F  c #DB921F",
"G  c #E2940D",
"H  c #E1980B",
"J  c #E08E10",
"K  c #E79913",
"L  c #E09216",
"P  c #E9A015",
"I  c #F3A51E",
"U  c #C08B23",
"Y  c #D58F20",
"T  c #DA9424",
"R  c #D0902B",
"E  c #DA9629",
"W  c #D79728",
"Q  c #E39F27",
"!  c #D7A12E",
"~  c #DBA334",
"^  c #EDA523",
"/  c #EEA924",
"(  c #EDA629",
")  c #E4A827",
"_  c #F1A622",
"`  c #F0A728",
"'  c #F0AA22",
"]  c #E7A737",
"[  c #E5B13F",
"{  c #E8B23F",
"}  c #AB8344",
"|  c #BCA479",
" . c #E8AF40",
".. c #E1A146",
"X. c #E5B140",
"o. c #EAB158",
"O. c #F3BD5C",
"+. c #DD9C6D",
"@. c #DE9C72",
"#. c #D39C79",
"$. c #D49977",
"%. c #E69A67",
"&. c #E09C6E",
"*. c #E29C73",
"=. c #E5977B",
"-. c #DAA069",
";. c #C1A776",
":. c #C1A974",
">. c #EFBE60",
",. c #E4A87B",
"<. c #F1A37C",
"1. c #F6CD69",
"2. c #F5C475",
"3. c #F4CB75",
"4. c #F3CA7A",
"5. c #F2C77C",
"6. c #7B3784",
"7. c #862D8E",
"8. c #882A93",
"9. c #B726A6",
"0. c #B525AC",
"q. c #BF22AC",
"w. c #BF25BA",
"e. c #C41FAD",
"r. c #C421A5",
"t. c #C421AC",
"y. c #C523B8",
"u. c #D663C7",
"i. c #D767CB",
"p. c #DB6FCE",
"a. c #DA66C8",
"s. c #CB73C6",
"d. c #E06FCE",
"f. c #E376D8",
"g. c #D19F83",
"h. c #EC9F84",
"j. c #EEBE96",
"k. c #EFBE98",
"l. c #F2BD96",
"z. c #F9BA93",
"x. c #F3BE99",
"c. c #F0BD9A",
"v. c #F1BD9A",
"b. c #F7C681",
"n. c #F1C880",
"m. c #EDC09D",
"M. c #F1C09E",
"N. c #E5C0A8",
"B. c #E6C5B9",
"V. c #EADFEE",
"C. c #E9D7F0",
"Z. c #EEDCF5",
"A. c #EDDCF8",
"S. c #F1DBF4",
"D. c #F1DCF8",
"F. c #FDFCFD",
/* pixels */
"V V V V V V V V j j j k j M j j M M M j j M M j j j j j j j j j j j M V V V j j j V V j j j j j j j j j j j j j j j j j j j k V ",
"V V V V V V V V j j j j j M j M j j M j j j j j j j j j j j j j j j j M M V j j k V V j j j j j j j j j j j j j j j j j j j k k ",
"V V V V V V V V j j j j j M M M M j j j j j j j j j j j j j j j j j j j j j j j k k V j j j j j j j j j j j j j j j j j j j M M ",
"V V V V V V V V j j j j j j j j j j j j j j j j j j j j j j j j j j j j j j j j j V V j j j j j j j j j j j j j j j j j j j M M ",
"M M M j N M M M j j j j j j j j j j j j j j j j j j j j j j j j j j j j j j j j j j j j j j j j j j j j j j j j V V V V k k V V ",
"M M j j M M M M j j j j j j j j j j j j j j j j j j j + + @ @ @ @ @ @ @ + j j j j j j j j j j j j j j j j j j j j V V V k j j k ",
"M M j j M M M M j j j j j j j j j j j j j j j j j k j & O @ & & & & & + @ j j j j j j j j j j j j j j j j j j j k V V j j j k k ",
"k k j j M M M M j j j j j j j j j j j j j j j j 4 4 % 4.3.4.3.3.3.4.4.4.3.% & & j j j j j j j j j j j j V j j j j j j j j j k V ",
"M j j j M M M M j j j j j j j j j j j j j j e u ;.;.;.[ [ [ X. .! ~ X.X.{ } } | y e j j j j j j j j j j j j j j N N k j M M M k ",
"j j j j M M M M j j j j j j j j j j j j j j & 7 4.4.4./ / ^ / ) K A / / / / ( 4.. & j j j j j j j j j j j j j j N j k k j j k k ",
"j j j j M M M M j j j j j j j j j j j j % @ b.2.I _ I / / / C C 9 8 C / / _ _ / 5.2.+ & j j j j j j j j j j j j j j k k j j j j ",
"j j j j M M M j j j j j j j j j j j j j @ @ n.1./ / / / / ^ C G 9 f G ^ / / _ / 3.4.& @ j j j j j j j j j j j j j j k k j j j j ",
"k k k N M M M j M j j j j j j j j j j j @ @ ( / / / / / ^ P f 9 @.*.h 9 g L C / / / $ @ j j j j j j j j j j j j j j k k k k k k ",
"V V V V V V V V M j j j j j j j j j j j @ @ ( / l l / s l B m n &.&.n l l B l l / _ $ @ j j j j j j j j j j j j j j k k k k k k ",
"V V V V V V V V j j j j j j j j j j j j @ @ ` l @ @ s : @ l *.&.&.&.l @ @ l @ @ l ' $ @ j j j j j j j j j j j j j j j k k k k k ",
"V V V V V V V k j j j j j j j j j j j j @ @ l @ @ @ @ @ @ @ l k.m.l @ @ @ @ @ @ @ l $ @ j j j j j j j j j j j j j j j k k k k k ",
"V V V V V V V j j j j j j j j j j j j j @ @ l @ @ @ @ @ @ @ l l l l @ @ @ @ @ @ @ l $ @ j j j j j j j j j j j j j j j j k k k k ",
"V V V V V V V k k k V k j j j j j j V V + @ l @ @ @ @ @ @ @ z c.c.l @ @ @ @ @ @ @ l $ @ j j j j j j M N M M j j M M M M V k k j ",
"V V V V V V V k k k V k j j j j j j V V & r ( l @ @ @ @ @ l j.j.j.c.l @ @ @ @ @ l O.+ @ M M M M M M N N N k j j M M N M N k j j ",
"V V V V V V V k k k V V V j j j j j V @ & @ o.] a @ @ @ l c.c.x.c.c.h.x @ @ @ l ..~ * & & M M M M M N N N k j j M M N N N k j j ",
"V V V V k k k k k k k j j j j j j j V t O.O.S W d l l l c.c.b b b b c.c.l l l 8 T S ] Q 5 M M M M M M M @ @ @ j M M M N N j j j ",
"j j j j j j j j j j j j j j j j j j j + >.] H T 8 -.*.c.c.c.c v v b c.c.l.@.=.8 F H ^ ) & j j j j j j j @ k.@ M M M j j j j j j ",
"j j j j j j j j j j j j j j j j j j j p Z G T H G 3 + +.&.&.&.&.&.&.&.&.@.= + J G H G S p j j j j j j j @ k.@ @ M M j j j j j j ",
"j j j j j j j j j j j j j j j j j j j , R U Y D D   # #.#.#.#.#.#.#.#.#.$.> * T E T E E @ @ @ @ @ @ @ @ @ k.k.@ M M j j j j j j ",
"j j j j j j j j j j j j j j j j j j j j 4 4 4 6 3 V.Z.@ @ @ @ @ @ @ @ @ @ Z.Z.& @ @ @ & @ c.c.c.c.c.k.k.k.k.k.@ M M j j j j j j ",
"j j j j j j j j j j j j j j j j j j j j j % & F.F.F.F.Z.Z.Z.Z.Z.Z.Z.Z.Z.Z.F.F.F.F.@.@.@.@.@.@.z.z.z.N.N.N.z.z.@ M M j j j j j j ",
"j j j j j j j j j j j j j j j j j j j j j % % F.F.F.F.A.S.Z.S.Z.Z.Z.Z.Z.Z.F.F.F.F.@.@.@.@.@.& & & & & @ @ @ @ @ M M j j j j j j ",
"j j j j j j j j j j j j j j j j j j j j % j.j.@.F.& @ F.F.F.F.F.F.F.F.F.F.+ + @ @ @ @ @ @ @ & j j j j j j j j j j j j j j j j j ",
"j j j j j j j j j j j j j j j j j j j % j.j.@.@.% 1 @ F.F.F.F.F.F.F.F.F.F.@ @ N M M j j j j j j j j j j j j j j j j j j j j j j ",
"j j j j j j j j j j j j j j j j j j % j.@.@.@.i % 1 @ F.F.F.D.Z.Z.V.F.F.F.@ @ N M M k j j j j j j j j j j j j j j j j j j j j j ",
"j j j j j j j j j j j j j j j j j % j.@.@.i i % j & @ V.V.V.S.Z.Z.Z.V.V.V.@ % N M M j j j j j j j j j j j j j j j j j j j j j j ",
"j j j j j j j j j j j j j j j j j % % @.@.N.% j j & @ Z.Z.Z.Z.Z.D.Z.Z.Z.Z.@ @ M M M M j j j j j j j j j j j j j j j j j j j j j ",
"j j j j j j j j j j j j j j j j j j % % z.z.N.% j @ @ Z.Z.Z.Z.D.Z.Z.Z.Z.Z.@ @ M M M M M j j j j j j j j j j j j j j j j j j j j ",
"j j j j j j j j j j j j j j j j j j j j % z.z.N.% < $ S.Z.Z.D.Z.Z.Z.D.C.Z.% X M M M M M j j j j j j j j j j j j j j j j j j j j ",
"j j j j j j j j j j j j j j j j j j j j j % z.z.k.< < @ % % Z.Z.Z.Z.S.- @ F.F.& M M M M k j j j j j j j j j j j j j j j j j j j ",
"j j j j j j j j j j j j j j j j j j j j j j % z.k.k.k.k.k.% 0.0.0.0.9.s.p.% @ @ M M M M N M M j j j j j j j j j j j j j j j j j ",
"j j j j j j j j j j j j j j j j j j j j j j < % z.z.> % % % e.e.e.e.e.a.f.@ @ @ M M M M N N M j j j j j j j j j j j j j j j j j ",
"j j j j j j j j j j j j j j j j j j j j j j j < @ % % e.e.e.e.e.e.e.e.t.t.f.i.% M M M M N N M j j j j j j j j j j j j j j j j j ",
"j j j j j j j j j j j j j j j j j j j j j j j j @ p.u.e.e.e.e.e.e.e.e.t.t.a.d.@ M M M M M M M j j j j j j j j j j j j j j j j j ",
"j j j j j j j j j j j j j j j j j j j j j j j j @ y.t.e.e.e.e.e.e.e.e.e.e.e.t.& M M M M M M M j j j j j j j j j j j j j j j j j ",
"j j j j j j j j j j j j j j j j j j j j j j j j @ w.e.e.e.e.e.e.e.e.e.e.e.e.t.$ M M M M M M M j j j j j j j j j j j j j j j j j ",
"j j j j j j j j j j j j j j j j j j j j j j j j @ q.r.r.r.e.q.q.q.q.r.r.r.r.t.@ M M M M M M M j j j j j j j j j j j j j j j j j ",
"j j j j j j j j j j j j j j j j j j j j j j j j @ *.&.&.+.&.% @ @ % +.+.&.+.*.@ M M j j j M M j j j j j j j j j j j j j j j j j ",
"j j j j j j j j j j j j j j j j j j j j j j j j @ *.*.+.&.&.+ @ & % *.&.+.&.+.+ M M j j j M j j j j j j j j j j j j j j j j j j ",
"N N N j j j j j j j j j j j j j j j j j j j j j @ j.c.&.*.@ j j j j @ +.&.&.+.+ j j j k j j j j j j j j M M M M j j j j j j j j ",
"N N N j j j j j j j j j j j j j j j j j j j j j @ j.k.&.*.@ j j j j @ +.&.&.@.B.X % j k j j j j j j j j M M M M j j j j j j j j ",
"k k N j j j j j j j j j j j j j j j j j j j j j @ l.k.&.*.@ j j j j @ +.*.&.@.c.X @ j k k j j j j j j j M M M M j j j j j j j j ",
"k N N j j j j j j j j j j j j j j j j j j j j j @ j.k.&.*.@ j j j j j 1 @ %.@.c.X @ j k k j j j j j j j M M M M j j j j j j j j ",
"M M M M M M M M k k k k j j j j j j j j j j j j % c.c.&.*.@ j j j j j 1 @ %.,.c.X @ j j j j j j j j j j M M M M j j j j j j j j ",
"M M M M M M M M k k k k j j j j j j j j j j & . c.+.&.@ @ j j j j j j 1 % <.&.c.X @ j j j j j j j j j j M M M M j j j j j j j j ",
"M M M M M M M M j j j j j j j j j j j j j j @ . c.+.+.5 + j j j j j j j j 0 q ,.= @ j j j j j j j j j j M M M M j j j j j j j j ",
"M M M M M M M M j j j j j j j j j j j j j j @ . c.+.&.& 2 j j j j j j j j @ @ *.o @ j j j j j j j j j j M M M M j j j j j j j j ",
"j j j j j j j j j j j j j j j j j j j j j j @ . c.& @ j j j j j j j j j j @ @ @.j.M.@ + j j j j j j j j j j j j j j j j j j j j ",
"j j j j j j j j M M M M j j j j j j j j j j @ . k.% @ j j j j j j j j j j @ % *.j.c.@ @ j j j j j j j j j j j j j j j j j j j j ",
"j j j j j j j j M M M M j j j j j j j j j j $ . &.@ @ j j j j j j j j j j j j @ g.@.+ @ j j j j j j j j j j j j j j j j j j j j ",
"j j j j j j j j M M M M j j j j j j j j j j @ . *.@ @ j j j j j j j j j j j j @ #.@.@ @ j j j j j j j j j j j j j j j j j j j j ",
"j j j j j j j j N N N N j j j j j j j j j j @ . *.@ @ j j j j j j j j j j j j @ #.@.+ @ j j j j j j j j j j j j j j j j j j j j ",
"M M M j j j j j j j j j j j j j j j j j j j & ; 7.@ @ j j j j j j j j j j j j @ 6.7.+ @ j j j j M M M j j j j j j j j j j j j j ",
"M M M j j j j j j j j j j j j j j j j j j j @ ; 8.@ @ j j j j j j j j j j j j @ w 8.+ @ j j j j M M M j j j j j j j j j j j j j ",
"M M M j j j j j j j j j j j j j j j j j j j j j j j j j j j j j j j j j j j j j j j j j j j j j j j j j j j j j j j j j j j j j ",
"M M M j j j j j j j j j j j j j j j j j j j j j j j j j j j j j j j j j j j j j j j j j j j j j j j j j j j j j j j j j j j j j ",
"M M M M j j j j j j j j j j j j j j j j j j j j j j j j j j j j j j j j j j j j j j j j j j j j j j j j j j j j j j j j j j j j ",
"V V V V V V V V j j j j j j j j j j j j j j j j j j j j j j j j j j j j j j j j j j j j j j j j j j j j j j j j j j j j j j j j ",
"V V V V V V V V j j j j j j j j j j j j j j j j j j j j j j j j j j j j j j j j j j j j j j j j j j j j j j j j j j j j j j j j "
};
