/* XPM */
static const char *dGF5dGF5Z3JhYkIy[] = {
/* columns rows colors chars-per-pixel */
"64 64 146 2 ",
"   c #2A1B13",
".  c #251C1C",
"X  c #31181E",
"o  c #352E16",
"O  c #171420",
"+  c #1D1C25",
"@  c #1F1D2A",
"#  c #1B1D30",
"$  c #211C26",
"%  c #211D2B",
"&  c #2D1D29",
"*  c #241E31",
"=  c #2E1437",
"-  c #341C35",
";  c #1D202D",
":  c #1F2123",
">  c #222322",
",  c #22202B",
"<  c #2B292C",
"1  c #3A222D",
"2  c #35222D",
"3  c #272431",
"4  c #372230",
"5  c #412118",
"6  c #73493B",
"7  c #725131",
"8  c #7C327F",
"9  c #4E4D52",
"0  c #4F4F5D",
"q  c #5B545C",
"w  c #584B48",
"e  c #604646",
"r  c #585562",
"t  c #575563",
"y  c #AC3D3C",
"u  c #B03F3F",
"i  c #865E27",
"p  c #AF403E",
"a  c #B0403F",
"s  c #B04140",
"d  c #BD8127",
"f  c #DF970D",
"g  c #D69B0C",
"h  c #DF8A12",
"j  c #DE9511",
"k  c #D6921C",
"l  c #DB921F",
"z  c #E2940D",
"x  c #E1980B",
"c  c #E59B14",
"v  c #EAA41E",
"b  c #F3A51E",
"n  c #C08B23",
"m  c #D38F23",
"M  c #D59326",
"N  c #DA9426",
"B  c #DD9B26",
"V  c #D0902B",
"C  c #DA952B",
"Z  c #D9992A",
"A  c #DB9933",
"S  c #E29D26",
"D  c #E79927",
"F  c #D7A12E",
"G  c #DBA334",
"H  c #E4A226",
"J  c #EBA626",
"K  c #ECA826",
"L  c #ECA62A",
"P  c #EBAA29",
"I  c #F1A622",
"U  c #F0A728",
"Y  c #E7A935",
"T  c #E5B13F",
"R  c #E8B23F",
"E  c #AB8344",
"W  c #BCA479",
"Q  c #EAAE42",
"!  c #E5B140",
"~  c #EDAF51",
"^  c #F4BC5E",
"/  c #DD9C6D",
"(  c #DE9C73",
")  c #DD9C72",
"_  c #D49E7E",
"`  c #E69A67",
"'  c #E19C6E",
"]  c #E19D73",
"[  c #C1A776",
"{  c #C1A974",
"}  c #E0AD6C",
"|  c #EFBE60",
" . c #E4A87B",
".. c #F1A37C",
"X. c #F6CD69",
"o. c #F5C475",
"O. c #F3CB77",
"+. c #F5CB75",
"@. c #F2CA7A",
"#. c #F5CA79",
"$. c #F2C77C",
"%. c #7B3784",
"&. c #862D8E",
"*. c #882A93",
"=. c #B726A6",
"-. c #BF22AC",
";. c #BF25BA",
":. c #BE38B6",
">. c #BF38B8",
",. c #C41FAD",
"<. c #C421A5",
"1. c #C521AC",
"2. c #C524B1",
"3. c #C72CB3",
"4. c #C82FB3",
"5. c #C632B3",
"6. c #C937B9",
"7. c #CB3BB9",
"8. c #CC42BD",
"9. c #CE4CC3",
"0. c #D157C7",
"q. c #D25CCA",
"w. c #D465CE",
"e. c #D76ACF",
"r. c #E06FCE",
"t. c #D19F83",
"y. c #EEBF96",
"u. c #EFBE98",
"i. c #F1BD95",
"p. c #F9BA93",
"a. c #F9BA93",
"s. c #F0BE9A",
"d. c #F7C681",
"f. c #F1C880",
"g. c #F1C09E",
"h. c #E5C0A8",
"j. c #E6C5B9",
"k. c #EADEEE",
"l. c #E9D7F0",
"z. c #EFDBF5",
"x. c #EDDCF8",
"c. c #F1DBF4",
"v. c #F1DCF8",
"b. c #F4E4FA",
"n. c #F6E9FB",
"m. c #FDFCFD",
/* pixels */
"s s s s s s s s y y y u y p y y p p p y y p p y y y y y y y y y y y p s s s y y y s s y y y y y y y y y y y y y y y y y y y u s ",
"s s s s s s s s y y y y y p y y y y p y y y y y y y y y y y y y y y y p y s y y s s s y y y y y y y y y y y y y y y y y y y u u ",
"s s s s s s s s y y y y y p p p p y y y y y y y y y y y y y y y y y y y y y y y a a s y y y y y y y y y y y y y y y y y y y p p ",
"s s s s s s s s y y y y y y y y y y y y y y y y y y y y y y y y y y y y y y y y y s s y y y y y y y y y y y y y y y y y y y p p ",
"p p p y a p p p y y y y y y y y y y y y y y y y y y y y y y y y y y y y y y y y y y y y y y y y y y y y y y y y s s s s u u s s ",
"p p y y p p p p y y y y y y y y y y y y y y y y y y y + + @ @ @ @ @ @ @ + y y y y y y y y y y y y y y y y y y y y s s s u y u u ",
"p y y y p p p p y y y y y y y y y y y y y y y y y y y % O @ % % % % % + @ y y y y y y y y y y y y y y y y y y y y s s y y y u u ",
"u u y y p p p p y y y y y y y y y y y y y y y y 1 1 $ @.O.#.O.O.+.#.#.@.+.$ % % y y y y y y y y y y y y s y y y y y y y y y u s ",
"p y y y p p p p y y y y y y y y y y y y y y 9 e [ [ [ T T T ! Q F G ! ! R E E W w 9 y y y y y y y y y y y y y y a a u y p p p u ",
"y y y y p p p p y y y y y y y y y y y y y y % 5 @.@.@.K K K K P c h K K K K K #.  % y y y y y y y $ $ $ y y y y a y u u y y y u ",
"y y y y p p p p y y y y y y y y y y y y $ @ d.o.b I b K K K v J S K c K K I I K $.o.+ % y y y y y $ a.$ y y y y y y u u y y y y ",
"y y y y p p p y y y y y y y y y y y y y @ @ f.X.K K K K K J J K K K K K K K I K +.@.% @ y y y y y $ a.$ y y y y y y u y y y y y ",
"u u u a p p p y p y y y y y y y y y y y @ @ L K K K K K J v N J K K K K K J f K K K # @ y y y y y $ a.$ $ y y y y y u u u u u u ",
"s s s s s s s s p y y y y y y y y y y y @ @ L K K K K K K J K J K K K K K K K K K I # @ y y y y y $ a.a.$ y y y y y u u u u u u ",
"s s s s s s s s y y y y y y y y y y y y @ @ U K J K D K K K K K L K K K J K K H K K # @ y y y y $ h.h.a.$ y y y y y u u u u u u ",
"s s s s s s s u y y y y y y y y y y y y @ @ J J D K K K N K K Y K J H J K K N K K J # @ y y y $ a.a.a.$ $ y y y y y u u u u u u ",
"s s s s s s s y y y y y y y y y y y y y @ @ K J H K K N K K K K K J H N K K K K J K # @ y y $ a.a.a.$ y y y y y y y y y u u u u ",
"s s s s s s s u u u s a y y y y y y s s + < J K K K K K K K K K K K K B K K K K H K # @ $ $ a.a.) $ $ y p p y y p p p p s u u y ",
"s s s s s s s u u u a a y y y y y y s s % 0 J K K K K K K K ~ K K K K K K K K K J K + @ $ ) ) ) $ $ a a a u y y p p a p a u y y ",
"s s s s s s s u u u s s s y y y y y s @ % @ Q L J K K J J K K K K K K K K J M K K G & % % ) ) $ $ p a a a u y y p p a a a u y y ",
"s s s s u u u u u u u y y y y y y y s q ^ ^ j M K K K J S K K K K J P P K K K J S j Y S 3 ) $ p p p p p p p p y p p p a a y y y ",
"y y y y y y y y y y y y y y y y y y y + | Y x N J J K K J K K K K K K S B N K K l x J H % $ $ y y y y y p p p p p p y y y y y y ",
"y y y y y y y y y y y y y y y y y y y t g z N x S N N N N C N S N N N N N S J J z x z j t $ y y y y y y p p p p p p y y y y y y ",
"y y y y y y y y y y y y y y y y y y y : V n m k k o d N N S N N N N N N C 7 & N C N C Z @ p p p p p p p p p p p p p y y y y y y ",
"y y y y y y y y y y y y y y y y y y y y 1 1 1 4 2 z.z.@ @ M N N N N N m i z.x.% @ @ @ % @ a a a p a p p p p p p p p y y y y y y ",
"y y y y y y y y y y y y y y y y y y y y y $ % m.m.v.v.z.z.C A N A } z.z.z.v.n.m.m.$ % y p a a a p p p p p p p p p p p p p p p p ",
"y y y y y y y y y y y y y y y y y y y y y $ $ m.m.v.b.x.c.z.c.z.z.z.z.z.z.v.m.m.$ $ p p p p a a p a p p p p p p p p p p p p y y ",
"y y y y y y y y y y y y y y y y y y y y $ y.y.) m., @ v.v.v.v.v.v.v.v.v.b.@ + $ p p p p p p a p a a p p p p p p y y y y y y y y ",
"y y y y y y y y y y y y y y y y y y y $ y.y.) ) $ , @ v.v.b.v.v.v.v.v.v.v.@ @ a p p y y y y y y y y y y y y y y y y y y y y y y ",
"y y y y y y y y y y y y y y y y y y $ y.) ) ) r $ , @ n.v.v.v.z.z.k.v.b.v.@ @ a p p u y y y y y y y y y y y y y y y y y y y y y ",
"y y y y y y y y y y y y y y y y y $ y.) ) r r $ y % @ k.v.k.c.z.z.z.k.k.v.@ $ a p p y y y y y y y y y y y y y y y y y y y y y y ",
"y y y y y y y y y y y y y y y y y $ $ ) ) h.$ y y % @ z.z.z.z.z.v.z.z.z.z.@ @ p p p p y y y y y y y y y y y y y y y y y y y y y ",
"y y y y y y y y y y y y y y y y y y $ $ a.a.h.$ y @ @ z.z.z.z.v.z.z.z.z.z.@ @ p p p p p y y y y y y y y y y y y y y y y y y y y ",
"y y y y y y y y y y y y y y y y y y y y $ a.a.h.$ > # c.z.z.v.z.z.z.v.l.z.$ . p p p p p y y y y y y y y y y y y y y y y y y y y ",
"y y y y y y y y y y y y y y y y y y y y y $ a.a.u.> > @ $ $ z.z.z.z.c.* @ m.m.% p p p p u y y y y y y y y y y y y y y y y y y y ",
"y y y y y y y y y y y y y y y y y y y y y y $ a.u.u.u.@ 5.e.q.w.:.>.=.5.e.$ @ @ p p p p a p p y y y y y y y y y y y y y y y y y ",
"y y y y y y y y y y y y y y y y y y y y y y > $ a.; ; - w.3.w.8.q.0.6.0.q.@ @ @ p p p p a a p y y y y y y y y y y y y y y y y y ",
"y y y y y y y y y y y y y y y y y y y y y y y > @ @ 3.,.,.9.7.2.7.3.,.2.w.,.w.$ p p p p a a p y y y y y y y y y y y y y y y y y ",
"y y y y y y y y y y y y y y y y y y y y y y y y @ 7.4.,.,.,.,.1.,.,.,.1.1.,.r.@ p p p p p p p y y y y y y y y y y y y y y y y y ",
"y y y y y y y y y y y y y y y y y y y y y y y y @ 2.1.,.,.,.,.,.,.,.,.,.,.,.1.% p p p p p p p y y y y y y y y y y y y y y y y y ",
"y y y y y y y y y y y y y y y y y y y y y y y y @ ;.,.,.,.,.,.,.,.,.,.,.,.,.1.# p p p p p p p y y y y y y y y y y y y y y y y y ",
"y y y y y y y y y y y y y y y y y y y y y y y y @ -.<.<.<.,.-.-.-.-.<.<.<.<.1.@ p p p p p p p y y y y y y y y y y y y y y y y y ",
"y y y y y y y y y y y y y y y y y y y y y y y y @ ] ' ' / ' $ @ @ $ / / ' / ] @ p p y y y p y y y y y y y y y y y y y y y y y y ",
"y y y y y y y y y y y y y y y y y y y y y y y y @ ] ] / ' ' + @ % $ ] ' / ' / + p p y y y p y y y y y y y y y y y y y y y y y y ",
"a a a y y y y y y y y y y y y y y y y y y y y y @ y.s.' ] @ y y y y @ / ' ' / + y y y u y y y y y y y y p p p p y y y y y y y y ",
"a a a y y y y y y y y y y y y y y y y y y y y y @ y.u.' ] @ y y y y @ / ' ' ) j.. $ y u y y y y y y y y p p p p y y y y y y y y ",
"u u a y y y y y y y y y y y y y y y y y y y y y @ i.u.' ] @ y y y y @ / ] ' ) s.. @ y u u y y y y y y y p p p p y y y y y y y y ",
"u a a y y y y y y y y y y y y y y y y y y y y y @ y.u.' ] @ y y y y y , @ ` ) s.. @ y u u y y y y y y y p p p p y y y y y y y y ",
"p p p p p p p p u u u u y y y y y y y y y y y y $ s.s.' ] @ y y y y y , @ `  .s.. @ y y y y y y y y y y p p p p y y y y y y y y ",
"p p p p p p p p u y u u y y y y y y y y y y %   s./ ' @ @ y y y y y y , $ ..' s.. @ y y y y y y y y y y p p p p y y y y y y y y ",
"p p p p p p p p y y y y y y y y y y y y y y @   s./ / 3 + y y y y y y y y 6 6  .$ @ y y y y y y y y y y p p p p y y y y y y y y ",
"p p p p p p p p y y y y y y y y y y y y y y @   s./ ' % < y y y y y y y y @ @ ] X @ y y y y y y y y y y p p p p y y y y y y y y ",
"y y y y y y y y y y y y y y y y y y y y y y @   s.% @ y y y y y y y y y y @ @ ) y.g.@ + y y y y y y y y y y y y y y y y y y y y ",
"y y y y y y y y p p p p y y y y y y y y y y @   u.$ @ y y y y y y y y y y @ $ ] u.s.@ @ y y y y y y y y y y y y y y y y y y y y ",
"y y y y y y y y p p p p y y y y y y y y y y #   ' @ @ y y y y y y y y y y y y @ t.( + @ y y y y y y y y y y y y y y y y y y y y ",
"y y y y y y y y p p p p y y y y y y y y y y @   ] @ @ y y y y y y y y y y y y @ _ ( @ @ y y y y y y y y y y y y y y y y y y y y ",
"y y y y y y y y a a a a y y y y y y y y y y @   ] @ @ y y y y y y y y y y y y @ _ ( + @ y y y y y y y y y y y y y y y y y y y y ",
"p p p y y y y y y y y y y y y y y y y y y y % = &.@ @ y y y y y y y y y y y y @ %.&.+ @ y y y y p p p y y y y y y y y y y y y y ",
"p p p y y y y y y y y y y y y y y y y y y y @ = *.@ @ y y y y y y y y y y y y @ 8 *.+ @ y y y y p p p y y y y y y y y y y y y y ",
"p p p y y y y y y y y y y y y y y y y y y y y y y y y y y y y y y y y y y y y y y y y y y y y y y y y y y y y y y y y y y y y y ",
"p p p y y y y y y y y y y y y y y y y y y y y y y y y y y y y y y y y y y y y y y y y y y y y y y y y y y y y y y y y y y y y y ",
"p p p p y y y y y y y y y y y y y y y y y y y y y y y y y y y y y y y y y y y y y y y y y y y y y y y y y y y y y y y y y y y y ",
"s s s s s s s s y y y y y y y y y y y y y y y y y y y y y y y y y y y y y y y y y y y y y y y y y y y y y y y y y y y y y y y y ",
"s s s s s s s s y y y y y y y y y y y y y y y y y y y y y y y y y y y y y y y y y y y y y y y y y y y y y y y y y y y y y y y y "
};
