/* XPM */
static char *e4c9fb7609964cd8b8169984df61d0e63QhcLdlQw257DYYn[] = {
/* columns rows colors chars-per-pixel */
"64 64 153 2 ",
"   c #19191C",
".  c #2B1D0C",
"X  c #261916",
"o  c #2C1C14",
"O  c #251B1D",
"+  c #2C1A1B",
"@  c #321C13",
"#  c #352E16",
"$  c #171420",
"%  c #1D1D25",
"&  c #1F1D2B",
"*  c #1B1D31",
"=  c #221C26",
"-  c #211D2B",
";  c #2A1E2A",
":  c #241E31",
">  c #1E202B",
",  c #1F2123",
"<  c #222225",
"1  c #22202C",
"2  c #2A2029",
"3  c #2C292A",
"4  c #3C242D",
"5  c #37232B",
"6  c #242230",
"7  c #302D3C",
"8  c #42262E",
"9  c #493B3D",
"0  c #73493B",
"q  c #7B5928",
"w  c #524848",
"e  c #584B48",
"r  c #4E4D52",
"t  c #4F4F5D",
"y  c #5A565C",
"u  c #72454C",
"i  c #595563",
"p  c #595764",
"a  c #AD3D3C",
"s  c #865E27",
"d  c #A17C6A",
"f  c #BD8127",
"g  c #DF970D",
"h  c #D69B0C",
"j  c #DE9511",
"k  c #D6921D",
"l  c #DB921F",
"z  c #E3940D",
"x  c #E1980B",
"c  c #E59B14",
"v  c #EAA41F",
"b  c #F3A51E",
"n  c #C08B23",
"m  c #D38F23",
"M  c #D59326",
"N  c #DA9426",
"B  c #DD9B26",
"V  c #D0902B",
"C  c #DA952B",
"Z  c #D9992A",
"A  c #DB9933",
"S  c #E29D26",
"D  c #E79927",
"F  c #D7A12E",
"G  c #DBA434",
"H  c #E4A226",
"J  c #EBA625",
"K  c #ECA826",
"L  c #ECA62A",
"P  c #EBAA29",
"I  c #F1A622",
"U  c #F0A728",
"Y  c #E7A936",
"T  c #E5B13F",
"R  c #E8B23F",
"E  c #AB8344",
"W  c #BCA479",
"Q  c #EAAE42",
"!  c #E5B140",
"~  c #EDB052",
"^  c #F5BC5E",
"/  c #DD9B6D",
"(  c #DF9673",
")  c #DD9C73",
"_  c #E09C6E",
"`  c #E29B73",
"'  c #C1A776",
"]  c #C1A974",
"[  c #E0AD6C",
"{  c #EFBE60",
"}  c #F1A37C",
"|  c #F6CD69",
" . c #F5C575",
".. c #F4CB75",
"X. c #F3CA7A",
"o. c #F2C77C",
"O. c #852D8E",
"+. c #B726A6",
"@. c #BF22AC",
"#. c #BF25BA",
"$. c #BE38B6",
"%. c #BF38B8",
"&. c #C41FAD",
"*. c #C421A5",
"=. c #C521AC",
"-. c #C524B1",
";. c #C72CB3",
":. c #C82FB3",
">. c #CB3BB9",
",. c #C835B6",
"<. c #C842BC",
"1. c #CE4CC3",
"2. c #D157C7",
"3. c #D25CCA",
"4. c #D45DC2",
"5. c #CF6AC7",
"6. c #D565CE",
"7. c #D76CCF",
"8. c #D864C1",
"9. c #E06FCE",
"0. c #D19F83",
"q. c #CEA185",
"w. c #D0A286",
"e. c #EEBD96",
"r. c #EEBE99",
"t. c #F1BD96",
"y. c #F1BD9A",
"u. c #F9BA93",
"i. c #E6BCA7",
"p. c #E9BEA7",
"a. c #EABDA9",
"s. c #F7C681",
"d. c #F1C880",
"f. c #F6C099",
"g. c #E5C0A8",
"h. c #E6C5B9",
"j. c #EADEEE",
"k. c #E9D7F0",
"l. c #EDDDF2",
"z. c #EFDBF4",
"x. c #EFDBF6",
"c. c #EFDDF5",
"v. c #EFDBF6",
"b. c #EDDCF8",
"n. c #F0DBF4",
"m. c #F2DBF5",
"M. c #F1DCF8",
"N. c #F1DDF8",
"B. c #F1DCF8",
"V. c #F4E4FA",
"C. c #F6E9FB",
"Z. c #FCFBFE",
"A. c #FDFDFD",
/* pixels */
"a a a a a a a a a a a a a a a a a a a a a a a a a a a a a a a a a a a a a a a a a a a a a a a a a a a a a a a a a a a a a a a a ",
"a a a a a a a a a a a a a a a a a a a a a a a a a a a a a a a a a a a a a a a a a a a a a a a a a a a a a a a a a a a a a a a a ",
"a a a a a a a a a a a a a a a a a a a a a a a a a a a a a a a a a a a a a a a a a a a a a a a a a a a a a a a a a a a a a a a a ",
"a a a a a a a a a a a a a a a a a a a a a a a a a a a a a a a a a a a a a a a a a a a a a a a a a a a a a a a a a a a a a a a a ",
"a a a a a a a a a a a a a a a a a a a a a a a a a a a a a a a a a a a a a a a a a a a a a a a a a a a a a a a a a a a a a a a a ",
"a a a a a a a a a a a a a a a a a a a a a a a a a a a % % & & % - & & - % a a a a a a a a a a a a a a a a a a a a a a a a a a a ",
"a a a a a a a a a a a a a a a a a a a a a a a a a a a - $ & - - & - - $ & a a a a a a a a a a a a a a a a a a a a a a a a a a a ",
"a a a a a a a a a a a a a a a a a a a a a a a a - - = X.X.X.X.......X.X...= - - a a a a a a a a a a a a a a a a a a a a a a a a ",
"a a a a a a a a a a a a a a a a a a a a a a r e ] W W T T T ! ! F G ! ! R E E W e r a a a a a a a a a a a a a a a a a a a a a a ",
"a a a a a a a a a a a a a a a a a a a a a a : + X.....b K J J K c z K K K K K X.o 6 a a a a a a a a a a a a a a a a a a a a a a ",
"a a a a a a a a a a a a a a a a a a a a % * s.{ b b b K K K v v H K c I K I I K o. .- - a a a a a a a a a a a a a a a a a a a a ",
"a a a a a a a a a a a a a a a a a a a a & & d.| K K K K K I J J K K K K I K I J ..X.: % a a a a a a a a a a a a a a a a a a a a ",
"a a a a a a a a a a a a a a a a a a a a & & K K K K K K J J N J K K K K K H j K J K * & a a a a a a a a a a a a a a a a a a a a ",
"a a a a a a a a a a a a a a a a a a a a & : K J K K K K K J J J K K K K K K K K K I * & a a a a a a a a a a a a a a a a a a a a ",
"a a a a a a a a a a a a a a a a a a a a & - K K K K J K K K P K K K K K K K K H K I & & a a a a a a a a a a a a a a a a a a a a ",
"a a a a a a a a a a a a a a a a a a a a & & J J D K K K N K K Y K J H K K K N K K K * % a a a a a a a a a a a a a a a a a a a a ",
"a a a a a a a a a a a a a a a a a a a a & & K K S P J C J K K K K K H N K K K K J K * % a a a a a a a a a a a a a a a a a a a a ",
"a a a a a a a a a a a a a a a a a a a a % 3 K K K K K K K K K K K K J C K K K K J J * - a a a a a a a a a a a a a a a a a a a a ",
"a a a a a a a a a a a a a a a a a a a a - t K K K K K K K K ~ J K K K L K J K K J J & & a a a a a a a a a a a a a a a a a a a a ",
"a a a a a a a a a a a a a a a a a a a & - & Q Y K K K J J K K K K K K K K J M K K G ; - - a a a a a a a a a a a a a a a a a a a ",
"a a a a a a a a a a a a a a a a a a a y ^ ^ c M J K K J S K K K K K L P J K K K S j Y S 6 a a a a a a a a a a a a a a a a a a a ",
"a a a a a a a a a a a a a a a a a a a % { A x N J J K K K K K J K K K S S N K K N x J H & a a a a a a a a a a a a a a a a a a a ",
"a a a a a a a a a a a a a a a a a a a y h x N g S N N C M C N S N N C N N S J J z x x g p a a a a a a a a a a a a a a a a a a a ",
"a a a a a a a a a a a a a a a a a a a < V f k k k # f N N S N N N N N N C q - N N N N C & a a a a a a a a a a a a a a a a a a a ",
"a a a a a a a a a a a a a a a a a a a a ; - ; & - v.v.& & M N N N N N m s v.b.& & & & & a a a a a a a a a a a a a a a a a a a a ",
"a a a a a a a a a a a a a a a a a a a a a a : % A.n.c.l.l.C C C A [ l.l.l.b.C.Z.& & a a a a a a a a a a a a a a a a a a a a a a ",
"a a a a a a a a a a a a a a a a a a a a a a &   Z.N.V.c.n.x.n.x.x.x.x.x.v.N.Z.Z.% - a a a a a a a a a a a a a a a a a a a a a a ",
"a a a a a a a a a a a a a a a a a a a a a a %   Z.6 & N.B.B.B.B.N.B.B.B.V.% , Z.% & a a a a a a a a a a a a a a a a a a a a a a ",
"a a a a a a a a a a a a a a a a a a a a a a &   Z.1 & c.c.V.B.B.B.N.N.N.N.& & Z.% - a a a a a a a a a a a a a a a a a a a a a a ",
"a a a a a a a a a a a a a a a a a a a a a a &   Z.1 & C.B.B.B.x.x.j.N.V.N.- % A.& & a a a a a a a a a a a a a a a a a a a a a a ",
"a a a a a a a a a a a a a a a a a a a a a a & O f.& & j.b.l.n.x.x.v.l.j.N.& = ` + & a a a a a a a a a a a a a a a a a a a a a a ",
"a a a a a a a a a a a a a a a a a a a a a a % X f.& & b.B.b.b.x.M.x.n.b.n.% & ) o & a a a a a a a a a a a a a a a a a a a a a a ",
"a a a a a a a a a a a a a a a a a a a a % - y.f._ & & x.b.n.n.b.x.x.n.B.x.& & / t.e.& % a a a a a a a a a a a a a a a a a a a a ",
"a a a a a a a a a a a a a a a a a a a a & - e.f.) < * z.n.b.B.x.x.x.N.k.x.= = ` u.f.& & a a a a a a a a a a a a a a a a a a a a ",
"a a a a a a a a a a a a a a a a a a a a & & ` w.& Z.Z.> : B.b.x.x.x.n.- - Z.Z.- g.e.% & a a a a a a a a a a a a a a a a a a a a ",
"a a a a a a a a a a a a a a a a a a a a - & _ q.& > > 5.6.>.6.6.$.$.+.,.7.= & & a.e.* & a a a a a a a a a a a a a a a a a a a a ",
"a a a a a a a a a a a a a a a a a a a a & & ` q.& - > 6.6.;.6.<.3.2.>.2.3.- & & a.f.% & a a a a a a a a a a a a a a a a a a a a ",
"a a a a a a a a a a a a a a a a a a a a & & ` w.& 8.4.&.&.1.>.-.>.;.&.-.6.&.6.% i.t.* & a a a a a a a a a a a a a a a a a a a a ",
"a a a a a a a a a a a a a a a a a a a & & & ` w.- >.:.&.&.&.=.=.&.&.&.=.&.&.9.= i.t.& - & a a a a a a a a a a a a a a a a a a a ",
"a a a a a a a a a a a a a a a a a a a * * * ` w.& -.=.&.&.&.&.&.&.&.&.&.&.&.&.& a.t.& - 9 a a a a a a a a a a a a a a a a a a a ",
"a a a a a a a a a a a a a a a a a 7 @ t.( _ ` w.& #.=.&.&.&.=.&.&.&.&.&.&.&.=.* i.r.t.r.r.@ & a a a a a a a a a a a a a a a a a ",
"a a a a a a a a a a a a a a a a a y & o + . [ w.> =.*.*.*.&.@.@.@.@.*.&.*.*.*.& w.) X X X 2 & a a a a a a a a a a a a a a a a a ",
"a a a a a a a a a a a a a a a a a u p 1 & 7 _ 0.5 ` / _ / / = - % = / / / _ ` & d ( 1 ; i - & a a a a a a a a a a a a a a a a a ",
"a a a a a a a a a a a a a a a a a a a a a a & & 5 / _ / / ` = - - % _ _ / ` ` - & & a a a a a a a a a a a a a a a a a a a a a a ",
"a a a a a a a a a a a a a a a a a a a a a a & 4 % / / _ / _ - a a & 0 ` / ` e.& 8 8 a a a a a a a a a a a a a a a a a a a a a a ",
"a a a a a a a a a a a a a a a a a a a a a a a a % % h._ / 0 % a a & - ` ) r.e.- a a a a a a a a a a a a a a a a a a a a a a a a ",
"a a a a a a a a a a a a a a a a a a a a a a a a a , h.` / 0 - a a % & _ ) r.- % a a a a a a a a a a a a a a a a a a a a a a a a ",
"a a a a a a a a a a a a a a a a a a a a a a a a a % % e./ - - a a - & _ h.h.& a a a a a a a a a a a a a a a a a a a a a a a a a ",
"a a a a a a a a a a a a a a a a a a a a a a a a a % % 0./ % - a a - s } h.& & a a a a a a a a a a a a a a a a a a a a a a a a a ",
"a a a a a a a a a a a a a a a a a a a a a a a a a a % 0._ 0 - a a $ u.0.h.& % a a a a a a a a a a a a a a a a a a a a a a a a a ",
"a a a a a a a a a a a a a a a a a a a a a a a a a a % % _ _ & a a 0 } y.t.& & a a a a a a a a a a a a a a a a a a a a a a a a a ",
"a a a a a a a a a a a a a a a a a a a a a a a a a a , % 0.w.- a 0 0 } y.t.& a a a a a a a a a a a a a a a a a a a a a a a a a a ",
"a a a a a a a a a a a a a a a a a a a a a a a a a a a % q.O.- a - $ ( y.& & a a a a a a a a a a a a a a a a a a a a a a a a a a ",
"a a a a a a a a a a a a a a a a a a a a a a a a a a a % O.O.% a - - ( y.& a a a a a a a a a a a a a a a a a a a a a a a a a a a ",
"a a a a a a a a a a a a a a a a a a a a a a a a a a a a a a a a & q.( e.& a a a a a a a a a a a a a a a a a a a a a a a a a a a ",
"a a a a a a a a a a a a a a a a a a a a a a a a a a a a a a a a & q.( & & a a a a a a a a a a a a a a a a a a a a a a a a a a a ",
"a a a a a a a a a a a a a a a a a a a a a a a a a a a a a a a a & 0.( & a a a a a a a a a a a a a a a a a a a a a a a a a a a a ",
"a a a a a a a a a a a a a a a a a a a a a a a a a a a a a a a a & O.O.& a a a a a a a a a a a a a a a a a a a a a a a a a a a a ",
"a a a a a a a a a a a a a a a a a a a a a a a a a a a a a a a a - O.O.& a a a a a a a a a a a a a a a a a a a a a a a a a a a a ",
"a a a a a a a a a a a a a a a a a a a a a a a a a a a a a a a a a a a a a a a a a a a a a a a a a a a a a a a a a a a a a a a a ",
"a a a a a a a a a a a a a a a a a a a a a a a a a a a a a a a a a a a a a a a a a a a a a a a a a a a a a a a a a a a a a a a a ",
"a a a a a a a a a a a a a a a a a a a a a a a a a a a a a a a a a a a a a a a a a a a a a a a a a a a a a a a a a a a a a a a a ",
"a a a a a a a a a a a a a a a a a a a a a a a a a a a a a a a a a a a a a a a a a a a a a a a a a a a a a a a a a a a a a a a a ",
"a a a a a a a a a a a a a a a a a a a a a a a a a a a a a a a a a a a a a a a a a a a a a a a a a a a a a a a a a a a a a a a a "
};
