/* XPM */
static const char *dGF5dGF5cmlnaHQy[] = {
/* columns rows colors chars-per-pixel */
"64 64 60 1 ",
"  c #AD3D3C",
". c #1C1A24",
"X c #584B48",
"o c #F3CA7B",
"O c #C1A775",
"+ c #E6B13F",
"@ c #EEA924",
"# c #C07020",
"$ c #E4930E",
"% c #7B2722",
"& c #D39C78",
"* c #CA0019",
"= c #E29973",
"- c #1F1D2A",
"; c #B2041B",
": c #EDC09D",
"> c #E1A146",
", c #F3BE99",
"< c #EBA72D",
"1 c #EBA31E",
"2 c #E4A33D",
"3 c #E29D38",
"4 c #423120",
"5 c #4A3B39",
"6 c #49252B",
"7 c #C08B23",
"8 c #5D5664",
"9 c #EFDBF4",
"0 c #36313D",
"q c #F1E9E9",
"w c #FBF9F9",
"e c #FDFDFD",
"r c #261C26",
"t c #231C25",
"y c #2E1E27",
"u c #CEA286",
"i c #E19B6F",
"p c #241C25",
"a c #1D1A24",
"s c #1F1B25",
"d c #D56CD2",
"f c #B525AB",
"g c #C41FAD",
"h c #282229",
"j c #E09C6F",
"k c #261915",
"l c #461B46",
"z c #F2BC98",
"x c #AF7D5E",
"c c #32282C",
"v c #A47355",
"b c #E09E72",
"n c #DD9C70",
"m c #F2BC96",
"M c #D29166",
"N c #D69469",
"B c #4D3B38",
"V c #DF9C6F",
"C c #73493B",
"Z c #892A92",
/* pixels */
"                                                                ",
"                                                                ",
"                                                                ",
"                                                                ",
"                                                                ",
"                           ...XXX...                            ",
"                         ....XXXXX...                           ",
"                      XX...oooooooooo....                       ",
"                      .OOOoo++++++@@@@OOX                       ",
"                     ..OOoo+++@@@@@X.@oOX                       ",
"                     .OOo@@@@@@@@##.#@+oo.                      ",
"                    .Ooo@@@@@@@$$#..%$$+@.                      ",
"                    .oo@@@@@@@$$#.&&%%#@@.                      ",
"                    .+@@@@@@@@$#..&&.%#*@.                      ",
"                    .+@@@@@@@@@..=====*-;..                     ",
"                    .+@@@@@@@@@..=:::=*--*.                     ",
"                    .+@@@@@@@@$..=:****--;.                     ",
"                    .+@@@@@@@@$..;;;;;*--;.                     ",
"                    .+@@@@@@@@>.&,,,,,*--;.                     ",
"                   .++@@@@@@@>>.&=,,,,*-;.                      ",
"                   .++@@<@11@23.&&=,,,=**.                      ",
"                   Xo+@@>@$$@@$4.&==,,&&.                       ",
"                   Xoo@@@@$$$@$$.&&&&&&&.                       ",
"                   .oo@$$$$$$$$$.5.&&&.XX                       ",
"                   6.o$77$$$$77>$8.....                         ",
"                     ...........899.                            ",
"                      ........099999.                           ",
"                         ..qweeeeeeee.                          ",
"                         r.eeeeeeeeee.                          ",
"                          tqe.ee.99qq.                          ",
"                          y99.ee.9....                          ",
"                          t99.ui.99.                            ",
"                          p99.ui.99.                            ",
"                          r9.uui.99.                            ",
"                          a9.uui.9..                            ",
"                         sdf..ui.fd..                           ",
"                        .ddf..ui.gdd.                           ",
"                        .ggg..ui.ggg.                           ",
"                       .gggg..ui.gggg.                          ",
"                       .gggg..uih.ggg..                         ",
"                      ..gggg..uij...gg..                        ",
"                      ..ggggkjujjj..gg..                        ",
"                        ...lkjzzjk.....                         ",
"                          .x.kkkkcv..                           ",
"                          .bb.kk.nm..                           ",
"                          .MNBBbbmmm.                           ",
"                          .bMM.bbmmm.                           ",
"                         .VbMM..bbmm..                          ",
"                         .bbMM..Cbmm..                          ",
"                         .bbm...Cbbmm.                          ",
"                        .CVVm.....MbmC.                         ",
"                        .CVm...  ..Mb..                         ",
"                       ..VVM..   ..Mb..                         ",
"                       ..bmC..    .Cbm.                         ",
"                       ..bmC.     ..Mm.                         ",
"                       ..mm..      .Mb.                         ",
"                       ..bb.       .Mb..                        ",
"                       .ZZ..       .ZZ..                        ",
"                       .ZZZ.       .ZZZ.                        ",
"                                                                ",
"                                                                ",
"                                                                ",
"                                                                ",
"                                                                "
};
