/* XPM */
static char *e8e67939a2414a2b9c6466f31b85dceea0MYRohdvEeR9fpD[] = {
/* columns rows colors chars-per-pixel */
"64 64 167 2 ",
"   c #19191C",
".  c #2B1D0C",
"X  c #261916",
"o  c #2C1C14",
"O  c #251B1D",
"+  c #2C1A1B",
"@  c #321C13",
"#  c #352E16",
"$  c #1D1D25",
"%  c #1F1D2B",
"&  c #1B1D31",
"*  c #221C26",
"=  c #221D2B",
"-  c #291E2B",
";  c #201622",
":  c #241E30",
">  c #1E202B",
",  c #1F2123",
"<  c #242224",
"1  c #24222D",
"2  c #2C222A",
"3  c #2C292A",
"4  c #31222B",
"5  c #39232C",
"6  c #292531",
"7  c #43252E",
"8  c #4A282C",
"9  c #56292E",
"0  c #422530",
"q  c #492A34",
"w  c #542931",
"e  c #5D2B30",
"r  c #5E363C",
"t  c #662D33",
"y  c #65393D",
"u  c #773C3C",
"i  c #73493B",
"p  c #7B5928",
"a  c #4B3E41",
"s  c #623E47",
"d  c #4F4F5D",
"f  c #56555E",
"g  c #5D5759",
"h  c #6D4745",
"j  c #784546",
"k  c #595563",
"l  c #595764",
"z  c #AD3D3C",
"x  c #865E27",
"c  c #85453B",
"v  c #993565",
"b  c #B62F75",
"n  c #B92F70",
"m  c #8A5B4D",
"M  c #875358",
"N  c #AF4241",
"B  c #B14645",
"V  c #B34C4B",
"C  c #BD8127",
"Z  c #DB990D",
"A  c #DE9511",
"S  c #D6921D",
"D  c #DB921F",
"F  c #E3940D",
"G  c #E1980B",
"H  c #E59B14",
"J  c #EBA51F",
"K  c #F3A51E",
"L  c #C08B23",
"P  c #D38F23",
"I  c #DB8C2B",
"U  c #D6822A",
"Y  c #D59326",
"T  c #DA9426",
"R  c #DD9B26",
"E  c #DA952B",
"W  c #D5952B",
"Q  c #DB9933",
"!  c #D9983E",
"~  c #E29D26",
"^  c #E2962A",
"/  c #E69928",
"(  c #D7A12E",
")  c #DBA434",
"_  c #E4A226",
"`  c #EAA526",
"'  c #ECA826",
"]  c #EDA62A",
"[  c #EBAA29",
"{  c #F1A622",
"}  c #F0A728",
"|  c #E7A936",
" . c #E8B23F",
".. c #AB8344",
"X. c #BB9E75",
"o. c #D48D5D",
"O. c #EAAE42",
"+. c #E5B140",
"@. c #EDB052",
"#. c #F5BC5E",
"$. c #D28362",
"%. c #DD9B6D",
"&. c #DD9C73",
"*. c #DF9673",
"=. c #E09C6E",
"-. c #E29B73",
";. c #C1A776",
":. c #C1A974",
">. c #E0AD6C",
",. c #EFBE60",
"<. c #F1A37C",
"1. c #F6CD69",
"2. c #F5C575",
"3. c #F5CB75",
"4. c #F3CA7A",
"5. c #F2C77C",
"6. c #852D8E",
"7. c #8A2F84",
"8. c #BD2A84",
"9. c #BE288C",
"0. c #BB2890",
"q. c #BF25BA",
"w. c #BF38B8",
"e. c #BE38B6",
"r. c #B726A6",
"t. c #C41FAD",
"y. c #C521AD",
"u. c #C524B1",
"i. c #C72CB3",
"p. c #C82FB3",
"a. c #CB3BB9",
"s. c #C835B6",
"d. c #C842BC",
"f. c #CE4CC3",
"g. c #D25CCA",
"h. c #D35AC5",
"j. c #CF6AC7",
"k. c #D565CE",
"l. c #D868C8",
"z. c #E06FCE",
"x. c #D19F83",
"c. c #D0A286",
"v. c #D4A68B",
"b. c #EEBD96",
"n. c #EEBE99",
"m. c #F2BD96",
"M. c #F1BD9A",
"N. c #F9BA93",
"B. c #E9BEA7",
"V. c #E7BEA9",
"C. c #F4C781",
"Z. c #F6C099",
"A. c #E5C0A8",
"S. c #E6C5B9",
"D. c #EADEEE",
"F. c #EDDDF2",
"G. c #EFDBF4",
"H. c #EFDDF4",
"J. c #EFDBF6",
"K. c #EDDCF8",
"L. c #E9D7F0",
"P. c #F1DBF4",
"I. c #F1DCF8",
"U. c #F1DCF8",
"Y. c #F4E4FA",
"T. c #F6E9FB",
"R. c #FDFCFD",
/* pixels */
"z z z z z z z z z z z z z z z z z z z z z z z z z z z z z z z z z z z z z z z z z z z z z z z z z z z z z z z z z z z z z z z z ",
"z z z z z z z z z z z z z z z z z z z z z z z z z z z z z z z z z z z z z z z z z z z z z z z z z z z z z z z z z z z z z z z z ",
"z z z z z z z z z z z z z z z z z z z z z z z z z z z z z z z z z z z z z z z z z z z z z z z z z z z z z z z z z z z z z z z z ",
"z z z z z z z z z z z z z z z z z z z z z z z z z z z z z z z z z z z z z z z z z z z z z z z z z z z z z z z z z z z z z z z z ",
"z z z z z z z z z z z z z z z z z z z z z z z z z z z z z z z z z z z z z z z z z z z z z z z z z z z z z z z z z z z z z z z z ",
"z z z z z z z z z z z z z z z z z z z z z z z z z z z 9 $ % % % % % % % $ z z z z z z z z z z z z z z z z z z z z z z z z z z z ",
"z z z z z z z z z z z z z z z z z z z z z z z z z z z 0 ; = = % * % = $ % V z z z z z z z z z z z z z z z z z z z z z z z z z z ",
"z z z z z z z z z z z z z z z z z z z z z z z B - * O 4.o.4.3.3.3.4.4.4.3.* % 4 z z z z z z z z z z z z z z z z z z z z z z z z ",
"z z z z z z z z z z z z z z z z z z z z z z M s ;.;.:. .! !  . .) )  . . .....X.h j N z z z z z z z z z z z z z z z z z z z z z ",
"z z z z z z z z z z z z z z z z z z z z B B : + 4.4.3.J ` U ` [ H F ' ` ' ' ' 3.o 1 B N z z z z z z z z z z z z z z z z z z z z ",
"z z z z z z z z z z z z z z z z z z z B $ % C.,.K ' K ' ` ` U J ~ ' H ' ' { { ' 4.2.% 7 z z z z z z z z z z z z z z z z z z z z ",
"z z z z z z z z z z z z z z z z z z z z = % C.1.' ' ' ' ' ` I ` ' ' ' ' { ' { ' 2.5.: 0 z z z z z z z z z z z z z z z z z z z z ",
"z z z z z z z z z z z z z z z z z z z z % = ' ' { ' ' ' ' ` P I ' ' ' ` ' ` Z { ' ' & 7 z z z z z z z z z z z z z z z z z z z z ",
"z z z z z z z z z z z z z z z z z z z z % = ' ' ' ' ' ' ' ' } ^ ` ' ' ' ' ' ` [ ' ' & $ z z z z z z z z z z z z z z z z z z z z ",
"z z z z z z z z z z z z z z z z z z z z % % } ' ' ' / ' ' ' ' ' I ' ' ' ' ' ' _ ' { % > B z z z z z z z z z z z z z z z z z z z ",
"z z z z z z z z z z z z z z z z z z z z % % ` ` / ' ' ' T ' ' | ` ^ _ ` ' ' T ' ' ' & $ V z z z z z z z z z z z z z z z z z z z ",
"z z z z z z z z z z z z z z z z z z z z % % ' ' _ [ ' T ' ' ' ` ' / _ E ' ' ' ' ` ` & $ V z z z z z z z z z z z z z z z z z z z ",
"z z z z z z z z z z z z z z z z z z z z $ 3 ` ' ' ' ' ` ' ' ' ' ' ' ` E ' ' ' ' _ ` & % B z z z z z z z z z z z z z z z z z z z ",
"z z z z z z z z z z z z z z z z z z z z = d [ ' ' ' ' ' ' ' @.[ ' ' ' _ ' ' ' ' ' ' $ % B z z z z z z z z z z z z z z z z z z z ",
"z z z z z z z z z z z z z z z z z z V - = & O.] ` ' ' ` ` ` ' ' ' ' ' ' ` ` Y ' ' ) - : % z z z z z z z z z z z z z z z z z z z ",
"z z z z z z z z z z z z z z z z z z N f #.#.A Y ' ' ' ` ~ ' ' ' ` ' ] [ ' ' ' ' ~ F | ~ 1 N z z z z z z z z z z z z z z z z z z ",
"z z z z z z z z z z z z z z z z z z B $ ,.| Z Y ` ` ' ` ` ' ' ` ' ' ' ~ T T ' ' T G ` _ = z z z z z z z z z z z z z z z z z z z ",
"z z z z z z z z z z z z z z z z z z V l Z F D G ~ T T T E E T ~ T T E T T ~ ` ' G G F A l N z z z z z z z z z z z z z z z z z z ",
"z z z z z z z z z z z z z z z z z z V , Y L P S S # C T T ~ T T T T T T E p - T T T E T % B z z z z z z z z z z z z z z z z z z ",
"z z z z z z z z z z z z z z z z z z z N - - - : % H.H.% % P T T T T T P x J.K.* % > % 4 N z z z z z z z z z z z z z z z z z z z ",
"z z z z z z z z z z z z z z z z z z z z N V % $ R.K.I.F.F.E Q T Q >.F.F.F.K.T.R.% % V z z z z z z z z z z z z z z z z z z z z z ",
"z z z z z z z z z z z z z z z z z z z z z B %   R.I.Y.K.P.J.P.J.P.J.J.J.H.I.R.R.$ = B z z z z z z z z z z z z z z z z z z z z z ",
"z z z z z z z z z z z z z z z z z z z z z B %   R.1 % I.U.U.U.U.I.I.U.U.T.% $ R.$ % B z z z z z z z z z z z z z z z z z z z z z ",
"z z z z z z z z z z z z z z z z z z z z z B %   R.1 % K.U.Y.U.U.U.U.U.U.I.% % R.$ = B z z z z z z z z z z z z z z z z z z z z z ",
"z z z z z z z z z z z z z z z z z z z z z B $   R.1 % T.U.U.U.J.J.D.U.Y.I.% $ R.% % N z z z z z z z z z z z z z z z z z z z z z ",
"z z z z z z z z z z z z z z z z z z z z z N & O Z.% % D.U.D.U.J.J.H.D.D.P.% * &.+ % N z z z z z z z z z z z z z z z z z z z z z ",
"z z z z z z z z z z z z z z z z z z z z z z % o n.% % K.K.P.J.J.U.J.J.J.J.% = &.+ % V N z z z z z z z z z z z z z z z z z z z z ",
"z z z z z z z z z z z z z z z z z z z N 7 % M.Z.=.% % J.J.J.J.U.K.P.H.K.P.% % %.N.m.% e z z z z z z z z z z z z z z z z z z z z ",
"z z z z z z z z z z z z z z z z z z z z % * b.Z.&.< & J.J.J.U.U.K.J.I.L.J.* * -.N.n.% 5 z z z z z z z z z z z z z z z z z z z z ",
"z z z z z z z z z z z z z z z z z z z z % % =.c.% R.R.> = U.K.K.P.J.P.: = R.R.= A.b.% 5 z z z z z z z z z z z z z z z z z z z z ",
"z z z z z z z z z z z z z z z z z z z q % % =.c.% % > j.k.a.k.k.w.w.r.p.k.* % % V.n.% % r z z z z z z z z z z z z z z z z z z z ",
"z z z z z z z z z z z z z z z z z z B % & & -.c.% * > k.k.i.k.a.g.g.s.g.g.* = % V.M.* = q V N z z z z z z z z z z z z z z z z z ",
"z z z z z z z z z z z z z z z z z s @ n.&.=.-.c.% l.h.t.t.f.a.u.s.i.t.u.k.t.k.% A.Z.n.n.M.@ q z z z z z z z z z z z z z z z z z ",
"z z z z z z z z z z z z z z z z B M g X + . -.c.= a.p.t.t.t.t.t.t.t.t.y.y.t.z.$ v.&.+ X X 2 % z z z z z z z z z z z z z z z z z ",
"z z z z z z z z z z z z z z z z z s l f 4 m =.c.% u.y.t.t.t.t.t.t.t.t.t.t.y.y.= c.-.1 6 f % % z z z z z z z z z z z z z z z z z ",
"z z z z z z z z z z z z z z z z z N B z z B = = % q.t.t.t.t.t.t.t.t.t.t.y.y.y.& a 6 B B B V V z z z z z z z z z z z z z z z z z ",
"z z z z z z z z z z z z z z z z z z z z z z 8 s 7 0.0.9.9.b b b b b n n n n 8.0 y u z z z z z z z z z z z z z z z z z z z z z z ",
"z z z z z z z z z z z z z z z z z z z z z z z z - -.=.$.$.$.8 0 7 7 $.$.$.$.$.w N z z z z z z z z z z z z z z z z z z z z z z z ",
"z z z z z z z z z z z z z z z z z z z z z z z z w -.-.%.-.=.$ 4 - * -.-.%.=.%.5 V z z z z z z z z z z z z z z z z z z z z z z z ",
"z z z z z z z z z z z z z z z z z z z z z z z z t b.-.=.-.i % B z * %.%.=.=.%., V z z z z z z z z z z z z z z z z z z z z z z z ",
"z z z z z z z z z z z z z z z z z z z z z z z z t b.n.&.-.% % z z $ i %.=.S.> , V z z z z z z z z z z z z z z z z z z z z z z z ",
"z z z z z z z z z z z z z z z z z z z z z z z z t % n.&.=.* % z z = i %.-.S.8 V z z z z z z z z z z z z z z z z z z z z z z z z ",
"z z z z z z z z z z z z z z z z z z z z z z z z B 4 S.S.%.% % z z = * -.Z.$ 5 V z z z z z z z z z z z z z z z z z z z z z z z z ",
"z z z z z z z z z z z z z z z z z z z z z z z z z % % S.<.i % z z = , %.c.$ * z z z z z z z z z z z z z z z z z z z z z z z z z ",
"z z z z z z z z z z z z z z z z z z z z z z z z z % % S.<.<.% z z = i %.x.$ B z z z z z z z z z z z z z z z z z z z z z z z z z ",
"z z z z z z z z z z z z z z z z z z z z z z z z z > * M.M.<.i z z = &.%.$ 4 z z z z z z z z z z z z z z z z z z z z z z z z z z ",
"z z z z z z z z z z z z z z z z z z z z z z z z z V % M.M.<.i c N = c.&.$ e z z z z z z z z z z z z z z z z z z z z z z z z z z ",
"z z z z z z z z z z z z z z z z z z z z z z z z z z % % b.&.% 7 B % 6.c.$ B z z z z z z z z z z z z z z z z z z z z z z z z z z ",
"z z z z z z z z z z z z z z z z z z z z z z z z z N V % b.&.% 7 N 5 v v 2 z z z z z z z z z z z z z z z z z z z z z z z z z z z ",
"z z z z z z z z z z z z z z z z z z z z z z z z z z N - b.&.x.7 z z z z z z z z z z z z z z z z z z z z z z z z z z z z z z z z ",
"z z z z z z z z z z z z z z z z z z z z z z z z z z z w % &.x.7 z z z z z z z z z z z z z z z z z z z z z z z z z z z z z z z z ",
"z z z z z z z z z z z z z z z z z z z z z z z z z z z V % &.x.7 N z z z z z z z z z z z z z z z z z z z z z z z z z z z z z z z ",
"z z z z z z z z z z z z z z z z z z z z z z z z z z z B % 6.6.5 N z z z z z z z z z z z z z z z z z z z z z z z z z z z z z z z ",
"z z z z z z z z z z z z z z z z z z z z z z z z z z z z - 6.7.% z z z z z z z z z z z z z z z z z z z z z z z z z z z z z z z z ",
"z z z z z z z z z z z z z z z z z z z z z z z z z z z z N V B V z z z z z z z z z z z z z z z z z z z z z z z z z z z z z z z z ",
"z z z z z z z z z z z z z z z z z z z z z z z z z z z z z z z z z z z z z z z z z z z z z z z z z z z z z z z z z z z z z z z z ",
"z z z z z z z z z z z z z z z z z z z z z z z z z z z z z z z z z z z z z z z z z z z z z z z z z z z z z z z z z z z z z z z z ",
"z z z z z z z z z z z z z z z z z z z z z z z z z z z z z z z z z z z z z z z z z z z z z z z z z z z z z z z z z z z z z z z z ",
"z z z z z z z z z z z z z z z z z z z z z z z z z z z z z z z z z z z z z z z z z z z z z z z z z z z z z z z z z z z z z z z z "
};
