/* XPM */
static const char *dGF5dGF5ZG93bjE_[] = {
/* columns rows colors chars-per-pixel */
"64 64 162 2 ",
"   c #19191C",
".  c #2B1D0C",
"X  c #261916",
"o  c #251A1C",
"O  c #2C1A19",
"+  c #2B1B16",
"@  c #321C12",
"#  c #3E241E",
"$  c #1D1E25",
"%  c #1F1D2A",
"&  c #1A1625",
"*  c #1A1D31",
"=  c #231C25",
"-  c #211D2B",
";  c #2C1D2A",
":  c #2A1925",
">  c #241E31",
",  c #351928",
"<  c #1E202B",
"1  c #22202D",
"2  c #262226",
"3  c #33222D",
"4  c #39232B",
"5  c #332324",
"6  c #302D3D",
"7  c #342631",
"8  c #412118",
"9  c #402729",
"0  c #4B2831",
"q  c #47383F",
"w  c #4F3C3C",
"e  c #47353B",
"r  c #503C39",
"t  c #7B2624",
"y  c #7C2A27",
"u  c #733137",
"i  c #73493B",
"p  c #312F40",
"a  c #3D3B47",
"s  c #4D3C43",
"d  c #4E4148",
"f  c #574948",
"g  c #4C4956",
"h  c #454350",
"j  c #514A50",
"k  c #5D5759",
"l  c #604646",
"z  c #6C5C52",
"x  c #7D6E6C",
"c  c #B3041A",
"v  c #BB091C",
"b  c #842A25",
"n  c #812225",
"m  c #813131",
"M  c #AD3D3C",
"N  c #B03F3F",
"B  c #CA0019",
"V  c #CB0A1F",
"C  c #CD0F23",
"Z  c #DA2B2B",
"A  c #DB3333",
"S  c #9B493A",
"D  c #AF403E",
"F  c #B0403F",
"G  c #B04140",
"H  c #81644D",
"J  c #80685D",
"K  c #937D77",
"L  c #DD8D0E",
"P  c #DD950B",
"I  c #D69B0C",
"U  c #DF8A12",
"Y  c #DE9511",
"T  c #D6921C",
"R  c #DB921F",
"E  c #E2940D",
"W  c #E1980B",
"Q  c #E39414",
"!  c #E9A015",
"~  c #F3A51E",
"^  c #C08B23",
"/  c #D58F20",
"(  c #DA9424",
")  c #DA9629",
"_  c #D49529",
"`  c #E39F27",
"'  c #D7A12E",
"]  c #DBA334",
"[  c #EDA523",
"{  c #EEA924",
"}  c #EEA628",
"|  c #E4A827",
" . c #F1A622",
".. c #F0A42C",
"X. c #EBAC36",
"o. c #E4A739",
"O. c #E5B13F",
"+. c #E8B23F",
"@. c #AB8344",
"#. c #BCA479",
"$. c #EAAE44",
"%. c #E1A146",
"&. c #E5B140",
"*. c #F4BC5E",
"=. c #DD9B6D",
"-. c #CB9B7F",
";. c #DD9C73",
":. c #D39C78",
">. c #DA9875",
",. c #E09C6E",
"<. c #E29B73",
"1. c #C1A776",
"2. c #C1A974",
"3. c #EFBE60",
"4. c #F1A37C",
"5. c #F6CD69",
"6. c #F5C475",
"7. c #F4CB75",
"8. c #F3CA7A",
"9. c #F2C77C",
"0. c #852D8E",
"q. c #B525AC",
"w. c #BF22AC",
"e. c #B726A6",
"r. c #BF25BA",
"t. c #C41FAD",
"y. c #C421A5",
"u. c #C421AC",
"i. c #C523B8",
"p. c #CF6AC7",
"a. c #D865C3",
"s. c #D666CB",
"d. c #DB6FCE",
"f. c #D867C8",
"g. c #CB73C6",
"h. c #D76CD1",
"j. c #E06FCE",
"k. c #E376D8",
"l. c #D19F83",
"z. c #EB9F84",
"x. c #CFA185",
"c. c #D1A186",
"v. c #EEBC96",
"b. c #EEBD99",
"n. c #F3BD96",
"m. c #F3BE99",
"M. c #F0BD9A",
"N. c #F1BD9A",
"B. c #F1BD9A",
"V. c #F9BA93",
"C. c #E9BEA7",
"Z. c #F4C781",
"A. c #FAC099",
"S. c #E5C0A8",
"D. c #E6C5B9",
"F. c #EADFEE",
"G. c #EEDCF5",
"H. c #EDDCF8",
"J. c #E9D7F0",
"K. c #F1DBF4",
"L. c #F1DCF8",
"P. c #FDFCFD",
/* pixels */
"G G G G G G G G M M M M M D M M D D D M M D D M M M M M M M M M M M D G G G M M M G G M M M M M M M M M M M M M M M M M M M G G ",
"G G G G G G G G M M M M M D D D M M D M M M M M M M M M M M M M M M M D G G M M M G G M M M M M M M M M M M M M M M M M M M F M ",
"G G G G G G G G M M M M M D D D D M M M M M M M M M M M M M M M M M M M M M M M G G G M M M M M M M M M M M M M M M M M M M D D ",
"G G G G G G G G M M M M M M M M M M M M M M M M M M M M M M M M M M M M M M M M N G G M M M M M M M M M M M M M M M M M M M D D ",
"D D D M F D D D M M M M M M M M M M M M M M M M M M M M M M M M M M M M M M M M M M M M M M M M M M M M M M M M G G G G N N G G ",
"D D M M D D D D M M M M M M M M M M M M M M M M M M M $ $ % % % % % % % $ M M M M M M M M M M M M M M M M M M M N G G G N M N N ",
"D D M M D D D D M M M M M M M M M M M M M M M M M M M - & % - - - - - $ % M M M M M M M M M M M M M M M M M M M M G G M M M F N ",
"N N M M D D D D M M M M M M M M M M M M M M M M 4 4 = 8.8.8.7.7.7.8.8.8.7.- - - M M M M M M M M M M M M G M M M M M M M M M F G ",
"D M M M D D D D M M M M M M M M M M M M M M g l 1.1.1.O.O.O.&.$.' ] &.&.+.@.@.#.f g M M M M M M M M M M M M M M F F N M D D D N ",
"M M M M D D D D M M M M M M M M M M M M M M - 8 8.8.8.{ { [ { | Q U { { { { } 8.+ - M M M M M M M M M M M M M M F M N N M M M N ",
"M M M M D D D D M M M M M M M M M M M M = % Z.6.~  .~ { { { P P y t P { {  . .{ 9.6.$ - M M M M M M M M M M M M M M N N M M M M ",
"M M M M D D D M M M M M M M M M M M M M % % Z.5.{ { { { { [ P E t b E [ { {  .{ 7.8.- % M M M M M M M M M M M M M M N M M M M M ",
"N N N F D D D M D M M M M M M M M M M M % % } { B B { c B ! b t ;.<.m B B Q B B { { * $ M M M M M M M M M M M M M M N N N N N N ",
"G G G G G G G G D M M M M M M M M M M M % % } B % % c , % B S S ,.,.B % % B % % B  .* % M M M M M M M M M M M M M M N N N N N N ",
"G G G G G G G G M M M M M M M M M M M M % % B % % % % % % % B ,.,.B % % % % % % % B * % M M M M M M M M M M M M M M N N N N N N ",
"G G G G G G G N M M M M M M M M M M M M % % B % % % % % % % B B B B % % % % % % % B * % M M M M M M M M M M M M M M N N N N N N ",
"G G G G G G G M M M M M M M M M M M M M % % B % % % % % % % C N.N.B % % % % % % % B * % M M M M M M M M N M M M M M M M N N N N ",
"G G G G G G G N F F G N M M M M M M G G $ % ..B % % % % % B N.N.N.N.B % % % % % B X.% % N N M M M M D D F F N N D D D D G N N M ",
"G G G G G G G N N N G G M M M M M M G u - p $.o.v % % % B b.v.v.v.N.z.c % % % B %.] ; ; 3 F D D D D D D F N M N D D D D F N M M ",
"G G G G G G G N N N G G G M M M M M G d *.*.Y _ n B B B N.N.N.m.N.N.N.N.B B V t ( Y X.` 1 D D D D D D F F N M M D D F F G N M M ",
"G G G G F F F N N N N M M M M M M M G s 3.o.W ( t ;.;.N.N.N.A A A A N.N.N.<.<.t R W [ | - D D D D D D D D M M M D D D F F M M M ",
"M M M M M M M M M M M M M M M M M M M q I E ( W E H <.N.N.N.Z Z Z A N.N.n.;.r L E W E Y g M M M M M M M M M M M M M M M M M M M ",
"M M M M M M M M M M M M M M M M M M M s _ ^ / T T 5 $ =.,.,.,.,.,.,.,.,.;.: - ( ) ( ) ) 6 M M M M M M M M M M M M M M M M M M M ",
"M M M M M M M M M M M M M M M M M M M 9 d d d d d # % :.:.:.:.:.:.:.:.:.:.< ; g g g g g g M M M M M M M M M M M M M M M M M M M ",
"M M M M M M M M M M M M M M M M M M M M M M M M M F.G.% % % % % % % % % % G.G.M M M M M N N N N N N M M M M M M M M M M M M M M ",
"M M M M M M M M M M M M M M M M M M M M M M - & P.P.P.G.G.G.G.G.G.G.G.G.G.P.P.P.$ % M M M N N M M M M M M M M M M M M M M M M M ",
"M M M M M M M M M M M M M M M M M M M M M M %   P.P.P.H.K.G.K.G.G.G.G.G.G.P.P.P.$ - N M M M N M M M M M M M M M M M M M M M M M ",
"M M M M M M M M M M M M M M M M M M M M M M %   P.- % P.P.P.P.P.P.P.P.P.P.$ $ P.$ - N M M M N M M M M M M M M M M M M M M M M M ",
"M M M M M M M M M M M M M M M M M M M M M M %   P.1 % P.P.P.P.P.P.P.P.P.P.% - P.$ % N M M M M M M M M M M M M M M M M M M M M M ",
"M M M M M M M M M M M M M M M M M M M M M M %   P.1 % P.P.P.L.G.G.F.P.P.P.- % P.$ % N M M M M M M M M M M M M M M M M M M M M M ",
"M M M M M M M M M M M M M M M M M M M M M M % A.b.- % F.F.F.K.G.G.G.F.F.F.% - <.<.% M M M M M M M M M M M M M M M M M M M M M M ",
"M M M M M M M M M M M M M M M M M M M M M M $ A.,.- % G.G.G.G.G.L.G.G.G.G.% - ;.n.% M M M M M M M M M M M M M M M M M M M M M M ",
"M M M M M M M M M M M M M M M M M M M M $ % m.A.,.% % G.G.G.G.L.G.G.G.G.G.% % ;.n.n.% $ M M M M M M M M M M M M M M M M M M M M ",
"M M M M M M M M M M M M M M M M M M M M % % v.c.;.2 * K.G.G.L.G.G.G.L.J.G.= o <.V.v.% % M M M M M M M M M M M M M M M M M M M M ",
"M M M M M M M M M M M M M M M M M M M M % % ,.c.% P.P.% - L.G.G.G.G.K.> % P.P.- S.n.% % M M M M M M M M M M M M M M M M M M M M ",
"M M M M M M M M M M M M M M M M M M M % % % ,.c.% - < p.h.q.q.q.q.q.e.g.d.= % % C.n.% % 3 D D M M M M M M M M M M M M M M M M M ",
"M M M M M M M M M M M M M M M M M M M % * * ,.c.% - < h.s.t.t.t.t.t.t.f.k.% % % x.n.- - - D D M M M M M M M M M M M M M M M M M ",
"M M M M M M M M M M M M M M M M M 6 @ N.;.,.<.c.% a.f.t.t.t.t.t.t.t.t.u.u.k.s.; x.N.N.b.N.@ 0 M M M M M M M M M M M M M M M M M ",
"M M M M M M M M M M M M M M M M M a k O O . ,.c.% d.a.t.t.t.t.t.t.t.t.u.u.f.j.3 c.;.o X X 2 % M M M M M M M M M M M M M M M M M ",
"M M M M M M M M M M M M M M M M M h j x w e ,.c.% i.u.t.t.t.t.t.t.t.t.t.t.t.u.3 -.>.z J K = ; M M M M M M M M M M M M M M M M M ",
"M M M M M M M M M M M M M M M M M M M M M . % % % r.t.t.t.t.t.t.t.t.t.t.t.t.u.3 - % o M M M M M M M M M M M M M M M M M M M M M ",
"M M M M M M M M M M M M M M M M M M M M M M w f % w.y.y.y.t.w.w.w.w.y.y.y.y.u.3 % 7 M M M M M M M M M M M M M M M M M M M M M M ",
"M M M M M M M M M M M M M M M M M M M M M M M M % <.,.,.=.,.= % % = =.=.,.=.<.4 M M M M M M M M M M M M M M M M M M M M M M M M ",
"M M M M M M M M M M M M M M M M M M M M M M M M % <.<.=.,.,.$ % - = <.,.=.,.=.4 M M M M M M M M M M M M M M M M M M M M M M M M ",
"F F F M M M M M M M M M M M M M M M M M M M M M % v.N.,.<.i % M M - ,.=.,.,.=.$ M M M M M M M M M M M M D D D D M M M M M M M M ",
"F F F M M M M M M M M M M M M M M M M M M M M M % v.b.;.<.% % M M $ i =.,.D.$ $ M M M M M M M M M M M M D D D D M M M M M M M M ",
"N N F M M M M M M M M M M M M M M M M M M M M M % % D.;.,.% % M M - i =.<.D.$ M M M M M M M M M M M M M D D D D M M M M M M M M ",
"N F F M M M M M M M M M M M M M M M M M M M M M M % D.;.,.% % M M - - ,.v.$ $ M M M M M M M M M M M M M D D D D M M M M M M M M ",
"D D D D D D D D M M M M M M M M M M M M M M M M M % % ;.4.i % M M - $ ,.l.$ $ M M M M M M M M M M M M M M D D D M M M M M M M M ",
"D D D D D D D D M M M M M M M M M M M M M M M M M % % N.4.4.% M M - i ,.l.$ M M M M M M M M M M M M M M M D D D M M M M M M M M ",
"D D D D D D D D M M M M M M M M M M M M M M M M M % % N.;.4.i M M - ,.,.$ $ M M M M M M M M M M M M M M M D D D M M M M M M M M ",
"D D D D D D D D M M M M M M M M M M M M M M M M M M % N.;.4.i i M - l.l.$ $ M M M M M M M M M M M M M M M D D D M M M M M M M M ",
"M M M M M M M M M M M M M M M M M M M M M M M M M M % % v.;.% % M - 0.l.$ M M M M M M M M M M M M M M M M M M M M M M M M M M M ",
"M M M M M M M M D D M M M M M M M M M M M M M M M M M % v.;.% % M $ 0.0.$ M M M M M M M M M M M M M M M M M M M M M M M M M M M ",
"M M M M M M M M D D M M M M M M M M M M M M M M M M M % v.;.l.% M M M M M M M M M M M M M M M M M M M M M M M M M M M M M M M M ",
"M M M M M M M M D D D M M M M M M M M M M M M M M M M % % ;.l.% M M M M M M M M M M M M M M M M M M M M M M M M M M M M M M M M ",
"M M M M M M M M F F F M M M M M M M M M M M M M M M M M % ;.l.% M M M M M M M M M M M M M M M M M M M M M M M M M M M M M M M M ",
"D D D M M M M M M M M M M M M M M M M M M M M M M M M M % 0.0.% M M M M M M M M M M M M M M M M M M M M M M M M M M M M M M M M ",
"D D D M M M M M M M M M M M M M M M M M M M M M M M M M % 0.0.% M M M M M M M M M M M M M M M M M M M M M M M M M M M M M M M M ",
"D D D M M M M M M M M M M M M M M M M M M M M M M M M M M M M M M M M M M M M M M M M M M M M M M M M M M M M M M M M M M M M M ",
"D D D M M M M M M M M M M M M M M M M M M M M M M M M M M M M M M M M M M M M M M M M M M M M M M M M M M M M M M M M M M M M M ",
"D D D D M M M M M M M M M M M M M M M M M M M M M M M M M M M M M M M M M M M M M M M M M M M M M M M M M M M M M M M M M M M M ",
"G G G G G G G G M M M M M M M M M M M M M M M M M M M M M M M M M M M M M M M M M M M M M M M M M M M M M M M M M M M M M M M M ",
"G G G G G G G G M M M M M M M M M M M M M M M M M M M M M M M M M M M M M M M M M M M M M M M M M M M M M M M M M M M M M M M M "
};
