/* XPM */
static const char *d2FsbGxlZnQ_[] = {
/* columns rows colors chars-per-pixel */
"64 64 101 2 ",
"   c #5C524E",
".  c #4D4846",
"X  c #413F3F",
"o  c #413E3E",
"O  c #4B4844",
"+  c #A22D29",
"@  c #9C2A26",
"#  c #B04240",
"$  c #AF413F",
"%  c #AE403D",
"&  c #AD3E3D",
"*  c #AD3D3D",
"=  c #AE3F3D",
"-  c #AF413E",
";  c #B03F3F",
":  c #AC3F3C",
">  c #AC3E3C",
",  c #AC3C3C",
"<  c #AE3E3D",
"1  c #AD3F3D",
"2  c #B04140",
"3  c #AF3E3E",
"4  c #AC3D3C",
"5  c #B04040",
"6  c #AF3F3F",
"7  c #AE3D3D",
"8  c #AD3E3C",
"9  c #AD3F3C",
"0  c #545148",
"q  c #454343",
"w  c #464444",
"e  c #594E4E",
"r  c #3F3D3D",
"t  c #484343",
"y  c #AD3C3C",
"u  c #AF403D",
"i  c #AF3F3D",
"p  c #EBA230",
"a  c #D49025",
"s  c #AB3C3C",
"d  c #AC3B3B",
"f  c #AB3B3B",
"g  c #504D4A",
"h  c #434141",
"j  c #464141",
"k  c #4A4848",
"l  c #4D4646",
"z  c #161410",
"x  c #AC3D3D",
"c  c #2E2B26",
"v  c #88201C",
"b  c #AB3D3D",
"n  c #871B17",
"m  c #AA3C3C",
"M  c #AA3A3A",
"N  c #444140",
"B  c #464343",
"V  c #474441",
"C  c #504947",
"Z  c #5D4F4F",
"A  c #444141",
"S  c #605150",
"D  c #AD3E3E",
"F  c #A93A3A",
"G  c #AA3B3B",
"H  c #464341",
"J  c #4C4947",
"K  c #474543",
"L  c #4A4846",
"P  c #4E4B49",
"I  c #AE3E3E",
"U  c #AE3F3F",
"Y  c #AD3D3C",
"T  c #4F4646",
"R  c #574B4B",
"E  c #434040",
"W  c #514E48",
"Q  c #494747",
"!  c #484444",
"~  c #474545",
"^  c #43403F",
"/  c #554B4B",
"(  c #A93C3C",
")  c #AF3E3D",
"_  c #AF3D3D",
"`  c #AC3E3D",
"'  c #484646",
"]  c #504D47",
"[  c #454141",
"{  c #AD403D",
"}  c #AC3F3D",
"|  c #AE3F3E",
" . c #AE3D3C",
".. c #4A4743",
"X. c #534F4B",
"o. c #534949",
"O. c #514A4A",
"+. c #3E3C3C",
"@. c #4F4747",
"#. c #444040",
"$. c #4B4949",
/* pixels */
"            . . . . . . X X X X X X o o o o o o O O O O O O + @ # # $ % % % % & * * * = - - - - ; ; ; ; = : : : > , , , , , , , ",
"            . . . . . . X X X X X X o o o o o o O O O O O O + @ # # $ % % % % * * * * < - - - - ; ; ; ; 1 : : : : , , , , , , , ",
"            . . . . . . X X X X X X o o o o o o O O O O O O + @ # # $ % % % % * * * * < - - - - ; ; ; ; 1 : : : : , , , , , , , ",
"            . . . . . . X X X X X X o o o o o o O O O O O O + @ 2 2 $ = = = = * * * * < - - - - 3 3 3 3 & > > > > , , , , 4 4 4 ",
"            . . . . . . X X X X X X o o o o o o O O O O O O + @ 5 5 6 7 7 7 7 7 7 7 7 < - - - - , , , , , , , , , , , , , 8 9 9 ",
"0 0 0 0 0 0 0 0 0 0 0 0 0 0 0 0 0 0 0 0 0 0 0 0 0 0 0 0 0 0 + @ 5 5 6 7 7 7 7 7 7 7 7 < - - - - , , , , , , , , , , , , , 8 9 : ",
"q q q q q q w w w w w w e e e e e e r r r r r r t t t t t t + @ 5 5 6 7 7 7 7 7 7 7 7 < - - - - , , , , , , , , , , , , , 8 9 : ",
"q q q q q q w w w w w w e e e e e e r r r r r r t t t t t t + @ 5 5 6 7 7 7 7 7 7 7 7 < - - - - , , , , , , , , , , , , , 8 : : ",
"q q q q q q w w w w w w e e e e e e r r r r r r t t t t t t + @ 3 3 7 y y y y u u u u i 3 3 3 p a p s s d d d d d f f f f d d f ",
"q q q q q q w w w w w w e e e e e e r r r r r r t t t t t t + @ 3 3 7 y y y y u u u u i 3 3 p a a a p s d d d d d f f f f d d f ",
"q q q q q q w w w w w w e e e e e e r r r r r r t t t t t t + @ 3 3 7 y y y y u u u u i 3 3 p a a a p s d d d d d f f f f d d f ",
"0 0 0 0 0 0 0 0 0 0 0 0 0 0 0 0 0 0 0 0 0 0 0 0 0 0 0 0 0 0 + @ 3 3 7 y y y y u u u u i 3 3 3 p a p s s d d d d d f f f f d f f ",
"g g g g g g h h h h h h j j j j j j k k k k k k l l l l l l + @ * * * , , , , & & & & & * * * * z f f f f f f f f f f f f d , , ",
"g g g g g g h h h h h h j j j j j j k k k k k k l l l l l l + @ x x x s s s s x x x x x x x x x c f f f f f f f f f f f f , , , ",
"g g g g g g h h h h h h j j j j j j k k k k k k l l l l l l + @ x x x s s s s x x x x x x x x x c f f f f f f f f f f f f , , , ",
"g g g g g g h h h h h h j j j j j j k k k k k k l l l l l l + @ x x x s s s s x x x x x x x x d v d f f f f f f f f f f f , , , ",
"g g g g g g h h h h h h j j j j j j k k k k k k l l l l l l + @ b b s s s s s x x x x x x x x n v n f f f f f f f f f f f , , , ",
"0 0 0 0 0 0 0 0 0 0 0 0 0 0 0 0 0 0 0 0 0 0 0 0 0 0 0 0 0 0 + @ m m m m m m m s s s s s , , , n v n , , f f f f f M M M M f , , ",
"N N N N N N B B B B B B q q q q q q V V V V V V O O O O O O + @ s s s m m m m s s s s s , , , n v n , , f f f f f M M M M f , , ",
"N N N N N N B B B B B B q q q q q q V V V V V V O O O O O O + @ s s s s m m m s s s s s , , , n v n , , f f f f f M M M M d , , ",
"N N N N N N B B B B B B q q q q q q V V V V V V O O O O O O + @ s s s s s m m s s s s s , , , n v n , , f f f f f M M M M d , , ",
"N N N N N N B B B B B B q q q q q q V V V V V V O O O O O O + @ x x x x x x * , , , , , , , , n v n 7 7 y , , , , M M M M f f f ",
"N N N N N N B B B B B B q q q q q q V V V V V V O O O O O O + @ x x x x x x x , , , , , , , , n v n 7 7 y , , , , M M M M f f f ",
"0 0 0 0 0 0 0 0 0 0 0 0 0 0 0 0 0 0 0 0 0 0 0 0 0 0 0 0 0 0 + @ x x x x x x x , , , , , , , , n n n 7 7 y , , , , M M M M f f f ",
"C C C C C C Z Z Z Z Z Z h h h h h h A A A A A A S S S S S S + @ x x x x x x x , , , , , , , , n n n 7 7 y , , , , M M M M f f f ",
"C C C C C C Z Z Z Z Z Z h h h h h h A A A A A A S S S S S S + @ * * * * D D D , , , , , , , , n n n 7 7 y , , , , F F F F G f f ",
"C C C C C C Z Z Z Z Z Z h h h h h h A A A A A A S S S S S S + @ * * * * * D D , , , , , , , , n n n 7 7 y , , , , F F F F G f f ",
"C C C C C C Z Z Z Z Z Z h h h h h h A A A A A A S S S S S S + @ * * * * * * D , , , , , , , , n n n 7 7 y , , , , F F F F G f f ",
"C C C C C C Z Z Z Z Z Z h h h h h h A A A A A A S S S S S S + @ * * * * * * * , , , , , , , , n n n 7 7 y , , , , F F F F G f f ",
"0 0 0 0 0 0 0 0 0 0 0 0 0 0 0 0 0 0 0 0 0 0 0 0 0 0 0 0 0 0 + @ * * * * * * * , , , , , , , , n n n * * y , , , , G G G G f d d ",
"H H H H H H J J J J J J K K K K K K L L L L L L P P P P P P + @ I I D x x x x , , , , , , , , n n n , , y y y y y , , , , y y y ",
"H H H H H H J J J J J J K K K K K K L L L L L L P P P P P P + @ D I D x x x x , , , , , , , , n n n , , y y y y y , , , , y y y ",
"H H H H H H J J J J J J K K K K K K L L L L L L P P P P P P + @ D D D x x x x , , , , , , , , n n n , , y y y y y , , , , y y y ",
"H H H H H H J J J J J J K K K K K K L L L L L L P P P P P P + @ D D D x x x * , , , , , , , , n n n , , y y y y y , , , , y y y ",
"H H H H H H J J J J J J K K K K K K L L L L L L P P P P P P + @ I U D x x x x x x x x , s s s n n n f f f f f f f 8 8 8 8 8 Y Y ",
"0 0 0 0 0 0 0 0 0 0 0 0 0 0 0 0 0 0 0 0 0 0 0 0 0 0 0 0 0 0 + @ I I D x x x x x x x x x s s s n n n f f M M M M M 9 9 9 9 8 8 8 ",
"T T T T T T R R R R R R E E E E E E W W W W W W Q Q Q Q Q Q + @ D D D x x x x x x x x x s s s n n n f f M M M M M 9 9 9 9 8 8 8 ",
"T T T T T T R R R R R R E E E E E E W W W W W W Q Q Q Q Q Q + @ D D D x x x x x x x x x s s s n n n f f M M M M M 9 9 9 9 8 8 8 ",
"T T T T T T R R R R R R E E E E E E W W W W W W Q Q Q Q Q Q + @ D D * x x x x x x x x s s s s n v n f f M M M M M 9 9 9 9 8 < < ",
"T T T T T T R R R R R R E E E E E E W W W W W W Q Q Q Q Q Q + @ * D * x x x x s s s s s s s s n v n , , f M M M M 8 8 8 8 < 3 3 ",
"T T T T T T R R R R R R E E E E E E W W W W W W Q Q Q Q Q Q + @ D D D x x x x s s s s s s s s n v n , , f M M M M 8 8 8 8 < 3 3 ",
"0 0 0 0 0 0 0 0 0 0 0 0 0 0 0 0 0 0 0 0 0 0 0 0 0 0 0 0 0 0 + @ D D D x x x x s s s s s s s s n v n , , f M M M M 8 8 8 8 < 3 3 ",
"r r r r r r ! ! ! ! ! ! ~ ~ ~ ~ ~ ~ ^ ^ ^ ^ ^ ^ / / / / / / + @ D D D x x x x s s s s s s s s n v n , , f M M M M 8 8 8 8 < 3 3 ",
"r r r r r r ! ! ! ! ! ! ~ ~ ~ ~ ~ ~ ^ ^ ^ ^ ^ ^ / / / / / / + @ * * D x x x x s m m ( m , , , n v n 3 3 y d d d d u u u u ) _ _ ",
"r r r r r r ! ! ! ! ! ! ~ ~ ~ ~ ~ ~ ^ ^ ^ ^ ^ ^ / / / / / / + @ 7 7 * x x x x m m ( ( m , , , n v n 3 3 y d d d d u u u u ) _ _ ",
"r r r r r r ! ! ! ! ! ! ~ ~ ~ ~ ~ ~ ^ ^ ^ ^ ^ ^ / / / / / / + @ 7 7 * x x x x m m ( ( m , , , n v n 3 3 y d d d d u u u u ) _ _ ",
"r r r r r r ! ! ! ! ! ! ~ ~ ~ ~ ~ ~ ^ ^ ^ ^ ^ ^ / / / / / / + @ * 7 * x x x x m m m ( m , , , n v n 3 3 y d d d d u u u u ) _ _ ",
"0 0 0 0 0 0 0 0 0 0 0 0 0 0 0 0 0 0 0 0 0 0 0 0 0 0 0 0 0 0 + @ x x x x x ` 1 b b b b x * * * n v n 7 7 y d d d d Y Y Y Y y y y ",
"~ ~ ~ ~ ~ ~ ' ' ' ' ' ' ] ] ] ] ] ] w w w w w w [ [ [ [ [ [ + @ x x x x ` { { x x x x * I I I n v n 7 7 y d d d d , , , , d d d ",
"~ ~ ~ ~ ~ ~ ' ' ' ' ' ' ] ] ] ] ] ] w w w w w w [ [ [ [ [ [ + @ x x * x 1 { { x x x x * I I I d v d 7 7 y d d d d , , , , d d d ",
"~ ~ ~ ~ ~ ~ ' ' ' ' ' ' ] ] ] ] ] ] w w w w w w [ [ [ [ [ [ + @ * * * x 1 { { x x x x * I I I I c 7 7 7 y d d d d , , , , d d d ",
"~ ~ ~ ~ ~ ~ ' ' ' ' ' ' ] ] ] ] ] ] w w w w w w [ [ [ [ [ [ + @ * * * x x ` } x x x x & | | | | c < < < y d d d d , , , , d f f ",
"~ ~ ~ ~ ~ ~ ' ' ' ' ' ' ] ] ] ] ] ] w w w w w w [ [ [ [ [ [ + @ * * x b b b b x x x x & % % % % z u u u  .y y y y , , , , f G G ",
"0 0 0 0 0 0 0 0 0 0 0 0 0 0 0 0 0 0 0 0 0 0 0 0 0 0 0 0 0 0 + @ * * x b b b b x x x x & % % % p a p u u  .y y y y , , , , f G G ",
"............X.X.X.X.X.X.o.o.o.o.o.o.O.O.O.O.O.O.h h h h h h + @ * * x b b b b x x x x & % % p a a a p u  .y y y y , , , , f G G ",
"............X.X.X.X.X.X.o.o.o.o.o.o.O.O.O.O.O.O.h h h h h h + @ * * x b b b b x x x x & % % p a a a p u  .y y y y , , , , f G G ",
"............X.X.X.X.X.X.o.o.o.o.o.o.O.O.O.O.O.O.h h h h h h + @ x x x b b b b b b b b b , , , p a p , , * 7 7 7 7 , , , , f G G ",
"............X.X.X.X.X.X.o.o.o.o.o.o.O.O.O.O.O.O.h h h h h h + @ x x x b b b b b b b b b , , , , , , , , * 7 7 7 7 , , , , f G G ",
"............X.X.X.X.X.X.o.o.o.o.o.o.O.O.O.O.O.O.h h h h h h + @ x x x b b b b b b b b b , , , , , , , , * 7 7 7 7 , , , , f G G ",
"0 0 0 0 0 0 0 0 0 0 0 0 0 0 0 0 0 0 0 0 0 0 0 0 0 0 0 0 0 0 + @ x x x b b b b b b b b b , , , , , , , , * 7 7 7 7 , , , , f G G ",
"+.+.+.+.+.+.j j j j j j @.@.@.@.@.@.#.#.#.#.#.#.$.$.$.$.$.$.+ @ D D * x x x x x x x x x x x x x d d d d y y y y y y y y y f G G ",
"+.+.+.+.+.+.j j j j j j @.@.@.@.@.@.#.#.#.#.#.#.$.$.$.$.$.$.+ @ I I D x x x x x x x x x x x x x d d d d y y y y y y y y y f G G ",
"+.+.+.+.+.+.j j j j j j @.@.@.@.@.@.#.#.#.#.#.#.$.$.$.$.$.$.+ @ D D D x x x x x x x x x x x x x d d d d y y y y y y y y y f G G ",
"+.+.+.+.+.+.j j j j j j @.@.@.@.@.@.#.#.#.#.#.#.$.$.$.$.$.$.+ @ D D D x x x x x x x x x x x x x d d d d y y y y y y y y y f G G "
};
