/* XPM */
static const char *d2FsbHVw[] = {
/* columns rows colors chars-per-pixel */
"64 64 130 2 ",
"   c #5C524E",
".  c #4D4846",
"X  c #413F3F",
"o  c #413E3E",
"O  c #4B4844",
"+  c #454341",
"@  c #524848",
"#  c #554A4A",
"$  c #444242",
"%  c #494646",
"&  c #564A4A",
"*  c #545148",
"=  c #454343",
"-  c #464444",
";  c #594E4E",
":  c #3F3D3D",
">  c #484343",
",  c #4E4A4A",
"<  c #494643",
"1  c #4F4D49",
"2  c #4D4545",
"3  c #514848",
"4  c #504D4A",
"5  c #434141",
"6  c #464141",
"7  c #4A4848",
"8  c #4D4646",
"9  c #4A4343",
"0  c #423E3E",
"q  c #464343",
"w  c #4D4B4A",
"e  c #3E3C3C",
"r  c #444140",
"t  c #474441",
"y  c #403E3E",
"u  c #4E4A46",
"i  c #615451",
"p  c #594F4C",
"a  c #4A4743",
"s  c #504947",
"d  c #5D4F4F",
"f  c #444141",
"g  c #605150",
"h  c #4A4444",
"j  c #494747",
"k  c #424040",
"l  c #444040",
"z  c #474545",
"x  c #A22D29",
"c  c #9C2A26",
"v  c #B24441",
"b  c #B24341",
"n  c #B24242",
"m  c #B14242",
"M  c #B14141",
"N  c #AF3F3F",
"B  c #AE3D3D",
"V  c #AE3F3C",
"C  c #AD403D",
"Z  c #AE413E",
"A  c #AD3F3E",
"S  c #AD3E3E",
"D  c #AE403E",
"F  c #AF403E",
"G  c #AF3E3E",
"H  c #AE3E3E",
"J  c #AD3D3D",
"K  c #AE3F3F",
"L  c #AC3C3C",
"P  c #AB3B3B",
"I  c #AC3B3B",
"U  c #AD3E3C",
"Y  c #AD3F3C",
"T  c #B14441",
"R  c #B14341",
"E  c #B24141",
"W  c #AD3F3D",
"Q  c #AE3F3E",
"!  c #AD3E3D",
"~  c #AC3F3C",
"^  c #B04240",
"/  c #B04140",
"(  c #B14240",
")  c #B14040",
"_  c #AE3E3D",
"`  c #AC3E3C",
"'  c #AD3C3C",
"]  c #AE3F3D",
"[  c #AF413E",
"{  c #AF3F3E",
"}  c #B0403F",
"|  c #AD3D3C",
" . c #AC3D3C",
".. c #AB3D3B",
"X. c #AB3C3B",
"o. c #B04040",
"O. c #B03F3F",
"+. c #AE403F",
"@. c #AF413F",
"#. c #AF403D",
"$. c #AE403D",
"%. c #AC3D3B",
"&. c #AC3D3D",
"*. c #AE3C3C",
"=. c #AB3D3A",
"-. c #AC3C3B",
";. c #AF3F3D",
":. c #AF403F",
">. c #AB3B3A",
",. c #AF3D3D",
"<. c #B03F3E",
"1. c #AC3A3A",
"2. c #AB3A3A",
"3. c #EBA230",
"4. c #D49025",
"5. c #871B17",
"6. c #161410",
"7. c #2E2B26",
"8. c #88201C",
"9. c #AF3E3D",
"0. c #AE3D3B",
"q. c #AE3E3B",
"w. c #AE3E3C",
"e. c #AC3B3A",
"r. c #AD3B3A",
"t. c #AA3A3A",
"y. c #AB3939",
"u. c #AD3B3B",
"i. c #AE3D3C",
"p. c #AA3B3B",
/* pixels */
"            . . . . . . X X X X X X o o o o o o O O O O O O + + + + + + @ @ @ @ @ @ # # # # # # $ $ $ $ $ $ % % % % % % & & & & ",
"            . . . . . . X X X X X X o o o o o o O O O O O O + + + + + + @ @ @ @ @ @ # # # # # # $ $ $ $ $ $ % % % % % % & & & & ",
"            . . . . . . X X X X X X o o o o o o O O O O O O + + + + + + @ @ @ @ @ @ # # # # # # $ $ $ $ $ $ % % % % % % & & & & ",
"            . . . . . . X X X X X X o o o o o o O O O O O O + + + + + + @ @ @ @ @ @ # # # # # # $ $ $ $ $ $ % % % % % % & & & & ",
"            . . . . . . X X X X X X o o o o o o O O O O O O + + + + + + @ @ @ @ @ @ # # # # # # $ $ $ $ $ $ % % % % % % & & & & ",
"* * * * * * * * * * * * * * * * * * * * * * * * * * * * * * * * * * * * * * * * * * * * * * * * * * * * * * * * * * * * * * * * ",
"= = = = = = - - - - - - ; ; ; ; ; ; : : : : : : > > > > > > , , , , , , $ $ $ $ $ $ < < < < < < 1 1 1 1 1 1 2 2 2 2 2 2 3 3 3 3 ",
"= = = = = = - - - - - - ; ; ; ; ; ; : : : : : : > > > > > > , , , , , , $ $ $ $ $ $ < < < < < < 1 1 1 1 1 1 2 2 2 2 2 2 3 3 3 3 ",
"= = = = = = - - - - - - ; ; ; ; ; ; : : : : : : > > > > > > , , , , , , $ $ $ $ $ $ < < < < < < 1 1 1 1 1 1 2 2 2 2 2 2 3 3 3 3 ",
"= = = = = = - - - - - - ; ; ; ; ; ; : : : : : : > > > > > > , , , , , , $ $ $ $ $ $ < < < < < < 1 1 1 1 1 1 2 2 2 2 2 2 3 3 3 3 ",
"= = = = = = - - - - - - ; ; ; ; ; ; : : : : : : > > > > > > , , , , , , $ $ $ $ $ $ < < < < < < 1 1 1 1 1 1 2 2 2 2 2 2 3 3 3 3 ",
"* * * * * * * * * * * * * * * * * * * * * * * * * * * * * * * * * * * * * * * * * * * * * * * * * * * * * * * * * * * * * * * * ",
"4 4 4 4 4 4 5 5 5 5 5 5 6 6 6 6 6 6 7 7 7 7 7 7 8 8 8 8 8 8 9 9 9 9 9 9 0 0 0 0 0 0 q q q q q q w w w w w w : : : : : : e e e e ",
"4 4 4 4 4 4 5 5 5 5 5 5 6 6 6 6 6 6 7 7 7 7 7 7 8 8 8 8 8 8 9 9 9 9 9 9 0 0 0 0 0 0 q q q q q q w w w w w w : : : : : : e e e e ",
"4 4 4 4 4 4 5 5 5 5 5 5 6 6 6 6 6 6 7 7 7 7 7 7 8 8 8 8 8 8 9 9 9 9 9 9 0 0 0 0 0 0 q q q q q q w w w w w w : : : : : : e e e e ",
"4 4 4 4 4 4 5 5 5 5 5 5 6 6 6 6 6 6 7 7 7 7 7 7 8 8 8 8 8 8 9 9 9 9 9 9 0 0 0 0 0 0 q q q q q q w w w w w w : : : : : : e e e e ",
"4 4 4 4 4 4 5 5 5 5 5 5 6 6 6 6 6 6 7 7 7 7 7 7 8 8 8 8 8 8 9 9 9 9 9 9 0 0 0 0 0 0 q q q q q q w w w w w w : : : : : : e e e e ",
"* * * * * * * * * * * * * * * * * * * * * * * * * * * * * * * * * * * * * * * * * * * * * * * * * * * * * * * * * * * * * * * * ",
"r r r r r r q q q q q q = = = = = = t t t t t t O O O O O O y y y y y y u u u u u u i i i i i i p p p p p p a a a a a a e e e e ",
"r r r r r r q q q q q q = = = = = = t t t t t t O O O O O O y y y y y y u u u u u u i i i i i i p p p p p p a a a a a a e e e e ",
"r r r r r r q q q q q q = = = = = = t t t t t t O O O O O O y y y y y y u u u u u u i i i i i i p p p p p p a a a a a a e e e e ",
"r r r r r r q q q q q q = = = = = = t t t t t t O O O O O O y y y y y y u u u u u u i i i i i i p p p p p p a a a a a a e e e e ",
"r r r r r r q q q q q q = = = = = = t t t t t t O O O O O O y y y y y y u u u u u u i i i i i i p p p p p p a a a a a a e e e e ",
"* * * * * * * * * * * * * * * * * * * * * * * * * * * * * * * * * * * * * * * * * * * * * * * * * * * * * * * * * * * * * * * * ",
"s s s s s s d d d d d d 5 5 5 5 5 5 f f f f f f g g g g g g h h h h h h j j j j j j k k k k k k l l l l l l z z z z z z 7 7 7 7 ",
"s s s s s s d d d d d d 5 5 5 5 5 5 f f f f f f g g g g g g h h h h h h j j j j j j k k k k k k l l l l l l z z z z z z 7 7 7 7 ",
"s s s s s s d d d d d d 5 5 5 5 5 5 f f f f f f g g g g g g h h h h h h j j j j j j k k k k k k l l l l l l z z z z z z 7 7 7 7 ",
"s s s s s s d d d d d d 5 5 5 5 5 5 f f f f f f g g g g g g h h h h h h j j j j j j k k k k k k l l l l l l z z z z z z 7 7 7 7 ",
"s s s s s s d d d d d d 5 5 5 5 5 5 f f f f f f g g g g g g h h h h h h j j j j j j k k k k k k l l l l l l z z z z z z 7 7 7 7 ",
"* * * * * * * * * * * * * * * * * * * * * * * * * * * * * * * * * * * * * * * * * * * * * * * * * * * * * * * * * * * * * * * * ",
"x x x x x x x x x x x x x x x x x x x x x x x x x x x x x x x x x x x x x x x x x x x x x x x x x x x x x x x x x x x x x x x x ",
"c c c c c c c c c c c c c c c c c c c c c c c c c c c c c c c c c c c c c c c c c c c c c c c c c c c c c c c c c c c c c c c c ",
"v v v b n m M M N N N N B V V V C Z Z A S D F G H S S J B B J J J J K K K K K K K K K S S S H L P P P P I I L L U Y J J H G N N ",
"v v T R E M M M N N N N H Y Y Y W Q D Q S H Q H H S S J J B J J ! ! H K N N N K K K N S S S H L P P P P I I L L Y Y J J H G N N ",
"v R R M E M M M N N N G B Y Y ~ W H H H H H H H H S S S J B J ! W S K N N N N N K N N H S S H L P P P P I I L L Y Y J J H G N N ",
"^ / / ( ) ) / / Q _ B B J ` ` ` ` J J J J K H S S S S S S S S S S S H K K K N N N N N J J J J L L L L L ' ' J J ] ] H H G G N N ",
"[ [ F { } F [ [ |  .L L ........X.P P P I H H H S S S S S S S S S S S H H H H H H H H L L L L J J J J S K K N N N N o.o.O.O.o.o.",
"[ F { { [ [ [ [ ' L L L ........X.P P P P H H H H H K K S S S S S S S K K K K H H H H L L L L J J J J S K N N N N N o.o.O.N N N ",
"[ { G { [ [ [ [ ' L L L ........X.I P P P H H H H K K K K Q D D K K K K K K K Q H H H L L ' ' J J J B H K N N N N o.o.N N N N N ",
"G G G { [ [ [ [ ' ' L L ........X.I P P P H H H H N K K K +.Z D K K K K @.@.@.Z Q H H L ' ' ' J B B H H K N N N N N N N N N N o.",
"] B B _ #.#.#.$.H S S J ' ' ' ' ' %.X.P P ' L &.&.&.&.J J J J J B *.' ' ' ' ' I I I I =.=.=.=.X.P P P I ' *.*.*.#.#.G H F [ [ G ",
"B B B _ #.#.$.$.H S S S L L L I I I -.-.P ' ' ' &.&.&.J J J J B B B ' ' *.' ' I I I I =.=.=.=.X.P P P I *.*.*.B #.] G G G G G G ",
"B B B _ #.$.$.$.H S S S &.L L L I I I -.X.| ' ' J J J S S H B _ B B ' ' *.*.' ' ' I I =.=.=.=.X.P P P I *.*.B B ;.G G G G G G G ",
"B B B _ $.$.$.] H H S J L L L L L I I I -.Y | | ' J J S S S ] ] B B *.*.*.*.*.' ' ' ' =.=.=.=.X.P P P I *.B B B G G G G G G G { ",
"O.O.O.} :.:.:.N D Q H H J J J J J L ' L L _ _ _ B B B B H H { { G G B B B *.' I I I I >.>.>.>.P I I I ' ,.,.B B G G G G G O.O.<.",
") ) ) o.o.o.o.o.F Q H H J &.&.J J J J J J H H K K H B B H H N N O.G B B B B ' 1.1.1.1.2.2.2.2.I I I I ' ,.,.B B G G G G O.O.O.O.",
") ) ) o.o.o.o.o.3.3.H H J &.&.&.&.J J J J H H K K H B B H H N N O.O.G B B B ' 1.1.1.1.2.2.2.2.I I I I ' ,.3.3.B G G G G O.O.O.O.",
") ) o.o.o.o.o.3.4.4.3.H J &.I 5.5.5.5.5.5.5.5.5.5.5.5.5.5.5.5.5.5.5.5.5.5.5.5.5.5.5.5.5.5.5.5.5.I I I ' 3.4.4.3.G G G G O.O.O.O.",
") ) o.o.o.o.o.4.4.4.4.6.7.7.8.8.8.8.8.8.8.8.8.8.8.8.5.5.5.5.5.5.5.5.5.5.5.5.5.5.5.8.8.8.8.8.8.8.8.7.7.6.4.4.4.4.G G G G O.O.O.O.",
"M M ) o.o.o.o.3.4.4.3.N N N I 5.5.5.5.5.5.5.5.5.5.5.5.5.5.5.5.5.5.5.5.5.5.5.5.5.5.5.5.5.5.5.5.5.I 9.#.#.3.4.4.3.[ [ [ [ } O.O.N ",
"M M ) o.o.o.o.O.3.3.N N N N N N N N o.o.o.N N N o.G ,.,.,.B ' ' *.*.0.q.q.q.w.;.;.;.;.#.#.#.#.#.#.#.#.#.[ 3.3.G [ [ [ [ } O.N N ",
"M M ) o.o.o.o.O.O.O.N N N N N N N N o.o.o.N N N o.N G G G B ' ' *.*.0.q.q.q.w.;.;.;.;.#.#.#.#.#.#.#.#.#.[ { G G [ [ [ [ } O.N G ",
"M M ) o.o.o.o.O.O.O.O.N N N N N N N o.o.o.N N N o.N G G G ,.*.*.*.*.0.q.q.q.w.;.;.;.;.#.#.#.#.#.#.#.#.#.[ { G G [ [ [ [ } N N G ",
"G G ,.B B B J ' ' ' ' L L L L L L L J J J J J B B ' ' ' ' L P P P P e.e.e.e.r.*.*.*.*.{ { { { ;.;.;.;.;._ B B B _ _ _ _ B B B B ",
"B *.*.*.' I I I P P P P P P P P P P P P I L L ' ' I I I I P t.t.t.t.y.y.y.y.1.u.u.u.u.G G G G ;.;.;.;.9.*.' ' ' ' ' ' ' ' ' ' ' ",
"B B *.*.' I I I P P P P P P P P P P P P I L ' ' ' I I I I P t.t.t.t.y.y.y.y.1.u.u.u.u.G G G G ;.;.;.;.9.*.' ' ' ' ' ' ' ' ' ' ' ",
"B B B *.' ' I I P P P P P P P P P P P I I L ' ' ' I I I I I t.t.t.t.y.y.y.y.1.u.u.u.u.G G G G ;.;.;.;.9.*.' ' ' ' ' ' ' ' ' ' ' ",
"B J ' ' ' ' ' I P P P P P P P P P I I I I ' ' ' ' I I I I I t.t.t.t.2.2.2.2.I *.*.*.*.G G G G _ w.w.w.i.' ' ' L L L L L L L L ' ",
"L L L L L L L L P P P P P P P P P L L L ' ' ' ' J L P P P P t.t.t.t.P I I I ' O.O.O.O.,.,.,.,.' I I I I P P P P P P P P P P P P ",
"L L L L L L L L P P P P P P P P P L ' ' ' ' ' J J L P P P P t.t.t.t.P I I I ' O.O.O.O.,.,.,.,.' I I I I P P P P P P P P P P P P ",
"' L L L L L L L P P P P P P P P I ' ' ' ' ' J J J L P P P P t.t.t.t.P I I I ' O.O.O.O.,.,.,.,.' I I I I P P P P P P P P P P P P ",
"' L L L L L L L P P P P P P P P I ' ' ' ' J J J J L P P P P t.t.t.t.P I I I ' O.O.O.O.,.,.,.,.' I I I I P P P P P P P P P P P P ",
"L L L  .`  .L L P P P P P L L L L L L L L L L L L P P P P P I I I I L | | | B G G G G ,.,.,.,.' I I I P p.p.p.p.p.p.p.p.p.p.p.p.",
"L L L  .~ ~ L L P P P P L L L L L L L L L P P P P P P P P I ' ' ' ' | U U U _ G G G G ,.,.,.,.' I I I P p.p.p.p.p.p.p.p.p.p.p.p."
};
