/* XPM */
static char *a4e7432ee94249598a76c9f979e030d2rUyesNKYsQl4WlCN[] = {
/* columns rows colors chars-per-pixel */
"64 64 156 2 ",
"   c #26201F",
".  c #322322",
"X  c #3D2E2D",
"o  c #2E3922",
"O  c #313A26",
"+  c #3D302E",
"@  c #36392A",
"#  c #3F3130",
"$  c #402525",
"%  c #422F2E",
"&  c #482F2F",
"*  c #40302F",
"=  c #48302F",
"-  c #423433",
";  c #483737",
":  c #453837",
">  c #473838",
",  c #4A3C3C",
"<  c #5D3231",
"1  c #653433",
"2  c #6E3534",
"3  c #743635",
"4  c #1A4614",
"5  c #1B4B14",
"6  c #1C5215",
"7  c #1F5917",
"8  c #1F5D18",
"9  c #214616",
"0  c #224C16",
"q  c #2C4619",
"w  c #2A4E18",
"e  c #3F431E",
"r  c #334E1B",
"t  c #3A4D1C",
"y  c #235517",
"u  c #225817",
"i  c #265518",
"p  c #2B5419",
"a  c #225C18",
"s  c #2C5A1B",
"d  c #35531C",
"f  c #3B541E",
"g  c #335B1E",
"h  c #23661B",
"j  c #2A651D",
"k  c #33621F",
"l  c #3D5C21",
"z  c #396020",
"x  c #434B1F",
"c  c #4E4922",
"v  c #5F4627",
"b  c #504821",
"n  c #5B4926",
"m  c #455121",
"M  c #4A5223",
"N  c #435C22",
"B  c #535726",
"V  c #515826",
"C  c #614127",
"Z  c #68472A",
"A  c #614828",
"S  c #6F4D2D",
"D  c #79462F",
"F  c #734D2E",
"G  c #6D512D",
"H  c #7D4A30",
"J  c #794C30",
"K  c #534242",
"L  c #584545",
"P  c #813737",
"I  c #813837",
"U  c #8D3938",
"Y  c #9D3F38",
"T  c #9E3F38",
"R  c #A13B36",
"E  c #A03F38",
"W  c #A43C38",
"Q  c #A73F3C",
"!  c #A73F3C",
"~  c #AA3A3A",
"^  c #AB3A3A",
"/  c #AB3B3A",
"(  c #AA3B3B",
")  c #AB3B3B",
"_  c #AC3B3B",
"`  c #AB3D3A",
"'  c #AB3C3B",
"]  c #AB3D3B",
"[  c #AC3D3B",
"{  c #AE3D3B",
"}  c #AB3D3D",
"|  c #AC3C3C",
" . c #AD3C3C",
".. c #AC3D3C",
"X. c #AC3D3D",
"o. c #AD3D3D",
"O. c #AD3D3C",
"+. c #AE3C3C",
"@. c #AE3D3C",
"#. c #AE3D3D",
"$. c #AF3D3D",
"%. c #AC3E3C",
"&. c #AD3F3C",
"*. c #AD3E3D",
"=. c #AD3F3D",
"-. c #AD3F3C",
";. c #AE3E3C",
":. c #AE3F3C",
">. c #AE3E3D",
",. c #AF3E3D",
"<. c #AE3F3D",
"1. c #AF3F3D",
"2. c #AD3E3E",
"3. c #AD3F3E",
"4. c #AE3E3E",
"5. c #AF3E3E",
"6. c #AE3F3E",
"7. c #AF3F3E",
"8. c #AE3F3F",
"9. c #AF3F3F",
"0. c #AC3D3C",
"q. c #B03F3F",
"w. c #B03F3E",
"e. c #B03F3F",
"r. c #8F4635",
"t. c #814A31",
"y. c #864933",
"u. c #974036",
"i. c #914535",
"p. c #994336",
"a. c #A4403B",
"s. c #AD403D",
"d. c #AE403D",
"f. c #AF403D",
"g. c #AE403E",
"h. c #AF403E",
"j. c #AE413E",
"k. c #AF413E",
"l. c #AF403F",
"z. c #AF413F",
"x. c #AE403F",
"c. c #AF403E",
"v. c #B0403F",
"b. c #B04040",
"n. c #B14040",
"m. c #B04140",
"M. c #B14141",
"N. c #B24141",
"B. c #B14341",
"V. c #B14240",
"C. c #B24341",
"Z. c #B14242",
"A. c #B24242",
"S. c #B14441",
"D. c #B24441",
"F. c #B04140",
/* pixels */
"D.D.D.V.V.V.V.V.7.7.7.7.7.7.7.7.k.k.k.7.7.k.k.7.7.7.7.7.7.7.7.7.7.7.7.7.7.7.7.7.7.7.7.7.7.7.7.) ) ) ) ) _ _ 7.7.7.7.7.7.7.7.7.7.",
"D.D.D.V.V.V.V.V.7.7.7.7.7.7.7.7.7.7.k.7.7.7.7.7.7.7.7.7.7.7.7.7.7.7.7.7.7.7.7.7.7.7.7.7.7.7.7.) ) ) ) ) _ _ 7.7.7.7.7.7.7.7.7.7.",
"D.V.V.V.V.V.V.V.7.7.7.7.7.7.7.7.7.7.7.7.7.7.7.7.7.7.7.7.7.7.7.7.7.7.7.7.7.7.7.7.7.7.7.7.7.7.7.7.) ) ) ) _ _ 7.7.7.7.7.7.7.7.7.7.",
"V.V.V.V.V.V.V.V.7.7.7.7.7.7.7.7.} 7.7.7.7.7.7.7.7.7.7.7.7.7.7.7.7.7.7.7.7.7.7.7.7.7.7.7.7.7.7.7.) } } 7.7.7.7.7.7.7.7.7.7.7.7.7.",
"k.k.k.7.v.k.k.k.7.7.) ) ] ] ] ] ] ) ) ) _ 7.7.7.7.7.7.7.7.7.7.7.7.7.7.7.7.7.7.7.7.7.7.7.} } | 7.7.7.7.7.7.7.7.7.7.7.V.V.q.q.V.V.",
"k.k.7.7.k.k.k.k.7.7.) ) ] ] ] ] ] ) ) ) ) 7.7.7.7.7.7.7.7.7.7.7.7.7.7.7.7.k.7.7.7.7.7.7.} } | 7.7.7.7.7.7.7.7.7.7.7.V.V.q.7.7.7.",
"k.7.7.7.k.k.k.k.7.7.7.7.] ] ] ] ] ) ) ) ) 7.7.7.7.7.7.7.7.7.7.7.7.7.7.7.7.7.7.7.7.7.7.7.) | | 7.7.7.7.7.7.7.7.7.7.V.V.7.7.7.7.7.",
"7.7.7.7.k.k.k.k.7.7.7.7.] ] ] ] ] ) ) ) ) 7.7.7.7.7.7.7.7.7.k.7.7.7.7.7.k.k.k.k.7.7.7.7.| | | 7.7.7.7.7.7.7.7.7.7.7.7.7.7.7.7.V.",
"7.7.7.7.k.k.k.k.7.7.7.7.7.| | 7.7.[ ] H h j j N J } 7.7.7.7.7.7.7.| | | _ i.h j h j B h ] ] ] ] ) ) ) ) | | | | 7.7.7.7.k.k.k.7.",
"7.7.7.7.k.7.k.k.7.7.7.7.7.7.| ) _ _ ] a h j j N J } 7.7.7.7.7.7.7.7.| | r.y g a 7 y f h p.] ] ] ) ) ) ) | | | 7.7.7.7.7.7.7.7.7.",
"7.7.7.7.7.7.7.7.7.7.7.7.7.7.) ) _ _ E a h h h l S a.7.7.7.7.7.7.7.7.7.7.t.h a 6 6 6 p h i.] ] ] ) ) ) ) | | 7.7.7.7.7.7.7.7.7.7.",
"7.7.7.7.7.7.7.7.7.7.7.7.7.7.| ) 7._ F h a 6 6 i M h 7.7.7.7.7.7.7.7.7.7.y h 6 5 5 6 p h y ] ] ] ) ) ) ) | 7.7.7.7.7.7.7.7.7.7.7.",
"q.q.q.v.k.k.k.7.k.7.7.7.7.7.7.7.7.7.h a 6 6 6 i m h 7.7.7.7.7.7.7.7.7.T y h 6 5 5 6 y y y ) ) ) _ _ _ 7.7.7.7.7.7.7.7.7.7.q.q.q.",
"n.n.n.n.V.V.V.V.k.7.7.7.7.7.} 7.7.7.h 8 6 5 5 y f h 7.7.7.7.7.7.q.7.7.D y h 6 5 5 5 6 h y W ) _ _ _ _ 7.7.7.7.7.7.7.7.7.q.q.q.q.",
"n.n.n.n.V.V.V.V.7.7.7.7.7.} } } } y a a 6 5 5 6 g h 7.7.7.7.7.7.q.q.7.y y 7 6 5 5 5 6 p h y ) _ _ _ _ 7.7.7.7.7.7.7.7.7.q.q.q.q.",
"n.n.n.n.V.V.V.q.7.7.7.7.7.} } } } h 8 6 5 5 5 5 y a y.7.7.7.7.7.q.q.7.y s 6 6 5 4 5 5 y f h ) _ _ _ _ 7.7.7.7.7.7.7.7.7.q.q.q.q.",
"n.V.V.V.n.n.n.7.7.7.7.7.7.7.7.7.} h 8 6 5 5 4 5 6 7 G 7.7.7.q.q.q.q.7.h g 6 6 5 4 4 5 0 d h ) _ _ _ _ 7.7.7.7.7.7.7.7.7.q.q.q.q.",
"V.V.V.V.n.n.n.q.q.q.7.7.7.7.7.7.7.h 7 6 5 5 4 5 5 6 h 7.7.7.| | 7.7.[ h f y 6 5 4 4 5 5 p h 7.7.7.7.k.k.7.7.7.7.k.k.k.k.v.q.q.7.",
"V.V.V.V.n.V.n.q.q.q.7.7.7.7.7.7.7.h 7 6 5 5 4 4 5 i h 7.7.7.| | 7.7.[ h t 0 5 5 4 4 5 6 s h k.k.k.k.k.k.k.7.7.7.k.k.k.k.v.q.7.7.",
"V.V.V.V.V.V.V.q.q.q.7.7.7.7.7.7.y a 6 6 5 5 4 4 5 y h 7.7.7.| | 7.7.[ h t 0 5 4 4 4 5 6 s h 7.k.k.k.7.7.k.7.7.7.k.k.k.k.v.q.7.7.",
"V.V.n.n.V.V.V.q.q.q.q.7.7.7.7.7.y 8 r 5 5 5 4 4 5 a h y 7.7.7.7.7.7.[ h t 0 5 4 4 4 5 6 s y k.k.k.k.k.k.k.7.7.7.k.k.k.k.v.7.7.7.",
"7.7.7.7.7.7.7.7.7.7.7.7.7.7.7.7.y 5 r 5 5 4 4 4 5 a h y 7.7.) ) ) ) ) y t 0 5 4 4 4 5 6 s y 7.7.7.7.7.7.7.7.7.7.7.7.7.7.7.7.7.7.",
"7.| | | 7._ _ _ ) ) ) ) ) ) ) ) y 6 d 5 5 4 4 4 5 y a y _ ) ) ) ) ) R y d 6 5 4 4 4 5 5 i n Q 7.7.7.7.7._ _ 7.7.7.7.7.7.7.7.| | ",
"7.7.| | 7._ _ _ ) ) ) ) ) ) ) ) y 6 p 5 5 4 4 4 5 y 6 y _ ) ) ) ) ) b y 6 5 5 4 4 4 5 5 6 r Z 7.7.7.7.7.| | | 7.7.7.7.7.7.7.7.| ",
"7.7.7.| | | _ _ ) ) ) ) ) ) ) ) m y 6 5 5 4 4 4 5 6 w 5 _ _ ) ) ) ) M y 6 5 5 4 4 4 5 5 6 r A k.7.7.7.7.7.7.7.7.7.7.7.7.7.7._ _ ",
"7.7.| | | | 7._ ) ) ) ) ) ) ) ) N u 6 5 5 4 4 4 5 6 w 5 _ _ ) ) ) ) h a 6 5 5 4 4 4 5 5 6 w h 7.7.7.7.7.7.7.7.7.7.7.7.7.7.7.) _ ",
"7.| 7.| 7.7.7.7.) ) ) ) ) ) ) ) h u 6 5 5 4 4 4 5 6 w 6 ) ) ) ) ) ) h a 6 5 5 4 4 4 5 5 6 p h 7._ _ _ _ ) ) ) ) ) ) ) ) ) ) ) ) ",
"| | | | 7.7.7.7.) ) ) ) ) ) ) y h u 6 5 5 4 4 4 4 5 y N ) ) ) ) ) ) h a 6 5 5 4 4 4 4 5 5 h h y _ _ _ _ ) ) ) ) ) ) ) ) ) ) ) ) ",
"7.7.7.7.7.| ) ) ) ) ) ) ) ) ) y h u 6 5 5 4 4 4 4 5 y l ) ) ) ) ) u.h a 6 5 5 4 4 4 4 5 5 h h y T _ _ _ ) ) ) ) ) ) ) ) ) ) ) ) ",
"7.7.7.7.7.| ) ) ) ) ) ) ) ) h h s 6 5 5 4 4 4 4 4 5 u k h ) ) ) ) V s 6 5 5 4 4 4 4 4 5 5 a h h h _ _ _ ) ) ) ) ) ) ) ) ) ) ) ) ",
"] ) 7.7.} } ) ) ) ) ) ) ) 7.j h 7 6 5 4 4 4 4 5 5 5 6 a z ) _ _ _ h 7 6 5 4 4 4 4 4 4 5 6 6 h k k _ _ ) ) ) ) ) ) ) ) ) ) ) ) ) ",
") ) 7.7.7.] ) ) ) ) ) ) 7.7.a a 6 6 5 4 4 4 4 4 5 5 5 7 j _ 7.7.7.h 6 6 5 4 4 4 4 4 5 5 5 6 7 h h _ _ ) ) ) ) ) ) ) ) ) ) ) ) ) ",
") ) ) ] [ } } 7.) ) ) ) 7.7.6 6 6 5 5 4 4 4 4 4 4 5 5 6 8 ) _ _ _ 6 6 6 5 4 4 4 4 4 4 4 5 5 6 h h ) ) ) ) ) ) ) ) ) ) ) ) ) ) ) ",
") ) ) ] [ [ 7.7._ _ ) ) 7.7.6 6 6 5 5 4 4 4 4 4 4 4 5 6 6 ) _ _ | 6 6 5 5 4 4 4 4 4 4 4 4 5 6 6 6 ) ) ) ) ) ) ) ) ) ) ) ) ) ) ) ",
"7.7.) 7.[ [ [ 7._ _ _ _ ) 7.6 6 6 5 4 4 4 4 4 4 4 4 5 6 6 ) 7.7.7.6 6 5 4 4 4 4 4 4 4 4 4 5 6 6 6 ) _ _ ) ) ) ) ) ) ) ) ) ) ) ) ",
"7.7.7.7.) ) ) ) ) ) ) ) ) ) w w 6 5 4 4 4 4 4 4 4 5 5 6 6 ) } 7.7.i 6 5 4 4 4 4 4 4 4 4 5 5 6 6 6 } } 7.7.7.7.| } 7.7.7.7.7.7.7.",
"7.7.) ) ) ) 7.7.) ) ) ) ) ) t t i 5 4 4 4 4 4 4 4 5 6 6 6 ) 7.7.7.r 0 5 4 4 4 4 4 4 4 5 5 6 6 6 6 7.7.7.) ) _ 7.} } 7.| | | 7.7.",
"7.7.) ) 7.) 7.7.) ) ) ) ) ) c 5 w 5 4 4 4 4 4 4 4 5 6 6 6 ) 7.7.7.x w 5 4 4 4 4 4 4 4 5 5 6 6 6 6 7.7.7.) ) ) 7.} } 7.| | | | 7.",
"7.) ) ) 7.7.7.7.) ) ) ) ) ) v 5 w 5 4 4 4 4 4 4 9 9 w 0 0 ) 7.7.7.v 5 5 4 4 4 4 4 4 4 5 5 6 6 6 6 7.) ) ) ) 7.7.7.7.| | | | | 7.",
"7.} ] ] 7.7.7.7._ _ _ _ ) ) C 4 4 4 4 4 4 4 4 4 4 4 4 4 e 7.7.7.7.5 q 4 4 4 4 4 4 4 4 q q q 9 9 9 _ _ ) _ _ 7.7.7.7.7.7.| | | | ",
"] ] ] } 7.7.) ) _ _ + + + - - - X X X X X X X X X X X X X X X - - @ o o o o o o o o o O O O o o o X X X X X 7.7.7.7.7.7.7.7.7.7.",
"] ] ] } 7.7.7.) _ _ + + + - - - X X X X X X X X X X X X X X X - - - + + + + + + X X + + + + + + + X X X X X 7.7.7.7.7.7.| 7.7.7.",
"] } 7.7.7.7.) ) _ _ + + + - - - X X X X X X X X X X X X X X X - - - + + X X X X X X X - - - X X X X X X X X 7.7.7.7.7.7.| | 7.7.",
"7.7.7.7.7.7.) ) _ _ - - - , , , : : : , , , , , , # + # - - - , , , - - - X X X - - - , , , , , , , , , X X 7.7.7.7.7.7._ | 7.7.",
"7.q.q.7.| | | ) } } - - - : , , : : : , , , , , , # # # - - - , , , - - - X X X - - - , , , , , , , , , X X k.k.) _ | | ) ) ) _ ",
"q.q.q.7.| 7.) ) } } - - - : , , : : : , , , , , , # # # - - - , , , - - - X X X - - - , , , , , , , , , X X k.k.) ) | | ) ) ) _ ",
"q.q.q.7.7.7.7.7.} } X X X > > > K K K L L L , , , + + + - - - K K K : : : + # # X X X - - - K K K L L L - - k.k.7.7.| | _ ) _ _ ",
"q.q.q.7.7.7.7.7.} } X X X > > > K K K L L L , , , + + + - - - K K K : : : # # # X X X - - - K K K L L L - - k.k.7.| | | _ _ _ _ ",
"k.k.k.k.k.k.k.k.7.7.X X X > > > K K K L L L , , , + + + - - - K K K : : : - - - X X X - - - K K K L L L - - k.k.7.7.) ) } } 7.7.",
"k.k.k.k.k.k.k.k.7.7.X X X - - - , , , ; ; ; X X X > > > , , , L L L , , , , , , # # # - - - , , , : : : X X k.k.7.7.) ) } } 7.7.",
"k.k.k.k.k.k.k.k.7.7.X X X + X - > , , ; ; ; X X X > > > , , , L L L , , , , , , # # # - - - , , : + X - X X k.7.7.7.7.7.} } } 7.",
"k.k.k.k.k.k.k.k.7.7.X X X X X X - > , ; ; ; X X X > > > , , , L L L , , , , , , # # # - - - , : X X X X X X 7.7.7.7.7.7.} } 7.7.",
"7.7.7.7.7.7.7.7.7.7.1 % X X X X X X X X X X X X X : : : : : : * * * - - - - - - X X X - - - : # X X X X X < 7.7.} } } } } } 7.7.",
"7.7.7.7.7.7.7.7.k.k.1 % X X X X X X X X X X X X X : : : : : : * * * - - - - - - X X X - - - : + X X X X X < 7.7.} } } } } 7.7.7.",
"7.7.7.7.7.7.7.7.k.k.1 & X X X X X X X X X X X X X : : : : : : * * * - - - - - - X X X - - - : - X X X X % 1 7.7.} } } } } } 7.7.",
"7.7.7.7.7.7.7.7.k.k.} 3 =         & & X X X X X X X X X X X X X X X X X X X X X X X X X X X X         % 3 } 7.7.} } } } } } 7.7.",
"7.7.7.7.7.7.7.7.7.7.7.Q U <                                                                       1 1 1 } } } 7.} } } } } } 7.7.",
"7.7.7.7.7.7.7.7.| | | | | ) 7.$ . . . . . . . . . . . . . . . . . . . . . . . . . . . . . . . . . k.k.7.} } } } } } } } } } 7.7.",
"7.7.7.7.7.7.7.7.7.| | | ) P 3 3 P P P 2 2 2 2 2 2 2 2 2 2 2 2 2 2 2 2 2 2 2 2 2 2 2 2 P P P P P I I I 7.} } } } } } } } } } } } ",
"k.7.7.7.7.7.7.7.7.| | | P 3 3 3 P P P P 3 P P P P I P P P P P P P P P P P P P P P P P P P P P P I I I P } } } } } } } } } } } } ",
"k.k.k.7.7.7.7.7.7.7._ | | ) } ) } } } } } 7.} } 7.7.7.7.7.7.} } 7.7.} } } } 7.7.7.7.} } } } 7.7.7.7.} } } } } } } } } } } } 7.} ",
"k.k.k.k.7.7.7.7.7.7.7.7.7.7.7.7.} } } } } 7.7.7.7.7.7.7.7.7.7.7.7.7.7.7.7.7.7.7.7.7.7.7.7.7.7.7.7.7.7.7.} } 7.7.7.7.7.7.7.7.7.7.",
"k.m.m.m.V.V.V.V.7.7.7.7.7.7.7.7.} } } } } 7.7.7.7.7.7.7.7.7.7.7.7.7.7.7.7.7.7.7.7.7.7.7.7.7.7.7.7.7.7.7.7.7.7.7.7.7.7.7.7.7.7.7.",
"m.m.m.m.V.V.V.V.7.7.7.7.7.7.7.7.} } } } } 7.7.7.7.7.7.7.7.7.7.7.7.7.7.7.7.7.7.7.7.7.7.7.7.7.7.} 7.} 7.7.7.7.7.7.7.7.7.7.7.7.7.7."
};
