/* XPM */
static const char *d2FsbHJpZ2h0[] = {
/* columns rows colors chars-per-pixel */
"64 64 136 2 ",
"   c #AC3C3C",
".  c #AD3C3C",
"X  c #AE3D3D",
"o  c #AF3E3E",
"O  c #B14141",
"+  c #B14040",
"@  c #B03F3F",
"#  c #AE3F3D",
"$  c #AF413E",
"%  c #B04240",
"&  c #B24441",
"*  c #9C2A26",
"=  c #A22D29",
"-  c #454341",
";  c #524848",
":  c #554A4A",
">  c #444242",
",  c #494646",
"<  c #564A4A",
"1  c #AD3D3D",
"2  c #AE3C3C",
"3  c #AF3F3E",
"4  c #AF403E",
"5  c #B04140",
"6  c #B14341",
"7  c #AF3D3D",
"8  c #B04040",
"9  c #B14441",
"0  c #AC3D3C",
"q  c #B0403F",
"w  c #AE3E3D",
"e  c #B14240",
"r  c #B24341",
"t  c #AC3F3C",
"y  c #AC3E3C",
"u  c #AF403F",
"i  c #AE403D",
"p  c #AF403D",
"a  c #B24141",
"s  c #B24242",
"d  c #AC3B3B",
"f  c #B14242",
"g  c #545148",
"h  c #4E4A4A",
"j  c #494643",
"k  c #4F4D49",
"l  c #4D4545",
"z  c #514848",
"x  c #AF3F3F",
"c  c #AB3B3B",
"v  c #EBA230",
"b  c #D49025",
"n  c #AE403E",
"m  c #AE3E3E",
"M  c #AD3D3C",
"N  c #AE3F3E",
"B  c #AD3E3E",
"V  c #161410",
"C  c #AC3D3D",
"Z  c #AB3D3B",
"A  c #4A4343",
"S  c #423E3E",
"D  c #464343",
"F  c #4D4B4A",
"G  c #3F3D3D",
"H  c #3E3C3C",
"J  c #2E2B26",
"K  c #AD3F3C",
"L  c #AE3F3C",
"P  c #88201C",
"I  c #871B17",
"U  c #AB3C3B",
"Y  c #AD3F3D",
"T  c #AD403D",
"R  c #AC3D3B",
"E  c #AE413E",
"W  c #AC3C3B",
"Q  c #403E3E",
"!  c #4E4A46",
"~  c #615451",
"^  c #594F4C",
"/  c #4A4743",
"(  c #AD3F3E",
")  c #AE3F3F",
"_  c #4A4444",
"`  c #494747",
"'  c #424040",
"]  c #444040",
"[  c #474545",
"{  c #4A4848",
"}  c #AE403F",
"|  c #AA3A3A",
" . c #444241",
".. c #4C4944",
"X. c #494343",
"o. c #484542",
"O. c #AD3E3D",
"+. c #AB3A3A",
"@. c #AB3939",
"#. c #AC3B3A",
"$. c #AE3D3B",
"%. c #AD3E3C",
"&. c #AE3E3B",
"*. c #AF413F",
"=. c #413F3F",
"-. c #4E4848",
";. c #5A4F4F",
":. c #564E4C",
">. c #AC3A3A",
",. c #AD3B3A",
"<. c #AE3E3C",
"1. c #AD3B3B",
"2. c #AF3F3D",
"3. c #564B4B",
"4. c #494743",
"5. c #4D4B47",
"6. c #464444",
"7. c #AB3B3A",
"8. c #AB3D3A",
"9. c #4E4646",
"0. c #574B4B",
"q. c #4E4949",
"w. c #AE3D3C",
"e. c #AF3E3D",
"r. c #AA3B3B",
"t. c #4E4B47",
"y. c #4F4C48",
"u. c #4A4747",
"i. c #4C4848",
"p. c #484442",
"a. c #434040",
"s. c #645353",
"d. c #504747",
"f. c #56514A",
"g. c #584C4C",
"h. c #B03F3E",
/* pixels */
"    . .     X X X X o O O O O + + + + @ X X X # o $ $ $ % & & & * = - - ; ; ; ; ; ; : : : : : : > > > > > > , , , , , , < < < < ",
"            1 X X 2 o O O O O + + + + @ X X X X o 3 4 $ 5 6 & & * = - - ; ; ; ; ; ; : : : : : : > > > > > > , , , , , , < < < < ",
"            . X 2 2 7 + + + + 8 8 + + @ X X X X o o 3 4 5 6 9 & * = - - ; ; ; ; ; ; : : : : : : > > > > > > , , , , , , < < < < ",
"0 0         . 2 2 2 X 8 8 8 8 8 8 8 8 q w w w w 3 3 3 3 e O 6 r * = - - ; ; ; ; ; ; : : : : : : > > > > > > , , , , , , < < < < ",
"t y         . . . . X 8 8 8 8 8 8 8 8 u i p p p $ $ $ q + a a s * = - - ; ; ; ; ; ; : : : : : : > > > > > > , , , , , , < < < < ",
"t 0         . . d d X 8 8 8 8 8 8 8 8 u i i p p $ $ $ 4 + O O f * = g g g g g g g g g g g g g g g g g g g g g g g g g g g g g g ",
"            . d d d 1 8 8 8 8 8 8 8 8 u i i i p $ $ $ $ 5 O O O * = h h > > > > > > j j j j j j k k k k k k l l l l l l z z z z ",
"            d d d d . @ @ @ @ x @ 8 8 x # i i i $ $ $ $ 5 O O O * = h h > > > > > > j j j j j j k k k k k k l l l l l l z z z z ",
"c c c c c c c c c c . @ @ @ v b v 3 4 n m m m m . . . M N x x x * = h h > > > > > > j j j j j j k k k k k k l l l l l l z z z z ",
"c c c c c c c c c c . @ @ v b b b v N N m B B B .     0 w x x x * = h h > > > > > > j j j j j j k k k k k k l l l l l l z z z z ",
"c c c c c c c c c c . @ x v b b b v m m B B B B         X x x x * = h h > > > > > > j j j j j j k k k k k k l l l l l l z z z z ",
"c c c c c c c c c c   x x x v b v m m m 1 B B 1         X o x x * = g g g g g g g g g g g g g g g g g g g g g g g g g g g g g g ",
"  c c c c c c c c c   x x x x V 1 1 1 1   C   . Z Z Z Z 1 X m X * = A A S S S S S S D D D D D D F F F F F F G G G G G G H H H H ",
"    c c c c c c c c   x x x x J C C C 1       . Z Z Z Z y K K L * = A A S S S S S S D D D D D D F F F F F F G G G G G G H H H H ",
"    c c c c c c c c   x x x x J C C C 1       . Z Z Z Z y K K L * = A A S S S S S S D D D D D D F F F F F F G G G G G G H H H H ",
"    c c c c c c c c   x x x d P d C 1 1     d . Z Z Z Z y t K L * = A A S S S S S S D D D D D D F F F F F F G G G G G G H H H H ",
"    d d c c c c c c   x x x I P I C 1 1   d d . U U U U y Y Y T * = A A S S S S S S D D D D D D F F F F F F G G G G G G H H H H ",
"    . .     d c c c   x x x I P I 1 1   d d d R d d c c 1 m N E * = g g g g g g g g g g g g g g g g g g g g g g g g g g g g g g ",
"    . . .   d c c c 1 8 8 8 I P I 1 1 . d d W U c c c c 1 m n E * = Q Q ! ! ! ! ! ! ~ ~ ~ ~ ~ ~ ^ ^ ^ ^ ^ ^ / / / / / / H H H H ",
"    . . .   d d c c 1 8 8 8 I P I 1 1   d W W c c c c c 1 m N ( * = Q Q ! ! ! ! ! ! ~ ~ ~ ~ ~ ~ ^ ^ ^ ^ ^ ^ / / / / / / H H H H ",
"    . . . . d d d d 1 8 8 8 I P I 1 1   W U c c c c c d 1 m B B * = Q Q ! ! ! ! ! ! ~ ~ ~ ~ ~ ~ ^ ^ ^ ^ ^ ^ / / / / / / H H H H ",
"c   1 . . . .       1 x x x I P I m m w K M . . m m m m ) m m n * = Q Q ! ! ! ! ! ! ~ ~ ~ ~ ~ ~ ^ ^ ^ ^ ^ ^ / / / / / / H H H H ",
"c   1 1 . . . . .   1 x x x I P I m m w M . .   m m m m m m N 4 * = Q Q ! ! ! ! ! ! ~ ~ ~ ~ ~ ~ ^ ^ ^ ^ ^ ^ / / / / / / H H H H ",
"c   1 1 1 . . . . . X x x x I I I ) ) w M . . C m m m m B m m o * = g g g g g g g g g g g g g g g g g g g g g g g g g g g g g g ",
"c   1 1 1 1 . . . . X 8 8 8 I I I ) ) X . 1 C C m m m B B m m m * = _ _ ` ` ` ` ` ` ' ' ' ' ' ' ] ] ] ] ] ] [ [ [ [ [ [ { { { { ",
"c c         d d d d . x x o I I I m m X 1 1 C C x ) m B B B B B * = _ _ ` ` ` ` ` ` ' ' ' ' ' ' ] ] ] ] ] ] [ [ [ [ [ [ { { { { ",
"c c c c c c d d d d . o o 7 I I I X X X 1 1 C C ) ) ) B B B B B * = _ _ ` ` ` ` ` ` ' ' ' ' ' ' ] ] ] ] ] ] [ [ [ [ [ [ { { { { ",
"c c c c c c d d d d . o o 7 I I I X X X B B 1 1 ) ) ) B B B 1 1 * = _ _ ` ` ` ` ` ` ' ' ' ' ' ' ] ] ] ] ] ] [ [ [ [ [ [ { { { { ",
"c c c c c c d d d d . o o 7 I I I m m m B B 1 1 ) ) B B B 1 1 X * = _ _ ` ` ` ` ` ` ' ' ' ' ' ' ] ] ] ] ] ] [ [ [ [ [ [ { { { { ",
"d c c c c c d d c c   7 X X I I I m m m B m 1 1 } N B B B X X X * = g g g g g g g g g g g g g g g g g g g g g g g g g g g g g g ",
". d | | | | | | | | c 2 . . I I I x x 3 # X 1 1 E n B B B 1 1 1 * = j j  . . . . . .............X.X.X.X.X.X.X.X.X.X.X.X.o.o.o.o.",
". d | | | | | | | | c 2 . . I I I x x 3 # w X 1 n n B B B O.1 1 * = j j  . . . . . .............X.X.X.X.X.X.X.X.X.X.X.X.o.o.o.o.",
". d | | | | | | | | c 2 2 2 I I I @ @ o X X X X ) ) B B B Y O.1 * = j j  . . . . . .............X.X.X.X.X.X.X.X.X.X.X.X.o.o.o.o.",
". d | | | | | | | | c 2 2 2 I I I @ o o X X X 2 ) ) B B B B O.1 * = j j  . . . . . .............X.X.X.X.X.X.X.X.X.X.X.X.o.o.o.o.",
"M   c c c c +.@.@.@.#.$.$.$.I I I o X X 2 . . . ) ) B B m ) m ) * = j j  . . . . . .............X.X.X.X.X.X.X.X.X.X.X.X.o.o.o.o.",
"%.M d d d d +.@.@.@.#.&.&.&.I I I X X X 2 . . . ) ) ) m ) x ) ) * = g g g g g g g g g g g g g g g g g g g g g g g g g g g g g g ",
"%.M d d d d +.@.@.@.#.&.&.&.I I I X X X 2 2 2 . *.) ) m ) x x ) * = =.=.` ` ` ` ` ` Q Q Q Q Q Q -.-.-.-.-.-.;.;.;.;.;.;.:.:.:.:.",
"%.M d d d d +.@.@.@.#.&.&.&.I I I X X 2 2 2 . . *.) ) m ) x x ) * = =.=.` ` ` ` ` ` Q Q Q Q Q Q -.-.-.-.-.-.;.;.;.;.;.;.:.:.:.:.",
"w X . . . . d >.>.>.,.<.<.<.I P I . . . 2 . . . *.) ) m x x x ) * = =.=.` ` ` ` ` ` Q Q Q Q Q Q -.-.-.-.-.-.;.;.;.;.;.;.:.:.:.:.",
"o o @ @ @ @ 2 1.1.1.2 2.2.2.I P I >.>.d . . d d E N m m x x ) ) * = =.=.` ` ` ` ` ` Q Q Q Q Q Q -.-.-.-.-.-.;.;.;.;.;.;.:.:.:.:.",
"o o @ @ @ @ 2 1.1.1.2 2.2.2.I P I >.>.d . . d d N m m m x ) ) ) * = =.=.` ` ` ` ` ` Q Q Q Q Q Q -.-.-.-.-.-.;.;.;.;.;.;.:.:.:.:.",
"o o @ @ @ @ 2 1.1.1.2 2.2.2.I P I >.>.d . d d d m m m m x x ) ) * = g g g g g g g g g g g g g g g g g g g g g g g g g g g g g g ",
"o o @ @ @ @ 2 1.1.1.2 2.2.2.I P I >.>.d . d d d m m m m x x x ) * = 3.3.> > > > > > 4.4.4.4.4.4.5.5.5.5.5.5.> > > > > > 6.6.6.6.",
"7 7 7 7 7 7 o o o o 3 p p p I P I +.+.7.8.8.8.8.        1 m B B * = 3.3.> > > > > > 4.4.4.4.4.4.5.5.5.5.5.5.> > > > > > 6.6.6.6.",
"7 7 7 7 7 7 o o o o 3 p p p I P I +.+.7.8.8.8.8..       1 B B B * = 3.3.> > > > > > 4.4.4.4.4.4.5.5.5.5.5.5.> > > > > > 6.6.6.6.",
"7 7 7 7 7 7 o o o o 3 p p p I P I +.+.7.8.8.8.8.. .     1 B B B * = 3.3.> > > > > > 4.4.4.4.4.4.5.5.5.5.5.5.> > > > > > 6.6.6.6.",
"7 7 7 7 7 7 o o o o 3 p p p I P I +.+.7.8.8.8.8.. .     1 m m m * = 3.3.> > > > > > 4.4.4.4.4.4.5.5.5.5.5.5.> > > > > > 6.6.6.6.",
". . . . . . w 2.2.2.2.p p p I P I d d c U U U U 1 1 1 1         * = g g g g g g g g g g g g g g g g g g g g g g g g g g g g g g ",
"d d d d d d <.2.2.2.2.p p p I P I d d d c c c c X 1 1 1   c c c * = h h 6.6.6.6.6.6.9.9.9.9.9.9.0.0.0.0.0.0.q.q.q.q.q.q.H H H H ",
"d d d d d d <.2.2.2.2.p p p d P d d d d c c c c X 1 1 1   c c c * = h h 6.6.6.6.6.6.9.9.9.9.9.9.0.0.0.0.0.0.q.q.q.q.q.q.H H H H ",
"d d d d d d <.2.2.2.2.p p p p J d d d d c c c c m X 1 1   c c c * = h h 6.6.6.6.6.6.9.9.9.9.9.9.0.0.0.0.0.0.q.q.q.q.q.q.H H H H ",
"c c d d d d w.e.e.e.2.p p p p J . . . . d d d d m m B B   c c c * = h h 6.6.6.6.6.6.9.9.9.9.9.9.0.0.0.0.0.0.q.q.q.q.q.q.H H H H ",
"r.r.c c c c . 2 2 2 w $ $ $ 4 V 7 7 7 7 2 2 2 . ) ) ) ) . d d d * = h h 6.6.6.6.6.6.9.9.9.9.9.9.0.0.0.0.0.0.q.q.q.q.q.q.H H H H ",
"r.r.c c c c . . . . X 3 3 3 v b v X 7 7 X 2 2 2 x x x ) . d d d * = g g g g g g g g g g g g g g g g g g g g g g g g g g g g g g ",
"r.r.c c c c . . . . X o o v b b b v X X X X 2 2 x x x x 1       * = t.t.y.y.y.y.y.y.u.u.u.u.u.u.i.i.i.i.i.i.p.p.p.p.p.p.o.o.o.o.",
"r.r.c c c c   . . . X o o v b b b v X X X X X 2 x x x x 1       * = t.t.y.y.y.y.y.y.u.u.u.u.u.u.i.i.i.i.i.i.p.p.p.p.p.p.o.o.o.o.",
"r.r.c c c c   . . . w $ $ $ v b v o o o o 2.p p x x x x # K K %.* = t.t.y.y.y.y.y.y.u.u.u.u.u.u.i.i.i.i.i.i.p.p.p.p.p.p.o.o.o.o.",
"r.r.c c c c   . . . w $ $ $ $ o o o o o o o # p x 8 x x # K K K * = t.t.y.y.y.y.y.y.u.u.u.u.u.u.i.i.i.i.i.i.p.p.p.p.p.p.o.o.o.o.",
"r.r.c c c c   . . . w $ $ $ $ o o o o o o o o o x 8 8 8 m 1 1 1 * = t.t.y.y.y.y.y.y.u.u.u.u.u.u.i.i.i.i.i.i.p.p.p.p.p.p.o.o.o.o.",
"r.r.c c c c   . . . w $ $ $ $ o o o o o o o o m x x 8 8 m 1 1 1 * = g g g g g g g g g g g g g g g g g g g g g g g g g g g g g g ",
"r.r.c c c c   . . . X q q q q @ @ @ @ o o o o 4 x x @ @ o m m m * = a.a.s.s.s.s.s.s.d.d.d.d.d.d.=.=.=.=.=.=.f.f.f.f.f.f.g.g.g.g.",
"r.r.c c c c   . . . X x @ @ @ @ @ @ @ @ o o o $ x x x @ o o o o * = a.a.s.s.s.s.s.s.d.d.d.d.d.d.=.=.=.=.=.=.f.f.f.f.f.f.g.g.g.g.",
"r.r.c c c c   . . . X x x x @ @ @ @ @ @ o o o $ x x x 8 x x x x * = a.a.s.s.s.s.s.s.d.d.d.d.d.d.=.=.=.=.=.=.f.f.f.f.f.f.g.g.g.g.",
"r.r.c c c c . . . . X o o x x @ @ @ @ h.3 o o o 8 x x 8 x x x x * = a.a.s.s.s.s.s.s.d.d.d.d.d.d.=.=.=.=.=.=.f.f.f.f.f.f.g.g.g.g."
};
