/* XPM */
static const char *d2FsbGRvd24_[] = {
/* columns rows colors chars-per-pixel */
"64 64 109 2 ",
"   c #AC3C3C",
".  c #AC3D3C",
"X  c #AD3F3C",
"o  c #AC3F3C",
"O  c #AB3B3B",
"+  c #AC3B3B",
"@  c #AD3C3C",
"#  c #AD3D3C",
"$  c #AD3E3C",
"%  c #AE3E3D",
"&  c #AF3E3E",
"*  c #AF3D3D",
"=  c #AA3B3B",
"-  c #AF3E3D",
";  c #AA3A3A",
":  c #A93A3A",
">  c #AF403D",
",  c #AC3E3C",
"<  c #AE3D3D",
"1  c #AE3F3D",
"2  c #AD3F3D",
"3  c #AD3E3D",
"4  c #AE3D3C",
"5  c #AD3D3D",
"6  c #B03F3F",
"7  c #AB3C3C",
"8  c #EBA230",
"9  c #D49025",
"0  c #871B17",
"q  c #161410",
"w  c #2E2B26",
"e  c #88201C",
"r  c #AF413E",
"t  c #AC3D3D",
"y  c #AE3E3E",
"u  c #AE3F3E",
"i  c #AE403D",
"p  c #AF3F3D",
"a  c #AA3C3C",
"s  c #AB3D3D",
"d  c #A93C3C",
"f  c #AD3E3E",
"g  c #AD403D",
"h  c #AC3F3D",
"j  c #AC3E3D",
"k  c #AF413F",
"l  c #AF3F3F",
"z  c #B04240",
"x  c #B04140",
"c  c #B04040",
"v  c #AE3F3F",
"b  c #9C2A26",
"n  c #A22D29",
"m  c #464341",
"M  c #4C4947",
"N  c #474543",
"B  c #4A4846",
"V  c #4E4B49",
"C  c #494643",
"Z  c #444241",
"A  c #4C4944",
"S  c #494343",
"D  c #484542",
"F  c #545148",
"G  c #4F4646",
"H  c #574B4B",
"J  c #434040",
"K  c #514E48",
"L  c #494747",
"P  c #413F3F",
"I  c #403E3E",
"U  c #4E4848",
"Y  c #5A4F4F",
"T  c #564E4C",
"R  c #3F3D3D",
"E  c #484444",
"W  c #474545",
"Q  c #43403F",
"!  c #554B4B",
"~  c #564B4B",
"^  c #444242",
"/  c #494743",
"(  c #4D4B47",
")  c #464444",
"_  c #484646",
"`  c #504D47",
"'  c #454141",
"]  c #4E4A4A",
"[  c #4E4646",
"{  c #4E4949",
"}  c #3E3C3C",
"|  c #4A4743",
" . c #534F4B",
".. c #534949",
"X. c #514A4A",
"o. c #434141",
"O. c #4E4B47",
"+. c #4F4C48",
"@. c #4A4747",
"#. c #4C4848",
"$. c #484442",
"%. c #464141",
"&. c #4F4747",
"*. c #444040",
"=. c #4B4949",
"-. c #645353",
";. c #504747",
":. c #56514A",
">. c #584C4C",
/* pixels */
"      . X o o o O O O O                   O O O O O O O O + @ @ @ @ # $ $ $ % & & & & * * * * @ + + + O = = = = = = = = = = = = ",
"      . X X X o + + + O                   O O O O O O O O + @ @ @ @ # $ $ $ % & & & & * * * * @ + + + O = = = = = = = = = = = = ",
"      . $ $ $ $ + + + + +         O O + + O O O O = = = = O @ @ @ @ $ $ $ $ $ % % % % - - - - @ + + + + O O O O O O O O O O O O ",
"                O O O O O O O O O ; ; ; ; ; ; ; ; : : : : =         $ X X X X $ $ $ $ > > > > #                         @ @ @ @ ",
"                O O O O O O O O O ; ; ; ; ; ; ; ; : : : : =         $ X X X X $ $ $ $ > > > > #                         @ @ @ @ ",
"                O O O O O O O O O ; ; ; ; ; ; ; ; : : : : =         $ X X X X $ $ $ $ > > > > #                         @ @ @ @ ",
"                O O O O O O O O O ; ; ; ; ; ; ; ; : : : : =         $ X X X X $ $ $ $ > > > > #                         @ @ @ @ ",
", o o ,         + + + + O O O O O O O O O                   @ @ @ @ O ; ; ; ; ; ; ; ; + + + + + + + + + @ @ @ @ < < < < @ @ @ @ ",
"o o o ,         + + + + O O O O O O O O O                   @ @ @ @ O ; ; ; ; ; ; ; ; + + + + + + + + + @ @ @ @ < < < < @ @ @ @ ",
"o o o ,         + + + + O O O O O O O O O                   @ @ @ @ O ; ; ; ; ; ; ; ; + + + + + + + + + @ @ @ @ < < < < @ @ @ @ ",
"o o o ,         + + + + O O O O O O O O O                   @ @ @ @ O ; ; ; ; ; ; ; ; + + + + + + + + + @ @ @ @ < < < < @ @ @ @ ",
"1 2 2 3         + + + + O O O O O O O O O @ @ @ @ @ @ @ @ @ @ @ @ @ O ; ; ; ; O O O O @ @ @ @ @ @ @ @ @ 4 4 4 4 5 5 5 5 @ @ @ @ ",
"6 6 6 &         7 7 7 7 O O O O O         < < < < < < < < 5         O O O O O         & & & & < < < < % > > > >         + + + + ",
"6 6 6 &         8 8 7 7 O O O O O         < < < < < < < < 5         O O O O O         & & & & < < < < % > 8 8 >         + + + + ",
"6 6 6 &       8 9 9 8 7 O O + 0 0 0 0 0 0 0 0 0 0 0 0 0 0 0 0 0 0 0 0 0 0 0 0 0 0 0 0 0 0 0 0 0 + < < % 8 9 9 8         + + + + ",
"6 6 6 &       9 9 9 9 q w w e e e e e e e e e e e e 0 0 0 0 0 0 0 0 0 0 0 0 0 0 0 e e e e e e e e w w q 9 9 9 9         + + + + ",
"r r r r r r r 8 9 9 8 & 5 t + 0 0 0 0 0 0 0 0 0 0 0 0 0 0 0 0 0 0 0 0 0 0 0 0 0 0 0 0 0 0 0 0 0 + y y u 8 9 9 8         t t t t ",
"r r r r r r r r 8 8 & & 5 t t t t                                   7 7 7 7 7 7 7 7 7         5 y y y u i 8 8 i         t t t t ",
"r r r r r r r r & & & & 5 t t t t                                   7 7 7 7 7 7 7 7 7         5 y y y u i i i i         t t t t ",
"r r r r r r r r & & & & 5 t t t t                                   7 7 7 7 7 7 7 7 7         5 y y y u i i i i         t t t t ",
"1 % % % % % % % p p p p 3 t t t t 7 7 7 7                             t t t 7 7 7 7 7 a a a a t 5 5 5 3 3 3 3 3 s s s s t t t t ",
"5 5 5 5 < < < < > > > > 3 t t t t 7 7 7 7                           t t t t t 7 7 7 7 d d d d s t t t t t t t t s s s s t t t t ",
"5 5 5 5 < < < < > > > > 3 t t t t 7 7 7 7                           t t t t t 7 7 7 7 a d d a s t t t t t t t t s s s s t t t t ",
"5 5 5 5 < < < < > > > > 3 t t t t 7 7 7 7                           t t t t t 7 7 7 7 a a a a s t t t t t t t t s s s s t t t t ",
"3 5 5 5 < < < < > > > > 3 t t t t 7 7 7 7                           t t t t t 7 7 7 7 7 a a a s t t t t t t t t s s s s t t t t ",
"i i i 1 < < < < @ @ @ @   7 7 7 7 a a a a 5 t t t f f f 5 5 t t t 5 t t t t t t t t t t t t t 2 g g g h s s s s s s s s t t t t ",
"i i i 1 < < < < @ @ @ @   7 7 7 7 a a a a t t t t f f 5 5 5 t t t t t t t t t t t t t t t t t j g g g j s s s s s s s s t t t t ",
"i i i 1 < < < < @ @ @ @   7 7 7 7 a a a 7 t t t t f 5 5 5 5 t t t t t t t t t t t t t t t t t t j 2 2 t s s s s s s s s t t t t ",
"i i i 1 < < < < @ @ @ @   7 7 7 7 a a 7 7 t t t t 5 5 5 5 5 t t t t t t t t t t t t t t t t t t t t t t s s s s s s s s t t t t ",
"k k k k l l l l < < < < 5 t t t 7 a 7 7 7 t t t t 5 5 5 5 5 f f f f f f f f 5 5 f f f f 5 5 5 t t 5 5 5 t t t t t t t t 5 f f f ",
"z z z x c c c c & & & & 5 t t t s a 7 7 7 t t t t 5 5 5 5 5 y y f f v y f f f f f f f 5 < < < t t t 5 5 5 5 5 5 t t t t f y f f ",
"z z z x c c c c & & & & 5 t t t s a 7 7 7 t t t t 5 5 5 5 5 y f f f y y f f f 5 f f f 5 < < 5 t t t 5 5 5 5 5 5 t t t t f y f f ",
"b b b b b b b b b b b b b b b b b b b b b b b b b b b b b b b b b b b b b b b b b b b b b b b b b b b b b b b b b b b b b b b b ",
"n n n n n n n n n n n n n n n n n n n n n n n n n n n n n n n n n n n n n n n n n n n n n n n n n n n n n n n n n n n n n n n n ",
"m m m m m m M M M M M M N N N N N N B B B B B B V V V V V V C C C C C C Z Z Z Z Z Z A A A A A A S S S S S S S S S S S S D D D D ",
"F F F F F F F F F F F F F F F F F F F F F F F F F F F F F F F F F F F F F F F F F F F F F F F F F F F F F F F F F F F F F F F F ",
"G G G G G G H H H H H H J J J J J J K K K K K K L L L L L L P P P P P P L L L L L L I I I I I I U U U U U U Y Y Y Y Y Y T T T T ",
"G G G G G G H H H H H H J J J J J J K K K K K K L L L L L L P P P P P P L L L L L L I I I I I I U U U U U U Y Y Y Y Y Y T T T T ",
"G G G G G G H H H H H H J J J J J J K K K K K K L L L L L L P P P P P P L L L L L L I I I I I I U U U U U U Y Y Y Y Y Y T T T T ",
"G G G G G G H H H H H H J J J J J J K K K K K K L L L L L L P P P P P P L L L L L L I I I I I I U U U U U U Y Y Y Y Y Y T T T T ",
"G G G G G G H H H H H H J J J J J J K K K K K K L L L L L L P P P P P P L L L L L L I I I I I I U U U U U U Y Y Y Y Y Y T T T T ",
"F F F F F F F F F F F F F F F F F F F F F F F F F F F F F F F F F F F F F F F F F F F F F F F F F F F F F F F F F F F F F F F F ",
"R R R R R R E E E E E E W W W W W W Q Q Q Q Q Q ! ! ! ! ! ! ~ ~ ~ ~ ~ ~ ^ ^ ^ ^ ^ ^ / / / / / / ( ( ( ( ( ( ^ ^ ^ ^ ^ ^ ) ) ) ) ",
"R R R R R R E E E E E E W W W W W W Q Q Q Q Q Q ! ! ! ! ! ! ~ ~ ~ ~ ~ ~ ^ ^ ^ ^ ^ ^ / / / / / / ( ( ( ( ( ( ^ ^ ^ ^ ^ ^ ) ) ) ) ",
"R R R R R R E E E E E E W W W W W W Q Q Q Q Q Q ! ! ! ! ! ! ~ ~ ~ ~ ~ ~ ^ ^ ^ ^ ^ ^ / / / / / / ( ( ( ( ( ( ^ ^ ^ ^ ^ ^ ) ) ) ) ",
"R R R R R R E E E E E E W W W W W W Q Q Q Q Q Q ! ! ! ! ! ! ~ ~ ~ ~ ~ ~ ^ ^ ^ ^ ^ ^ / / / / / / ( ( ( ( ( ( ^ ^ ^ ^ ^ ^ ) ) ) ) ",
"R R R R R R E E E E E E W W W W W W Q Q Q Q Q Q ! ! ! ! ! ! ~ ~ ~ ~ ~ ~ ^ ^ ^ ^ ^ ^ / / / / / / ( ( ( ( ( ( ^ ^ ^ ^ ^ ^ ) ) ) ) ",
"F F F F F F F F F F F F F F F F F F F F F F F F F F F F F F F F F F F F F F F F F F F F F F F F F F F F F F F F F F F F F F F F ",
"W W W W W W _ _ _ _ _ _ ` ` ` ` ` ` ) ) ) ) ) ) ' ' ' ' ' ' ] ] ] ] ] ] ) ) ) ) ) ) [ [ [ [ [ [ H H H H H H { { { { { { } } } } ",
"W W W W W W _ _ _ _ _ _ ` ` ` ` ` ` ) ) ) ) ) ) ' ' ' ' ' ' ] ] ] ] ] ] ) ) ) ) ) ) [ [ [ [ [ [ H H H H H H { { { { { { } } } } ",
"W W W W W W _ _ _ _ _ _ ` ` ` ` ` ` ) ) ) ) ) ) ' ' ' ' ' ' ] ] ] ] ] ] ) ) ) ) ) ) [ [ [ [ [ [ H H H H H H { { { { { { } } } } ",
"W W W W W W _ _ _ _ _ _ ` ` ` ` ` ` ) ) ) ) ) ) ' ' ' ' ' ' ] ] ] ] ] ] ) ) ) ) ) ) [ [ [ [ [ [ H H H H H H { { { { { { } } } } ",
"W W W W W W _ _ _ _ _ _ ` ` ` ` ` ` ) ) ) ) ) ) ' ' ' ' ' ' ] ] ] ] ] ] ) ) ) ) ) ) [ [ [ [ [ [ H H H H H H { { { { { { } } } } ",
"F F F F F F F F F F F F F F F F F F F F F F F F F F F F F F F F F F F F F F F F F F F F F F F F F F F F F F F F F F F F F F F F ",
"| | | | | |  . . . . . .............X.X.X.X.X.X.o.o.o.o.o.o.O.O.O.O.O.O.+.+.+.+.+.+.@.@.@.@.@.@.#.#.#.#.#.#.$.$.$.$.$.$.D D D D ",
"| | | | | |  . . . . . .............X.X.X.X.X.X.o.o.o.o.o.o.O.O.O.O.O.O.+.+.+.+.+.+.@.@.@.@.@.@.#.#.#.#.#.#.$.$.$.$.$.$.D D D D ",
"| | | | | |  . . . . . .............X.X.X.X.X.X.o.o.o.o.o.o.O.O.O.O.O.O.+.+.+.+.+.+.@.@.@.@.@.@.#.#.#.#.#.#.$.$.$.$.$.$.D D D D ",
"| | | | | |  . . . . . .............X.X.X.X.X.X.o.o.o.o.o.o.O.O.O.O.O.O.+.+.+.+.+.+.@.@.@.@.@.@.#.#.#.#.#.#.$.$.$.$.$.$.D D D D ",
"| | | | | |  . . . . . .............X.X.X.X.X.X.o.o.o.o.o.o.O.O.O.O.O.O.+.+.+.+.+.+.@.@.@.@.@.@.#.#.#.#.#.#.$.$.$.$.$.$.D D D D ",
"F F F F F F F F F F F F F F F F F F F F F F F F F F F F F F F F F F F F F F F F F F F F F F F F F F F F F F F F F F F F F F F F ",
"} } } } } } %.%.%.%.%.%.&.&.&.&.&.&.*.*.*.*.*.*.=.=.=.=.=.=.J J J J J J -.-.-.-.-.-.;.;.;.;.;.;.P P P P P P :.:.:.:.:.:.>.>.>.>.",
"} } } } } } %.%.%.%.%.%.&.&.&.&.&.&.*.*.*.*.*.*.=.=.=.=.=.=.J J J J J J -.-.-.-.-.-.;.;.;.;.;.;.P P P P P P :.:.:.:.:.:.>.>.>.>.",
"} } } } } } %.%.%.%.%.%.&.&.&.&.&.&.*.*.*.*.*.*.=.=.=.=.=.=.J J J J J J -.-.-.-.-.-.;.;.;.;.;.;.P P P P P P :.:.:.:.:.:.>.>.>.>.",
"} } } } } } %.%.%.%.%.%.&.&.&.&.&.&.*.*.*.*.*.*.=.=.=.=.=.=.J J J J J J -.-.-.-.-.-.;.;.;.;.;.;.P P P P P P :.:.:.:.:.:.>.>.>.>."
};
