/* XPM */
static const char *d2FsbA__[] = {
/* columns rows colors chars-per-pixel */
"64 64 119 2 ",
"   c #583B2E",
".  c #5B4135",
"X  c #5C453A",
"o  c #5D493E",
"O  c #624B3F",
"+  c #5D4C43",
"@  c #5D5046",
"#  c #5E5249",
"$  c #614D43",
"%  c #645046",
"&  c #63554C",
"*  c #66584F",
"=  c #68594F",
"-  c #645750",
";  c #665C54",
":  c #685E56",
">  c #675F59",
",  c #685F58",
"<  c #755C52",
"1  c #6D6156",
"2  c #676059",
"3  c #6C645B",
"4  c #6A625C",
"5  c #6B625C",
"6  c #6A635C",
"7  c #6A645C",
"8  c #6B645C",
"9  c #6B645D",
"0  c #6B655D",
"q  c #6B665D",
"w  c #6B665E",
"e  c #6C655D",
"r  c #6C655E",
"t  c #6C665E",
"y  c #6C675E",
"u  c #6C675F",
"i  c #6D675F",
"p  c #69615A",
"a  c #6C685F",
"s  c #6D685F",
"d  c #6F695F",
"f  c #766056",
"g  c #706258",
"h  c #706358",
"j  c #71655B",
"k  c #726A5F",
"l  c #6D6860",
"z  c #6E6860",
"x  c #716B62",
"c  c #746B62",
"v  c #716C64",
"b  c #796D61",
"n  c #757067",
"m  c #7B7165",
"M  c #7C7166",
"N  c #7D7267",
"B  c #777168",
"V  c #767269",
"C  c #76726A",
"Z  c #77726A",
"A  c #77736A",
"S  c #77736B",
"D  c #76736A",
"F  c #797269",
"G  c #78746B",
"H  c #7D7468",
"J  c #7E7468",
"K  c #7F7469",
"L  c #7E7569",
"P  c #7F7569",
"I  c #7A756D",
"U  c #79766D",
"Y  c #7A766D",
"T  c #7A766E",
"R  c #7B766E",
"E  c #7A776E",
"W  c #7B776F",
"Q  c #7B776E",
"!  c #7B786F",
"~  c #7E7B73",
"^  c #897167",
"/  c #837569",
"(  c #83756A",
")  c #807A6E",
"_  c #807B71",
"`  c #817B71",
"'  c #817D72",
"]  c #907F77",
"[  c #828075",
"{  c #848276",
"}  c #848277",
"|  c #85837A",
" . c #86837A",
".. c #85847A",
"X. c #86847A",
"o. c #86847B",
"O. c #87857B",
"+. c #87857C",
"@. c #88857C",
"#. c #8A877D",
"$. c #99877F",
"%. c #8B8A81",
"&. c #8C8A82",
"*. c #8C8B82",
"=. c #8D8B83",
"-. c #8D8C83",
";. c #8E8D84",
":. c #8F8D84",
">. c #8F8D85",
",. c #908E85",
"<. c #C1B6B2",
"1. c #CDC4C0",
"2. c #CDC5C0",
"3. c #CEC5C1",
"4. c #D1C9C5",
"5. c #D3CCC8",
"6. c #D9D1CD",
"7. c #DBD5D2",
"8. c #DED8D5",
/* pixels */
"1.1.7.7.5.1.1.1.1.1.1.1.1.1.1.1.1.1.1.1.1.1.1.1.1.1.1.1.1.1.1.1.1.1.1.8.8.4.1.1.1.1.1.1.1.1.1.1.1.1.1.1.1.1.1.1.1.1.1.1.1.1.1.1.",
"L L ( ( L L L L L L L L L L L L L L L L L L L L L L L L L L L L L L L ( ( L L L L L L L L L L L L L L L L L L L L L L L L L L L ",
"{ { m m ) { { { { { { { { { { { { { { { { { { { { { { { { { { { { { { b b ' { { { { { { { { { { { { { { { { { { { { { { { { { [ ",
"O.@.M M ` +.@.@.+.O.O.O. . . .O.O.O.O. .O.O.%.%.%.%.%.%.%.%.&.-.-.,.;.M M @.;.;.;.-.&.&.&.&.&.&.&.&.&.&.%.%.%.%.%.%.%.%.%.%.%.` ",
"O.@.M M ` +.@.@.+.O.O.O. . . .O.O.O.O. .O.O.%.%.%.%.%.%.%.%.&.-.-.,.;.M M @.;.;.;.-.&.&.&.&.&.&.&.&.&.&.%.%.%.%.%.%.%.%.%.%.%.` ",
"S G h h c S S S S S S S S S S S S S S S S S I I I I I I I I I I I ! I h h F I I I I I I I I I I I I I I I I I I I I I I I I I S ",
"a a ; ; p l a a a a a a a y y y y y y a l l l l l l l l a a a a a a y * * 3 a a a a a a a y y y y y l l l l l l l l l l a a a x ",
"a a ; ; p l a a a a a a a y y y y y y a l l l l l l l l a a a a a a y * * 3 a a a a a a a y y y y y l l l l l l l l l l a a a x ",
"a y = = p a y y y a a a y y y y y y y y l l l l l l l a a a a a a a y * * 7 a y y y a a y y y y y y y y l l l l l l l a a a a l ",
"y y = = 1 y y y y y y y y y y y y y y y y y y y y y y y y y y y y y y * * p y y y y y y y y y y y y y y y y y y y y y y y y y y ",
"y y * * : y y y y y y 0 0 0 0 0 0 0 0 0 y y y y y y 0 0 0 0 y y y y y & & p y y y y y y 0 0 0 0 0 0 0 0 0 y y y y y y y y y y y ",
"y y * * : y y y y y y 0 0 0 0 0 0 0 0 0 y y y y y y 0 0 0 0 y y y y y & & p y y y y y y 0 0 0 0 0 0 0 0 0 y y y y y y y y y y y ",
"0 0 & & : 0 7 0 0 0 0 0 0 0 0 0 0 0 0 0 0 0 0 0 0 0 p , p p 0 0 0 0 7 % % p 0 0 6 0 0 0 0 0 0 0 0 0 0 0 0 0 0 0 0 0 0 0 0 0 0 0 ",
"0 0 % % ; 6 6 6 6 6 6 0 0 0 0 0 0 0 0 0 0 0 0 0 0 0 0 0 p p , p p 0 7 $ $ : 6 6 6 6 6 6 0 0 0 0 0 0 0 0 0 0 0 0 0 0 0 0 0 0 0 0 ",
"p p $ $ ; p p p p p p p p p p p p p p p p p p p p p p p p p , - - - & $ $ , p p p p p p p p p p p p p p p p p p p p p p p p p p ",
"p p $ $ ; p p p p p p p p p p p p p p p p p p p p p p p p p , - - - & $ $ , p p p p p p p p p p p p p p p p p p p p p p p p p p ",
"p & X X $ ; p p p p p p p p p p p p p p p p p p p p p , & & o X X . . X X = p p p p p p p p p p p p p p p p p p p p p p p p p p ",
"% o X X o $ % % % $ $ + % % % % % % % % % % % % % % $ + o o X X X . . o o $ $ % % $ $ $ % % % % + $ O O $ $ $ $ o O O O $ $ $ $ ",
"% o X X o $ % % % $ $ + % % % % % % % % % % % % % % $ + o o X X X . . o o $ $ % % $ $ $ % % % % + $ O O $ $ $ $ + + O O $ $ $ $ ",
"o + + + + o o o o o o . o o o o o o o o o o o o o o o o + + + + + + + + + + o o o X X . o o o o X X X X X X X X X X X X X X X X ",
"# # # # # # # # # + + X # # # # # # # # # # # # # # # # # # # # # # # # # # # # # + o o # # # # # # # # # # # # # # # # # # # # ",
"# # # # # # # # # @ @ o # # # # # # # # # # # # # # # # # # # # # # # # # # # # # + o o # # # # # # # # # # # # # # # # # # # # ",
"# # # # # # # # # @ @ X # # # # # # # # # # # # # # # # # # # # # # # # # # # # # + o o # # # # # # # # # # # # # # # # # # # # ",
"# # # # # # # # # @ @ X # # # # # # # # # # # # # # # # # # # # # # # # # # # # # + o o # # # # # # # # # # # # # # # # # # # # ",
"& & & & & & & & & & & o & & & & & & & & & & & & & & & & & & & & & & & & & & & & & @ + + & & & & & & & & & & & & & & & & & & & & ",
"> > > > > > > > > , , $ , , > > > > > > > > > > > > > > > > > > > > > > > > > > > & & & > , , > > > > > > > > > , , , , > > > > ",
"> > > > > > > > > , , $ , , > > > > > > > > > > > > > > > > > > > > > > > > > > > * & & > > > > > > > > > > > > , , , , > > > > ",
"p p p p p : ; ; ; * * & ; , , p p p p p p p p p ; ; * ; ; ; ; ; ; ; ; ; ; ; & % % $ O O $ ; ; ; ; ; ; ; ; ; ; ; = & & ; - ; ; ; ",
"6 6 6 6 6 p p p , : : : , 6 6 6 6 6 6 6 p p p 6 ; ; ; , , , , , , , , , , , ; ; ; = * * ; , , , , , , , , : : : , & & ; , , , , ",
"6 6 6 6 6 p p p , : : : , 6 6 6 6 6 6 6 p p p 6 ; ; ; , , , , , , , , , , , ; ; ; = * * ; , , , , , , , , : : : , & & , , , , , ",
"6 6 6 6 6 6 6 6 6 6 6 6 6 6 6 6 6 6 6 6 p p p p ; ; ; p p p p p p p p p p p p p p p p p p p p p p p p p p p p p p & & p p p p p ",
"p p p p p p p p p p p p p p p p p p p p p p p p ; ; ; > p p p p p p p p p p p p p p p p p p p p p p p p p p p p > & & > p p p p ",
"p p p p p p p p p p p p p p p p p p p p p p p p ; = ; , p p p p p p p p p p p p p p p p p p p p p p p p p p p p > & & , p p p p ",
"p p p p p p p p p p p p p p p p p p p p p p p p ; ; ; , p p p p p p p p p p p p p p p p p p p p p p p p p p p p , & & , p p p p ",
"p p p p p p p p p p p p p p p p p p p , p p p p & & * , p , p p p p p p p p p p p p p p p p p p p p , , p p p p , $ $ , , p > > ",
", , , , , , , , ; ; ; , ; , , , , , , , ; ; ; ; + + $ * , , , , , , , , , , , ; ; ; , , ; ; , , , , , , , ; ; ; & X X * ; ; ; ; ",
"p p p p , , ; ; = = = & = ; ; ; , ; , ; * * & & $ $ $ & ; ; , ; , , ; , , , ; ; ; * * * ; ; , , , , ; ; ; * * & $ $ $ % * & % + ",
"p p p p , , ; ; = = * & = ; ; ; , ; , ; * * & & $ $ $ & ; ; , , , , ; , , , ; ; ; * * * ; ; , , , , ; ; ; * * & $ $ $ % * & % + ",
"p p > > > > > , , ; ; & , , , , > > , , , , , , ; ; ; , , , > > > , , , > > > , , ; * * , , , , , , , , , , , , ; ; ; ; , & & $ ",
"> > > > > > > > > , , & > > > > > > > > > > > > > > > > > > > > > > > > > > > > > ; - - , > > > > > > > > > > > > > > > > , , * ",
"> > > > > > > > > , , & > > > > > > > > > > > > > > > > > > > > > > > > > > > > > ; ; ; > > > > > > > > > > > > > > > > > ; ; * ",
"> > > > > > > > > , , - > > > > > > > > > > > > > > > > > > > > > > > > > > > > > ; ; ; > > > > > > > > > > > > > > > > > > > ; ",
"> > > > > > > > > , , & > > > > > > > > > > > > > > > > > > > > > > > > > > > > > ; * * > > > > > > > > > > > > > > > > > > > p ",
", , , , , , ; ; ; & & + ; , , , , , , , , , , , , ; , , , , , , , , , , , , , ; ; & $ $ ; ; , , , , , , , , , ; ; ; ; ; ; ; , , ",
", , , , , , ; ; ; * * $ ; , , , , , , , , , , ; , , , , , , , , , , , , , , , ; ; & $ $ ; , , , , , , , , , , ; ; ; ; ; , , , , ",
"; ; ; ; - - & & $ $ $ X $ & & ; - - ; ; ; ; - & & & & ; ; ; ; ; ; ; ; ; ; ; & % % O o o $ & ; ; ; * ; ; ; ; ; & & $ $ % & ; ; ; ",
", , , , , , , , ; ; ; ; ; : : : : , , , p p , , & * ; , : : : : , , , , , , , ; ; ; ; ; ; : : : , , : p p : , , ; X X $ ; , , , ",
"> > > > > > > > > , > > > > > > > > > > > > > > & * & ; > > > > > > > > > > > > > > > > > > > > > > > > > > > > , $ $ , > > > > ",
"> > > > > > > > > > > > > > > > > > > > > > > > * * & ; > > > > > > > > > > > > > > > > > > > > > > > > > > > > , $ $ , > > > > ",
"> > > > > > > > > > > > > > > > > > > > > > > > & & $ & , , > ; ; & ; > > > > > > > > > > > > > > > > > > > > > , & & , > > > > ",
"> > > > > > > > > > , , > > > > > > > > > > > > & & $ % & & & * & ; > > > > > > > > , , > > > > > > > > > > > > , & & , > > > > ",
"> > > > > > > > > > > , > > > > > > > > > > > > * * $ % & & & * * = > > > > > > > > > , > > > > > > > > > > > > , & & , > > > > ",
", , > > > > > > , , , , > > > > , , > > > > > > & & $ $ + + $ * * : > > > > > > , , , , > > > > , , > > > > > > , $ $ , > > > > ",
"% % * * & % % % % % % % % % % % % % % % % % % % O O O o X X X O O % % * * & % % % % % % % % % % % % % % % % % % $ . . $ % % % % ",
"% $ $ $ $ % % % % % % % % % % % % % % % % % % % $ $ $ $ $ $ O $ O % % & & % % % % % % % % % % % % % % % % % % % % O O % % % % % ",
"% $ $ $ $ % % % % % % % % % % % % % % % % % % % $ $ $ $ $ $ O $ O % % & & % % % % % % % % % % % % % % % % % % % % O O % % % % % ",
"S k O O 1 S S S S S S S S S S S S S S S S S S S S S S S S S S S S S S 1 1 v S S S S S S S S S S S S S S S S S S S S S S S S S S ",
"a & . . 1 D D D D D D D D D D D D D D D D D D D D D D D D D D D D D S j j n D D D D D D D D D D D D D D D D D D D D D D D D D D ",
"& % . . j ~ ~ ~ ~ ~ ~ ~ ~ ~ ~ ~ ~ ~ ~ ~ ~ ~ ~ ~ ~ ~ ~ ~ ~ ~ ~ ~ ~ ~ ~ k k I ~ ~ ~ ~ ~ ~ ~ ~ ~ ~ ~ ~ ~ ~ ~ ~ ~ ~ ~ ~ ~ ~ ~ ~ ~ ~ ",
"& % . . j ~ ~ ~ ~ ~ ~ ~ ~ ~ ~ ~ ~ ~ ~ ~ ~ ~ ~ ~ ~ ~ ~ ~ ~ ~ ~ ~ ~ ~ ~ k k I ~ ~ ~ ~ ~ ~ ~ ~ ~ ~ ~ ~ ~ ~ ~ ~ ~ ~ ~ ~ ~ ~ ~ ~ ~ ~ ",
"& o     & 0 y y x v v v v v v v v v v v v v v v v v v v v v v v v v x 1 1 x v v v v v v v v v v v v v v v v v v v v v v v v v v ",
"o $ ^ ^ f ; p p p p p p p p p p p p p p p p p p p p p p p p p p p p p & & : p p p p p p p p p p p p p p p p p p p p p p p p p p ",
"o $ ^ ^ f ; p p p p p p p p p p p p p p p p p p p p p p p p p p p p p & & : p p p p p p p p p p p p p p p p p p p p p p p p p p ",
"$.<.6.6.<.] f f f f f f f f f f f f f f f f f f f f f f f f f f f f f < < < f f f f f f f f f f f f f f f f f f f f f f f f f f "
};
